<?xml version="1.0" encoding="UTF-8" standalone="no" ?>
<!DOCTYPE svg PUBLIC "-//W3C//DTD SVG 1.1//EN" "http://www.w3.org/Graphics/SVG/1.1/DTD/svg11.dtd">
<svg xmlns="http://www.w3.org/2000/svg" xmlns:xlink="http://www.w3.org/1999/xlink" version="1.1" width="500" height="500" viewBox="0 0 500 500" xml:space="preserve">
<desc>Created with Fabric.js 5.3.0</desc>
<defs>
</defs>
<g transform="matrix(0.6996062974 0 0 0.6996062974 250 317.6562553303)" id="AR2Iypb_vcjiJdlNV6i0q"  >
<g style="" vector-effect="non-scaling-stroke"   >
		<g transform="matrix(1.3333333333 0 0 1.3333333333 -249.8466666667 -351.794)" id="7emWCwyehSyZIPiZaX16p"  >
<path style="stroke: none; stroke-width: 1; stroke-dasharray: none; stroke-linecap: butt; stroke-dashoffset: 0; stroke-linejoin: miter; stroke-miterlimit: 4; fill: rgb(0,0,0); fill-rule: nonzero; opacity: 1;" vector-effect="non-scaling-stroke"  transform=" translate(-162.615, -86.1545)" d="M 220.77 140 L 104.46000000000001 140 L 104.46000000000001 118.461 L 199.23000000000002 118.461 L 199.23000000000002 32.309 L 220.769 32.309 z" stroke-linecap="round" />
</g>
		<g transform="matrix(1.3333333333 0 0 1.3333333333 -86.154 -93.3353333333)" id="u4mVtxTjdXQCKmMLX49_a"  >
<path style="stroke: none; stroke-width: 1; stroke-dasharray: none; stroke-linecap: butt; stroke-dashoffset: 0; stroke-linejoin: miter; stroke-miterlimit: 4; fill: rgb(0,0,0); fill-rule: nonzero; opacity: 1;" vector-effect="non-scaling-stroke"  transform=" translate(-285.3845, -279.9985)" d="M 424.31 538.46 L 91.54000000000002 538.46 L 91.54000000000002 124.92000000000002 L 138.92300000000003 69.99800000000002 L 183.07900000000004 21.53700000000002 L 479.22900000000004 21.53700000000002 L 479.22900000000004 220.767 L 466.307 218.6147 C 456.61560000000003 216.4585 445.846 215.3803 436.151 215.3803 C 353.22900000000004 215.3803 285.381 283.2283 285.381 366.1503 C 285.381 445.84130000000005 346.76399999999995 511.5303 426.461 516.9203 z M 113.07999999999998 516.921 L 352.15999999999997 516.921 C 299.39 486.76900000000006 263.851 430.76900000000006 263.851 366.15100000000007 C 263.851 271.3810000000001 341.39 193.84100000000007 436.161 193.84100000000007 C 443.7001 193.84100000000007 450.161 193.84100000000007 457.7 194.91910000000007 L 457.696094 43.07910000000007 L 192.776094 43.07910000000007 L 155.085094 84.00110000000006 L 113.085094 133.54010000000005 z" stroke-linecap="round" />
</g>
		<g transform="matrix(1.3333333333 0 0 1.3333333333 114.154 21.534)" id="7pHjQN8X2vewOMNDjXGSS"  >
<path style="stroke: none; stroke-width: 1; stroke-dasharray: none; stroke-linecap: butt; stroke-dashoffset: 0; stroke-linejoin: miter; stroke-miterlimit: 4; fill: rgb(0,0,0); fill-rule: nonzero; opacity: 1;" vector-effect="non-scaling-stroke"  transform=" translate(-435.6155, -366.1505)" d="M 424.31 538.46 C 333.849 531.9991 262.77 456.612 262.77 366.15000000000003 C 262.77 271.38000000000005 340.30899999999997 193.84000000000003 435.08 193.84000000000003 C 446.928 193.84000000000003 457.697 194.91810000000004 469.541 197.07050000000004 C 550.311 213.22650000000004 608.461 284.3045 608.461 366.1505000000001 C 608.461 447.9985000000001 550.309 519.0705 470.611 535.2305000000001 C 463.07189999999997 536.3086000000001 455.533 537.3828000000001 447.99399999999997 538.4610000000001 z M 436.154 215.38000000000005 C 353.23199999999997 215.38000000000005 285.384 283.22800000000007 285.384 366.1500000000001 C 285.384 445.8410000000001 346.767 511.5300000000001 426.46400000000006 516.9200000000001 L 448.00300000000004 516.9200000000001 C 453.3858 516.9200000000001 460.92500000000007 515.8419000000001 467.386 514.7677000000001 C 536.312 499.68970000000013 586.926 438.3067000000001 586.926 366.1477000000001 C 586.926 295.0697000000001 536.3090000000001 232.6077000000001 466.30600000000004 217.5277000000001 C 456.61850000000004 216.4535000000001 445.84900000000005 215.3754000000001 436.15400000000005 215.3754000000001 z" stroke-linecap="round" />
</g>
		<g transform="matrix(1.3333333333 0 0 1.3333333333 114.156 20.8168)" id="JHki5UyrwAiaVaYbiHjoT"  >
<path style="stroke: none; stroke-width: 1; stroke-dasharray: none; stroke-linecap: butt; stroke-dashoffset: 0; stroke-linejoin: miter; stroke-miterlimit: 4; fill: rgb(0,0,0); fill-rule: nonzero; opacity: 1;" vector-effect="non-scaling-stroke"  transform=" translate(-435.617, -365.6126)" d="M 465.23 488.92 L 408.15200000000004 488.92 L 408.15200000000004 456.611 C 402.76920000000007 454.45869999999996 397.38200000000006 452.3024 393.07400000000007 450.1501 L 369.3830000000001 473.8451 L 328.4610000000001 432.9191 L 351.07800000000015 410.3021 C 348.9257000000001 404.9193 346.76940000000013 400.6107 344.61710000000016 395.2241 L 312.3081000000002 395.2241 L 312.3081000000002 338.14610000000005 L 344.61710000000016 338.14610000000005 C 346.7694000000002 332.7633000000001 348.9257000000002 327.37610000000006 351.07800000000015 323.0681000000001 L 328.4610000000001 299.3801000000001 L 369.38300000000015 258.45810000000006 L 392.00000000000017 281.0751000000001 C 397.38280000000015 278.92280000000005 401.69140000000016 276.76650000000006 407.07800000000015 274.6142000000001 L 407.07800000000015 242.3052000000001 L 464.1560000000002 242.3052000000001 L 464.1560000000002 274.6142000000001 C 469.53880000000015 276.7665000000001 474.92600000000016 278.9228000000001 479.23400000000015 281.0751000000001 L 501.85100000000017 258.45810000000006 L 542.7730000000001 299.3801000000001 L 520.1560000000002 321.9971000000001 C 522.3083000000001 327.3799000000001 524.4646000000001 331.6885000000001 526.6169000000002 337.0751000000001 L 558.9259000000002 337.0751000000001 L 558.9259000000002 394.1531000000001 L 526.6169000000002 394.1531000000001 C 524.4646000000002 399.5359000000001 522.3083000000003 404.9231000000001 520.1560000000002 409.2311000000001 L 542.7730000000001 431.8481000000001 L 502.92100000000016 473.8441000000001 L 480.30400000000014 451.22710000000006 C 474.92120000000017 453.3794000000001 470.61260000000016 455.5357000000001 465.22600000000017 457.68800000000005 z M 428.617 467.38100000000003 L 442.617 467.38100000000003 L 442.617 440.459 L 451.23420000000004 438.3067 C 459.85140000000007 436.15439999999995 468.46420000000006 432.9239 476.0042 428.6153 L 483.54330000000004 424.3067 L 502.9263 443.68969999999996 L 513.6963000000001 432.9197 L 494.3133000000001 413.5367 L 498.6219000000001 405.9976 C 504.00470000000007 398.45849999999996 507.2391000000001 389.8456 508.3133000000001 381.2276 L 510.4656000000001 372.61039999999997 L 537.3876000000001 372.61039999999997 L 537.3876000000001 358.61039999999997 L 510.4656000000001 358.61039999999997 L 508.3133000000001 349.99319999999994 C 506.16100000000006 341.3759999999999 502.9305000000001 332.7631999999999 498.6219000000001 325.22319999999996 L 494.3133000000001 317.68409999999994 L 513.6963000000001 298.30109999999996 L 502.9263000000001 287.5311 L 483.5433000000001 306.91409999999996 L 476.0042000000001 302.60549999999995 C 468.46510000000006 297.2227 459.8522000000001 293.9882999999999 451.2342000000001 292.91409999999996 L 442.6170000000001 290.76179999999994 L 442.6170000000001 263.8397999999999 L 428.6170000000001 263.8397999999999 L 428.6170000000001 290.76179999999994 L 419.99980000000005 292.91409999999996 C 411.3826 295.0664 402.76980000000003 298.29689999999994 395.22980000000007 302.60549999999995 L 387.69070000000005 306.91409999999996 L 368.30770000000007 287.5311 L 357.5377000000001 298.30109999999996 L 376.92070000000007 317.68409999999994 L 372.61210000000005 325.22319999999996 C 367.2293000000001 332.7623 363.99490000000003 341.37519999999995 362.92070000000007 349.99319999999994 L 360.76840000000004 358.61039999999997 L 333.8464 358.61039999999997 L 333.8464 372.61039999999997 L 360.76840000000004 372.61039999999997 L 362.92070000000007 381.2276 C 365.0730000000001 389.8448 368.30350000000004 398.4576 372.61210000000005 405.9976 L 376.92070000000007 413.5367 L 357.5377000000001 432.9197 L 368.30770000000007 443.68969999999996 L 387.69070000000005 424.3067 L 395.22980000000007 428.6153 C 402.7689000000001 433.99809999999997 411.38180000000006 437.2325 419.99980000000005 438.3067 L 428.6170000000001 440.459 z" stroke-linecap="round" />
</g>
		<g transform="matrix(1.3333333333 0 0 1.3333333333 114.8666670394 22.9706666667)" id="pdMV3hSwn7K6MIEAUhfvq"  >
<path style="stroke: none; stroke-width: 1; stroke-dasharray: none; stroke-linecap: butt; stroke-dashoffset: 0; stroke-linejoin: miter; stroke-miterlimit: 4; fill: rgb(0,0,0); fill-rule: nonzero; opacity: 1;" vector-effect="non-scaling-stroke"  transform=" translate(-436.1500002796, -367.228)" d="M 436.15 411.38 C 412.459 411.38 391.998 391.997 391.998 367.228 C 391.998 342.459 411.381 323.076 436.15 323.076 C 459.84099999999995 323.076 480.30199999999996 342.459 480.30199999999996 367.228 C 480.30590599999994 391.998 459.84499999999997 411.38 436.15 411.38 z M 436.15 345.68899999999996 C 424.30199999999996 345.68899999999996 413.53299999999996 355.38039999999995 413.53299999999996 368.306 C 413.53299999999996 381.228 423.22439999999995 390.923 436.15 390.923 C 447.998 390.923 458.767 381.2316 458.767 368.306 C 458.767 355.38 447.997 345.68899999999996 436.15 345.68899999999996 z" stroke-linecap="round" />
</g>
		<g transform="matrix(1.3333333333 0 0 1.3333333333 -136.4133333333 -222.5606666667)" id="ehHBWgyxBiHszOci2Tu0i"  >
<path style="stroke: none; stroke-width: 1; stroke-dasharray: none; stroke-linecap: butt; stroke-dashoffset: 0; stroke-linejoin: miter; stroke-miterlimit: 4; fill: rgb(0,0,0); fill-rule: nonzero; opacity: 1;" vector-effect="non-scaling-stroke"  transform=" translate(-247.69, -183.0795)" d="M 145.38 172.31 L 350 172.31 L 350 193.849 L 145.38 193.849 z" stroke-linecap="round" />
</g>
		<g transform="matrix(1.3333333333 0 0 1.3333333333 -186.6733333333 -136.414)" id="fJBMe71XNnlC8q6TNAMPL"  >
<path style="stroke: none; stroke-width: 1; stroke-dasharray: none; stroke-linecap: butt; stroke-dashoffset: 0; stroke-linejoin: miter; stroke-miterlimit: 4; fill: rgb(0,0,0); fill-rule: nonzero; opacity: 1;" vector-effect="non-scaling-stroke"  transform=" translate(-209.995, -247.6895)" d="M 145.38 236.92 L 274.61 236.92 L 274.61 258.459 L 145.38000000000002 258.459 z" stroke-linecap="round" />
</g>
		<g transform="matrix(1.3333333333 0 0 1.3333333333 -201.0333333333 -50.254)" id="PMPNF6vHQEhJ3cs0cR0_T"  >
<path style="stroke: none; stroke-width: 1; stroke-dasharray: none; stroke-linecap: butt; stroke-dashoffset: 0; stroke-linejoin: miter; stroke-miterlimit: 4; fill: rgb(0,0,0); fill-rule: nonzero; opacity: 1;" vector-effect="non-scaling-stroke"  transform=" translate(-199.225, -312.3095)" d="M 145.38 301.54 L 253.07 301.54 L 253.07 323.079 L 145.38 323.079 z" stroke-linecap="round" />
</g>
		<g transform="matrix(1.3333333333 0 0 1.3333333333 -208.212 35.8926666667)" id="FneYOinvge_zGhgeeiRSa"  >
<path style="stroke: none; stroke-width: 1; stroke-dasharray: none; stroke-linecap: butt; stroke-dashoffset: 0; stroke-linejoin: miter; stroke-miterlimit: 4; fill: rgb(0,0,0); fill-rule: nonzero; opacity: 1;" vector-effect="non-scaling-stroke"  transform=" translate(-193.841, -376.9195)" d="M 145.38 366.15 L 242.302 366.15 L 242.302 387.68899999999996 L 145.38 387.68899999999996 z" stroke-linecap="round" />
</g>
		<g transform="matrix(1.3333333333 0 0 1.3333333333 -193.8533333333 122.0526666667)" id="QwOs_WeXXebwD2Z1RfUox"  >
<path style="stroke: none; stroke-width: 1; stroke-dasharray: none; stroke-linecap: butt; stroke-dashoffset: 0; stroke-linejoin: miter; stroke-miterlimit: 4; fill: rgb(0,0,0); fill-rule: nonzero; opacity: 1;" vector-effect="non-scaling-stroke"  transform=" translate(-204.61, -441.5395)" d="M 145.38 430.77 L 263.84 430.77 L 263.84 452.30899999999997 L 145.38 452.30899999999997 z" stroke-linecap="round" />
</g>
		<g transform="matrix(1.3333333333 0 0 1.3333333333 -347.4898666667 469.2497893333)" id="Uvl2IeEx-aqdXKLk--fAa"  >
<path style="stroke: none; stroke-width: 1; stroke-dasharray: none; stroke-linecap: butt; stroke-dashoffset: 0; stroke-linejoin: miter; stroke-miterlimit: 4; fill: rgb(0,0,0); fill-rule: nonzero; opacity: 1;" vector-effect="non-scaling-stroke"  transform=" translate(-19.3826, 19.60172)" d="M 36.078 -2.1562 C 34.210800000000006 -1.1874500000000001 32.269400000000005 -0.4570000000000001 30.249900000000004 0.031299999999999883 C 28.238200000000003 0.5195799999999999 26.140500000000003 0.7656799999999999 23.953000000000003 0.7656799999999999 C 17.410000000000004 0.7656799999999999 12.226000000000003 -1.0624200000000001 8.406000000000002 -4.71872 C 4.593500000000002 -8.37492 2.6872000000000025 -13.33202 2.6872000000000025 -19.59372 C 2.6872000000000025 -25.863220000000002 4.593400000000003 -30.82772 8.406000000000002 -34.48472 C 12.226300000000002 -38.14092 17.4099 -39.969120000000004 23.953000000000003 -39.969120000000004 C 26.140500000000003 -39.969120000000004 28.238200000000003 -39.719120000000004 30.249900000000004 -39.219120000000004 C 32.269400000000005 -38.72693 34.210800000000006 -38.00432000000001 36.078 -37.04722 L 36.078 -28.922220000000003 C 34.203 -30.20342 32.351400000000005 -31.141020000000005 30.531100000000002 -31.734720000000003 C 28.7069 -32.32847 26.785000000000004 -32.62534 24.765500000000003 -32.62534 C 21.148300000000003 -32.62534 18.304600000000004 -31.469140000000003 16.234300000000005 -29.15654 C 14.171800000000005 -26.84404 13.140500000000005 -23.65654 13.140500000000005 -19.59404 C 13.140500000000005 -15.53934 14.171700000000005 -12.359639999999999 16.234300000000005 -10.047139999999999 C 18.304600000000004 -7.734639999999999 21.148400000000006 -6.578339999999999 24.765500000000003 -6.578339999999999 C 26.785000000000004 -6.578339999999999 28.706900000000005 -6.875219999999999 30.531100000000002 -7.468959999999999 C 32.351400000000005 -8.06271 34.203 -9.00016 36.078 -10.28146 z" stroke-linecap="round" />
</g>
		<g transform="matrix(1.3333333333 0 0 1.3333333333 -300.0411666667 475.2805093333)" id="c4Jv2iZ75JKZo_lEv36O7"  >
<path style="stroke: none; stroke-width: 1; stroke-dasharray: none; stroke-linecap: butt; stroke-dashoffset: 0; stroke-linejoin: miter; stroke-miterlimit: 4; fill: rgb(0,0,0); fill-rule: nonzero; opacity: 1;" vector-effect="non-scaling-stroke"  transform=" translate(-15.4535, 15.07868)" d="M 26.391 -21.422 C 25.566779999999998 -21.80481 24.7504 -22.093880000000002 23.9379 -22.281380000000002 C 23.1254 -22.468880000000002 22.3051 -22.562630000000002 21.4848 -22.562630000000002 C 19.0551 -22.562630000000002 17.1918 -21.785290000000003 15.891 -20.234530000000003 C 14.5863 -18.679830000000003 13.937899999999999 -16.457230000000003 13.937899999999999 -13.562630000000002 L 13.937899999999999 -0.000630000000002795 L 4.515999999999998 -0.000630000000002795 L 4.515999999999998 -29.453630000000004 L 13.937899999999999 -29.453630000000004 L 13.937899999999999 -24.609830000000002 C 15.1449 -26.53563 16.5317 -27.941830000000003 18.094099999999997 -28.828630000000004 C 19.664399999999997 -29.711440000000003 21.547199999999997 -30.156730000000003 23.734699999999997 -30.156730000000003 C 24.055009999999996 -30.156730000000003 24.398759999999996 -30.141105000000003 24.765899999999995 -30.109855000000003 C 25.129179999999995 -30.086418000000002 25.664339999999996 -30.035636000000004 26.375299999999996 -29.953605000000003 z" stroke-linecap="round" />
</g>
		<g transform="matrix(1.3333333333 0 0 1.3333333333 -261.0838506667 475.7916826667)" id="jZaysQGWSevVEuxBIKFkq"  >
<path style="stroke: none; stroke-width: 1; stroke-dasharray: none; stroke-linecap: butt; stroke-dashoffset: 0; stroke-linejoin: miter; stroke-miterlimit: 4; fill: rgb(0,0,0); fill-rule: nonzero; opacity: 1;" vector-effect="non-scaling-stroke"  transform=" translate(-18.1168, 14.6953)" d="M 33.922 -14.797 L 33.922 -12.1251 L 11.905999999999999 -12.1251 C 12.132559999999998 -9.9142 12.9294 -8.2579 14.296599999999998 -7.1563 C 15.671599999999998 -6.0508 17.581799999999998 -5.5001 20.031 -5.5001 C 22.0076 -5.5001 24.0349 -5.78916 26.109099999999998 -6.3751 C 28.1911 -6.957129999999999 30.3279 -7.847799999999999 32.515299999999996 -9.047 L 32.515299999999996 -1.7814000000000005 C 30.296499999999995 -0.9454600000000005 28.069999999999997 -0.31660000000000044 25.843399999999995 0.10919999999999952 C 23.612899999999996 0.5466999999999995 21.390299999999996 0.7654499999999995 19.171499999999995 0.7654499999999995 C 13.835599999999996 0.7654499999999995 9.690999999999995 -0.5861500000000004 6.733499999999994 -3.2970500000000005 C 3.7842999999999942 -6.00405 2.311599999999994 -9.80485 2.311599999999994 -14.703050000000001 C 2.311599999999994 -19.50385 3.756899999999994 -23.28115 6.655399999999994 -26.03105 C 9.561599999999995 -28.78105 13.553799999999994 -30.15605 18.639399999999995 -30.15605 C 23.264399999999995 -30.15605 26.967499999999994 -28.75765 29.748399999999997 -25.96855 C 32.529599999999995 -23.187350000000002 33.9203 -19.46075 33.9203 -14.79655 z M 24.234499999999997 -17.9376 C 24.234499999999997 -19.718799999999998 23.711059999999996 -21.156399999999998 22.671999999999997 -22.2501 C 21.628999999999998 -23.3439 20.269699999999997 -23.8907 18.593899999999998 -23.8907 C 16.769699999999997 -23.8907 15.285299999999998 -23.37898 14.140799999999999 -22.3595 C 13.0041 -21.336100000000002 12.296999999999999 -19.8634 12.015799999999999 -17.9376 z" stroke-linecap="round" />
</g>
		<g transform="matrix(1.3333333333 0 0 1.3333333333 -213.6087413333 475.7917226667)" id="S4chQGdyk8EEAK_TtA8nr"  >
<path style="stroke: none; stroke-width: 1; stroke-dasharray: none; stroke-linecap: butt; stroke-dashoffset: 0; stroke-linejoin: miter; stroke-miterlimit: 4; fill: rgb(0,0,0); fill-rule: nonzero; opacity: 1;" vector-effect="non-scaling-stroke"  transform=" translate(-17.2036, 14.69527)" d="M 17.719 -13.25 C 15.7581 -13.25 14.281500000000001 -12.91406 13.281500000000001 -12.25 C 12.28931 -11.58203 11.7971 -10.6016 11.7971 -9.3125 C 11.7971 -8.1133 12.195540000000001 -7.175800000000001 13.0002 -6.5 C 13.80098 -5.83203 14.9104 -5.5 16.3283 -5.5 C 18.0978 -5.5 19.5861 -6.13281 20.7971 -7.4062 C 22.0041 -8.6757 22.6096 -10.2656 22.6096 -12.171800000000001 L 22.6096 -13.2499 z M 32.094 -16.7969 L 32.094 0.00009999999999976694 L 22.6096 0.00009999999999976694 L 22.6096 -4.3593 C 21.3479 -2.5781 19.926000000000002 -1.2734 18.344 -0.45310000000000006 C 16.7698 0.35939999999999994 14.8518 0.7657 12.594000000000001 0.7657 C 9.5393 0.7657 7.062800000000001 -0.12491999999999992 5.156500000000001 -1.9062 C 3.258100000000001 -3.6874 2.3127000000000013 -5.9921 2.3127000000000013 -8.8281 C 2.3127000000000013 -12.2851 3.5002000000000013 -14.816399999999998 5.875200000000001 -16.4219 C 8.250200000000001 -18.0352 11.9768 -18.8438 17.063200000000002 -18.8438 L 22.610100000000003 -18.8438 L 22.610100000000003 -19.5938 C 22.610100000000003 -21.0821 22.020260000000004 -22.1719 20.844500000000004 -22.8594 C 19.676500000000004 -23.5469 17.848400000000005 -23.8906 15.360100000000003 -23.8906 C 13.336700000000002 -23.8906 11.457800000000002 -23.68748 9.719500000000004 -23.281219999999998 C 7.989000000000003 -22.882779999999997 6.379700000000003 -22.28513 4.8914000000000035 -21.484319999999997 L 4.8914000000000035 -28.656219999999998 C 6.899200000000004 -29.144499999999997 8.922600000000003 -29.5156 10.953900000000004 -29.76562 C 12.993000000000004 -30.023429999999998 15.032000000000004 -30.156239999999997 17.063300000000005 -30.156239999999997 C 22.375800000000005 -30.156239999999997 26.207800000000006 -29.109339999999996 28.563300000000005 -27.015639999999998 C 30.914900000000006 -24.921839999999996 32.094500000000004 -21.515639999999998 32.094500000000004 -16.796639999999996 z" stroke-linecap="round" />
</g>
		<g transform="matrix(1.3333333333 0 0 1.3333333333 -171.2966253333 470.177516)" id="5RPns03MMTPVYxX_8Km_q"  >
<path style="stroke: none; stroke-width: 1; stroke-dasharray: none; stroke-linecap: butt; stroke-dashoffset: 0; stroke-linejoin: miter; stroke-miterlimit: 4; fill: rgb(0,0,0); fill-rule: nonzero; opacity: 1;" vector-effect="non-scaling-stroke"  transform=" translate(-12.60175, 18.905925)" d="M 14.797 -37.812 L 14.797 -29.452599999999997 L 24.5001 -29.452599999999997 L 24.5001 -22.718199999999996 L 14.797 -22.718199999999996 L 14.797 -10.234199999999996 C 14.797 -8.859199999999996 15.06653 -7.9294999999999956 15.6095 -7.452999999999996 C 16.16028 -6.9725299999999955 17.238400000000002 -6.734249999999996 18.8439 -6.734249999999996 L 23.6877 -6.734249999999996 L 23.6877 0.0001500000000040913 L 15.6096 0.0001500000000040913 C 11.8987 0.0001500000000040913 9.2698 -0.7732899999999959 7.719 -2.327949999999996 C 6.164300000000001 -3.8787499999999957 5.3909 -6.515449999999996 5.3909 -10.234149999999996 L 5.3909 -22.718149999999994 L 0.7034000000000002 -22.718149999999994 L 0.7034000000000002 -29.452549999999995 L 5.3909 -29.452549999999995 L 5.3909 -37.811949999999996 z" stroke-linecap="round" />
</g>
		<g transform="matrix(1.3333333333 0 0 1.3333333333 -129.620308 475.7916826667)" id="mXfNbwoid7Ck1G_FSodPI"  >
<path style="stroke: none; stroke-width: 1; stroke-dasharray: none; stroke-linecap: butt; stroke-dashoffset: 0; stroke-linejoin: miter; stroke-miterlimit: 4; fill: rgb(0,0,0); fill-rule: nonzero; opacity: 1;" vector-effect="non-scaling-stroke"  transform=" translate(-18.1168, 14.6953)" d="M 33.922 -14.797 L 33.922 -12.1251 L 11.905999999999999 -12.1251 C 12.132559999999998 -9.9142 12.9294 -8.2579 14.296599999999998 -7.1563 C 15.671599999999998 -6.0508 17.581799999999998 -5.5001 20.031 -5.5001 C 22.0076 -5.5001 24.0349 -5.78916 26.109099999999998 -6.3751 C 28.1911 -6.957129999999999 30.3279 -7.847799999999999 32.515299999999996 -9.047 L 32.515299999999996 -1.7814000000000005 C 30.296499999999995 -0.9454600000000005 28.069999999999997 -0.31660000000000044 25.843399999999995 0.10919999999999952 C 23.612899999999996 0.5466999999999995 21.390299999999996 0.7654499999999995 19.171499999999995 0.7654499999999995 C 13.835599999999996 0.7654499999999995 9.690999999999995 -0.5861500000000004 6.733499999999994 -3.2970500000000005 C 3.7842999999999942 -6.00405 2.311599999999994 -9.80485 2.311599999999994 -14.703050000000001 C 2.311599999999994 -19.50385 3.756899999999994 -23.28115 6.655399999999994 -26.03105 C 9.561599999999995 -28.78105 13.553799999999994 -30.15605 18.639399999999995 -30.15605 C 23.264399999999995 -30.15605 26.967499999999994 -28.75765 29.748399999999997 -25.96855 C 32.529599999999995 -23.187350000000002 33.9203 -19.46075 33.9203 -14.79655 z M 24.234499999999997 -17.9376 C 24.234499999999997 -19.718799999999998 23.711059999999996 -21.156399999999998 22.671999999999997 -22.2501 C 21.628999999999998 -23.3439 20.269699999999997 -23.8907 18.593899999999998 -23.8907 C 16.769699999999997 -23.8907 15.285299999999998 -23.37898 14.140799999999999 -22.3595 C 13.0041 -21.336100000000002 12.296999999999999 -19.8634 12.015799999999999 -17.9376 z" stroke-linecap="round" />
</g>
		<g transform="matrix(1.3333333333 0 0 1.3333333333 -80.7923333333 468.623816)" id="EL7X2rMpQ8kM3SGIDc7CL"  >
<path style="stroke: none; stroke-width: 1; stroke-dasharray: none; stroke-linecap: butt; stroke-dashoffset: 0; stroke-linejoin: miter; stroke-miterlimit: 4; fill: rgb(0,0,0); fill-rule: nonzero; opacity: 1;" vector-effect="non-scaling-stroke"  transform=" translate(-18.21825, 20.0712)" d="M 24.562 -25.141 L 24.562 -40.907 L 34.015100000000004 -40.907 L 34.015100000000004 -0.0009999999999976694 L 24.562000000000005 -0.0009999999999976694 L 24.562000000000005 -4.266599999999998 C 23.257300000000004 -2.5243999999999978 21.827600000000004 -1.2509999999999977 20.265100000000004 -0.43849999999999767 C 18.710400000000003 0.3622800000000024 16.909600000000005 0.7646000000000024 14.858900000000004 0.7646000000000024 C 11.222200000000004 0.7646000000000024 8.237800000000004 -0.6767999999999976 5.905800000000005 -3.5634999999999977 C 3.581600000000005 -6.446299999999997 2.4214000000000047 -10.161199999999997 2.4214000000000047 -14.704499999999998 C 2.4214000000000047 -19.235699999999998 3.5816000000000043 -22.9428 5.905800000000005 -25.829499999999996 C 8.237800000000004 -28.712299999999995 11.222200000000004 -30.157599999999995 14.858900000000004 -30.157599999999995 C 16.890100000000004 -30.157599999999995 18.687000000000005 -29.743539999999996 20.249500000000005 -28.923199999999994 C 21.819800000000004 -28.110699999999994 23.257300000000004 -26.848999999999993 24.562000000000005 -25.141999999999996 z M 18.343200000000003 -6.078999999999997 C 20.362700000000004 -6.078999999999997 21.905700000000003 -6.813379999999997 22.968200000000003 -8.282099999999996 C 24.030700000000003 -9.750819999999996 24.562000000000005 -11.891499999999997 24.562000000000005 -14.703999999999997 C 24.562000000000005 -17.504799999999996 24.030750000000005 -19.641499999999997 22.968200000000003 -21.1102 C 21.90565 -22.5789 20.362700000000004 -23.313299999999998 18.343200000000003 -23.313299999999998 C 16.351000000000003 -23.313299999999998 14.827600000000004 -22.578919999999997 13.765100000000004 -21.1102 C 12.702600000000004 -19.64148 12.171300000000004 -17.5047 12.171300000000004 -14.703999999999999 C 12.171300000000004 -11.891499999999999 12.702550000000004 -9.750899999999998 13.765100000000004 -8.2821 C 14.827650000000004 -6.813300000000002 16.351000000000003 -6.079 18.343200000000003 -6.079 z" stroke-linecap="round" />
</g>
		<g transform="matrix(1.3333333333 0 0 1.3333333333 -1.6035173333 468.6262826667)" id="fs6nSXuqzh_qA5wypNQp7"  >
<path style="stroke: none; stroke-width: 1; stroke-dasharray: none; stroke-linecap: butt; stroke-dashoffset: 0; stroke-linejoin: miter; stroke-miterlimit: 4; fill: rgb(0,0,0); fill-rule: nonzero; opacity: 1;" vector-effect="non-scaling-stroke"  transform=" translate(-20.3208, 20.06935)" d="M 20.188 -6.0781 C 22.2075 -6.0781 23.7427 -6.81248 24.7974 -8.2812 C 25.8599 -9.75 26.3912 -11.8906 26.3912 -14.7031 C 26.3912 -17.503899999999998 25.85995 -19.6406 24.7974 -21.109299999999998 C 23.7427 -22.5781 22.2076 -23.312399999999997 20.188 -23.312399999999997 C 18.176299999999998 -23.312399999999997 16.629399999999997 -22.570209999999996 15.5474 -21.093599999999995 C 14.4732 -19.613099999999996 13.937999999999999 -17.484199999999994 13.937999999999999 -14.702999999999996 C 13.937999999999999 -11.909999999999997 14.473159999999998 -9.773299999999995 15.5474 -8.296799999999996 C 16.6294 -6.816299999999996 18.176299999999998 -6.077999999999996 20.188 -6.077999999999996 z M 13.937999999999999 -25.1401 C 15.227099999999998 -26.8471 16.6607 -28.1089 18.2349 -28.921300000000002 C 19.8169 -29.74161 21.6333 -30.155700000000003 23.688 -30.155700000000003 C 27.313 -30.155700000000003 30.2896 -28.710400000000003 32.6255 -25.827600000000004 C 34.9575 -22.940900000000003 36.1255 -19.233800000000002 36.1255 -14.702600000000004 C 36.1255 -10.159600000000005 34.9575 -6.444800000000004 32.6255 -3.561600000000004 C 30.289600000000004 -0.674900000000004 27.313000000000002 0.7664999999999962 23.688000000000002 0.7664999999999962 C 21.633300000000002 0.7664999999999962 19.816900000000004 0.3602499999999962 18.234900000000003 -0.4523000000000039 C 16.660700000000002 -1.2726100000000038 15.227100000000004 -2.5461000000000036 13.938000000000002 -4.264800000000004 L 13.938000000000002 0.0007999999999963592 L 4.516100000000002 0.0007999999999963592 L 4.516100000000002 -40.9052 L 13.938000000000002 -40.9052 z" stroke-linecap="round" />
</g>
		<g transform="matrix(1.3333333333 0 0 1.3333333333 45.885384 483.4999493333)" id="K8PMLjLdHEqLPJPnHtENc"  >
<path style="stroke: none; stroke-width: 1; stroke-dasharray: none; stroke-linecap: butt; stroke-dashoffset: 0; stroke-linejoin: miter; stroke-miterlimit: 4; fill: rgb(0,0,0); fill-rule: nonzero; opacity: 1;" vector-effect="non-scaling-stroke"  transform=" translate(-17.3906, 8.9141)" d="M 0.65625 -29.453 L 10.06245 -29.453 L 17.98435 -9.468999999999998 L 24.71875 -29.453 L 34.12495 -29.453 L 21.74995 2.7810000000000024 C 20.49995 6.0622000000000025 19.04685 8.351300000000002 17.390549999999998 9.656000000000002 C 15.734349999999997 10.968500000000002 13.546749999999998 11.624800000000002 10.828049999999998 11.624800000000002 L 5.3905499999999975 11.624800000000002 L 5.3905499999999975 5.437300000000002 L 8.328049999999998 5.437300000000002 C 9.929649999999997 5.437300000000002 11.093649999999997 5.179490000000002 11.812449999999998 4.671680000000002 C 12.539009999999998 4.171680000000002 13.10935 3.265480000000002 13.515549999999998 1.9528800000000022 L 13.781169999999998 1.1247600000000022 z" stroke-linecap="round" />
</g>
		<g transform="matrix(1.3333333333 0 0 1.3333333333 125.6972493333 469.219216)" id="HfphidNBcsGJsjRCOSrwp"  >
<path style="stroke: none; stroke-width: 1; stroke-dasharray: none; stroke-linecap: butt; stroke-dashoffset: 0; stroke-linejoin: miter; stroke-miterlimit: 4; fill: rgb(0,0,0); fill-rule: nonzero; opacity: 1;" vector-effect="non-scaling-stroke"  transform=" translate(-23.40575, 19.62465)" d="M 15.062 -31.609 L 15.062 -7.656000000000002 L 18.686999999999998 -7.656000000000002 C 22.819799999999997 -7.656000000000002 25.9761 -8.675500000000003 28.1558 -10.718500000000002 C 30.3433 -12.769300000000003 31.436999999999998 -15.753700000000002 31.436999999999998 -19.6716 C 31.436999999999998 -23.5544 30.347199999999997 -26.5154 28.1714 -28.5466 C 26.0034 -30.585700000000003 22.8433 -31.6091 18.686999999999998 -31.6091 z M 4.936999999999999 -39.2496 L 15.609 -39.2496 C 21.5778 -39.2496 26.019 -38.81991 28.936999999999998 -37.9684 C 31.8511 -37.12465 34.351099999999995 -35.687200000000004 36.437 -33.6559 C 38.2808 -31.882500000000004 39.644 -29.843400000000003 40.5308 -27.530900000000003 C 41.42533 -25.218400000000003 41.8746 -22.597300000000004 41.8746 -19.6715 C 41.8746 -16.7027 41.425380000000004 -14.054300000000001 40.5308 -11.734000000000002 C 39.64408 -9.409800000000002 38.2808 -7.3629000000000016 36.437 -5.593400000000002 C 34.3315 -3.5622000000000016 31.804199999999998 -2.116800000000002 28.8589 -1.2653000000000016 C 25.9214 -0.42155000000000165 21.5034 0.00029999999999841265 15.608899999999998 0.00029999999999841265 L 4.936899999999998 0.00029999999999841265 z" stroke-linecap="round" />
</g>
		<g transform="matrix(1.3333333333 0 0 1.3333333333 166.3854 468.1147493333)" id="ttofbprIOMYw8Qha3gzBd"  >
<path style="stroke: none; stroke-width: 1; stroke-dasharray: none; stroke-linecap: butt; stroke-dashoffset: 0; stroke-linejoin: miter; stroke-miterlimit: 4; fill: rgb(0,0,0); fill-rule: nonzero; opacity: 1;" vector-effect="non-scaling-stroke"  transform=" translate(-9.22655, 20.453)" d="M 4.5156 -29.453 L 13.9375 -29.453 L 13.9375 0 L 4.515599999999999 0 z M 4.5156 -40.906 L 13.9375 -40.906 L 13.9375 -33.2341 L 4.515599999999999 -33.2341 z" stroke-linecap="round" />
</g>
		<g transform="matrix(1.3333333333 0 0 1.3333333333 204.453088 475.280936)" id="IaN2IezyDK80uheMlZbb8"  >
<path style="stroke: none; stroke-width: 1; stroke-dasharray: none; stroke-linecap: butt; stroke-dashoffset: 0; stroke-linejoin: miter; stroke-miterlimit: 4; fill: rgb(0,0,0); fill-rule: nonzero; opacity: 1;" vector-effect="non-scaling-stroke"  transform=" translate(-19.320285, 15.07836)" d="M 34.125 -17.938 L 34.125 0 L 24.6562 0 L 24.6562 -13.719 C 24.6562 -16.2581 24.597606 -18.0081 24.484319999999997 -18.969 C 24.367129999999996 -19.93775 24.171819999999997 -20.6487 23.890569999999997 -21.1096 C 23.523379999999996 -21.72288 23.023379999999996 -22.203400000000002 22.390569999999997 -22.5471 C 21.765569999999997 -22.89085 21.050769999999996 -23.06272 20.249969999999998 -23.06272 C 18.281169999999996 -23.06272 16.73437 -22.301 15.609369999999998 -20.78152 C 14.492169999999998 -19.26982 13.937469999999998 -17.17212 13.937469999999998 -14.48462 L 13.937469999999998 -0.0006199999999996209 L 4.515569999999997 -0.0006199999999996209 L 4.515569999999997 -29.45362 L 13.937469999999998 -29.45362 L 13.937469999999998 -25.14112 C 15.351569999999997 -26.84812 16.85937 -28.109920000000002 18.453069999999997 -28.92232 C 20.04687 -29.74263 21.804669999999998 -30.15672 23.734269999999995 -30.15672 C 27.140469999999993 -30.15672 29.722569999999994 -29.10982 31.484269999999995 -27.01612 C 33.24207 -24.930220000000002 34.124869999999994 -21.90672 34.124869999999994 -17.93802 z" stroke-linecap="round" />
</g>
		<g transform="matrix(1.3333333333 0 0 1.3333333333 254.463092 475.7916826667)" id="3WGxjZfrA3tMjYcQyoOup"  >
<path style="stroke: none; stroke-width: 1; stroke-dasharray: none; stroke-linecap: butt; stroke-dashoffset: 0; stroke-linejoin: miter; stroke-miterlimit: 4; fill: rgb(0,0,0); fill-rule: nonzero; opacity: 1;" vector-effect="non-scaling-stroke"  transform=" translate(-18.49185, 14.6953)" d="M 18.531 -23.422 C 16.4451 -23.422 14.859099999999998 -22.672 13.7654 -21.172 C 12.671700000000001 -19.672 12.1248 -17.5158 12.1248 -14.7032 C 12.1248 -11.879000000000001 12.67168 -9.718800000000002 13.7654 -8.218800000000002 C 14.859119999999999 -6.718800000000002 16.4451 -5.968800000000002 18.531 -5.968800000000002 C 20.581799999999998 -5.968800000000002 22.1482 -6.718800000000002 23.234099999999998 -8.218800000000002 C 24.3279 -9.718800000000002 24.874699999999997 -11.879000000000001 24.874699999999997 -14.703200000000002 C 24.874699999999997 -17.515700000000002 24.327819999999996 -19.672000000000004 23.234099999999998 -21.172000000000004 C 22.1482 -22.672000000000004 20.581799999999998 -23.422000000000004 18.531 -23.422000000000004 z M 18.531 -30.1564 C 23.6013 -30.1564 27.562199999999997 -28.785300000000003 30.406 -26.047 C 33.2498 -23.3165 34.6716 -19.5353 34.6716 -14.703000000000001 C 34.6716 -9.859200000000001 33.2497 -6.066300000000002 30.406 -3.328000000000001 C 27.562199999999997 -0.597500000000001 23.6013 0.7657999999999987 18.531 0.7657999999999987 C 13.4451 0.7657999999999987 9.472399999999999 -0.5975000000000013 6.608999999999998 -3.328000000000001 C 3.7417999999999982 -6.066300000000002 2.3120999999999983 -9.859200000000001 2.3120999999999983 -14.703000000000001 C 2.3120999999999983 -19.535 3.7417999999999982 -23.316300000000002 6.608999999999998 -26.047 C 9.472299999999999 -28.7853 13.444899999999997 -30.1564 18.531 -30.1564 z" stroke-linecap="round" />
</g>
		<g transform="matrix(1.3333333333 0 0 1.3333333333 300.6506813333 475.7920293333)" id="tgYPq7zmum2ymeYBHbSxy"  >
<path style="stroke: none; stroke-width: 1; stroke-dasharray: none; stroke-linecap: butt; stroke-dashoffset: 0; stroke-linejoin: miter; stroke-miterlimit: 4; fill: rgb(0,0,0); fill-rule: nonzero; opacity: 1;" vector-effect="non-scaling-stroke"  transform=" translate(-16.140355, 14.69504)" d="M 27.531 -28.531 L 27.531 -21.3748 C 25.5076 -22.21855 23.562199999999997 -22.8475 21.687199999999997 -23.2654 C 19.812199999999997 -23.67946 18.0388 -23.8904 16.374699999999997 -23.8904 C 14.593499999999997 -23.8904 13.265299999999996 -23.66384 12.390299999999996 -23.218519999999998 C 11.523109999999996 -22.781019999999998 11.093399999999995 -22.09742 11.093399999999995 -21.171619999999997 C 11.093399999999995 -20.409899999999997 11.421519999999996 -19.827819999999996 12.077779999999995 -19.421619999999997 C 12.734029999999995 -19.023179999999996 13.909779999999996 -18.726309999999998 15.608979999999995 -18.531 L 17.265179999999994 -18.296619999999997 C 22.085479999999993 -17.679429999999996 25.331579999999995 -16.671619999999997 26.999579999999995 -15.265419999999997 C 28.663679999999996 -13.867019999999997 29.499579999999995 -11.671619999999997 29.499579999999995 -8.671619999999997 C 29.499579999999995 -5.534919999999998 28.343379999999996 -3.175519999999997 26.030779999999993 -1.5935199999999972 C 23.718279999999993 -0.019319999999997117 20.265179999999994 0.7658800000000028 15.671779999999993 0.7658800000000028 C 13.722579999999994 0.7658800000000028 11.706979999999993 0.6096300000000028 9.624879999999994 0.2971300000000028 C 7.5506799999999945 -0.003649999999997211 5.421779999999994 -0.4606799999999972 3.234279999999994 -1.0778699999999972 L 3.234279999999994 -8.234069999999997 C 5.109279999999994 -7.316099999999997 7.031179999999994 -6.628569999999997 8.999879999999994 -6.171569999999997 C 10.976479999999993 -5.722349999999997 12.984279999999995 -5.4996899999999975 15.015479999999993 -5.4996899999999975 C 16.847479999999994 -5.4996899999999975 18.226379999999992 -5.7496899999999975 19.156079999999992 -6.2496899999999975 C 20.093579999999992 -6.757499999999998 20.56227999999999 -7.515289999999998 20.56227999999999 -8.515289999999997 C 20.56227999999999 -9.359039999999997 20.23805999999999 -9.984089999999997 19.59352999999999 -10.390289999999997 C 18.95680999999999 -10.804349999999996 17.687329999999992 -11.128569999999996 15.78102999999999 -11.359039999999997 L 14.12482999999999 -11.562159999999997 C 9.925629999999991 -12.093409999999997 6.98422999999999 -13.066059999999997 5.296729999999991 -14.484059999999996 C 3.6170299999999913 -15.898159999999995 2.781129999999991 -18.054359999999996 2.781129999999991 -20.952859999999994 C 2.781129999999991 -24.077859999999994 3.847529999999991 -26.390359999999994 5.984229999999991 -27.890359999999994 C 8.12872999999999 -29.398159999999994 11.410029999999992 -30.155959999999993 15.828029999999991 -30.155959999999993 C 17.56632999999999 -30.155959999999993 19.39052999999999 -30.019239999999993 21.296829999999993 -29.749709999999993 C 23.20302999999999 -29.487989999999993 25.281229999999994 -29.081739999999993 27.531229999999994 -28.53090999999999 z" stroke-linecap="round" />
</g>
		<g transform="matrix(1.3333333333 0 0 1.3333333333 346.520384 475.7916826667)" id="oYsnixxyxRxHx7Ufo3Dj6"  >
<path style="stroke: none; stroke-width: 1; stroke-dasharray: none; stroke-linecap: butt; stroke-dashoffset: 0; stroke-linejoin: miter; stroke-miterlimit: 4; fill: rgb(0,0,0); fill-rule: nonzero; opacity: 1;" vector-effect="non-scaling-stroke"  transform=" translate(-18.49185, 14.6953)" d="M 18.531 -23.422 C 16.4451 -23.422 14.859099999999998 -22.672 13.7654 -21.172 C 12.671700000000001 -19.672 12.1248 -17.5158 12.1248 -14.7032 C 12.1248 -11.879000000000001 12.67168 -9.718800000000002 13.7654 -8.218800000000002 C 14.859119999999999 -6.718800000000002 16.4451 -5.968800000000002 18.531 -5.968800000000002 C 20.581799999999998 -5.968800000000002 22.1482 -6.718800000000002 23.234099999999998 -8.218800000000002 C 24.3279 -9.718800000000002 24.874699999999997 -11.879000000000001 24.874699999999997 -14.703200000000002 C 24.874699999999997 -17.515700000000002 24.327819999999996 -19.672000000000004 23.234099999999998 -21.172000000000004 C 22.1482 -22.672000000000004 20.581799999999998 -23.422000000000004 18.531 -23.422000000000004 z M 18.531 -30.1564 C 23.6013 -30.1564 27.562199999999997 -28.785300000000003 30.406 -26.047 C 33.2498 -23.3165 34.6716 -19.5353 34.6716 -14.703000000000001 C 34.6716 -9.859200000000001 33.2497 -6.066300000000002 30.406 -3.328000000000001 C 27.562199999999997 -0.597500000000001 23.6013 0.7657999999999987 18.531 0.7657999999999987 C 13.4451 0.7657999999999987 9.472399999999999 -0.5975000000000013 6.608999999999998 -3.328000000000001 C 3.7417999999999982 -6.066300000000002 2.3120999999999983 -9.859200000000001 2.3120999999999983 -14.703000000000001 C 2.3120999999999983 -19.535 3.7417999999999982 -23.316300000000002 6.608999999999998 -26.047 C 9.472299999999999 -28.7853 13.444899999999997 -30.1564 18.531 -30.1564 z" stroke-linecap="round" />
</g>
		<g transform="matrix(1.3333333333 0 0 1.3333333333 387.8026 468.1151226667)" id="I6BW6GuZYE3VLhkAwQWm5"  >
<path style="stroke: none; stroke-width: 1; stroke-dasharray: none; stroke-linecap: butt; stroke-dashoffset: 0; stroke-linejoin: miter; stroke-miterlimit: 4; fill: rgb(0,0,0); fill-rule: nonzero; opacity: 1;" vector-effect="non-scaling-stroke"  transform=" translate(-12.461325, 20.45272)" d="M 23.891 -40.906 L 23.891 -34.7341 L 18.6879 -34.7341 C 17.352 -34.7341 16.426199999999998 -34.488009999999996 15.906699999999999 -33.999719999999996 C 15.383259999999998 -33.51925 15.125449999999999 -32.687219999999996 15.125449999999999 -31.499719999999996 L 15.125449999999999 -29.452819999999996 L 23.15665 -29.452819999999996 L 23.15665 -22.718419999999995 L 15.125449999999999 -22.718419999999995 L 15.125449999999999 0.0005800000000064642 L 5.703549999999998 0.0005800000000064642 L 5.703549999999998 -22.718419999999995 L 1.0316499999999982 -22.718419999999995 L 1.0316499999999982 -29.452819999999996 L 5.703549999999998 -29.452819999999996 L 5.703549999999998 -31.499719999999996 C 5.703549999999998 -34.70672 6.594169999999998 -37.077819999999996 8.375449999999997 -38.60912 C 10.164549999999997 -40.140319999999996 12.937949999999997 -40.90602 16.687949999999997 -40.90602 z" stroke-linecap="round" />
</g>
		<g transform="matrix(1.3333333333 0 0 1.3333333333 419.224208 470.177516)" id="qqCjNLsF231OyvkXvYqlG"  >
<path style="stroke: none; stroke-width: 1; stroke-dasharray: none; stroke-linecap: butt; stroke-dashoffset: 0; stroke-linejoin: miter; stroke-miterlimit: 4; fill: rgb(0,0,0); fill-rule: nonzero; opacity: 1;" vector-effect="non-scaling-stroke"  transform=" translate(-12.60175, 18.905925)" d="M 14.797 -37.812 L 14.797 -29.452599999999997 L 24.5001 -29.452599999999997 L 24.5001 -22.718199999999996 L 14.797 -22.718199999999996 L 14.797 -10.234199999999996 C 14.797 -8.859199999999996 15.06653 -7.9294999999999956 15.6095 -7.452999999999996 C 16.16028 -6.9725299999999955 17.238400000000002 -6.734249999999996 18.8439 -6.734249999999996 L 23.6877 -6.734249999999996 L 23.6877 0.0001500000000040913 L 15.6096 0.0001500000000040913 C 11.8987 0.0001500000000040913 9.2698 -0.7732899999999959 7.719 -2.327949999999996 C 6.164300000000001 -3.8787499999999957 5.3909 -6.515449999999996 5.3909 -10.234149999999996 L 5.3909 -22.718149999999994 L 0.7034000000000002 -22.718149999999994 L 0.7034000000000002 -29.452549999999995 L 5.3909 -29.452549999999995 L 5.3909 -37.811949999999996 z" stroke-linecap="round" />
</g>
		<g transform="matrix(1.3333333333 0 0 1.3333333333 461.9321253333 469.2188826667)" id="39PSLKDJrRxYCnq_BufS_"  >
<path style="stroke: none; stroke-width: 1; stroke-dasharray: none; stroke-linecap: butt; stroke-dashoffset: 0; stroke-linejoin: miter; stroke-miterlimit: 4; fill: rgb(0,0,0); fill-rule: nonzero; opacity: 1;" vector-effect="non-scaling-stroke"  transform=" translate(-18.8905, 19.6249)" d="M 4.9375 -39.25 L 15.0625 -39.25 L 15.0625 -7.655999999999999 L 32.8435 -7.655999999999999 L 32.8435 0.00020000000000131024 L 4.9375 0.00020000000000131024 z" stroke-linecap="round" />
</g>
</g>
</g>
<g transform="matrix(1 0 0 1 513.7127204698 633.4219908754)" id="8ewKB3c1Gz5nMihoMpHAI"  >
<path style="stroke: rgb(0,0,0); stroke-width: 1; stroke-dasharray: none; stroke-linecap: round; stroke-dashoffset: 0; stroke-linejoin: round; stroke-miterlimit: 10; fill: none; fill-rule: nonzero; opacity: 1;" vector-effect="non-scaling-stroke"  transform=" translate(-513.7127204698, -633.4219908754)" d="M 513.7117204698335 633.4219908754019 L 513.7137204698334 633.4219908754019" stroke-linecap="round" />
</g>
</svg>