<?xml version="1.0" encoding="UTF-8" standalone="no" ?>
<!DOCTYPE svg PUBLIC "-//W3C//DTD SVG 1.1//EN" "http://www.w3.org/Graphics/SVG/1.1/DTD/svg11.dtd">
<svg xmlns="http://www.w3.org/2000/svg" xmlns:xlink="http://www.w3.org/1999/xlink" version="1.1" width="700" height="700" viewBox="0 0 700 700" xml:space="preserve">
<desc>Created with Fabric.js 5.3.0</desc>
<defs>
</defs>
<g transform="matrix(1 0 0 1 350 428.8182831661)" id="f1bbjn65TGjw1NgkO5wpY"  >
<g style="" vector-effect="non-scaling-stroke"   >
		<g transform="matrix(1.3333333333 0 0 1.3333333333 45.9466666667 -139.2833333333)" id="M2LUbpvYsGbnCuIDPsVb9"  >
<path style="stroke: none; stroke-width: 1; stroke-dasharray: none; stroke-linecap: butt; stroke-dashoffset: 0; stroke-linejoin: miter; stroke-miterlimit: 4; fill: rgb(0,0,0); fill-rule: nonzero; opacity: 1;" vector-effect="non-scaling-stroke"  transform=" translate(-384.46, -245.5375)" d="M 522.31 90.469 L 246.60999999999996 90.469 C 218.12199999999996 90.469 194.92199999999997 113.66 194.92199999999997 142.15699999999998 L 229.38299999999998 142.15699999999998 C 229.38299999999998 132.6882 237.1564 124.92999999999998 246.60999999999999 124.92999999999998 L 522.31 124.92999999999998 C 531.7982999999999 124.92999999999998 539.5369999999999 132.68779999999998 539.5369999999999 142.15699999999998 L 539.5369999999999 348.907 C 539.5369999999999 358.3875 531.7986999999999 366.145 522.31 366.145 L 522.31 400.606 C 550.814 400.606 573.9979999999999 377.415 573.9979999999999 348.907 L 573.9979999999999 142.15699999999998 C 573.9979999999999 113.65699999999998 550.842 90.46899999999998 522.31 90.46899999999998 z" stroke-linecap="round" />
</g>
		<g transform="matrix(1.3333333333 0 0 1.3333333333 -272.785 130.0602133333)" id="Z52dhPryb1MSwgV6gzu05"  >
<path style="stroke: none; stroke-width: 1; stroke-dasharray: none; stroke-linecap: butt; stroke-dashoffset: 0; stroke-linejoin: miter; stroke-miterlimit: 4; fill: rgb(0,0,0); fill-rule: nonzero; opacity: 1;" vector-effect="non-scaling-stroke"  transform=" translate(-145.41125, -447.54516)" d="M 163.89 428.02 C 163.75718999999998 427.84031 163.58140999999998 427.68016 163.4525 427.49266 L 126.93249999999998 427.49266 C 130.61219999999997 446.85166 145.12049999999996 462.37966 163.88549999999998 467.59766 z" stroke-linecap="round" />
</g>
		<g transform="matrix(1.3333333333 0 0 1.3333333333 -45.9507290037 -47.3919373333)" id="xHUB3uBqheTiHPLzDn2f3"  >
<path style="stroke: none; stroke-width: 1; stroke-dasharray: none; stroke-linecap: butt; stroke-dashoffset: 0; stroke-linejoin: miter; stroke-miterlimit: 4; fill: rgb(0,0,0); fill-rule: nonzero; opacity: 1;" vector-effect="non-scaling-stroke"  transform=" translate(-315.5369532472, -314.456047)" d="M 453.39 159.39 L 177.69 159.39 C 149.202 159.39 126.002 182.581 126.002 211.07799999999997 L 126.002 346.27799999999996 L 160.463 346.27799999999996 L 160.463 211.07799999999997 C 160.463 201.6092 168.2364 193.85099999999997 177.69 193.85099999999997 L 453.39 193.85099999999997 C 462.87829999999997 193.85099999999997 470.61699999999996 201.60879999999997 470.61699999999996 211.07799999999997 L 470.61699999999996 417.83799999999997 C 470.61699999999996 427.30679999999995 462.8787 435.06499999999994 453.39 435.06499999999994 L 247.45999999999998 435.06109399999997 L 247.45999999999998 469.522094 L 453.38 469.522094 C 481.884 469.522094 505.068 446.331094 505.068 417.834094 L 505.07190599999996 211.084094 C 505.075813 182.584094 481.926906 159.396094 453.38790599999993 159.396094 z" stroke-linecap="round" />
</g>
		<g transform="matrix(1.3333333333 0 0 1.3333333333 -192.2487293333 49.3573333333)" id="Y_SfDZEgbt0qlgC9EA5H3"  >
<path style="stroke: none; stroke-width: 1; stroke-dasharray: none; stroke-linecap: butt; stroke-dashoffset: 0; stroke-linejoin: miter; stroke-miterlimit: 4; fill: rgb(0,0,0); fill-rule: nonzero; opacity: 1;" vector-effect="non-scaling-stroke"  transform=" translate(-205.813453, -387.018)" d="M 219.46 317.75 L 219.46 374.27 L 273.081 374.27 L 273.081 399.493 L 219.46 399.493 L 219.46 456.286 L 191.89000000000001 456.286 L 191.89390600000002 399.497 L 138.545906 399.497 L 138.545906 374.274 L 191.889906 374.274 L 191.893812 317.751 z" stroke-linecap="round" />
</g>
		<g transform="matrix(1.3333333333 0 0 1.3333333333 -359.8952666667 378.40616)" id="VehIvn0jlQAw6tR0fmhuE"  >
<path style="stroke: none; stroke-width: 1; stroke-dasharray: none; stroke-linecap: butt; stroke-dashoffset: 0; stroke-linejoin: miter; stroke-miterlimit: 4; fill: rgb(0,0,0); fill-rule: nonzero; opacity: 1;" vector-effect="non-scaling-stroke"  transform=" translate(-10.07855, 10.19538)" d="M 18.766 -1.125 C 17.79725 -0.625 16.7855 -0.25 15.734799999999998 0 C 14.691799999999999 0.25781 13.598099999999999 0.39062 12.453599999999998 0.39062 C 9.055199999999997 0.39062 6.363799999999998 -0.5546899999999999 4.375499999999999 -2.4531799999999997 C 2.383299999999999 -4.35938 1.391099999999999 -6.93758 1.391099999999999 -10.18758 C 1.391099999999999 -13.44538 2.383289999999999 -16.02348 4.375499999999999 -17.92198 C 6.363799999999999 -19.82818 9.0552 -20.781380000000002 12.453599999999998 -20.781380000000002 C 13.598099999999999 -20.781380000000002 14.691899999999999 -20.648570000000003 15.734799999999998 -20.390760000000004 C 16.7856 -20.140760000000004 17.7973 -19.765760000000004 18.766 -19.265760000000004 L 18.766 -15.046960000000004 C 17.785529999999998 -15.703210000000004 16.8207 -16.187560000000005 15.875399999999999 -16.500060000000005 C 14.926179999999999 -16.812560000000005 13.9262 -16.968810000000005 12.875399999999999 -16.968810000000005 C 11.000399999999999 -16.968810000000005 9.5238 -16.363340000000004 8.453499999999998 -15.156310000000005 C 7.379299999999998 -13.957110000000005 6.844099999999998 -12.300810000000006 6.844099999999998 -10.187510000000005 C 6.844099999999998 -8.082010000000004 7.379259999999999 -6.425810000000006 8.453499999999998 -5.218710000000005 C 9.523799999999998 -4.019510000000005 11.000399999999999 -3.421810000000005 12.875399999999999 -3.421810000000005 C 13.9262 -3.421810000000005 14.9262 -3.570250000000005 15.875399999999999 -3.8749300000000053 C 16.82071 -4.187430000000005 17.7856 -4.675710000000006 18.766 -5.343730000000005 z" stroke-linecap="round" />
</g>
		<g transform="matrix(1.3333333333 0 0 1.3333333333 -335.2035586667 381.54152)" id="RKMW9zSkk1nZz8XghLzCq"  >
<path style="stroke: none; stroke-width: 1; stroke-dasharray: none; stroke-linecap: butt; stroke-dashoffset: 0; stroke-linejoin: miter; stroke-miterlimit: 4; fill: rgb(0,0,0); fill-rule: nonzero; opacity: 1;" vector-effect="non-scaling-stroke"  transform=" translate(-8.04655, 7.84386)" d="M 13.734 -11.141 C 13.2965 -11.33631 12.86291 -11.48475 12.437100000000001 -11.5785 C 12.01913 -11.68006 11.59726 -11.73475 11.171500000000002 -11.73475 C 9.909800000000002 -11.73475 8.941000000000003 -11.3285 8.265300000000002 -10.51595 C 7.585610000000002 -9.71126 7.249700000000002 -8.562850000000001 7.249700000000002 -7.06285 L 7.249700000000002 -0.0003500000000000725 L 2.3591000000000015 -0.0003500000000000725 L 2.3591000000000015 -15.312349999999999 L 7.249700000000002 -15.312349999999999 L 7.249700000000002 -12.79675 C 7.874700000000002 -13.79675 8.593500000000002 -14.523349999999999 9.405900000000003 -14.98425 C 10.226210000000002 -15.453 11.206700000000003 -15.68737 12.343400000000003 -15.68737 C 12.507460000000002 -15.68737 12.687150000000003 -15.675651 12.874650000000003 -15.65612 C 13.069960000000002 -15.644401 13.351210000000002 -15.617058 13.718400000000003 -15.577995 z" stroke-linecap="round" />
</g>
		<g transform="matrix(1.3333333333 0 0 1.3333333333 -314.9579 381.8020533333)" id="WJR4yoy91aqJigOyRnL7v"  >
<path style="stroke: none; stroke-width: 1; stroke-dasharray: none; stroke-linecap: butt; stroke-dashoffset: 0; stroke-linejoin: miter; stroke-miterlimit: 4; fill: rgb(0,0,0); fill-rule: nonzero; opacity: 1;" vector-effect="non-scaling-stroke"  transform=" translate(-9.4222, 7.64846)" d="M 17.641 -7.7031 L 17.641 -6.2969 L 6.187999999999999 -6.2969 C 6.312999999999999 -5.1485 6.727059999999999 -4.2890999999999995 7.437999999999999 -3.7188 C 8.145029999999998 -3.14458 9.141099999999998 -2.85942 10.4224 -2.85942 C 11.4536 -2.85942 12.5044 -3.00786 13.5786 -3.3125400000000003 C 14.6606 -3.6250400000000003 15.77 -4.08598 16.9067 -4.70314 L 16.9067 -0.9375400000000003 C 15.7505 -0.5000400000000003 14.5942 -0.1719200000000003 13.4379 0.04683999999999977 C 12.2817 0.27339999999999975 11.1254 0.39058999999999977 9.969100000000001 0.39058999999999977 C 7.1957 0.39058999999999977 5.0394000000000005 -0.3125300000000002 3.500300000000001 -1.7188100000000002 C 1.9691000000000012 -3.12501 1.2034000000000011 -5.09771 1.2034000000000011 -7.64071 C 1.2034000000000011 -10.14071 1.957310000000001 -12.10161 3.469000000000001 -13.531310000000001 C 4.976800000000001 -14.968810000000001 7.051000000000001 -15.687510000000001 9.687800000000001 -15.687510000000001 C 12.094000000000001 -15.687510000000001 14.0198 -14.957040000000001 15.469000000000001 -13.500010000000001 C 16.9143 -12.050810000000002 17.640900000000002 -10.117210000000002 17.640900000000002 -7.7031100000000015 z M 12.609799999999998 -9.3281 C 12.609799999999998 -10.253879999999999 12.336359999999997 -11 11.797299999999998 -11.5625 C 11.254329999999998 -12.13281 10.547299999999998 -12.42188 9.672299999999998 -12.42188 C 8.723079999999998 -12.42188 7.953499999999998 -12.15626 7.359799999999998 -11.625 C 6.766099999999998 -11.09374 6.394959999999998 -10.3281 6.250399999999998 -9.3281 z" stroke-linecap="round" />
</g>
		<g transform="matrix(1.3333333333 0 0 1.3333333333 -290.275992 381.80204)" id="v-lqMvt6cY-NJU91yIIyJ"  >
<path style="stroke: none; stroke-width: 1; stroke-dasharray: none; stroke-linecap: butt; stroke-dashoffset: 0; stroke-linejoin: miter; stroke-miterlimit: 4; fill: rgb(0,0,0); fill-rule: nonzero; opacity: 1;" vector-effect="non-scaling-stroke"  transform=" translate(-8.94535, 7.64847)" d="M 9.2188 -6.8906 C 8.1954 -6.8906 7.4258 -6.71872 6.9063 -6.37498 C 6.3945799999999995 -6.03123 6.14068 -5.51951 6.14068 -4.84378 C 6.14068 -4.21878 6.347709999999999 -3.72658 6.76568 -3.37498 C 7.17974 -3.03123 7.753959999999999 -2.8593599999999997 8.48448 -2.8593599999999997 C 9.41026 -2.8593599999999997 10.18758 -3.18748 10.81258 -3.8437399999999995 C 11.44539 -4.5078 11.7657 -5.335939999999999 11.7657 -6.328139999999999 L 11.7657 -6.890639999999999 z M 16.6876 -8.7344 L 16.6876 0 L 11.765699999999999 0 L 11.765699999999999 -2.2656 C 11.109449999999999 -1.3359100000000002 10.367299999999998 -0.6601000000000001 9.546899999999999 -0.23439999999999994 C 8.722679999999999 0.17966000000000004 7.722699999999999 0.39060000000000006 6.546899999999999 0.39060000000000006 C 4.9609999999999985 0.39060000000000006 3.675799999999999 -0.06642999999999993 2.687499999999999 -0.9843999999999999 C 1.6953099999999992 -1.91018 1.2030999999999992 -3.1132999999999997 1.2030999999999992 -4.5938 C 1.2030999999999992 -6.382899999999999 1.8163799999999992 -7.695399999999999 3.046899999999999 -8.5313 C 4.285199999999999 -9.37505 6.2265999999999995 -9.7969 8.875 -9.7969 L 11.7656 -9.7969 L 11.7656 -10.187520000000001 C 11.7656 -10.95705 11.457009999999999 -11.519520000000002 10.84372 -11.875020000000001 C 10.226529999999999 -12.2383 9.27342 -12.4219 7.984319999999999 -12.4219 C 6.92962 -12.4219 5.953119999999999 -12.31643 5.046819999999999 -12.1094 C 4.1483799999999995 -11.89846 3.3163199999999993 -11.58596 2.5468199999999994 -11.1719 L 2.5468199999999994 -14.906300000000002 C 3.5859199999999993 -15.156300000000002 4.632719999999999 -15.347710000000001 5.6874199999999995 -15.484420000000002 C 6.7499199999999995 -15.617230000000001 7.8124199999999995 -15.687540000000002 8.87492 -15.687540000000002 C 11.632719999999999 -15.687540000000002 13.62492 -15.140660000000002 14.84372 -14.046940000000003 C 16.07032 -12.961040000000002 16.68752 -11.191440000000004 16.68752 -8.734440000000003 z" stroke-linecap="round" />
</g>
		<g transform="matrix(1.3333333333 0 0 1.3333333333 -268.2604293333 378.8962)" id="zns9YWGaKQdYHmoKUPsCs"  >
<path style="stroke: none; stroke-width: 1; stroke-dasharray: none; stroke-linecap: butt; stroke-dashoffset: 0; stroke-linejoin: miter; stroke-miterlimit: 4; fill: rgb(0,0,0); fill-rule: nonzero; opacity: 1;" vector-effect="non-scaling-stroke"  transform=" translate(-6.56249, 9.82785)" d="M 7.7031 -19.656 L 7.7031 -15.312199999999999 L 12.75 -15.312199999999999 L 12.75 -11.812199999999999 L 7.7031 -11.812199999999999 L 7.7031 -5.312199999999999 C 7.7031 -4.601259999999999 7.84372 -4.124699999999999 8.12498 -3.874699999999999 C 8.40624 -3.624699999999999 8.960920000000002 -3.499699999999999 9.796880000000002 -3.499699999999999 L 12.31248 -3.499699999999999 L 12.31248 0.0003000000000010772 L 8.12498 0.0003000000000010772 C 6.187480000000001 0.0003000000000010772 4.812480000000001 -0.39813999999999894 3.9999800000000008 -1.202799999999999 C 3.195290000000001 -2.015299999999999 2.7968800000000007 -3.382499999999999 2.7968800000000007 -5.312199999999999 L 2.7968800000000007 -11.812199999999999 L 0.37498000000000076 -11.812199999999999 L 0.37498000000000076 -15.312199999999999 L 2.7968800000000007 -15.312199999999999 L 2.7968800000000007 -19.656 z" stroke-linecap="round" />
</g>
		<g transform="matrix(1.3333333333 0 0 1.3333333333 -246.5985253333 381.8020533333)" id="OrAhCFY5WmTBHATmozXlr"  >
<path style="stroke: none; stroke-width: 1; stroke-dasharray: none; stroke-linecap: butt; stroke-dashoffset: 0; stroke-linejoin: miter; stroke-miterlimit: 4; fill: rgb(0,0,0); fill-rule: nonzero; opacity: 1;" vector-effect="non-scaling-stroke"  transform=" translate(-9.4222, 7.64846)" d="M 17.641 -7.7031 L 17.641 -6.2969 L 6.187999999999999 -6.2969 C 6.312999999999999 -5.1485 6.727059999999999 -4.2890999999999995 7.437999999999999 -3.7188 C 8.145029999999998 -3.14458 9.141099999999998 -2.85942 10.4224 -2.85942 C 11.4536 -2.85942 12.5044 -3.00786 13.5786 -3.3125400000000003 C 14.6606 -3.6250400000000003 15.77 -4.08598 16.9067 -4.70314 L 16.9067 -0.9375400000000003 C 15.7505 -0.5000400000000003 14.5942 -0.1719200000000003 13.4379 0.04683999999999977 C 12.2817 0.27339999999999975 11.1254 0.39058999999999977 9.969100000000001 0.39058999999999977 C 7.1957 0.39058999999999977 5.0394000000000005 -0.3125300000000002 3.500300000000001 -1.7188100000000002 C 1.9691000000000012 -3.12501 1.2034000000000011 -5.09771 1.2034000000000011 -7.64071 C 1.2034000000000011 -10.14071 1.957310000000001 -12.10161 3.469000000000001 -13.531310000000001 C 4.976800000000001 -14.968810000000001 7.051000000000001 -15.687510000000001 9.687800000000001 -15.687510000000001 C 12.094000000000001 -15.687510000000001 14.0198 -14.957040000000001 15.469000000000001 -13.500010000000001 C 16.9143 -12.050810000000002 17.640900000000002 -10.117210000000002 17.640900000000002 -7.7031100000000015 z M 12.609799999999998 -9.3281 C 12.609799999999998 -10.253879999999999 12.336359999999997 -11 11.797299999999998 -11.5625 C 11.254329999999998 -12.13281 10.547299999999998 -12.42188 9.672299999999998 -12.42188 C 8.723079999999998 -12.42188 7.953499999999998 -12.15626 7.359799999999998 -11.625 C 6.766099999999998 -11.09374 6.394959999999998 -10.3281 6.250399999999998 -9.3281 z" stroke-linecap="round" />
</g>
		<g transform="matrix(1.3333333333 0 0 1.3333333333 -221.207816 378.0729333333)" id="xWsd8lSoe0mmXQZCZx1dP"  >
<path style="stroke: none; stroke-width: 1; stroke-dasharray: none; stroke-linecap: butt; stroke-dashoffset: 0; stroke-linejoin: miter; stroke-miterlimit: 4; fill: rgb(0,0,0); fill-rule: nonzero; opacity: 1;" vector-effect="non-scaling-stroke"  transform=" translate(-9.47695, 10.4453)" d="M 12.766 -13.078 L 12.766 -21.2811 L 17.6879 -21.2811 L 17.6879 -0.00009999999999976694 L 12.765999999999998 -0.00009999999999976694 L 12.765999999999998 -2.2188999999999997 C 12.098029999999998 -1.3126499999999997 11.359799999999998 -0.6485999999999996 10.547199999999998 -0.2344999999999997 C 9.734599999999999 0.1796000000000002 8.789399999999999 0.3905000000000003 7.719099999999998 0.3905000000000003 C 5.832399999999998 0.3905000000000003 4.285499999999998 -0.3594999999999997 3.0784999999999982 -1.8594999999999997 C 1.8675999999999982 -3.3594999999999997 1.2659999999999982 -5.285299999999999 1.2659999999999982 -7.6407 C 1.2659999999999982 -10.004 1.8675599999999983 -11.9376 3.0784999999999982 -13.4376 C 4.285499999999998 -14.9376 5.832399999999998 -15.6876 7.719099999999998 -15.6876 C 8.781599999999997 -15.6876 9.719099999999997 -15.47276 10.531599999999997 -15.04698 C 11.351909999999997 -14.617289999999999 12.097999999999997 -13.961079999999999 12.765999999999998 -13.07818 z M 9.5472 -3.1560999999999986 C 10.5863 -3.1560999999999986 11.3831 -3.5350099999999984 11.9378 -4.296699999999999 C 12.488579999999999 -5.066229999999999 12.76592 -6.179499999999999 12.76592 -7.6404999999999985 C 12.76592 -9.097499999999998 12.488579999999999 -10.206899999999997 11.9378 -10.968599999999999 C 11.383109999999999 -11.738129999999998 10.5862 -12.124799999999999 9.5472 -12.124799999999999 C 8.5042 -12.124799999999999 7.7074 -11.738079999999998 7.1566 -10.968599999999999 C 6.60191 -10.206879999999998 6.32848 -9.097499999999998 6.32848 -7.6404999999999985 C 6.32848 -6.179599999999999 6.60192 -5.066299999999998 7.1566 -4.296699999999999 C 7.707380000000001 -3.5349799999999987 8.5043 -3.1560999999999986 9.5472 -3.1560999999999986 z" stroke-linecap="round" />
</g>
		<g transform="matrix(1.3333333333 0 0 1.3333333333 -180.0260586667 378.07304)" id="Hrtbv99iyYufH3DKCUAJN"  >
<path style="stroke: none; stroke-width: 1; stroke-dasharray: none; stroke-linecap: butt; stroke-dashoffset: 0; stroke-linejoin: miter; stroke-miterlimit: 4; fill: rgb(0,0,0); fill-rule: nonzero; opacity: 1;" vector-effect="non-scaling-stroke"  transform=" translate(-10.5703, 10.44522)" d="M 10.5 -3.1562 C 11.5508 -3.1562 12.3516 -3.53511 12.9062 -4.2968 C 13.45698 -5.066330000000001 13.73432 -6.179600000000001 13.73432 -7.6406 C 13.73432 -9.0976 13.45698 -10.207 12.9062 -10.9687 C 12.35151 -11.73823 11.5507 -12.1249 10.5 -12.1249 C 9.4453 -12.1249 8.6406 -11.73818 8.0781 -10.9687 C 7.523409999999999 -10.19526 7.249979999999999 -9.0859 7.249979999999999 -7.6406 C 7.249979999999999 -6.1914 7.523419999999999 -5.082 8.0781 -4.3125 C 8.6406 -3.53906 9.4453 -3.1563 10.5 -3.1563 z M 7.25 -13.078100000000001 C 7.92578 -13.96091 8.6719 -14.6172 9.4844 -15.0469 C 10.30471 -15.47268 11.25 -15.687520000000001 12.3125 -15.687520000000001 C 14.207 -15.687520000000001 15.7578 -14.937520000000001 16.9687 -13.437520000000001 C 18.1757 -11.937520000000001 18.7812 -10.00392 18.7812 -7.640620000000001 C 18.7812 -5.285120000000001 18.175729999999998 -3.359420000000001 16.9687 -1.859420000000001 C 15.757799999999998 -0.35942000000000096 14.206999999999999 0.39057999999999904 12.312499999999998 0.39057999999999904 C 11.249999999999998 0.39057999999999904 10.304699999999999 0.17963999999999905 9.484399999999997 -0.23442000000000096 C 8.671899999999997 -0.660200000000001 7.925799999999997 -1.320320000000001 7.249999999999997 -2.218820000000001 L 7.249999999999997 -0.000020000000001019203 L 2.3593999999999973 -0.000020000000001019203 L 2.3593999999999973 -21.281019999999998 L 7.249999999999997 -21.281019999999998 z" stroke-linecap="round" />
</g>
		<g transform="matrix(1.3333333333 0 0 1.3333333333 -155.3333666667 385.8238)" id="b6v8wrHHV61WC0qHj_Km1"  >
<path style="stroke: none; stroke-width: 1; stroke-dasharray: none; stroke-linecap: butt; stroke-dashoffset: 0; stroke-linejoin: miter; stroke-miterlimit: 4; fill: rgb(0,0,0); fill-rule: nonzero; opacity: 1;" vector-effect="non-scaling-stroke"  transform=" translate(-9.04685, 4.63215)" d="M 0.34375 -15.312 L 5.23435 -15.312 L 9.35935 -4.920999999999999 L 12.85935 -15.312 L 17.74995 -15.312 L 11.312449999999998 1.4539999999999988 C 10.664009999999998 3.149299999999999 9.910149999999998 4.336799999999998 9.04685 5.016499999999999 C 8.179659999999998 5.703999999999999 7.046849999999999 6.047699999999999 5.640649999999999 6.047699999999999 L 2.796849999999999 6.047699999999999 L 2.796849999999999 2.828899999999999 L 4.328049999999999 2.828899999999999 C 5.160079999999999 2.828899999999999 5.765549999999999 2.692179999999999 6.140549999999999 2.422649999999999 C 6.523359999999999 2.160929999999999 6.820239999999999 1.6921799999999991 7.0311699999999995 1.0164499999999992 L 7.17179 0.5945699999999992 z" stroke-linecap="round" />
</g>
		<g transform="matrix(1.3333333333 0 0 1.3333333333 -125.8958333333 382.1358)" id="_CR-qAAntaUhiOpiRlDoI"  >
<path style="stroke: none; stroke-width: 1; stroke-dasharray: none; stroke-linecap: butt; stroke-dashoffset: 0; stroke-linejoin: miter; stroke-miterlimit: 4; fill: rgb(0,0,0); fill-rule: nonzero; opacity: 1;" vector-effect="non-scaling-stroke"  transform=" translate(-3.125, 7.39815)" d="M 2.5781 -20.406 L 7.8281 -20.406 L 7.8281 -1.9839999999999982 C 7.8281 0.5551000000000017 7.13279 2.4574000000000016 5.75 3.719100000000002 C 4.375 4.976900000000002 2.2891 5.609700000000002 -0.5 5.609700000000002 L -1.5781 5.609700000000002 L -1.5781 1.625300000000002 L -0.7499800000000001 1.625300000000002 C 0.34382 1.625300000000002 1.1719199999999999 1.316710000000002 1.7344199999999999 0.7034200000000019 C 2.29692 0.09795000000000198 2.57817 -0.7965799999999981 2.57817 -1.984079999999998 z" stroke-linecap="round" />
</g>
		<g transform="matrix(1.3333333333 0 0 1.3333333333 -103.3541493333 381.8013333333)" id="i-6nB4rC-9k3XIHYWo1wZ"  >
<path style="stroke: none; stroke-width: 1; stroke-dasharray: none; stroke-linecap: butt; stroke-dashoffset: 0; stroke-linejoin: miter; stroke-miterlimit: 4; fill: rgb(0,0,0); fill-rule: nonzero; opacity: 1;" vector-effect="non-scaling-stroke"  transform=" translate(-9.6172, 7.649)" d="M 9.6406 -12.188 C 8.554699999999999 -12.188 7.7265 -11.79738 7.156199999999999 -11.016100000000002 C 6.58198 -10.234850000000002 6.296819999999999 -9.109900000000001 6.296819999999999 -7.641100000000002 C 6.296819999999999 -6.172300000000002 6.58198 -5.047300000000002 7.156199999999999 -4.266100000000002 C 7.726509999999999 -3.4926600000000017 8.554599999999999 -3.1099000000000014 9.6406 -3.1099000000000014 C 10.7031 -3.1099000000000014 11.5156 -3.4927100000000015 12.0781 -4.266100000000002 C 12.648409999999998 -5.047350000000002 12.937479999999999 -6.172300000000002 12.937479999999999 -7.641100000000002 C 12.937479999999999 -9.109900000000001 12.64842 -10.234900000000001 12.0781 -11.016100000000002 C 11.5156 -11.797350000000002 10.7031 -12.188000000000002 9.6406 -12.188000000000002 z M 9.6406 -15.688 C 12.273399999999999 -15.688 14.331999999999999 -14.97316 15.8125 -13.5474 C 17.2891 -12.1294 18.0313 -10.1607 18.0313 -7.6411999999999995 C 18.0313 -5.1295 17.28911 -3.1606999999999994 15.812500000000002 -1.7349999999999994 C 14.332000000000003 -0.3169999999999995 12.273400000000002 0.39000000000000057 9.640600000000003 0.39000000000000057 C 6.992200000000002 0.39000000000000057 4.925800000000002 -0.3170299999999995 3.4375000000000027 -1.7349999999999994 C 1.9453000000000027 -3.160799999999999 1.2031000000000027 -5.129499999999999 1.2031000000000027 -7.6411999999999995 C 1.2031000000000027 -10.160699999999999 1.9452900000000026 -12.1295 3.4375000000000027 -13.5474 C 4.925800000000002 -14.9732 6.992200000000002 -15.687999999999999 9.640600000000003 -15.687999999999999 z" stroke-linecap="round" />
</g>
		<g transform="matrix(1.3333333333 0 0 1.3333333333 -79.328568 381.8022733333)" id="iZZHRSHZ2IYfo1bk6lXVi"  >
<path style="stroke: none; stroke-width: 1; stroke-dasharray: none; stroke-linecap: butt; stroke-dashoffset: 0; stroke-linejoin: miter; stroke-miterlimit: 4; fill: rgb(0,0,0); fill-rule: nonzero; opacity: 1;" vector-effect="non-scaling-stroke"  transform=" translate(-8.398105, 7.648295)" d="M 14.312 -14.828 L 14.312 -11.1092 C 13.269 -11.5467 12.257299999999999 -11.87482 11.2808 -12.09358 C 10.300329999999999 -12.31233 9.378499999999999 -12.4217 8.5152 -12.4217 C 7.58551 -12.4217 6.8941 -12.304509999999999 6.4371 -12.07795 C 5.98788 -11.84748 5.76522 -11.488109999999999 5.76522 -10.999849999999999 C 5.76522 -10.613129999999998 5.9371 -10.316259999999998 6.28084 -10.109229999999998 C 6.62459 -9.898289999999998 7.237870000000001 -9.742039999999998 8.124640000000001 -9.640479999999998 L 8.984020000000001 -9.515479999999998 C 11.49182 -9.191259999999998 13.17932 -8.66392 14.046520000000001 -7.937379999999998 C 14.9098 -7.206909999999999 15.343420000000002 -6.066279999999998 15.343420000000002 -4.515479999999998 C 15.343420000000002 -2.878779999999998 14.737950000000001 -1.6482799999999984 13.530920000000002 -0.8279799999999984 C 12.331720000000002 -0.015479999999998384 10.538720000000001 0.3908200000000017 8.155920000000002 0.3908200000000017 C 7.132520000000001 0.3908200000000017 6.0817200000000025 0.3126950000000017 4.999720000000002 0.15644000000000172 C 3.9255200000000015 0.00019000000000171657 2.8200200000000017 -0.23808999999999828 1.6872200000000017 -0.5623099999999983 L 1.6872200000000017 -4.281109999999998 C 2.6559700000000017 -3.8006399999999982 3.648120000000002 -3.441269999999998 4.671620000000002 -3.203009999999998 C 5.702820000000002 -2.972539999999998 6.749720000000002 -2.859259999999998 7.812220000000002 -2.859259999999998 C 8.769250000000001 -2.859259999999998 9.488020000000002 -2.988169999999998 9.968420000000002 -3.2498799999999983 C 10.444980000000001 -3.5194099999999984 10.687170000000002 -3.9139399999999984 10.687170000000002 -4.437379999999998 C 10.687170000000002 -4.874879999999998 10.519200000000001 -5.195189999999998 10.187170000000002 -5.406129999999998 C 9.851230000000001 -5.624879999999998 9.191080000000001 -5.788939999999998 8.202770000000001 -5.906129999999998 L 7.343390000000001 -6.015509999999998 C 5.163690000000001 -6.285039999999998 3.640290000000001 -6.788949999999998 2.765290000000001 -7.531109999999998 C 1.8902900000000011 -8.269389999999998 1.4527900000000011 -9.390509999999999 1.4527900000000011 -10.890509999999999 C 1.4527900000000011 -12.515509999999999 2.003570000000001 -13.718609999999998 3.1089900000000013 -14.49991 C 4.222290000000001 -15.288969999999999 5.929290000000002 -15.68741 8.233990000000002 -15.68741 C 9.128520000000002 -15.68741 10.069890000000003 -15.613191 11.062090000000001 -15.46866 C 12.062090000000001 -15.33194 13.144090000000002 -15.1171 14.312090000000001 -14.82804 z" stroke-linecap="round" />
</g>
		<g transform="matrix(1.3333333333 0 0 1.3333333333 -55.7391493333 377.33366)" id="9TBQdr8b9B3GLzYMtB4MM"  >
<path style="stroke: none; stroke-width: 1; stroke-dasharray: none; stroke-linecap: butt; stroke-dashoffset: 0; stroke-linejoin: miter; stroke-miterlimit: 4; fill: rgb(0,0,0); fill-rule: nonzero; opacity: 1;" vector-effect="non-scaling-stroke"  transform=" translate(-9.4222, 10.999755)" d="M 17.641 -7.7031 L 17.641 -6.2969 L 6.187999999999999 -6.2969 C 6.312999999999999 -5.1485 6.727059999999999 -4.2890999999999995 7.437999999999999 -3.7188 C 8.145029999999998 -3.14458 9.141099999999998 -2.85942 10.4224 -2.85942 C 11.4536 -2.85942 12.5044 -3.00786 13.5786 -3.3125400000000003 C 14.6606 -3.6250400000000003 15.77 -4.08598 16.9067 -4.70314 L 16.9067 -0.9375400000000003 C 15.7505 -0.5000400000000003 14.5942 -0.1719200000000003 13.4379 0.04683999999999977 C 12.2817 0.27339999999999975 11.1254 0.39058999999999977 9.969100000000001 0.39058999999999977 C 7.1957 0.39058999999999977 5.0394000000000005 -0.3125300000000002 3.500300000000001 -1.7188100000000002 C 1.9691000000000012 -3.12501 1.2034000000000011 -5.09771 1.2034000000000011 -7.64071 C 1.2034000000000011 -10.14071 1.957310000000001 -12.10161 3.469000000000001 -13.531310000000001 C 4.976800000000001 -14.968810000000001 7.051000000000001 -15.687510000000001 9.687800000000001 -15.687510000000001 C 12.094000000000001 -15.687510000000001 14.0198 -14.957040000000001 15.469000000000001 -13.500010000000001 C 16.9143 -12.050810000000002 17.640900000000002 -10.117210000000002 17.640900000000002 -7.7031100000000015 z M 12.609799999999998 -9.3281 C 12.609799999999998 -10.253879999999999 12.336359999999997 -11 11.797299999999998 -11.5625 C 11.254329999999998 -12.13281 10.547299999999998 -12.42188 9.672299999999998 -12.42188 C 8.723079999999998 -12.42188 7.953499999999998 -12.15626 7.359799999999998 -11.625 C 6.766099999999998 -11.09374 6.394959999999998 -10.3281 6.250399999999998 -9.3281 z M 11.812919999999998 -22.390099999999997 L 15.687919999999998 -22.390099999999997 L 10.641019999999997 -17.249499999999998 L 7.9535199999999975 -17.249499999999998 z" stroke-linecap="round" />
</g>
		<g transform="matrix(1.3333333333 0 0 1.3333333333 -16.5515173333 378.40616)" id="aQzw0s9OK509OMcBELmwb"  >
<path style="stroke: none; stroke-width: 1; stroke-dasharray: none; stroke-linecap: butt; stroke-dashoffset: 0; stroke-linejoin: miter; stroke-miterlimit: 4; fill: rgb(0,0,0); fill-rule: nonzero; opacity: 1;" vector-effect="non-scaling-stroke"  transform=" translate(-10.07855, 10.19538)" d="M 18.766 -1.125 C 17.79725 -0.625 16.7855 -0.25 15.734799999999998 0 C 14.691799999999999 0.25781 13.598099999999999 0.39062 12.453599999999998 0.39062 C 9.055199999999997 0.39062 6.363799999999998 -0.5546899999999999 4.375499999999999 -2.4531799999999997 C 2.383299999999999 -4.35938 1.391099999999999 -6.93758 1.391099999999999 -10.18758 C 1.391099999999999 -13.44538 2.383289999999999 -16.02348 4.375499999999999 -17.92198 C 6.363799999999999 -19.82818 9.0552 -20.781380000000002 12.453599999999998 -20.781380000000002 C 13.598099999999999 -20.781380000000002 14.691899999999999 -20.648570000000003 15.734799999999998 -20.390760000000004 C 16.7856 -20.140760000000004 17.7973 -19.765760000000004 18.766 -19.265760000000004 L 18.766 -15.046960000000004 C 17.785529999999998 -15.703210000000004 16.8207 -16.187560000000005 15.875399999999999 -16.500060000000005 C 14.926179999999999 -16.812560000000005 13.9262 -16.968810000000005 12.875399999999999 -16.968810000000005 C 11.000399999999999 -16.968810000000005 9.5238 -16.363340000000004 8.453499999999998 -15.156310000000005 C 7.379299999999998 -13.957110000000005 6.844099999999998 -12.300810000000006 6.844099999999998 -10.187510000000005 C 6.844099999999998 -8.082010000000004 7.379259999999999 -6.425810000000006 8.453499999999998 -5.218710000000005 C 9.523799999999998 -4.019510000000005 11.000399999999999 -3.421810000000005 12.875399999999999 -3.421810000000005 C 13.9262 -3.421810000000005 14.9262 -3.570250000000005 15.875399999999999 -3.8749300000000053 C 16.82071 -4.187430000000005 17.7856 -4.675710000000006 18.766 -5.343730000000005 z" stroke-linecap="round" />
</g>
		<g transform="matrix(1.3333333333 0 0 1.3333333333 9.338592 381.80204)" id="ucB4e42HWXaAVfwQNExuc"  >
<path style="stroke: none; stroke-width: 1; stroke-dasharray: none; stroke-linecap: butt; stroke-dashoffset: 0; stroke-linejoin: miter; stroke-miterlimit: 4; fill: rgb(0,0,0); fill-rule: nonzero; opacity: 1;" vector-effect="non-scaling-stroke"  transform=" translate(-8.94535, 7.64847)" d="M 9.2188 -6.8906 C 8.1954 -6.8906 7.4258 -6.71872 6.9063 -6.37498 C 6.3945799999999995 -6.03123 6.14068 -5.51951 6.14068 -4.84378 C 6.14068 -4.21878 6.347709999999999 -3.72658 6.76568 -3.37498 C 7.17974 -3.03123 7.753959999999999 -2.8593599999999997 8.48448 -2.8593599999999997 C 9.41026 -2.8593599999999997 10.18758 -3.18748 10.81258 -3.8437399999999995 C 11.44539 -4.5078 11.7657 -5.335939999999999 11.7657 -6.328139999999999 L 11.7657 -6.890639999999999 z M 16.6876 -8.7344 L 16.6876 0 L 11.765699999999999 0 L 11.765699999999999 -2.2656 C 11.109449999999999 -1.3359100000000002 10.367299999999998 -0.6601000000000001 9.546899999999999 -0.23439999999999994 C 8.722679999999999 0.17966000000000004 7.722699999999999 0.39060000000000006 6.546899999999999 0.39060000000000006 C 4.9609999999999985 0.39060000000000006 3.675799999999999 -0.06642999999999993 2.687499999999999 -0.9843999999999999 C 1.6953099999999992 -1.91018 1.2030999999999992 -3.1132999999999997 1.2030999999999992 -4.5938 C 1.2030999999999992 -6.382899999999999 1.8163799999999992 -7.695399999999999 3.046899999999999 -8.5313 C 4.285199999999999 -9.37505 6.2265999999999995 -9.7969 8.875 -9.7969 L 11.7656 -9.7969 L 11.7656 -10.187520000000001 C 11.7656 -10.95705 11.457009999999999 -11.519520000000002 10.84372 -11.875020000000001 C 10.226529999999999 -12.2383 9.27342 -12.4219 7.984319999999999 -12.4219 C 6.92962 -12.4219 5.953119999999999 -12.31643 5.046819999999999 -12.1094 C 4.1483799999999995 -11.89846 3.3163199999999993 -11.58596 2.5468199999999994 -11.1719 L 2.5468199999999994 -14.906300000000002 C 3.5859199999999993 -15.156300000000002 4.632719999999999 -15.347710000000001 5.6874199999999995 -15.484420000000002 C 6.7499199999999995 -15.617230000000001 7.8124199999999995 -15.687540000000002 8.87492 -15.687540000000002 C 11.632719999999999 -15.687540000000002 13.62492 -15.140660000000002 14.84372 -14.046940000000003 C 16.07032 -12.961040000000002 16.68752 -11.191440000000004 16.68752 -8.734440000000003 z" stroke-linecap="round" />
</g>
		<g transform="matrix(1.3333333333 0 0 1.3333333333 42.1354833333 381.5411333333)" id="a8qujPP-sI3nCIc80tCY0"  >
<path style="stroke: none; stroke-width: 1; stroke-dasharray: none; stroke-linecap: butt; stroke-dashoffset: 0; stroke-linejoin: miter; stroke-miterlimit: 4; fill: rgb(0,0,0); fill-rule: nonzero; opacity: 1;" vector-effect="non-scaling-stroke"  transform=" translate(-14.6484875, 7.84415)" d="M 16.547 -12.766 C 17.16028 -13.71131 17.8947 -14.437899999999999 18.7501 -14.937899999999999 C 19.60166 -15.437899999999999 20.5392 -15.687899999999999 21.5626 -15.687899999999999 C 23.3204 -15.687899999999999 24.6603 -15.14102 25.5782 -14.0473 C 26.50398 -12.9614 26.968799999999998 -11.3911 26.968799999999998 -9.3285 L 26.968799999999998 -0.0004000000000008441 L 22.046899999999997 -0.0004000000000008441 L 22.046899999999997 -7.984800000000001 L 22.046899999999997 -8.344180000000001 C 22.054712999999996 -8.47699 22.062524999999997 -8.66449 22.062524999999997 -8.906680000000001 C 22.062524999999997 -9.988680000000002 21.898464999999998 -10.769980000000002 21.578144999999996 -11.250480000000001 C 21.265644999999996 -11.738760000000001 20.753924999999995 -11.984860000000001 20.046944999999997 -11.984860000000001 C 19.117254999999997 -11.984860000000001 18.398545 -11.59814 17.890744999999995 -10.828660000000001 C 17.379024999999995 -10.06694 17.117304999999995 -8.96146 17.109494999999995 -7.516160000000001 L 17.109494999999995 -0.0005600000000010041 L 12.187594999999995 -0.0005600000000010041 L 12.187594999999995 -7.984960000000001 C 12.187594999999995 -9.68026 12.039154999999994 -10.77016 11.750094999999995 -11.25056 C 11.457124999999994 -11.73884 10.937594999999995 -11.98494 10.187594999999995 -11.98494 C 9.250094999999995 -11.98494 8.523494999999995 -11.59822 8.015694999999994 -10.82874 C 7.503974999999993 -10.06702 7.250074999999994 -8.969339999999999 7.250074999999994 -7.53184 L 7.250074999999994 -0.0006399999999997519 L 2.3281749999999937 -0.0006399999999997519 L 2.3281749999999937 -15.312639999999998 L 7.250074999999994 -15.312639999999998 L 7.250074999999994 -13.078239999999997 C 7.851634999999994 -13.941519999999997 8.539174999999993 -14.593839999999997 9.312574999999994 -15.031339999999997 C 10.093824999999994 -15.468839999999997 10.953174999999995 -15.687589999999997 11.890674999999995 -15.687589999999997 C 12.953174999999995 -15.687589999999997 13.890674999999995 -15.429779999999997 14.703174999999995 -14.921969999999996 C 15.515674999999995 -14.410249999999996 16.128974999999993 -13.691469999999997 16.546974999999996 -12.765769999999996 z" stroke-linecap="round" />
</g>
		<g transform="matrix(1.3333333333 0 0 1.3333333333 75.5989413333 385.4267866667)" id="ChW3RQAkSL4L3Esas7SDX"  >
<path style="stroke: none; stroke-width: 1; stroke-dasharray: none; stroke-linecap: butt; stroke-dashoffset: 0; stroke-linejoin: miter; stroke-miterlimit: 4; fill: rgb(0,0,0); fill-rule: nonzero; opacity: 1;" vector-effect="non-scaling-stroke"  transform=" translate(-10.5703, 4.92991)" d="M 7.25 -2.2188 L 7.25 5.828100000000001 L 2.3594 5.828100000000001 L 2.3594 -15.312899999999997 L 7.25 -15.312899999999997 L 7.25 -13.078499999999998 C 7.92578 -13.961309999999997 8.6719 -14.617599999999998 9.4844 -15.047299999999998 C 10.30471 -15.473079999999998 11.25 -15.687919999999998 12.3125 -15.687919999999998 C 14.207 -15.687919999999998 15.7578 -14.937919999999998 16.9687 -13.437919999999998 C 18.1757 -11.937919999999998 18.7812 -10.004319999999998 18.7812 -7.641019999999998 C 18.7812 -5.285519999999998 18.175729999999998 -3.3598199999999983 16.9687 -1.8598199999999983 C 15.757799999999998 -0.35981999999999825 14.206999999999999 0.39018000000000175 12.312499999999998 0.39018000000000175 C 11.249999999999998 0.39018000000000175 10.304699999999999 0.17924000000000176 9.484399999999997 -0.23481999999999825 C 8.671899999999997 -0.6605999999999983 7.925799999999997 -1.3207199999999983 7.249999999999997 -2.219219999999998 z M 10.5 -12.125 C 9.4453 -12.125 8.6406 -11.73828 8.0781 -10.9688 C 7.523409999999999 -10.195359999999999 7.249979999999999 -9.086 7.249979999999999 -7.6407 C 7.249979999999999 -6.1915 7.523419999999999 -5.0821 8.0781 -4.3126 C 8.6406 -3.53916 9.4453 -3.1563999999999997 10.5 -3.1563999999999997 C 11.5508 -3.1563999999999997 12.3516 -3.5353099999999995 12.9062 -4.297 C 13.45698 -5.06653 13.73432 -6.1798 13.73432 -7.6408 C 13.73432 -9.0978 13.45698 -10.2072 12.9062 -10.9689 C 12.35151 -11.73843 11.5507 -12.1251 10.5 -12.1251 z" stroke-linecap="round" />
</g>
		<g transform="matrix(1.3333333333 0 0 1.3333333333 101.0521 381.8013333333)" id="x1Stj9fC1Q7B-urUr_4uV"  >
<path style="stroke: none; stroke-width: 1; stroke-dasharray: none; stroke-linecap: butt; stroke-dashoffset: 0; stroke-linejoin: miter; stroke-miterlimit: 4; fill: rgb(0,0,0); fill-rule: nonzero; opacity: 1;" vector-effect="non-scaling-stroke"  transform=" translate(-9.6172, 7.649)" d="M 9.6406 -12.188 C 8.554699999999999 -12.188 7.7265 -11.79738 7.156199999999999 -11.016100000000002 C 6.58198 -10.234850000000002 6.296819999999999 -9.109900000000001 6.296819999999999 -7.641100000000002 C 6.296819999999999 -6.172300000000002 6.58198 -5.047300000000002 7.156199999999999 -4.266100000000002 C 7.726509999999999 -3.4926600000000017 8.554599999999999 -3.1099000000000014 9.6406 -3.1099000000000014 C 10.7031 -3.1099000000000014 11.5156 -3.4927100000000015 12.0781 -4.266100000000002 C 12.648409999999998 -5.047350000000002 12.937479999999999 -6.172300000000002 12.937479999999999 -7.641100000000002 C 12.937479999999999 -9.109900000000001 12.64842 -10.234900000000001 12.0781 -11.016100000000002 C 11.5156 -11.797350000000002 10.7031 -12.188000000000002 9.6406 -12.188000000000002 z M 9.6406 -15.688 C 12.273399999999999 -15.688 14.331999999999999 -14.97316 15.8125 -13.5474 C 17.2891 -12.1294 18.0313 -10.1607 18.0313 -7.6411999999999995 C 18.0313 -5.1295 17.28911 -3.1606999999999994 15.812500000000002 -1.7349999999999994 C 14.332000000000003 -0.3169999999999995 12.273400000000002 0.39000000000000057 9.640600000000003 0.39000000000000057 C 6.992200000000002 0.39000000000000057 4.925800000000002 -0.3170299999999995 3.4375000000000027 -1.7349999999999994 C 1.9453000000000027 -3.160799999999999 1.2031000000000027 -5.129499999999999 1.2031000000000027 -7.6411999999999995 C 1.2031000000000027 -10.160699999999999 1.9452900000000026 -12.1295 3.4375000000000027 -13.5474 C 4.925800000000002 -14.9732 6.992200000000002 -15.687999999999999 9.640600000000003 -15.687999999999999 z" stroke-linecap="round" />
</g>
		<g transform="matrix(1.3333333333 0 0 1.3333333333 125.0724733333 381.8022733333)" id="nRQ4jd30MWcJ3ioBfAb78"  >
<path style="stroke: none; stroke-width: 1; stroke-dasharray: none; stroke-linecap: butt; stroke-dashoffset: 0; stroke-linejoin: miter; stroke-miterlimit: 4; fill: rgb(0,0,0); fill-rule: nonzero; opacity: 1;" vector-effect="non-scaling-stroke"  transform=" translate(-8.398105, 7.648295)" d="M 14.312 -14.828 L 14.312 -11.1092 C 13.269 -11.5467 12.257299999999999 -11.87482 11.2808 -12.09358 C 10.300329999999999 -12.31233 9.378499999999999 -12.4217 8.5152 -12.4217 C 7.58551 -12.4217 6.8941 -12.304509999999999 6.4371 -12.07795 C 5.98788 -11.84748 5.76522 -11.488109999999999 5.76522 -10.999849999999999 C 5.76522 -10.613129999999998 5.9371 -10.316259999999998 6.28084 -10.109229999999998 C 6.62459 -9.898289999999998 7.237870000000001 -9.742039999999998 8.124640000000001 -9.640479999999998 L 8.984020000000001 -9.515479999999998 C 11.49182 -9.191259999999998 13.17932 -8.66392 14.046520000000001 -7.937379999999998 C 14.9098 -7.206909999999999 15.343420000000002 -6.066279999999998 15.343420000000002 -4.515479999999998 C 15.343420000000002 -2.878779999999998 14.737950000000001 -1.6482799999999984 13.530920000000002 -0.8279799999999984 C 12.331720000000002 -0.015479999999998384 10.538720000000001 0.3908200000000017 8.155920000000002 0.3908200000000017 C 7.132520000000001 0.3908200000000017 6.0817200000000025 0.3126950000000017 4.999720000000002 0.15644000000000172 C 3.9255200000000015 0.00019000000000171657 2.8200200000000017 -0.23808999999999828 1.6872200000000017 -0.5623099999999983 L 1.6872200000000017 -4.281109999999998 C 2.6559700000000017 -3.8006399999999982 3.648120000000002 -3.441269999999998 4.671620000000002 -3.203009999999998 C 5.702820000000002 -2.972539999999998 6.749720000000002 -2.859259999999998 7.812220000000002 -2.859259999999998 C 8.769250000000001 -2.859259999999998 9.488020000000002 -2.988169999999998 9.968420000000002 -3.2498799999999983 C 10.444980000000001 -3.5194099999999984 10.687170000000002 -3.9139399999999984 10.687170000000002 -4.437379999999998 C 10.687170000000002 -4.874879999999998 10.519200000000001 -5.195189999999998 10.187170000000002 -5.406129999999998 C 9.851230000000001 -5.624879999999998 9.191080000000001 -5.788939999999998 8.202770000000001 -5.906129999999998 L 7.343390000000001 -6.015509999999998 C 5.163690000000001 -6.285039999999998 3.640290000000001 -6.788949999999998 2.765290000000001 -7.531109999999998 C 1.8902900000000011 -8.269389999999998 1.4527900000000011 -9.390509999999999 1.4527900000000011 -10.890509999999999 C 1.4527900000000011 -12.515509999999999 2.003570000000001 -13.718609999999998 3.1089900000000013 -14.49991 C 4.222290000000001 -15.288969999999999 5.929290000000002 -15.68741 8.233990000000002 -15.68741 C 9.128520000000002 -15.68741 10.069890000000003 -15.613191 11.062090000000001 -15.46866 C 12.062090000000001 -15.33194 13.144090000000002 -15.1171 14.312090000000001 -14.82804 z" stroke-linecap="round" />
</g>
		<g transform="matrix(1.3333333333 0 0 1.3333333333 -364.6977 415.1458666667)" id="YxoijVVZEmIVuxurey5s3"  >
<path style="stroke: none; stroke-width: 1; stroke-dasharray: none; stroke-linecap: butt; stroke-dashoffset: 0; stroke-linejoin: miter; stroke-miterlimit: 4; fill: rgb(0,0,0); fill-rule: nonzero; opacity: 1;" vector-effect="non-scaling-stroke"  transform=" translate(-6.476725, 10.6406)" d="M 12.422 -21.281 L 12.422 -18.062199999999997 L 9.718900000000001 -18.062199999999997 C 9.031400000000001 -18.062199999999997 8.547 -17.937199999999997 8.265800000000002 -17.687199999999997 C 7.992360000000002 -17.437199999999997 7.859550000000002 -16.999699999999997 7.859550000000002 -16.374699999999997 L 7.859550000000002 -15.312199999999997 L 12.047050000000002 -15.312199999999997 L 12.047050000000002 -11.812199999999997 L 7.859550000000002 -11.812199999999997 L 7.859550000000002 -0.00019999999999775753 L 2.968950000000002 -0.00019999999999775753 L 2.968950000000002 -11.812199999999997 L 0.5314500000000022 -11.812199999999997 L 0.5314500000000022 -15.312199999999997 L 2.968950000000002 -15.312199999999997 L 2.968950000000002 -16.374699999999997 C 2.968950000000002 -18.0388 3.429890000000002 -19.273099999999996 4.359550000000002 -20.077799999999996 C 5.285330000000002 -20.878579999999996 6.726750000000003 -21.280899999999995 8.687650000000001 -21.280899999999995 z" stroke-linecap="round" />
</g>
		<g transform="matrix(1.3333333333 0 0 1.3333333333 -346.359808 418.8748533333)" id="lmBOmTolefVFAxTDD_Kvb"  >
<path style="stroke: none; stroke-width: 1; stroke-dasharray: none; stroke-linecap: butt; stroke-dashoffset: 0; stroke-linejoin: miter; stroke-miterlimit: 4; fill: rgb(0,0,0); fill-rule: nonzero; opacity: 1;" vector-effect="non-scaling-stroke"  transform=" translate(-8.04655, 7.84386)" d="M 13.734 -11.141 C 13.2965 -11.33631 12.86291 -11.48475 12.437100000000001 -11.5785 C 12.01913 -11.68006 11.59726 -11.73475 11.171500000000002 -11.73475 C 9.909800000000002 -11.73475 8.941000000000003 -11.3285 8.265300000000002 -10.51595 C 7.585610000000002 -9.71126 7.249700000000002 -8.562850000000001 7.249700000000002 -7.06285 L 7.249700000000002 -0.0003500000000000725 L 2.3591000000000015 -0.0003500000000000725 L 2.3591000000000015 -15.312349999999999 L 7.249700000000002 -15.312349999999999 L 7.249700000000002 -12.79675 C 7.874700000000002 -13.79675 8.593500000000002 -14.523349999999999 9.405900000000003 -14.98425 C 10.226210000000002 -15.453 11.206700000000003 -15.68737 12.343400000000003 -15.68737 C 12.507460000000002 -15.68737 12.687150000000003 -15.675651 12.874650000000003 -15.65612 C 13.069960000000002 -15.644401 13.351210000000002 -15.617058 13.718400000000003 -15.577995 z" stroke-linecap="round" />
</g>
		<g transform="matrix(1.3333333333 0 0 1.3333333333 -325.8541493333 419.1346666667)" id="RTAdWDU3k8edlqrABPqTo"  >
<path style="stroke: none; stroke-width: 1; stroke-dasharray: none; stroke-linecap: butt; stroke-dashoffset: 0; stroke-linejoin: miter; stroke-miterlimit: 4; fill: rgb(0,0,0); fill-rule: nonzero; opacity: 1;" vector-effect="non-scaling-stroke"  transform=" translate(-9.6172, 7.649)" d="M 9.6406 -12.188 C 8.554699999999999 -12.188 7.7265 -11.79738 7.156199999999999 -11.016100000000002 C 6.58198 -10.234850000000002 6.296819999999999 -9.109900000000001 6.296819999999999 -7.641100000000002 C 6.296819999999999 -6.172300000000002 6.58198 -5.047300000000002 7.156199999999999 -4.266100000000002 C 7.726509999999999 -3.4926600000000017 8.554599999999999 -3.1099000000000014 9.6406 -3.1099000000000014 C 10.7031 -3.1099000000000014 11.5156 -3.4927100000000015 12.0781 -4.266100000000002 C 12.648409999999998 -5.047350000000002 12.937479999999999 -6.172300000000002 12.937479999999999 -7.641100000000002 C 12.937479999999999 -9.109900000000001 12.64842 -10.234900000000001 12.0781 -11.016100000000002 C 11.5156 -11.797350000000002 10.7031 -12.188000000000002 9.6406 -12.188000000000002 z M 9.6406 -15.688 C 12.273399999999999 -15.688 14.331999999999999 -14.97316 15.8125 -13.5474 C 17.2891 -12.1294 18.0313 -10.1607 18.0313 -7.6411999999999995 C 18.0313 -5.1295 17.28911 -3.1606999999999994 15.812500000000002 -1.7349999999999994 C 14.332000000000003 -0.3169999999999995 12.273400000000002 0.39000000000000057 9.640600000000003 0.39000000000000057 C 6.992200000000002 0.39000000000000057 4.925800000000002 -0.3170299999999995 3.4375000000000027 -1.7349999999999994 C 1.9453000000000027 -3.160799999999999 1.2031000000000027 -5.129499999999999 1.2031000000000027 -7.6411999999999995 C 1.2031000000000027 -10.160699999999999 1.9452900000000026 -12.1295 3.4375000000000027 -13.5474 C 4.925800000000002 -14.9732 6.992200000000002 -15.687999999999999 9.640600000000003 -15.687999999999999 z" stroke-linecap="round" />
</g>
		<g transform="matrix(1.3333333333 0 0 1.3333333333 -293.499934 418.8744666667)" id="UEd-ujaQfUsuNTIqis3yU"  >
<path style="stroke: none; stroke-width: 1; stroke-dasharray: none; stroke-linecap: butt; stroke-dashoffset: 0; stroke-linejoin: miter; stroke-miterlimit: 4; fill: rgb(0,0,0); fill-rule: nonzero; opacity: 1;" vector-effect="non-scaling-stroke"  transform=" translate(-14.6484875, 7.84415)" d="M 16.547 -12.766 C 17.16028 -13.71131 17.8947 -14.437899999999999 18.7501 -14.937899999999999 C 19.60166 -15.437899999999999 20.5392 -15.687899999999999 21.5626 -15.687899999999999 C 23.3204 -15.687899999999999 24.6603 -15.14102 25.5782 -14.0473 C 26.50398 -12.9614 26.968799999999998 -11.3911 26.968799999999998 -9.3285 L 26.968799999999998 -0.0004000000000008441 L 22.046899999999997 -0.0004000000000008441 L 22.046899999999997 -7.984800000000001 L 22.046899999999997 -8.344180000000001 C 22.054712999999996 -8.47699 22.062524999999997 -8.66449 22.062524999999997 -8.906680000000001 C 22.062524999999997 -9.988680000000002 21.898464999999998 -10.769980000000002 21.578144999999996 -11.250480000000001 C 21.265644999999996 -11.738760000000001 20.753924999999995 -11.984860000000001 20.046944999999997 -11.984860000000001 C 19.117254999999997 -11.984860000000001 18.398545 -11.59814 17.890744999999995 -10.828660000000001 C 17.379024999999995 -10.06694 17.117304999999995 -8.96146 17.109494999999995 -7.516160000000001 L 17.109494999999995 -0.0005600000000010041 L 12.187594999999995 -0.0005600000000010041 L 12.187594999999995 -7.984960000000001 C 12.187594999999995 -9.68026 12.039154999999994 -10.77016 11.750094999999995 -11.25056 C 11.457124999999994 -11.73884 10.937594999999995 -11.98494 10.187594999999995 -11.98494 C 9.250094999999995 -11.98494 8.523494999999995 -11.59822 8.015694999999994 -10.82874 C 7.503974999999993 -10.06702 7.250074999999994 -8.969339999999999 7.250074999999994 -7.53184 L 7.250074999999994 -0.0006399999999997519 L 2.3281749999999937 -0.0006399999999997519 L 2.3281749999999937 -15.312639999999998 L 7.250074999999994 -15.312639999999998 L 7.250074999999994 -13.078239999999997 C 7.851634999999994 -13.941519999999997 8.539174999999993 -14.593839999999997 9.312574999999994 -15.031339999999997 C 10.093824999999994 -15.468839999999997 10.953174999999995 -15.687589999999997 11.890674999999995 -15.687589999999997 C 12.953174999999995 -15.687589999999997 13.890674999999995 -15.429779999999997 14.703174999999995 -14.921969999999996 C 15.515674999999995 -14.410249999999996 16.128974999999993 -13.691469999999997 16.546974999999996 -12.765769999999996 z" stroke-linecap="round" />
</g>
		<g transform="matrix(1.3333333333 0 0 1.3333333333 -252.3802213333 416.2295333333)" id="EtyEZWTWa_5TP39z_KIkW"  >
<path style="stroke: none; stroke-width: 1; stroke-dasharray: none; stroke-linecap: butt; stroke-dashoffset: 0; stroke-linejoin: miter; stroke-miterlimit: 4; fill: rgb(0,0,0); fill-rule: nonzero; opacity: 1;" vector-effect="non-scaling-stroke"  transform=" translate(-6.56249, 9.82785)" d="M 7.7031 -19.656 L 7.7031 -15.312199999999999 L 12.75 -15.312199999999999 L 12.75 -11.812199999999999 L 7.7031 -11.812199999999999 L 7.7031 -5.312199999999999 C 7.7031 -4.601259999999999 7.84372 -4.124699999999999 8.12498 -3.874699999999999 C 8.40624 -3.624699999999999 8.960920000000002 -3.499699999999999 9.796880000000002 -3.499699999999999 L 12.31248 -3.499699999999999 L 12.31248 0.0003000000000010772 L 8.12498 0.0003000000000010772 C 6.187480000000001 0.0003000000000010772 4.812480000000001 -0.39813999999999894 3.9999800000000008 -1.202799999999999 C 3.195290000000001 -2.015299999999999 2.7968800000000007 -3.382499999999999 2.7968800000000007 -5.312199999999999 L 2.7968800000000007 -11.812199999999999 L 0.37498000000000076 -11.812199999999999 L 0.37498000000000076 -15.312199999999999 L 2.7968800000000007 -15.312199999999999 L 2.7968800000000007 -19.656 z" stroke-linecap="round" />
</g>
		<g transform="matrix(1.3333333333 0 0 1.3333333333 -229.880192 415.1459333333)" id="SFx2hXyCy9wWJ_qIMCJHT"  >
<path style="stroke: none; stroke-width: 1; stroke-dasharray: none; stroke-linecap: butt; stroke-dashoffset: 0; stroke-linejoin: miter; stroke-miterlimit: 4; fill: rgb(0,0,0); fill-rule: nonzero; opacity: 1;" vector-effect="non-scaling-stroke"  transform=" translate(-10.0547, 10.64055)" d="M 17.75 -9.3281 L 17.75 0 L 12.8281 0 L 12.8281 -7.1094 C 12.8281 -8.4532 12.79685 -9.375 12.73435 -9.875 C 12.67185 -10.375 12.566379999999999 -10.74219 12.42185 -10.9844 C 12.23435 -11.2969 11.972629999999999 -11.539090000000002 11.6406 -11.71878 C 11.316379999999999 -11.89456 10.94529 -11.9844 10.531199999999998 -11.9844 C 9.507799999999998 -11.9844 8.706999999999999 -11.58596 8.124999999999998 -10.7969 C 7.539059999999998 -10.01565 7.249999999999998 -8.9258 7.249999999999998 -7.531300000000001 L 7.249999999999998 -0.00010000000000065512 L 2.359399999999998 -0.00010000000000065512 L 2.359399999999998 -21.2811 L 7.249999999999998 -21.2811 L 7.249999999999998 -13.078 C 7.988279999999998 -13.960809999999999 8.769499999999999 -14.617099999999999 9.593799999999998 -15.0468 C 10.425829999999998 -15.472579999999999 11.343799999999998 -15.68742 12.343799999999998 -15.68742 C 14.113299999999999 -15.68742 15.457099999999999 -15.14054 16.375 -14.04682 C 17.28906 -12.96092 17.75 -11.39062 17.75 -9.32802 z" stroke-linecap="round" />
</g>
		<g transform="matrix(1.3333333333 0 0 1.3333333333 -204.1454 419.1353866667)" id="gR-RmuKUJrWoVjIf7m2DN"  >
<path style="stroke: none; stroke-width: 1; stroke-dasharray: none; stroke-linecap: butt; stroke-dashoffset: 0; stroke-linejoin: miter; stroke-miterlimit: 4; fill: rgb(0,0,0); fill-rule: nonzero; opacity: 1;" vector-effect="non-scaling-stroke"  transform=" translate(-9.4222, 7.64846)" d="M 17.641 -7.7031 L 17.641 -6.2969 L 6.187999999999999 -6.2969 C 6.312999999999999 -5.1485 6.727059999999999 -4.2890999999999995 7.437999999999999 -3.7188 C 8.145029999999998 -3.14458 9.141099999999998 -2.85942 10.4224 -2.85942 C 11.4536 -2.85942 12.5044 -3.00786 13.5786 -3.3125400000000003 C 14.6606 -3.6250400000000003 15.77 -4.08598 16.9067 -4.70314 L 16.9067 -0.9375400000000003 C 15.7505 -0.5000400000000003 14.5942 -0.1719200000000003 13.4379 0.04683999999999977 C 12.2817 0.27339999999999975 11.1254 0.39058999999999977 9.969100000000001 0.39058999999999977 C 7.1957 0.39058999999999977 5.0394000000000005 -0.3125300000000002 3.500300000000001 -1.7188100000000002 C 1.9691000000000012 -3.12501 1.2034000000000011 -5.09771 1.2034000000000011 -7.64071 C 1.2034000000000011 -10.14071 1.957310000000001 -12.10161 3.469000000000001 -13.531310000000001 C 4.976800000000001 -14.968810000000001 7.051000000000001 -15.687510000000001 9.687800000000001 -15.687510000000001 C 12.094000000000001 -15.687510000000001 14.0198 -14.957040000000001 15.469000000000001 -13.500010000000001 C 16.9143 -12.050810000000002 17.640900000000002 -10.117210000000002 17.640900000000002 -7.7031100000000015 z M 12.609799999999998 -9.3281 C 12.609799999999998 -10.253879999999999 12.336359999999997 -11 11.797299999999998 -11.5625 C 11.254329999999998 -12.13281 10.547299999999998 -12.42188 9.672299999999998 -12.42188 C 8.723079999999998 -12.42188 7.953499999999998 -12.15626 7.359799999999998 -11.625 C 6.766099999999998 -11.09374 6.394959999999998 -10.3281 6.250399999999998 -9.3281 z" stroke-linecap="round" />
</g>
		<g transform="matrix(1.3333333333 0 0 1.3333333333 -162.7656253333 415.7293333333)" id="OaVcMtY89dMTnAUxhfyDz"  >
<path style="stroke: none; stroke-width: 1; stroke-dasharray: none; stroke-linecap: butt; stroke-dashoffset: 0; stroke-linejoin: miter; stroke-miterlimit: 4; fill: rgb(0,0,0); fill-rule: nonzero; opacity: 1;" vector-effect="non-scaling-stroke"  transform=" translate(-11.71875, 10.203)" d="M 2.5781 -20.406 L 8.4531 -20.406 L 15.875 -6.405999999999999 L 15.875 -20.406 L 20.8594 -20.406 L 20.8594 0 L 14.9844 0 L 7.562500000000001 -14 L 7.562500000000001 0 L 2.578100000000001 0 z" stroke-linecap="round" />
</g>
		<g transform="matrix(1.3333333333 0 0 1.3333333333 -134.3229 419.1346666667)" id="9e5dqk5pVd-g-er3F1cvc"  >
<path style="stroke: none; stroke-width: 1; stroke-dasharray: none; stroke-linecap: butt; stroke-dashoffset: 0; stroke-linejoin: miter; stroke-miterlimit: 4; fill: rgb(0,0,0); fill-rule: nonzero; opacity: 1;" vector-effect="non-scaling-stroke"  transform=" translate(-9.6172, 7.649)" d="M 9.6406 -12.188 C 8.554699999999999 -12.188 7.7265 -11.79738 7.156199999999999 -11.016100000000002 C 6.58198 -10.234850000000002 6.296819999999999 -9.109900000000001 6.296819999999999 -7.641100000000002 C 6.296819999999999 -6.172300000000002 6.58198 -5.047300000000002 7.156199999999999 -4.266100000000002 C 7.726509999999999 -3.4926600000000017 8.554599999999999 -3.1099000000000014 9.6406 -3.1099000000000014 C 10.7031 -3.1099000000000014 11.5156 -3.4927100000000015 12.0781 -4.266100000000002 C 12.648409999999998 -5.047350000000002 12.937479999999999 -6.172300000000002 12.937479999999999 -7.641100000000002 C 12.937479999999999 -9.109900000000001 12.64842 -10.234900000000001 12.0781 -11.016100000000002 C 11.5156 -11.797350000000002 10.7031 -12.188000000000002 9.6406 -12.188000000000002 z M 9.6406 -15.688 C 12.273399999999999 -15.688 14.331999999999999 -14.97316 15.8125 -13.5474 C 17.2891 -12.1294 18.0313 -10.1607 18.0313 -7.6411999999999995 C 18.0313 -5.1295 17.28911 -3.1606999999999994 15.812500000000002 -1.7349999999999994 C 14.332000000000003 -0.3169999999999995 12.273400000000002 0.39000000000000057 9.640600000000003 0.39000000000000057 C 6.992200000000002 0.39000000000000057 4.925800000000002 -0.3170299999999995 3.4375000000000027 -1.7349999999999994 C 1.9453000000000027 -3.160799999999999 1.2031000000000027 -5.129499999999999 1.2031000000000027 -7.6411999999999995 C 1.2031000000000027 -10.160699999999999 1.9452900000000026 -12.1295 3.4375000000000027 -13.5474 C 4.925800000000002 -14.9732 6.992200000000002 -15.687999999999999 9.640600000000003 -15.687999999999999 z" stroke-linecap="round" />
</g>
		<g transform="matrix(1.3333333333 0 0 1.3333333333 -108.3177253333 419.3849333333)" id="FWw2x7KKKw7prglnYPRel"  >
<path style="stroke: none; stroke-width: 1; stroke-dasharray: none; stroke-linecap: butt; stroke-dashoffset: 0; stroke-linejoin: miter; stroke-miterlimit: 4; fill: rgb(0,0,0); fill-rule: nonzero; opacity: 1;" vector-effect="non-scaling-stroke"  transform=" translate(-9.8828, 7.4613)" d="M 2.1875 -5.9688 L 2.1875 -15.3126 L 7.1094 -15.3126 L 7.1094 -13.7814 C 7.1094 -12.945459999999999 7.101587 -11.9064 7.093775 -10.6564 C 7.082056 -9.4064 7.07815 -8.5705 7.07815 -8.1564 C 7.07815 -6.914199999999999 7.1094 -6.0236 7.1719 -5.4845 C 7.242213 -4.94153 7.35159 -4.55091 7.50002 -4.3126 C 7.70705 -3.98838 7.97268 -3.73838 8.2969 -3.5625999999999998 C 8.61721 -3.39463 8.98831 -3.3125999999999998 9.406300000000002 -3.3125999999999998 C 10.425800000000002 -3.3125999999999998 11.226600000000001 -3.70322 11.812500000000002 -4.4845 C 12.394530000000001 -5.26575 12.687500000000002 -6.351699999999999 12.687500000000002 -7.7501 L 12.687500000000002 -15.3126 L 17.578100000000003 -15.3126 L 17.578100000000003 -0.000600000000000378 L 12.687500000000004 -0.000600000000000378 L 12.687500000000004 -2.2194000000000003 C 11.945310000000003 -1.3209600000000004 11.164100000000003 -0.6608000000000003 10.343700000000004 -0.23500000000000032 C 9.519480000000003 0.17905999999999966 8.609300000000005 0.3899999999999997 7.609300000000004 0.3899999999999997 C 5.8476000000000035 0.3899999999999997 4.503800000000004 -0.1490600000000003 3.5781000000000036 -1.2350000000000003 C 2.6484100000000037 -2.317 2.1875000000000036 -3.8952000000000004 2.1875000000000036 -5.9694 z" stroke-linecap="round" />
</g>
		<g transform="matrix(1.3333333333 0 0 1.3333333333 -81.5104 418.8752533333)" id="HmjpnlOmh_ACtmuWUEd8o"  >
<path style="stroke: none; stroke-width: 1; stroke-dasharray: none; stroke-linecap: butt; stroke-dashoffset: 0; stroke-linejoin: miter; stroke-miterlimit: 4; fill: rgb(0,0,0); fill-rule: nonzero; opacity: 1;" vector-effect="non-scaling-stroke"  transform=" translate(-10.0547, 7.84356)" d="M 17.75 -9.3281 L 17.75 0 L 12.8281 0 L 12.8281 -7.1406 C 12.8281 -8.4609 12.79685 -9.375 12.73435 -9.875 C 12.67185 -10.375 12.566379999999999 -10.74219 12.42185 -10.9844 C 12.23435 -11.2969 11.972629999999999 -11.539090000000002 11.6406 -11.71878 C 11.316379999999999 -11.89456 10.94529 -11.9844 10.531199999999998 -11.9844 C 9.507799999999998 -11.9844 8.706999999999999 -11.58596 8.124999999999998 -10.7969 C 7.539059999999998 -10.01565 7.249999999999998 -8.9258 7.249999999999998 -7.531300000000001 L 7.249999999999998 -0.00010000000000065512 L 2.359399999999998 -0.00010000000000065512 L 2.359399999999998 -15.312100000000001 L 7.249999999999998 -15.312100000000001 L 7.249999999999998 -13.0777 C 7.988279999999998 -13.96051 8.769499999999999 -14.6168 9.593799999999998 -15.0465 C 10.425829999999998 -15.47228 11.343799999999998 -15.68712 12.343799999999998 -15.68712 C 14.113299999999999 -15.68712 15.457099999999999 -15.14024 16.375 -14.046520000000001 C 17.28906 -12.96062 17.75 -11.390320000000001 17.75 -9.327720000000001 z" stroke-linecap="round" />
</g>
		<g transform="matrix(1.3333333333 0 0 1.3333333333 -40.7082826667 415.7295333333)" id="x7lQjCm01zgaFH1FihOWt"  >
<path style="stroke: none; stroke-width: 1; stroke-dasharray: none; stroke-linecap: butt; stroke-dashoffset: 0; stroke-linejoin: miter; stroke-miterlimit: 4; fill: rgb(0,0,0); fill-rule: nonzero; opacity: 1;" vector-effect="non-scaling-stroke"  transform=" translate(-10.9766, 10.20285)" d="M 2.5781 -20.406 L 11.3125 -20.406 C 13.9063 -20.406 15.8945 -19.82788 17.2813 -18.671599999999998 C 18.675800000000002 -17.5232 19.375100000000003 -15.882499999999999 19.375100000000003 -13.749699999999997 C 19.375100000000003 -11.612999999999998 18.675880000000003 -9.968499999999997 17.2813 -8.812199999999997 C 15.894600000000002 -7.655999999999997 13.906300000000002 -7.077799999999997 11.312500000000002 -7.077799999999997 L 7.828100000000002 -7.077799999999997 L 7.828100000000002 0.00030000000000285354 L 2.578100000000002 0.00030000000000285354 z M 7.8281 -16.5935 L 7.8281 -10.8904 L 10.75 -10.8904 C 11.7695 -10.8904 12.5547 -11.1404 13.1094 -11.6404 C 13.6719 -12.1404 13.95315 -12.843499999999999 13.95315 -13.7498 C 13.95315 -14.66386 13.6719 -15.367 13.1094 -15.859200000000001 C 12.55471 -16.34748 11.7696 -16.593580000000003 10.75 -16.593580000000003 z" stroke-linecap="round" />
</g>
		<g transform="matrix(1.3333333333 0 0 1.3333333333 -17.2504333333 418.8748533333)" id="C3OzP8YodVKWyANF3dtDx"  >
<path style="stroke: none; stroke-width: 1; stroke-dasharray: none; stroke-linecap: butt; stroke-dashoffset: 0; stroke-linejoin: miter; stroke-miterlimit: 4; fill: rgb(0,0,0); fill-rule: nonzero; opacity: 1;" vector-effect="non-scaling-stroke"  transform=" translate(-8.04655, 7.84386)" d="M 13.734 -11.141 C 13.2965 -11.33631 12.86291 -11.48475 12.437100000000001 -11.5785 C 12.01913 -11.68006 11.59726 -11.73475 11.171500000000002 -11.73475 C 9.909800000000002 -11.73475 8.941000000000003 -11.3285 8.265300000000002 -10.51595 C 7.585610000000002 -9.71126 7.249700000000002 -8.562850000000001 7.249700000000002 -7.06285 L 7.249700000000002 -0.0003500000000000725 L 2.3591000000000015 -0.0003500000000000725 L 2.3591000000000015 -15.312349999999999 L 7.249700000000002 -15.312349999999999 L 7.249700000000002 -12.79675 C 7.874700000000002 -13.79675 8.593500000000002 -14.523349999999999 9.405900000000003 -14.98425 C 10.226210000000002 -15.453 11.206700000000003 -15.68737 12.343400000000003 -15.68737 C 12.507460000000002 -15.68737 12.687150000000003 -15.675651 12.874650000000003 -15.65612 C 13.069960000000002 -15.644401 13.351210000000002 -15.617058 13.718400000000003 -15.577995 z" stroke-linecap="round" />
</g>
		<g transform="matrix(1.3333333333 0 0 1.3333333333 3.250016 419.1346666667)" id="Egl_h7OkjquA1g9mI1H-v"  >
<path style="stroke: none; stroke-width: 1; stroke-dasharray: none; stroke-linecap: butt; stroke-dashoffset: 0; stroke-linejoin: miter; stroke-miterlimit: 4; fill: rgb(0,0,0); fill-rule: nonzero; opacity: 1;" vector-effect="non-scaling-stroke"  transform=" translate(-9.6172, 7.649)" d="M 9.6406 -12.188 C 8.554699999999999 -12.188 7.7265 -11.79738 7.156199999999999 -11.016100000000002 C 6.58198 -10.234850000000002 6.296819999999999 -9.109900000000001 6.296819999999999 -7.641100000000002 C 6.296819999999999 -6.172300000000002 6.58198 -5.047300000000002 7.156199999999999 -4.266100000000002 C 7.726509999999999 -3.4926600000000017 8.554599999999999 -3.1099000000000014 9.6406 -3.1099000000000014 C 10.7031 -3.1099000000000014 11.5156 -3.4927100000000015 12.0781 -4.266100000000002 C 12.648409999999998 -5.047350000000002 12.937479999999999 -6.172300000000002 12.937479999999999 -7.641100000000002 C 12.937479999999999 -9.109900000000001 12.64842 -10.234900000000001 12.0781 -11.016100000000002 C 11.5156 -11.797350000000002 10.7031 -12.188000000000002 9.6406 -12.188000000000002 z M 9.6406 -15.688 C 12.273399999999999 -15.688 14.331999999999999 -14.97316 15.8125 -13.5474 C 17.2891 -12.1294 18.0313 -10.1607 18.0313 -7.6411999999999995 C 18.0313 -5.1295 17.28911 -3.1606999999999994 15.812500000000002 -1.7349999999999994 C 14.332000000000003 -0.3169999999999995 12.273400000000002 0.39000000000000057 9.640600000000003 0.39000000000000057 C 6.992200000000002 0.39000000000000057 4.925800000000002 -0.3170299999999995 3.4375000000000027 -1.7349999999999994 C 1.9453000000000027 -3.160799999999999 1.2031000000000027 -5.129499999999999 1.2031000000000027 -7.6411999999999995 C 1.2031000000000027 -10.160699999999999 1.9452900000000026 -12.1295 3.4375000000000027 -13.5474 C 4.925800000000002 -14.9732 6.992200000000002 -15.687999999999999 9.640600000000003 -15.687999999999999 z" stroke-linecap="round" />
</g>
		<g transform="matrix(1.3333333333 0 0 1.3333333333 20.2864586667 419.1775333333)" id="6wwaiUE9zJhu-iAL_Bc9V"  >
<path style="stroke: none; stroke-width: 1; stroke-dasharray: none; stroke-linecap: butt; stroke-dashoffset: 0; stroke-linejoin: miter; stroke-miterlimit: 4; fill: rgb(0,0,0); fill-rule: nonzero; opacity: 1;" vector-effect="non-scaling-stroke"  transform=" translate(-3.15625, 7.61685)" d="M 2.3594 -15.312 L 7.25 -15.312 L 7.25 -0.2809999999999988 C 7.25 1.7698000000000014 6.75391 3.336200000000001 5.7656 4.422100000000001 C 4.7851300000000005 5.504100000000001 3.3594 6.047100000000001 1.4844 6.047100000000001 L -0.9375 6.047100000000001 L -0.9375 2.8283000000000014 L -0.07811999999999997 2.8283000000000014 C 0.8476600000000001 2.8283000000000014 1.48438 2.6173600000000015 1.82808 2.2033000000000014 C 2.17964 1.7853300000000014 2.35933 0.9572000000000014 2.35933 -0.2810999999999986 z M 2.3594 -21.2808 L 7.25 -21.2808 L 7.25 -17.2808 L 2.3594 -17.2808 z" stroke-linecap="round" />
</g>
		<g transform="matrix(1.3333333333 0 0 1.3333333333 41.4379333333 419.1353866667)" id="eO393IRzhI1tpeETJMPY_"  >
<path style="stroke: none; stroke-width: 1; stroke-dasharray: none; stroke-linecap: butt; stroke-dashoffset: 0; stroke-linejoin: miter; stroke-miterlimit: 4; fill: rgb(0,0,0); fill-rule: nonzero; opacity: 1;" vector-effect="non-scaling-stroke"  transform=" translate(-9.4222, 7.64846)" d="M 17.641 -7.7031 L 17.641 -6.2969 L 6.187999999999999 -6.2969 C 6.312999999999999 -5.1485 6.727059999999999 -4.2890999999999995 7.437999999999999 -3.7188 C 8.145029999999998 -3.14458 9.141099999999998 -2.85942 10.4224 -2.85942 C 11.4536 -2.85942 12.5044 -3.00786 13.5786 -3.3125400000000003 C 14.6606 -3.6250400000000003 15.77 -4.08598 16.9067 -4.70314 L 16.9067 -0.9375400000000003 C 15.7505 -0.5000400000000003 14.5942 -0.1719200000000003 13.4379 0.04683999999999977 C 12.2817 0.27339999999999975 11.1254 0.39058999999999977 9.969100000000001 0.39058999999999977 C 7.1957 0.39058999999999977 5.0394000000000005 -0.3125300000000002 3.500300000000001 -1.7188100000000002 C 1.9691000000000012 -3.12501 1.2034000000000011 -5.09771 1.2034000000000011 -7.64071 C 1.2034000000000011 -10.14071 1.957310000000001 -12.10161 3.469000000000001 -13.531310000000001 C 4.976800000000001 -14.968810000000001 7.051000000000001 -15.687510000000001 9.687800000000001 -15.687510000000001 C 12.094000000000001 -15.687510000000001 14.0198 -14.957040000000001 15.469000000000001 -13.500010000000001 C 16.9143 -12.050810000000002 17.640900000000002 -10.117210000000002 17.640900000000002 -7.7031100000000015 z M 12.609799999999998 -9.3281 C 12.609799999999998 -10.253879999999999 12.336359999999997 -11 11.797299999999998 -11.5625 C 11.254329999999998 -12.13281 10.547299999999998 -12.42188 9.672299999999998 -12.42188 C 8.723079999999998 -12.42188 7.953499999999998 -12.15626 7.359799999999998 -11.625 C 6.766099999999998 -11.09374 6.394959999999998 -10.3281 6.250399999999998 -9.3281 z" stroke-linecap="round" />
</g>
		<g transform="matrix(1.3333333333 0 0 1.3333333333 64.8128506667 419.1358133333)" id="ohozbMpr6OP_SayWAOOxY"  >
<path style="stroke: none; stroke-width: 1; stroke-dasharray: none; stroke-linecap: butt; stroke-dashoffset: 0; stroke-linejoin: miter; stroke-miterlimit: 4; fill: rgb(0,0,0); fill-rule: nonzero; opacity: 1;" vector-effect="non-scaling-stroke"  transform=" translate(-7.9612, 7.64814)" d="M 14.719 -14.828 L 14.719 -10.843599999999999 C 14.06275 -11.300629999999998 13.3948 -11.640479999999998 12.719 -11.859199999999998 C 12.051029999999999 -12.077949999999998 11.3596 -12.187319999999998 10.640899999999998 -12.187319999999998 C 9.273699999999998 -12.187319999999998 8.207299999999998 -11.784979999999997 7.437799999999998 -10.984219999999997 C 6.676079999999999 -10.191249999999997 6.297199999999998 -9.078019999999997 6.297199999999998 -7.640419999999997 C 6.297199999999998 -6.210719999999997 6.676109999999999 -5.097419999999997 7.437799999999998 -4.296619999999997 C 8.207329999999999 -3.5036499999999973 9.273699999999998 -3.109119999999997 10.640899999999998 -3.109119999999997 C 11.398709999999998 -3.109119999999997 12.1253 -3.218499999999997 12.8128 -3.4372399999999974 C 13.5003 -3.6637999999999975 14.133099999999999 -4.003649999999998 14.719 -4.4528399999999975 L 14.719 -0.45283999999999747 C 13.957279999999999 -0.17158999999999747 13.1799 0.035440000000002525 12.390899999999998 0.17216000000000253 C 11.609649999999998 0.3166900000000025 10.816699999999999 0.39091000000000253 10.015899999999998 0.39091000000000253 C 7.254199999999999 0.39091000000000253 5.0939999999999985 -0.3161199999999975 3.5314999999999985 -1.7340899999999975 C 1.9767999999999986 -3.1481899999999974 1.2033999999999985 -5.116889999999998 1.2033999999999985 -7.640289999999998 C 1.2033999999999985 -10.171489999999999 1.9768399999999984 -12.144189999999998 3.5314999999999985 -13.562189999999998 C 5.0939999999999985 -14.976289999999997 7.254199999999999 -15.687189999999998 10.015899999999998 -15.687189999999998 C 10.816679999999998 -15.687189999999998 11.609699999999998 -15.612970999999998 12.390899999999998 -15.468439999999998 C 13.172149999999998 -15.331719999999997 13.945599999999999 -15.116879999999998 14.718999999999998 -14.827819999999997 z" stroke-linecap="round" />
</g>
		<g transform="matrix(1.3333333333 0 0 1.3333333333 85.072904 416.2295333333)" id="M1LschaykHpkiDJgBppcP"  >
<path style="stroke: none; stroke-width: 1; stroke-dasharray: none; stroke-linecap: butt; stroke-dashoffset: 0; stroke-linejoin: miter; stroke-miterlimit: 4; fill: rgb(0,0,0); fill-rule: nonzero; opacity: 1;" vector-effect="non-scaling-stroke"  transform=" translate(-6.56249, 9.82785)" d="M 7.7031 -19.656 L 7.7031 -15.312199999999999 L 12.75 -15.312199999999999 L 12.75 -11.812199999999999 L 7.7031 -11.812199999999999 L 7.7031 -5.312199999999999 C 7.7031 -4.601259999999999 7.84372 -4.124699999999999 8.12498 -3.874699999999999 C 8.40624 -3.624699999999999 8.960920000000002 -3.499699999999999 9.796880000000002 -3.499699999999999 L 12.31248 -3.499699999999999 L 12.31248 0.0003000000000010772 L 8.12498 0.0003000000000010772 C 6.187480000000001 0.0003000000000010772 4.812480000000001 -0.39813999999999894 3.9999800000000008 -1.202799999999999 C 3.195290000000001 -2.015299999999999 2.7968800000000007 -3.382499999999999 2.7968800000000007 -5.312199999999999 L 2.7968800000000007 -11.812199999999999 L 0.37498000000000076 -11.812199999999999 L 0.37498000000000076 -15.312199999999999 L 2.7968800000000007 -15.312199999999999 L 2.7968800000000007 -19.656 z" stroke-linecap="round" />
</g>
</g>
</g>
</svg>