<svg class="svg-icon" style="width: 1em; height: 1em;vertical-align: middle;fill: currentColor;overflow: hidden;" viewBox="0 0 1024 1024" version="1.1" xmlns="http://www.w3.org/2000/svg"><path d="M63.844 63.868h896.342v64.044H63.844z" fill="#fff" /><path d="M63.844 121.922h64.012V959.48H63.844zM896.006 122.874h64.181v389.175h-64.181z" fill="#fff" /><path d="M124.498 895.561h387.433v63.919H124.498zM191.869 320.145h640.124v63.567H191.869zM191.869 575.968h256.05v63.919h-256.05z" fill="#fff" /><path d="M576.112 874.5H704.13v42.559H576.112z" fill="#fff" /><path d="M618.762 831.91h42.65v127.739h-42.65z" fill="#C92A52" /><path d="M955.31 897.389s-55.41-50.364-126.94-121.893c-48.312-48.31-53.374-53.077-53.374-53.077-2.499-2.492-7.865-3.785-12.104-1.51l-6.499 3.474c-32.288-32.288-40.678-46.722-39.475-71.689 1.216-26.004 16.561-46.044 35.162-61.166 18.757-15.122 64.346-11.864 77.423-9.829 13.087 2.044 5.971-9.605-0.832-15.951-12.933-12.024-62.682-28.967-116.214-6.882-53.534 22.084-85.288 52.773-93.384 60.871-8.089 8.086-19.352 20.869-26.379 30.922-7.036 10.06 2.108 25.7-5.83 33.645-5.213 5.213-14.809 6.061-20.869 6.044l-4.224-4.223a6.45 6.45 0 0 0-9.078 0l-39.324 39.321a6.435 6.435 0 0 0 0 9.069l63.515 63.514a6.444 6.444 0 0 0 9.07 0.009l39.321-39.324a6.44 6.44 0 0 0 0-9.077l-10.971-10.962c0.608-8.479 5.9-18.45 11.721-21.557 7.259-3.929 26.765-7.552 41.439-3.472 14.06 3.927 25.71 16.175 54.587 45.062l-4.534 7.552c-2.643 4.472-0.982 9.605 1.517 12.104 0 0 4.765 5.062 53.077 53.383 71.529 71.527 121.887 126.939 121.887 126.939a6.452 6.452 0 0 0 9.077 0l52.223-52.225a6.427 6.427 0 0 0 0.012-9.072z m0 0" fill="#fff" /></svg>