<?xml version="1.0" encoding="UTF-8" standalone="no" ?>
<!DOCTYPE svg PUBLIC "-//W3C//DTD SVG 1.1//EN" "http://www.w3.org/Graphics/SVG/1.1/DTD/svg11.dtd">
<svg xmlns="http://www.w3.org/2000/svg" xmlns:xlink="http://www.w3.org/1999/xlink" version="1.1" width="700" height="700" viewBox="0 0 700 700" xml:space="preserve">
<desc>Created with Fabric.js 5.3.0</desc>
<defs>
</defs>
<g transform="matrix(1 0 0 1 350 417.5)" id="IgNaie9YVJN4rgbO8Ly37"  >
<g style="" vector-effect="non-scaling-stroke"   >
		<g transform="matrix(1.3333333333 0 0 1.3333333333 -165.1015436483 -63.9932706667)" id="47SrwoJIAdm9lwTvBkmMa"  >
<path style="stroke: none; stroke-width: 1; stroke-dasharray: none; stroke-linecap: butt; stroke-dashoffset: 0; stroke-linejoin: miter; stroke-miterlimit: 4; fill: rgb(0,0,0); fill-rule: nonzero; opacity: 1;" vector-effect="non-scaling-stroke"  transform=" translate(-226.1738422638, -302.005047)" d="M 289.3 360.89 C 271.144 391.945 251.96800000000002 417.456 245.347 420.906 C 240.597 418.6443 229.566 404.95300000000003 217.066 386.062 C 213.3316 380.4058 209.4293 374.296 205.754 367.906 C 184.42999999999998 332.722 163.047 288.71500000000003 163.047 263.206 L 163.047 263.20209400000005 C 162.949344 245.58909400000005 168.3751 228.39009400000003 178.563 214.02209400000004 C 188.75099999999998 199.65509400000005 203.188 188.84209400000003 219.83999999999997 183.10409400000003 C 219.48843999999997 186.39319400000002 219.33608999999998 189.69789400000002 219.38687999999996 193.00639400000003 C 219.46500499999996 200.27199400000003 220.27749999999997 207.51039400000002 221.81657999999996 214.61139400000002 C 212.91427999999996 219.18949400000002 205.44957999999997 226.14239400000002 200.25057999999996 234.69739400000003 C 195.04747999999995 243.25209400000003 192.31307999999996 253.07639400000002 192.34827999999996 263.08839400000005 C 192.19593999999995 277.28739400000006 197.69987999999995 290.95939400000003 207.64527999999996 301.09239400000007 C 217.58667999999994 311.22939400000007 231.15327999999997 316.9903940000001 245.35227999999995 317.1083940000001 C 251.12177999999994 317.13573700000006 256.85627999999997 316.2021440000001 262.32127999999994 314.3388940000001 C 265.03607999999997 319.3154940000001 267.63767999999993 324.0107940000001 270.07127999999994 328.1978940000001 C 272.50487999999996 332.3853940000001 274.08687999999995 335.26819400000005 275.72747999999996 338.2098940000001 L 279.28997999999996 345.05369400000006 C 282.06337999999994 349.24119400000006 285.39937999999995 354.72559400000006 289.30197999999996 360.89369400000004 z" stroke-linecap="round" />
</g>
		<g transform="matrix(1.3333333333 0 0 1.3333333333 -0.1580869148 -139.9824373333)" id="jPeditsO6hvNd50Blkii_"  >
<path style="stroke: none; stroke-width: 1; stroke-dasharray: none; stroke-linecap: butt; stroke-dashoffset: 0; stroke-linejoin: miter; stroke-miterlimit: 4; fill: rgb(0,0,0); fill-rule: nonzero; opacity: 1;" vector-effect="non-scaling-stroke"  transform=" translate(-349.8814348139, -245.013172)" d="M 466.36 179.82 C 465.96547000000004 176.3708 465.45375 173.0309 464.8327 169.695 C 458.41859999999997 133.433 435.2467 102.332 402.3367 85.812 C 369.4227 69.289 330.6417 69.289 297.7267 85.812 C 264.8127 102.332 241.64069999999998 133.433 235.2267 169.695 C 234.66029 173.0309 234.0939 176.3708 233.6994 179.82 C 233.24627999999998 184.19889999999998 233.01971 188.6012 233.02362 193.004 C 233.070494 198.70319999999998 233.66034 204.38299999999998 234.77751999999998 209.97299999999998 C 235.39861 213.02769999999998 236.13691999999998 216.3089 236.92592 219.59019999999998 L 236.92592 219.58629399999998 C 244.96892 247.28929399999998 256.00792 274.03529399999996 269.84792 299.344294 C 271.32061999999996 302.230994 272.90262 305.000494 274.42992 308.000494 C 278.16432 314.789594 281.84011999999996 321.520494 285.74192 328.082494 C 289.64422 334.644994 292.47242 339.394494 295.81192 345.051494 L 297.11271999999997 347.145294 L 302.76892 356.59059399999995 C 323.30392 388.77859399999994 342.36692 413.1565939999999 349.88991999999996 416.606594 C 357.41331999999994 413.044094 376.36292 388.774594 396.89791999999994 356.64559399999996 C 398.8588199999999 353.551794 400.7456199999999 350.38389399999994 402.55411999999995 347.141694 C 403.00723999999997 346.462004 403.40178 345.72759399999995 403.91351999999995 345.047894 C 407.19471999999996 339.391694 410.64401999999995 333.735894 413.92551999999995 328.078894 C 417.20701999999994 322.421894 421.50361999999996 314.840894 425.23751999999996 308.109894 C 426.81951999999995 305.281794 428.34691999999995 302.395094 429.81951999999995 299.453694 L 429.81170799999995 299.45759999999996 C 443.66670799999997 274.1176 454.70670799999994 247.33259999999996 462.733708 219.58659999999998 C 463.581368 216.30539999999996 464.315708 213.0827 464.940708 210.02799999999996 C 466.05400799999995 204.43819999999997 466.639908 198.75799999999995 466.69460799999996 193.05899999999997 C 466.81179799999995 188.64489999999998 466.698515 184.22699999999998 466.354768 179.82099999999997 z M 418.505 223.66 C 415.1261 231.4608 410.4816 238.644 404.759 244.93 C 395.9973 254.6488 384.814 261.868 372.34900000000005 265.86 C 369.25520000000006 266.8639 366.10290000000003 267.6569 362.9037000000001 268.235 C 358.5873000000001 269.00453 354.2162000000001 269.39910000000003 349.8377000000001 269.4225 C 345.6072000000001 269.426406 341.3846000000001 269.0475 337.2207000000001 268.28970000000004 C 333.9863000000001 267.75845000000004 330.7949000000001 267.0006 327.66210000000007 266.028 C 315.1661000000001 262.0436 303.9431000000001 254.82100000000003 295.13910000000004 245.098 C 289.2524 238.7152 284.50610000000006 231.36800000000002 281.10810000000004 223.37900000000002 C 276.95970000000005 213.68760000000003 274.82290000000006 203.258 274.8308 192.71900000000002 C 274.8308 189.99630000000002 275.00268 187.27760000000004 275.33861 184.57450000000003 C 275.57689 181.25420000000003 276.10814 177.96120000000002 276.92451 174.73070000000004 C 281.78001 152.35970000000003 296.63551 133.45370000000003 317.22551 123.44970000000004 C 337.81550999999996 113.44170000000004 361.85850999999997 113.44170000000004 382.44851 123.44970000000004 C 403.03851 133.45370000000003 417.89751 152.35970000000003 422.74951 174.73070000000004 C 423.4917 177.98070000000004 424.05811 181.26590000000004 424.44871 184.57450000000003 C 424.44871 187.23470000000003 424.90183 189.89090000000002 424.90183 192.60570000000004 C 424.93308 203.28970000000004 422.75733 213.85970000000003 418.50733 223.66070000000005 z" stroke-linecap="round" />
</g>
		<g transform="matrix(1.3333333333 0 0 1.3333333333 165.2527124912 -63.8033333333)" id="YHJ1EJO4wIvqusHM8aSKN"  >
<path style="stroke: none; stroke-width: 1; stroke-dasharray: none; stroke-linecap: butt; stroke-dashoffset: 0; stroke-linejoin: miter; stroke-miterlimit: 4; fill: rgb(0,0,0); fill-rule: nonzero; opacity: 1;" vector-effect="non-scaling-stroke"  transform=" translate(-473.9395343684, -302.1475)" d="M 537.18 263.26 C 537.18 288.037 516.817 330.799 495.94199999999995 365.53 C 492.0943 371.9792 488.19199999999995 378.143 484.62999999999994 383.91299999999995 C 471.33699999999993 403.88199999999995 459.62999999999994 418.58899999999994 454.6499999999999 420.96399999999994 C 448.0327999999999 417.79599999999994 428.8569999999999 392.00299999999993 410.6969999999999 360.9479999999999 C 414.5992999999999 354.7838999999999 417.9391999999999 349.29599999999994 420.3688999999999 345.22099999999995 L 424.49779999999987 338.26399999999995 C 426.23219999999986 335.32259999999997 428.1188999999999 331.9866999999999 430.1539999999999 328.25199999999995 C 432.5289999999999 324.06449999999995 435.0758999999999 319.42779999999993 437.7906999999999 314.393 L 437.7946059999999 314.393 C 443.13840599999986 316.27579999999995 448.76360599999987 317.21329999999995 454.42760599999986 317.16639999999995 C 468.59160599999984 317.00233999999995 482.11560599999984 311.2211 492.02160599999985 301.09239999999994 C 501.92780599999986 290.95939999999996 507.40860599999985 277.31539999999995 507.25960599999985 263.14739999999995 C 507.2635119999998 253.22549999999995 504.56040599999983 243.49139999999994 499.43540599999983 234.99939999999995 C 494.31040599999983 226.50329999999994 486.9624059999998 219.57339999999996 478.18540599999983 214.95239999999995 C 479.7518059999998 207.81569999999996 480.6073059999998 200.53839999999997 480.72840599999984 193.22939999999994 C 480.7323119999998 189.92469999999994 480.5604359999998 186.61999999999995 480.22059599999983 183.33099999999993 C 496.88059599999985 189.02239999999992 511.33759599999985 199.79599999999994 521.5565959999998 214.13599999999994 C 531.7755959999998 228.47199999999995 537.2405959999998 245.65199999999993 537.1815959999998 263.26099999999997 z" stroke-linecap="round" />
</g>
		<g transform="matrix(1.3333333333 0 0 1.3333333333 1.54 104.264)" id="tu40Z62ty_JoUD_4Al7tx"  >
<path style="stroke: none; stroke-width: 1; stroke-dasharray: none; stroke-linecap: butt; stroke-dashoffset: 0; stroke-linejoin: miter; stroke-miterlimit: 4; fill: rgb(0,0,0); fill-rule: nonzero; opacity: 1;" vector-effect="non-scaling-stroke"  transform=" translate(-351.155, -428.198)" d="M 521.39 486.46 L 180.91999999999996 486.46 L 212.93599999999995 397.198 C 224.24799999999996 413.827 237.88099999999994 430.686 245.34999999999997 430.686 C 257.623 430.686 285.909 385.43199999999996 295.186 369.936 C 312.78 396.916 337.44 430.686 350.053 430.686 C 362.666 430.686 387.217 396.748 404.807 369.991 C 414.2523 385.546 442.42400000000004 430.686 454.69800000000004 430.686 C 462.44800000000004 430.686 476.76000000000005 412.416 488.636 395.10799999999995 z" stroke-linecap="round" />
</g>
		<g transform="matrix(1.3333333333 0 0 1.3333333333 -359.7606 379.4114346667)" id="8oxsb9MSrfNWljIjezMgV"  >
<path style="stroke: none; stroke-width: 1; stroke-dasharray: none; stroke-linecap: butt; stroke-dashoffset: 0; stroke-linejoin: miter; stroke-miterlimit: 4; fill: rgb(0,0,0); fill-rule: nonzero; opacity: 1;" vector-effect="non-scaling-stroke"  transform=" translate(-10.17955, 10.28908)" d="M 18.953 -1.125 C 17.97253 -0.625 16.953 -0.24219000000000002 15.8905 0.015600000000000058 C 14.835799999999999 0.27341000000000004 13.7343 0.4062200000000001 12.578 0.4062200000000001 C 9.1405 0.4062200000000001 6.413899999999999 -0.55081 4.406099999999999 -2.4687799999999998 C 2.4060999999999986 -4.3945799999999995 1.4060999999999986 -6.99998 1.4060999999999986 -10.281279999999999 C 1.4060999999999986 -13.58208 2.4060999999999986 -16.19148 4.406099999999999 -18.109379999999998 C 6.413899999999998 -20.02348 9.1405 -20.984379999999998 12.578 -20.984379999999998 C 13.7342 -20.984379999999998 14.835799999999999 -20.85157 15.8905 -20.59376 C 16.953 -20.34376 17.9725 -19.96095 18.953 -19.45316 L 18.953 -15.187560000000001 C 17.96081 -15.86334 16.9882 -16.359460000000002 16.0311 -16.671960000000002 C 15.070159999999998 -16.984460000000002 14.066299999999998 -17.140710000000002 13.0155 -17.140710000000002 C 11.1093 -17.140710000000002 9.613199999999999 -16.53133 8.531099999999999 -15.312610000000003 C 7.445199999999998 -14.093810000000003 6.906099999999999 -12.414210000000002 6.906099999999999 -10.281410000000003 C 6.906099999999999 -8.156410000000003 7.445159999999999 -6.484510000000003 8.531099999999999 -5.265810000000003 C 9.6131 -4.054910000000003 11.109199999999998 -3.4533100000000028 13.0155 -3.4533100000000028 C 14.0663 -3.4533100000000028 15.0702 -3.6095600000000028 16.0311 -3.9220600000000028 C 16.988129999999998 -4.234560000000003 17.9608 -4.726750000000003 18.953 -5.406460000000003 z" stroke-linecap="round" />
</g>
		<g transform="matrix(1.3333333333 0 0 1.3333333333 -334.833784 382.567608)" id="GxR4mxg-L7vyAMSQ8KoBo"  >
<path style="stroke: none; stroke-width: 1; stroke-dasharray: none; stroke-linecap: butt; stroke-dashoffset: 0; stroke-linejoin: miter; stroke-miterlimit: 4; fill: rgb(0,0,0); fill-rule: nonzero; opacity: 1;" vector-effect="non-scaling-stroke"  transform=" translate(-8.11685, 7.92195)" d="M 13.859 -11.25 C 13.42931 -11.45703 13.00353 -11.60938 12.5778 -11.70312 C 12.148109999999999 -11.79687 11.71842 -11.84374 11.280899999999999 -11.84374 C 10.007499999999999 -11.84374 9.030899999999999 -11.43749 8.343399999999999 -10.62494 C 7.655899999999999 -9.81239 7.312199999999999 -8.644440000000001 7.312199999999999 -7.1249400000000005 L 7.312199999999999 0.000059999999999504894 L 2.374699999999999 0.000059999999999504894 L 2.374699999999999 -15.46894 L 7.312199999999999 -15.46894 L 7.312199999999999 -12.922039999999999 C 7.945009999999999 -13.929839999999999 8.6755 -14.672039999999999 9.499699999999999 -15.140839999999999 C 10.331729999999999 -15.609589999999999 11.319999999999999 -15.84396 12.468499999999999 -15.84396 C 12.632559999999998 -15.84396 12.812249999999999 -15.832241 12.999749999999999 -15.81271 C 13.195059999999998 -15.800991 13.476309999999998 -15.773648 13.843499999999999 -15.734585 z" stroke-linecap="round" />
</g>
		<g transform="matrix(1.3333333333 0 0 1.3333333333 -314.3749666667 382.8387546667)" id="sdWfFqi1DNEUa7Q1gPFai"  >
<path style="stroke: none; stroke-width: 1; stroke-dasharray: none; stroke-linecap: butt; stroke-dashoffset: 0; stroke-linejoin: miter; stroke-miterlimit: 4; fill: rgb(0,0,0); fill-rule: nonzero; opacity: 1;" vector-effect="non-scaling-stroke"  transform=" translate(-9.51565, 7.71859)" d="M 17.812 -7.7812 L 17.812 -6.3593 L 6.250000000000002 -6.3593 C 6.375000000000002 -5.2031 6.796880000000002 -4.332000000000001 7.515600000000002 -3.7499000000000002 C 8.234350000000003 -3.1756800000000003 9.234400000000003 -2.8905200000000004 10.515600000000003 -2.8905200000000004 C 11.554700000000002 -2.8905200000000004 12.625000000000004 -3.0389600000000003 13.718700000000002 -3.3436400000000006 C 14.812500000000002 -3.6561400000000006 15.929600000000002 -4.124890000000001 17.078100000000003 -4.749840000000001 L 17.078100000000003 -0.9373400000000007 C 15.910100000000003 -0.49984000000000073 14.742200000000002 -0.1639000000000007 13.578100000000003 0.06265999999999927 C 12.410100000000003 0.28921999999999926 11.238300000000002 0.40640999999999927 10.062500000000004 0.40640999999999927 C 7.269500000000003 0.40640999999999927 5.097700000000003 -0.3006200000000008 3.5469000000000035 -1.7185900000000007 C 1.9922000000000035 -3.1443900000000005 1.2188000000000034 -5.144390000000001 1.2188000000000034 -7.718590000000001 C 1.2188000000000034 -10.23809 1.9766100000000035 -12.22249 3.5000000000000036 -13.671690000000002 C 5.019500000000003 -15.116990000000001 7.117200000000004 -15.843590000000003 9.796900000000004 -15.843590000000003 C 12.222700000000005 -15.843590000000003 14.164100000000005 -15.109210000000003 15.625000000000004 -13.640490000000003 C 17.082000000000004 -12.179590000000003 17.812500000000004 -10.226390000000004 17.812500000000004 -7.781090000000003 z M 12.733900000000002 -9.421800000000001 C 12.733900000000002 -10.359300000000001 12.456560000000001 -11.1132 11.905780000000002 -11.6874 C 11.362810000000001 -12.25771 10.647980000000002 -12.54678 9.76518 -12.54678 C 8.80424 -12.54678 8.02298 -12.27334 7.421380000000001 -11.73428 C 6.827630000000001 -11.20303 6.456540000000001 -10.42958 6.311980000000001 -9.42178 z" stroke-linecap="round" />
</g>
		<g transform="matrix(1.3333333333 0 0 1.3333333333 -289.432228 382.838548)" id="b3p04846ofPy-2y9Cu6i-"  >
<path style="stroke: none; stroke-width: 1; stroke-dasharray: none; stroke-linecap: butt; stroke-dashoffset: 0; stroke-linejoin: miter; stroke-miterlimit: 4; fill: rgb(0,0,0); fill-rule: nonzero; opacity: 1;" vector-effect="non-scaling-stroke"  transform=" translate(-9.03911, 7.718745)" d="M 9.3125 -6.9531 C 8.2813 -6.9531 7.5039 -6.77341 6.9844 -6.42185 C 6.46096 -6.0781 6.20315 -5.5663800000000005 6.20315 -4.89065 C 6.20315 -4.26565 6.4101799999999995 -3.77345 6.82815 -3.42185 C 7.24221 -3.06638 7.82815 -2.8906 8.57815 -2.8906 C 9.50393 -2.8906 10.285150000000002 -3.22263 10.92195 -3.8906 C 11.55476 -4.55466 11.875070000000001 -5.3906 11.875070000000001 -6.3906 L 11.875070000000001 -6.9531 z M 16.8594 -8.8281 L 16.8594 0 L 11.875 0 L 11.875 -2.2969 C 11.20703 -1.3594 10.457 -0.6718999999999999 9.625 -0.23439999999999994 C 8.80078 0.19138000000000005 7.7969 0.40622 6.6094 0.40622 C 5.0156 0.40622 3.7188 -0.06252999999999997 2.7188 -0.9999799999999999 C 1.7187999999999999 -1.9374299999999998 1.2187999999999999 -3.14838 1.2187999999999999 -4.64058 C 1.2187999999999999 -6.45308 1.8359899999999998 -7.78118 3.0782 -8.62498 C 4.3282 -9.47654 6.2890999999999995 -9.90618 8.9688 -9.90618 L 11.875 -9.90618 L 11.875 -10.28118 C 11.875 -11.07024 11.56641 -11.644480000000001 10.95312 -11.99998 C 10.33593 -12.36326 9.37502 -12.54686 8.06252 -12.54686 C 7.000019999999999 -12.54686 6.015619999999999 -12.44139 5.109419999999999 -12.23436 C 4.203169999999999 -12.02342 3.351619999999999 -11.70702 2.5625199999999992 -11.28124 L 2.5625199999999992 -15.04684 C 3.6250199999999992 -15.304649999999999 4.687519999999999 -15.50387 5.750019999999999 -15.64059 C 6.820319999999999 -15.773399999999999 7.894519999999999 -15.84371 8.96882 -15.84371 C 11.75002 -15.84371 13.757919999999999 -15.289019999999999 15.00002 -14.18751 C 16.238319999999998 -13.08201 16.85942 -11.29691 16.85942 -8.828109999999999 z" stroke-linecap="round" />
</g>
		<g transform="matrix(1.3333333333 0 0 1.3333333333 -267.2032053333 379.8910746667)" id="bcrlhE5i2jNnwvPEUP-nJ"  >
<path style="stroke: none; stroke-width: 1; stroke-dasharray: none; stroke-linecap: butt; stroke-dashoffset: 0; stroke-linejoin: miter; stroke-miterlimit: 4; fill: rgb(0,0,0); fill-rule: nonzero; opacity: 1;" vector-effect="non-scaling-stroke"  transform=" translate(-6.62494, 9.92935)" d="M 7.7812 -19.859 L 7.7812 -15.468400000000003 L 12.875 -15.468400000000003 L 12.875 -11.937200000000002 L 7.7812 -11.937200000000002 L 7.7812 -5.3747000000000025 C 7.7812 -4.6559500000000025 7.92182 -4.163800000000002 8.20308 -3.9059000000000026 C 8.48433 -3.6559000000000026 9.05074 -3.5309000000000026 9.906179999999999 -3.5309000000000026 L 12.43738 -3.5309000000000026 L 12.43738 0.00029999999999752447 L 8.20298 0.00029999999999752447 C 6.25378 0.00029999999999752447 4.86708 -0.4059500000000025 4.04678 -1.2185000000000026 C 3.23428 -2.0310000000000024 2.82798 -3.413800000000003 2.82798 -5.3747000000000025 L 2.82798 -11.937200000000002 L 0.3748800000000001 -11.937200000000002 L 0.3748800000000001 -15.468400000000003 L 2.82798 -15.468400000000003 L 2.82798 -19.859 z" stroke-linecap="round" />
</g>
		<g transform="matrix(1.3333333333 0 0 1.3333333333 -245.3228826667 382.8387546667)" id="ozYq6arpOHfPrRyfmsrsO"  >
<path style="stroke: none; stroke-width: 1; stroke-dasharray: none; stroke-linecap: butt; stroke-dashoffset: 0; stroke-linejoin: miter; stroke-miterlimit: 4; fill: rgb(0,0,0); fill-rule: nonzero; opacity: 1;" vector-effect="non-scaling-stroke"  transform=" translate(-9.51565, 7.71859)" d="M 17.812 -7.7812 L 17.812 -6.3593 L 6.250000000000002 -6.3593 C 6.375000000000002 -5.2031 6.796880000000002 -4.332000000000001 7.515600000000002 -3.7499000000000002 C 8.234350000000003 -3.1756800000000003 9.234400000000003 -2.8905200000000004 10.515600000000003 -2.8905200000000004 C 11.554700000000002 -2.8905200000000004 12.625000000000004 -3.0389600000000003 13.718700000000002 -3.3436400000000006 C 14.812500000000002 -3.6561400000000006 15.929600000000002 -4.124890000000001 17.078100000000003 -4.749840000000001 L 17.078100000000003 -0.9373400000000007 C 15.910100000000003 -0.49984000000000073 14.742200000000002 -0.1639000000000007 13.578100000000003 0.06265999999999927 C 12.410100000000003 0.28921999999999926 11.238300000000002 0.40640999999999927 10.062500000000004 0.40640999999999927 C 7.269500000000003 0.40640999999999927 5.097700000000003 -0.3006200000000008 3.5469000000000035 -1.7185900000000007 C 1.9922000000000035 -3.1443900000000005 1.2188000000000034 -5.144390000000001 1.2188000000000034 -7.718590000000001 C 1.2188000000000034 -10.23809 1.9766100000000035 -12.22249 3.5000000000000036 -13.671690000000002 C 5.019500000000003 -15.116990000000001 7.117200000000004 -15.843590000000003 9.796900000000004 -15.843590000000003 C 12.222700000000005 -15.843590000000003 14.164100000000005 -15.109210000000003 15.625000000000004 -13.640490000000003 C 17.082000000000004 -12.179590000000003 17.812500000000004 -10.226390000000004 17.812500000000004 -7.781090000000003 z M 12.733900000000002 -9.421800000000001 C 12.733900000000002 -10.359300000000001 12.456560000000001 -11.1132 11.905780000000002 -11.6874 C 11.362810000000001 -12.25771 10.647980000000002 -12.54678 9.76518 -12.54678 C 8.80424 -12.54678 8.02298 -12.27334 7.421380000000001 -11.73428 C 6.827630000000001 -11.20303 6.456540000000001 -10.42958 6.311980000000001 -9.42178 z" stroke-linecap="round" />
</g>
		<g transform="matrix(1.3333333333 0 0 1.3333333333 -219.6713586667 379.078088)" id="_gNn3F31XV5HrvGcbIToD"  >
<path style="stroke: none; stroke-width: 1; stroke-dasharray: none; stroke-linecap: butt; stroke-dashoffset: 0; stroke-linejoin: miter; stroke-miterlimit: 4; fill: rgb(0,0,0); fill-rule: nonzero; opacity: 1;" vector-effect="non-scaling-stroke"  transform=" translate(-9.5707, 10.53909)" d="M 12.891 -13.203 L 12.891 -21.4842 L 17.8754 -21.4842 L 17.8754 -0.00019999999999953388 L 12.890999999999998 -0.00019999999999953388 L 12.890999999999998 -2.2345999999999995 C 12.211309999999997 -1.3283499999999995 11.461299999999998 -0.6603999999999994 10.640999999999998 -0.23459999999999948 C 9.828499999999998 0.19118000000000052 8.879299999999999 0.4060200000000005 7.797199999999998 0.4060200000000005 C 5.890999999999998 0.4060200000000005 4.320599999999999 -0.3478899999999995 3.0940999999999983 -1.8595799999999996 C 1.8752999999999982 -3.3790799999999996 1.2659999999999982 -5.33228 1.2659999999999982 -7.718979999999999 C 1.2659999999999982 -10.10178 1.8753799999999983 -12.05098 3.0940999999999983 -13.56278 C 4.320699999999999 -15.08228 5.890999999999998 -15.84398 7.797199999999998 -15.84398 C 8.867499999999998 -15.84398 9.816699999999997 -15.62914 10.640999999999998 -15.20336 C 11.461309999999997 -14.77367 12.211299999999998 -14.10956 12.890999999999998 -13.20336 z M 9.641 -3.1869999999999994 C 10.7035 -3.1869999999999994 11.5082 -3.5698099999999995 12.062899999999999 -4.3431999999999995 C 12.613679999999999 -5.1244499999999995 12.89102 -6.2494 12.89102 -7.7181999999999995 C 12.89102 -9.187 12.613679999999999 -10.3041 12.062899999999999 -11.0776 C 11.508209999999998 -11.85885 10.703499999999998 -12.249500000000001 9.640999999999998 -12.249500000000001 C 8.586299999999998 -12.249500000000001 7.781599999999998 -11.858880000000001 7.219099999999998 -11.0776 C 6.664409999999998 -10.30416 6.390979999999998 -9.187000000000001 6.390979999999998 -7.7182 C 6.390979999999998 -6.2494 6.664419999999998 -5.1244000000000005 7.219099999999998 -4.3432 C 7.781599999999998 -3.5697600000000005 8.586299999999998 -3.1870000000000003 9.640999999999998 -3.1870000000000003 z" stroke-linecap="round" />
</g>
		<g transform="matrix(1.3333333333 0 0 1.3333333333 -178.0838333333 379.0779013333)" id="tKQYBEn-l8Zl9DAPdYdKE"  >
<path style="stroke: none; stroke-width: 1; stroke-dasharray: none; stroke-linecap: butt; stroke-dashoffset: 0; stroke-linejoin: miter; stroke-miterlimit: 4; fill: rgb(0,0,0); fill-rule: nonzero; opacity: 1;" vector-effect="non-scaling-stroke"  transform=" translate(-10.6715, 10.53923)" d="M 10.609 -3.1875 C 11.6598 -3.1875 12.4606 -3.57031 13.0152 -4.3437 C 13.5777 -5.12495 13.85895 -6.2499 13.85895 -7.7187 C 13.85895 -9.1875 13.5777 -10.3046 13.0152 -11.0781 C 12.46051 -11.85935 11.6597 -12.25 10.609 -12.25 C 9.5465 -12.25 8.7262 -11.85938 8.155899999999999 -11.0781 C 7.593399999999999 -10.304659999999998 7.312149999999999 -9.1875 7.312149999999999 -7.718699999999999 C 7.312149999999999 -6.2578 7.593399999999999 -5.140599999999999 8.155899999999999 -4.359299999999999 C 8.726209999999998 -3.5780499999999993 9.546499999999998 -3.1873999999999993 10.608999999999998 -3.1873999999999993 z M 7.3121 -13.2035 C 7.9996 -14.10975 8.7535 -14.7738 9.5777 -15.2035 C 10.40973 -15.62928 11.3629 -15.84412 12.437100000000001 -15.84412 C 14.343300000000001 -15.84412 15.9059 -15.0824 17.1246 -13.56292 C 18.351200000000002 -12.05122 18.968400000000003 -10.10202 18.968400000000003 -7.71912 C 18.968400000000003 -5.332420000000001 18.351210000000002 -3.37932 17.1246 -1.8597200000000003 C 15.905800000000001 -0.3480200000000002 14.3434 0.4058799999999998 12.437100000000001 0.4058799999999998 C 11.362900000000002 0.4058799999999998 10.4098 0.1910399999999998 9.5777 -0.23474000000000017 C 8.75348 -0.6722400000000002 7.9996 -1.33634 7.3121 -2.2347400000000004 L 7.3121 -0.00034000000000045105 L 2.3746 -0.00034000000000045105 L 2.3746 -21.484340000000003 L 7.3121 -21.484340000000003 z" stroke-linecap="round" />
</g>
		<g transform="matrix(1.3333333333 0 0 1.3333333333 -153.1406413333 386.890608)" id="fwrCSKb8f859ikNZDAcaS"  >
<path style="stroke: none; stroke-width: 1; stroke-dasharray: none; stroke-linecap: butt; stroke-dashoffset: 0; stroke-linejoin: miter; stroke-miterlimit: 4; fill: rgb(0,0,0); fill-rule: nonzero; opacity: 1;" vector-effect="non-scaling-stroke"  transform=" translate(-9.1328, 4.6797)" d="M 0.34375 -15.469 L 5.28125 -15.469 L 9.45315 -4.968999999999999 L 12.984350000000001 -15.469 L 17.92185 -15.469 L 11.42185 1.4689999999999994 C 10.7656 3.1877999999999993 9.999949999999998 4.390899999999999 9.124949999999998 5.078399999999999 C 8.257759999999998 5.765899999999999 7.113249999999999 6.1095999999999995 5.687449999999998 6.1095999999999995 L 2.8280499999999984 6.1095999999999995 L 2.8280499999999984 2.8595999999999995 L 4.374949999999998 2.8595999999999995 C 5.218699999999998 2.8595999999999995 5.828049999999998 2.7228799999999995 6.203049999999998 2.4533499999999995 C 6.5858599999999985 2.1916299999999995 6.882739999999998 1.7111599999999996 7.093669999999999 1.0158499999999995 L 7.234289999999999 0.5939699999999994 z" stroke-linecap="round" />
</g>
		<g transform="matrix(1.3333333333 0 0 1.3333333333 -111.8280413333 379.3908746667)" id="3pYS3ItNOFxgDzlsTWpp-"  >
<path style="stroke: none; stroke-width: 1; stroke-dasharray: none; stroke-linecap: butt; stroke-dashoffset: 0; stroke-linejoin: miter; stroke-miterlimit: 4; fill: rgb(0,0,0); fill-rule: nonzero; opacity: 1;" vector-effect="non-scaling-stroke"  transform=" translate(-11.836, 10.3045)" d="M 2.5938 -20.609 L 8.5313 -20.609 L 16.0313 -6.468000000000002 L 16.0313 -20.609 L 21.078200000000002 -20.609 L 21.078200000000002 0 L 15.140700000000002 0 L 7.6407000000000025 -14.141 L 7.6407000000000025 0 L 2.5938000000000025 0 z" stroke-linecap="round" />
</g>
		<g transform="matrix(1.3333333333 0 0 1.3333333333 -83.994728 382.838548)" id="shrznnswboae4XE-cFmuY"  >
<path style="stroke: none; stroke-width: 1; stroke-dasharray: none; stroke-linecap: butt; stroke-dashoffset: 0; stroke-linejoin: miter; stroke-miterlimit: 4; fill: rgb(0,0,0); fill-rule: nonzero; opacity: 1;" vector-effect="non-scaling-stroke"  transform=" translate(-9.03911, 7.718745)" d="M 9.3125 -6.9531 C 8.2813 -6.9531 7.5039 -6.77341 6.9844 -6.42185 C 6.46096 -6.0781 6.20315 -5.5663800000000005 6.20315 -4.89065 C 6.20315 -4.26565 6.4101799999999995 -3.77345 6.82815 -3.42185 C 7.24221 -3.06638 7.82815 -2.8906 8.57815 -2.8906 C 9.50393 -2.8906 10.285150000000002 -3.22263 10.92195 -3.8906 C 11.55476 -4.55466 11.875070000000001 -5.3906 11.875070000000001 -6.3906 L 11.875070000000001 -6.9531 z M 16.8594 -8.8281 L 16.8594 0 L 11.875 0 L 11.875 -2.2969 C 11.20703 -1.3594 10.457 -0.6718999999999999 9.625 -0.23439999999999994 C 8.80078 0.19138000000000005 7.7969 0.40622 6.6094 0.40622 C 5.0156 0.40622 3.7188 -0.06252999999999997 2.7188 -0.9999799999999999 C 1.7187999999999999 -1.9374299999999998 1.2187999999999999 -3.14838 1.2187999999999999 -4.64058 C 1.2187999999999999 -6.45308 1.8359899999999998 -7.78118 3.0782 -8.62498 C 4.3282 -9.47654 6.2890999999999995 -9.90618 8.9688 -9.90618 L 11.875 -9.90618 L 11.875 -10.28118 C 11.875 -11.07024 11.56641 -11.644480000000001 10.95312 -11.99998 C 10.33593 -12.36326 9.37502 -12.54686 8.06252 -12.54686 C 7.000019999999999 -12.54686 6.015619999999999 -12.44139 5.109419999999999 -12.23436 C 4.203169999999999 -12.02342 3.351619999999999 -11.70702 2.5625199999999992 -11.28124 L 2.5625199999999992 -15.04684 C 3.6250199999999992 -15.304649999999999 4.687519999999999 -15.50387 5.750019999999999 -15.64059 C 6.820319999999999 -15.773399999999999 7.894519999999999 -15.84371 8.96882 -15.84371 C 11.75002 -15.84371 13.757919999999999 -15.289019999999999 15.00002 -14.18751 C 16.238319999999998 -13.08201 16.85942 -11.29691 16.85942 -8.828109999999999 z" stroke-linecap="round" />
</g>
		<g transform="matrix(1.3333333333 0 0 1.3333333333 -66.3489586667 382.880208)" id="v0yV5Fuh4tkefk5eofczk"  >
<path style="stroke: none; stroke-width: 1; stroke-dasharray: none; stroke-linecap: butt; stroke-dashoffset: 0; stroke-linejoin: miter; stroke-miterlimit: 4; fill: rgb(0,0,0); fill-rule: nonzero; opacity: 1;" vector-effect="non-scaling-stroke"  transform=" translate(-3.1875, 7.6875)" d="M 2.375 -15.469 L 7.3125 -15.469 L 7.3125 -0.2809999999999988 C 7.3125 1.7893000000000012 6.81641 3.3752000000000013 5.8281 4.469000000000001 C 4.83591 5.562800000000001 3.3945 6.109600000000001 1.5 6.109600000000001 L -0.9375 6.109600000000001 L -0.9375 2.8596000000000013 L -0.07811999999999997 2.8596000000000013 C 0.85938 2.8596000000000013 1.49998 2.644760000000001 1.84378 2.218980000000001 C 2.19534 1.801010000000001 2.3750299999999998 0.9689800000000011 2.3750299999999998 -0.28101999999999894 z M 2.375 -21.4846 L 7.3125 -21.4846 L 7.3125 -17.453400000000002 L 2.375 -17.453400000000002 z" stroke-linecap="round" />
</g>
		<g transform="matrix(1.3333333333 0 0 1.3333333333 -45.619728 382.838548)" id="DC7XhTthozgNlCYf1WOcG"  >
<path style="stroke: none; stroke-width: 1; stroke-dasharray: none; stroke-linecap: butt; stroke-dashoffset: 0; stroke-linejoin: miter; stroke-miterlimit: 4; fill: rgb(0,0,0); fill-rule: nonzero; opacity: 1;" vector-effect="non-scaling-stroke"  transform=" translate(-9.03911, 7.718745)" d="M 9.3125 -6.9531 C 8.2813 -6.9531 7.5039 -6.77341 6.9844 -6.42185 C 6.46096 -6.0781 6.20315 -5.5663800000000005 6.20315 -4.89065 C 6.20315 -4.26565 6.4101799999999995 -3.77345 6.82815 -3.42185 C 7.24221 -3.06638 7.82815 -2.8906 8.57815 -2.8906 C 9.50393 -2.8906 10.285150000000002 -3.22263 10.92195 -3.8906 C 11.55476 -4.55466 11.875070000000001 -5.3906 11.875070000000001 -6.3906 L 11.875070000000001 -6.9531 z M 16.8594 -8.8281 L 16.8594 0 L 11.875 0 L 11.875 -2.2969 C 11.20703 -1.3594 10.457 -0.6718999999999999 9.625 -0.23439999999999994 C 8.80078 0.19138000000000005 7.7969 0.40622 6.6094 0.40622 C 5.0156 0.40622 3.7188 -0.06252999999999997 2.7188 -0.9999799999999999 C 1.7187999999999999 -1.9374299999999998 1.2187999999999999 -3.14838 1.2187999999999999 -4.64058 C 1.2187999999999999 -6.45308 1.8359899999999998 -7.78118 3.0782 -8.62498 C 4.3282 -9.47654 6.2890999999999995 -9.90618 8.9688 -9.90618 L 11.875 -9.90618 L 11.875 -10.28118 C 11.875 -11.07024 11.56641 -11.644480000000001 10.95312 -11.99998 C 10.33593 -12.36326 9.37502 -12.54686 8.06252 -12.54686 C 7.000019999999999 -12.54686 6.015619999999999 -12.44139 5.109419999999999 -12.23436 C 4.203169999999999 -12.02342 3.351619999999999 -11.70702 2.5625199999999992 -11.28124 L 2.5625199999999992 -15.04684 C 3.6250199999999992 -15.304649999999999 4.687519999999999 -15.50387 5.750019999999999 -15.64059 C 6.820319999999999 -15.773399999999999 7.894519999999999 -15.84371 8.96882 -15.84371 C 11.75002 -15.84371 13.757919999999999 -15.289019999999999 15.00002 -14.18751 C 16.238319999999998 -13.08201 16.85942 -11.29691 16.85942 -8.828109999999999 z" stroke-linecap="round" />
</g>
		<g transform="matrix(1.3333333333 0 0 1.3333333333 -20.0521 386.890608)" id="XTeUqlk2DYYsp-rPgFLzL"  >
<path style="stroke: none; stroke-width: 1; stroke-dasharray: none; stroke-linecap: butt; stroke-dashoffset: 0; stroke-linejoin: miter; stroke-miterlimit: 4; fill: rgb(0,0,0); fill-rule: nonzero; opacity: 1;" vector-effect="non-scaling-stroke"  transform=" translate(-9.1328, 4.6797)" d="M 0.34375 -15.469 L 5.28125 -15.469 L 9.45315 -4.968999999999999 L 12.984350000000001 -15.469 L 17.92185 -15.469 L 11.42185 1.4689999999999994 C 10.7656 3.1877999999999993 9.999949999999998 4.390899999999999 9.124949999999998 5.078399999999999 C 8.257759999999998 5.765899999999999 7.113249999999999 6.1095999999999995 5.687449999999998 6.1095999999999995 L 2.8280499999999984 6.1095999999999995 L 2.8280499999999984 2.8595999999999995 L 4.374949999999998 2.8595999999999995 C 5.218699999999998 2.8595999999999995 5.828049999999998 2.7228799999999995 6.203049999999998 2.4533499999999995 C 6.5858599999999985 2.1916299999999995 6.882739999999998 1.7111599999999996 7.093669999999999 1.0158499999999995 L 7.234289999999999 0.5939699999999994 z" stroke-linecap="round" />
</g>
		<g transform="matrix(1.3333333333 0 0 1.3333333333 4.4063133333 382.838548)" id="qGvI-A1s6LK09dB3LAMyl"  >
<path style="stroke: none; stroke-width: 1; stroke-dasharray: none; stroke-linecap: butt; stroke-dashoffset: 0; stroke-linejoin: miter; stroke-miterlimit: 4; fill: rgb(0,0,0); fill-rule: nonzero; opacity: 1;" vector-effect="non-scaling-stroke"  transform=" translate(-9.03911, 7.718745)" d="M 9.3125 -6.9531 C 8.2813 -6.9531 7.5039 -6.77341 6.9844 -6.42185 C 6.46096 -6.0781 6.20315 -5.5663800000000005 6.20315 -4.89065 C 6.20315 -4.26565 6.4101799999999995 -3.77345 6.82815 -3.42185 C 7.24221 -3.06638 7.82815 -2.8906 8.57815 -2.8906 C 9.50393 -2.8906 10.285150000000002 -3.22263 10.92195 -3.8906 C 11.55476 -4.55466 11.875070000000001 -5.3906 11.875070000000001 -6.3906 L 11.875070000000001 -6.9531 z M 16.8594 -8.8281 L 16.8594 0 L 11.875 0 L 11.875 -2.2969 C 11.20703 -1.3594 10.457 -0.6718999999999999 9.625 -0.23439999999999994 C 8.80078 0.19138000000000005 7.7969 0.40622 6.6094 0.40622 C 5.0156 0.40622 3.7188 -0.06252999999999997 2.7188 -0.9999799999999999 C 1.7187999999999999 -1.9374299999999998 1.2187999999999999 -3.14838 1.2187999999999999 -4.64058 C 1.2187999999999999 -6.45308 1.8359899999999998 -7.78118 3.0782 -8.62498 C 4.3282 -9.47654 6.2890999999999995 -9.90618 8.9688 -9.90618 L 11.875 -9.90618 L 11.875 -10.28118 C 11.875 -11.07024 11.56641 -11.644480000000001 10.95312 -11.99998 C 10.33593 -12.36326 9.37502 -12.54686 8.06252 -12.54686 C 7.000019999999999 -12.54686 6.015619999999999 -12.44139 5.109419999999999 -12.23436 C 4.203169999999999 -12.02342 3.351619999999999 -11.70702 2.5625199999999992 -11.28124 L 2.5625199999999992 -15.04684 C 3.6250199999999992 -15.304649999999999 4.687519999999999 -15.50387 5.750019999999999 -15.64059 C 6.820319999999999 -15.773399999999999 7.894519999999999 -15.84371 8.96882 -15.84371 C 11.75002 -15.84371 13.757919999999999 -15.289019999999999 15.00002 -14.18751 C 16.238319999999998 -13.08201 16.85942 -11.29691 16.85942 -8.828109999999999 z" stroke-linecap="round" />
</g>
		<g transform="matrix(1.3333333333 0 0 1.3333333333 47.3280386667 379.3903146667)" id="aisxzxZRpGgAu5i3ryfmE"  >
<path style="stroke: none; stroke-width: 1; stroke-dasharray: none; stroke-linecap: butt; stroke-dashoffset: 0; stroke-linejoin: miter; stroke-miterlimit: 4; fill: rgb(0,0,0); fill-rule: nonzero; opacity: 1;" vector-effect="non-scaling-stroke"  transform=" translate(-12.29681, 10.30492)" d="M 7.9062 -16.594 L 7.9062 -4.016000000000002 L 9.8124 -4.016000000000002 C 11.9882 -4.016000000000002 13.6483 -4.551160000000002 14.796800000000001 -5.625400000000002 C 15.941300000000002 -6.707400000000002 16.515600000000003 -8.273800000000001 16.515600000000003 -10.328500000000002 C 16.515600000000003 -12.367600000000001 15.941380000000002 -13.922300000000002 14.796800000000003 -14.984700000000002 C 13.660100000000003 -16.055000000000003 11.999900000000004 -16.5941 9.812400000000004 -16.5941 z M 2.5937 -20.6096 L 8.2031 -20.6096 C 11.3281 -20.6096 13.656199999999998 -20.38304 15.1875 -19.93772 C 16.7266 -19.50022 18.0469 -18.74242 19.1406 -17.67212 C 20.10935 -16.74243 20.8281 -15.67212 21.296799999999998 -14.45332 C 21.765549999999998 -13.24242 21.999919999999996 -11.86742 21.999919999999996 -10.32832 C 21.999919999999996 -8.77362 21.765539999999994 -7.39082 21.296799999999998 -6.17212 C 20.82806 -4.9534199999999995 20.109299999999998 -3.8752199999999997 19.1406 -2.9377199999999997 C 18.0351 -1.8752199999999997 16.707 -1.1174199999999996 15.156199999999998 -0.6721199999999996 C 13.613199999999999 -0.2228999999999996 11.296799999999998 -0.0002399999999995739 8.2031 -0.0002399999999995739 L 2.5936999999999992 -0.0002399999999995739 z" stroke-linecap="round" />
</g>
		<g transform="matrix(1.3333333333 0 0 1.3333333333 74.921908 382.8387546667)" id="RfPOGPVFRUkJ89WYdeYBq"  >
<path style="stroke: none; stroke-width: 1; stroke-dasharray: none; stroke-linecap: butt; stroke-dashoffset: 0; stroke-linejoin: miter; stroke-miterlimit: 4; fill: rgb(0,0,0); fill-rule: nonzero; opacity: 1;" vector-effect="non-scaling-stroke"  transform=" translate(-9.51565, 7.71859)" d="M 17.812 -7.7812 L 17.812 -6.3593 L 6.250000000000002 -6.3593 C 6.375000000000002 -5.2031 6.796880000000002 -4.332000000000001 7.515600000000002 -3.7499000000000002 C 8.234350000000003 -3.1756800000000003 9.234400000000003 -2.8905200000000004 10.515600000000003 -2.8905200000000004 C 11.554700000000002 -2.8905200000000004 12.625000000000004 -3.0389600000000003 13.718700000000002 -3.3436400000000006 C 14.812500000000002 -3.6561400000000006 15.929600000000002 -4.124890000000001 17.078100000000003 -4.749840000000001 L 17.078100000000003 -0.9373400000000007 C 15.910100000000003 -0.49984000000000073 14.742200000000002 -0.1639000000000007 13.578100000000003 0.06265999999999927 C 12.410100000000003 0.28921999999999926 11.238300000000002 0.40640999999999927 10.062500000000004 0.40640999999999927 C 7.269500000000003 0.40640999999999927 5.097700000000003 -0.3006200000000008 3.5469000000000035 -1.7185900000000007 C 1.9922000000000035 -3.1443900000000005 1.2188000000000034 -5.144390000000001 1.2188000000000034 -7.718590000000001 C 1.2188000000000034 -10.23809 1.9766100000000035 -12.22249 3.5000000000000036 -13.671690000000002 C 5.019500000000003 -15.116990000000001 7.117200000000004 -15.843590000000003 9.796900000000004 -15.843590000000003 C 12.222700000000005 -15.843590000000003 14.164100000000005 -15.109210000000003 15.625000000000004 -13.640490000000003 C 17.082000000000004 -12.179590000000003 17.812500000000004 -10.226390000000004 17.812500000000004 -7.781090000000003 z M 12.733900000000002 -9.421800000000001 C 12.733900000000002 -10.359300000000001 12.456560000000001 -11.1132 11.905780000000002 -11.6874 C 11.362810000000001 -12.25771 10.647980000000002 -12.54678 9.76518 -12.54678 C 8.80424 -12.54678 8.02298 -12.27334 7.421380000000001 -11.73428 C 6.827630000000001 -11.20303 6.456540000000001 -10.42958 6.311980000000001 -9.42178 z" stroke-linecap="round" />
</g>
		<g transform="matrix(1.3333333333 0 0 1.3333333333 99.1197453333 382.8392013333)" id="a-LhZl1cTUZ_e2qveyuDw"  >
<path style="stroke: none; stroke-width: 1; stroke-dasharray: none; stroke-linecap: butt; stroke-dashoffset: 0; stroke-linejoin: miter; stroke-miterlimit: 4; fill: rgb(0,0,0); fill-rule: nonzero; opacity: 1;" vector-effect="non-scaling-stroke"  transform=" translate(-8.48434, 7.718255)" d="M 14.453 -14.984 L 14.453 -11.234 C 13.398299999999999 -11.6715 12.3788 -11.99962 11.3905 -12.21838 C 10.410029999999999 -12.43713 9.4843 -12.5465 8.6093 -12.5465 C 7.660079999999999 -12.5465 6.956999999999999 -12.42541 6.499899999999999 -12.18712 C 6.050679999999999 -11.95665 5.8280199999999995 -11.59728 5.8280199999999995 -11.109020000000001 C 5.8280199999999995 -10.71058 5.999899999999999 -10.4098 6.34364 -10.202770000000001 C 6.68739 -9.99183 7.30458 -9.83558 8.20304 -9.734020000000001 L 9.07804 -9.609020000000001 C 11.60924 -9.2848 13.312439999999999 -8.75355 14.187439999999999 -8.015220000000001 C 15.062439999999999 -7.284750000000001 15.499939999999999 -6.1324200000000015 15.499939999999999 -4.562120000000001 C 15.499939999999999 -2.905920000000001 14.890559999999999 -1.6598200000000012 13.67184 -0.8277200000000011 C 12.45304 -0.003500000000001169 10.64064 0.4066799999999988 8.23434 0.4066799999999988 C 7.210939999999999 0.4066799999999988 6.1562399999999995 0.3207419999999988 5.06244 0.15667999999999882 C 3.9686399999999997 0.0004299999999988202 2.8476399999999997 -0.23785000000000117 1.7030399999999997 -0.5620700000000012 L 1.7030399999999997 -4.327670000000001 C 2.6795999999999998 -3.8472000000000013 3.6874399999999996 -3.487830000000001 4.71864 -3.249570000000001 C 5.75774 -3.0073800000000013 6.81634 -2.8901900000000014 7.89054 -2.8901900000000014 C 8.84757 -2.8901900000000014 9.57024 -3.0191000000000012 10.062439999999999 -3.2808100000000016 C 10.550719999999998 -3.5503400000000016 10.796819999999999 -3.9448700000000017 10.796819999999999 -4.468310000000002 C 10.796819999999999 -4.913620000000002 10.628849999999998 -5.2417500000000015 10.296819999999999 -5.452690000000001 C 9.960879999999998 -5.671440000000001 9.289019999999999 -5.843310000000002 8.281219999999998 -5.968310000000002 L 7.421839999999998 -6.077690000000001 C 5.210939999999997 -6.347220000000001 3.6640399999999977 -6.858940000000001 2.7812399999999977 -7.6088900000000015 C 1.9062399999999977 -8.358890000000002 1.4687399999999977 -9.487790000000002 1.4687399999999977 -10.999490000000002 C 1.4687399999999977 -12.643990000000002 2.0234299999999976 -13.862790000000002 3.1406399999999977 -14.655690000000002 C 4.265639999999998 -15.44475 5.988339999999997 -15.843190000000002 8.312539999999998 -15.843190000000002 C 9.226599999999998 -15.843190000000002 10.187539999999998 -15.768971000000002 11.187539999999998 -15.624440000000002 C 12.187539999999998 -15.487720000000001 13.273439999999999 -15.272880000000002 14.453139999999998 -14.983820000000001 z" stroke-linecap="round" />
</g>
		<g transform="matrix(1.3333333333 0 0 1.3333333333 116.7135413333 378.8071413333)" id="EIttppj6YJXb7GNfZ-xsF"  >
<path style="stroke: none; stroke-width: 1; stroke-dasharray: none; stroke-linecap: butt; stroke-dashoffset: 0; stroke-linejoin: miter; stroke-miterlimit: 4; fill: rgb(0,0,0); fill-rule: nonzero; opacity: 1;" vector-effect="non-scaling-stroke"  transform=" translate(-4.84375, 10.7423)" d="M 2.375 -15.469 L 7.3125 -15.469 L 7.3125 0 L 2.375 0 z M 2.375 -21.4846 L 7.3125 -21.4846 L 7.3125 -17.453400000000002 L 2.375 -17.453400000000002 z" stroke-linecap="round" />
</g>
		<g transform="matrix(1.3333333333 0 0 1.3333333333 135.9431586667 386.6611546667)" id="tAbhOWJn2b9ec3ZXnyGf8"  >
<path style="stroke: none; stroke-width: 1; stroke-dasharray: none; stroke-linecap: butt; stroke-dashoffset: 0; stroke-linejoin: miter; stroke-miterlimit: 4; fill: rgb(0,0,0); fill-rule: nonzero; opacity: 1;" vector-effect="non-scaling-stroke"  transform=" translate(-9.57065, 4.85179)" d="M 12.891 -2.625 C 12.21131 -1.71875 11.4613 -1.0508 10.641 -0.625 C 9.8285 -0.20703 8.8793 0 7.7972 0 C 5.9105 0 4.348000000000001 -0.73828 3.1097 -2.2188 C 1.8792000000000002 -3.7070999999999996 1.2659 -5.6015999999999995 1.2659 -7.9063 C 1.2659 -10.2188 1.87918 -12.113299999999999 3.1097 -13.5938 C 4.348 -15.0704 5.910500000000001 -15.8126 7.7972 -15.8126 C 8.8792 -15.8126 9.8284 -15.59776 10.641 -15.17198 C 11.46131 -14.75401 12.2113 -14.086079999999999 12.891 -13.17198 L 12.891 -15.468879999999999 L 17.8754 -15.468879999999999 L 17.8754 -1.562879999999998 C 17.8754 0.9254200000000021 17.08634 2.827720000000002 15.515999999999998 4.140220000000002 C 13.941799999999999 5.452720000000002 11.664399999999999 6.109020000000002 8.687899999999999 6.109020000000002 C 7.719149999999999 6.109020000000002 6.781699999999999 6.030895000000002 5.875399999999999 5.874640000000002 C 4.976959999999999 5.726200000000002 4.070699999999999 5.503550000000002 3.156599999999999 5.202760000000002 L 3.156599999999999 1.3589600000000024 C 4.019879999999999 1.8472400000000024 4.8675 2.2105200000000025 5.703499999999999 2.4527600000000023 C 6.53553 2.7027600000000023 7.3675999999999995 2.8277600000000023 8.203499999999998 2.8277600000000023 C 9.828499999999998 2.8277600000000023 11.015999999999998 2.4722900000000023 11.765999999999998 1.7652600000000023 C 12.515999999999998 1.0543200000000024 12.890999999999998 -0.05113999999999774 12.890999999999998 -1.5628399999999978 z M 9.641 -12.25 C 8.6176 -12.25 7.8207 -11.86719 7.2504 -11.1094 C 6.6761800000000004 -10.3594 6.39102 -9.289100000000001 6.39102 -7.906300000000001 C 6.39102 -6.488300000000001 6.66446 -5.414100000000001 7.21914 -4.687500000000001 C 7.769920000000001 -3.957030000000001 8.57854 -3.593700000000001 9.64104 -3.593700000000001 C 10.67224 -3.593700000000001 11.46914 -3.968700000000001 12.03164 -4.718700000000001 C 12.601949999999999 -5.476510000000001 12.89102 -6.5390000000000015 12.89102 -7.906200000000001 C 12.89102 -9.289000000000001 12.60196 -10.359300000000001 12.03164 -11.109300000000001 C 11.46914 -11.86711 10.672239999999999 -12.2499 9.64104 -12.2499 z" stroke-linecap="round" />
</g>
		<g transform="matrix(1.3333333333 0 0 1.3333333333 163.7084706667 382.5676346667)" id="4W4NUuBG-yop6Q8EBrJNW"  >
<path style="stroke: none; stroke-width: 1; stroke-dasharray: none; stroke-linecap: butt; stroke-dashoffset: 0; stroke-linejoin: miter; stroke-miterlimit: 4; fill: rgb(0,0,0); fill-rule: nonzero; opacity: 1;" vector-effect="non-scaling-stroke"  transform=" translate(-10.14854, 7.92193)" d="M 17.922 -9.4219 L 17.922 0 L 12.9532 0 L 12.9532 -7.2031 C 12.9532 -8.5351 12.92195 -9.457 12.85945 -9.9687 C 12.804763000000001 -10.47651 12.7032 -10.85151 12.54695 -11.0937 C 12.35945 -11.41401 12.09773 -11.66401 11.7657 -11.8437 C 11.42976 -12.01948 11.05476 -12.10932 10.6407 -12.10932 C 9.6095 -12.10932 8.7969 -11.70698 8.2032 -10.906220000000001 C 7.609450000000001 -10.11325 7.3125800000000005 -9.015620000000002 7.3125800000000005 -7.609320000000001 L 7.3125800000000005 0.00007999999999874774 L 2.3750800000000005 0.00007999999999874774 L 2.3750800000000005 -15.46892 L 7.3125800000000005 -15.46892 L 7.3125800000000005 -13.203320000000001 C 8.06258 -14.109570000000001 8.85168 -14.773620000000001 9.68758 -15.203320000000001 C 10.53133 -15.629100000000001 11.457080000000001 -15.843940000000002 12.46878 -15.843940000000002 C 14.25788 -15.843940000000002 15.61328 -15.289250000000001 16.531280000000002 -14.187740000000002 C 17.457060000000002 -13.093940000000002 17.92188 -11.504140000000001 17.92188 -9.422140000000002 z" stroke-linecap="round" />
</g>
		<g transform="matrix(1.3333333333 0 0 1.3333333333 -364.6145 416.521616)" id="8y0H6XxVAWsDFqrnFXpNV"  >
<path style="stroke: none; stroke-width: 1; stroke-dasharray: none; stroke-linecap: butt; stroke-dashoffset: 0; stroke-linejoin: miter; stroke-miterlimit: 4; fill: rgb(0,0,0); fill-rule: nonzero; opacity: 1;" vector-effect="non-scaling-stroke"  transform=" translate(-6.539125, 10.7416)" d="M 12.547 -21.484 L 12.547 -18.234 L 9.8126 -18.234 C 9.11338 -18.234 8.6251 -18.109 8.3438 -17.859 C 8.070359999999999 -17.609 7.93755 -17.1715 7.93755 -16.5465 L 7.93755 -15.468400000000003 L 12.171949999999999 -15.468400000000003 L 12.171949999999999 -11.937200000000002 L 7.937549999999999 -11.937200000000002 L 7.937549999999999 0.0007999999999981355 L 3.000049999999999 0.0007999999999981355 L 3.000049999999999 -11.937200000000002 L 0.5312499999999991 -11.937200000000002 L 0.5312499999999991 -15.468400000000003 L 3.000049999999999 -15.468400000000003 L 3.000049999999999 -16.5465 C 3.000049999999999 -18.234 3.468799999999999 -19.476200000000002 4.406249999999999 -20.280900000000003 C 5.343749999999999 -21.081680000000002 6.796849999999999 -21.484 8.765649999999999 -21.484 z" stroke-linecap="round" />
</g>
		<g transform="matrix(1.3333333333 0 0 1.3333333333 -346.104616 420.2811493333)" id="fgMyQYXBfEfoO41EU3q3F"  >
<path style="stroke: none; stroke-width: 1; stroke-dasharray: none; stroke-linecap: butt; stroke-dashoffset: 0; stroke-linejoin: miter; stroke-miterlimit: 4; fill: rgb(0,0,0); fill-rule: nonzero; opacity: 1;" vector-effect="non-scaling-stroke"  transform=" translate(-8.11685, 7.92195)" d="M 13.859 -11.25 C 13.42931 -11.45703 13.00353 -11.60938 12.5778 -11.70312 C 12.148109999999999 -11.79687 11.71842 -11.84374 11.280899999999999 -11.84374 C 10.007499999999999 -11.84374 9.030899999999999 -11.43749 8.343399999999999 -10.62494 C 7.655899999999999 -9.81239 7.312199999999999 -8.644440000000001 7.312199999999999 -7.1249400000000005 L 7.312199999999999 0.000059999999999504894 L 2.374699999999999 0.000059999999999504894 L 2.374699999999999 -15.46894 L 7.312199999999999 -15.46894 L 7.312199999999999 -12.922039999999999 C 7.945009999999999 -13.929839999999999 8.6755 -14.672039999999999 9.499699999999999 -15.140839999999999 C 10.331729999999999 -15.609589999999999 11.319999999999999 -15.84396 12.468499999999999 -15.84396 C 12.632559999999998 -15.84396 12.812249999999999 -15.832241 12.999749999999999 -15.81271 C 13.195059999999998 -15.800991 13.476309999999998 -15.773648 13.843499999999999 -15.734585 z" stroke-linecap="round" />
</g>
		<g transform="matrix(1.3333333333 0 0 1.3333333333 -325.3697253333 420.5518826667)" id="9YQKbIDK1Bs_UExmDqM9u"  >
<path style="stroke: none; stroke-width: 1; stroke-dasharray: none; stroke-linecap: butt; stroke-dashoffset: 0; stroke-linejoin: miter; stroke-miterlimit: 4; fill: rgb(0,0,0); fill-rule: nonzero; opacity: 1;" vector-effect="non-scaling-stroke"  transform=" translate(-9.7188, 7.7189)" d="M 9.7344 -12.297 C 8.640600000000001 -12.297 7.800800000000001 -11.89856 7.218800000000001 -11.1095 C 6.644580000000001 -10.32825 6.359420000000001 -9.195400000000001 6.359420000000001 -7.7189000000000005 C 6.359420000000001 -6.2384 6.644580000000001 -5.101700000000001 7.218800000000001 -4.3127 C 7.800830000000001 -3.5314500000000004 8.6407 -3.1408000000000005 9.7344 -3.1408000000000005 C 10.8047 -3.1408000000000005 11.628900000000002 -3.5314200000000007 12.2032 -4.3127 C 12.77351 -5.1017600000000005 13.06258 -6.2385 13.06258 -7.7189000000000005 C 13.06258 -9.195500000000001 12.773520000000001 -10.3283 12.2032 -11.1095 C 11.62898 -11.89856 10.8048 -12.297 9.7344 -12.297 z M 9.7344 -15.843900000000001 C 12.390600000000001 -15.843900000000001 14.468800000000002 -15.125150000000001 15.968800000000002 -13.687700000000001 C 17.4688 -12.250250000000001 18.2188 -10.258000000000001 18.2188 -7.718900000000001 C 18.2188 -5.175900000000001 17.4688 -3.1877000000000013 15.968800000000002 -1.7501000000000015 C 14.468800000000002 -0.3125000000000018 12.390700000000002 0.4060999999999986 9.7344 0.4060999999999986 C 7.066400000000001 0.4060999999999986 4.976600000000001 -0.3126500000000014 3.4688000000000008 -1.7501000000000015 C 1.9688000000000008 -3.1876000000000015 1.2188000000000008 -5.175900000000002 1.2188000000000008 -7.718900000000001 C 1.2188000000000008 -10.258000000000001 1.9688000000000008 -12.250100000000002 3.4688000000000008 -13.687700000000001 C 4.976600000000001 -15.125200000000001 7.066500000000001 -15.843900000000001 9.7344 -15.843900000000001 z" stroke-linecap="round" />
</g>
		<g transform="matrix(1.3333333333 0 0 1.3333333333 -292.7032913333 420.2805493333)" id="_-vKysb7W1UZ5y1H9h_iX"  >
<path style="stroke: none; stroke-width: 1; stroke-dasharray: none; stroke-linecap: butt; stroke-dashoffset: 0; stroke-linejoin: miter; stroke-miterlimit: 4; fill: rgb(0,0,0); fill-rule: nonzero; opacity: 1;" vector-effect="non-scaling-stroke"  transform=" translate(-14.7889375, 7.9224)" d="M 16.703 -12.891 C 17.328 -13.84803 18.0702 -14.5785 18.9374 -15.0785 C 19.80068 -15.58631 20.7499 -15.84412 21.7812 -15.84412 C 23.5507 -15.84412 24.8984 -15.28943 25.8281 -14.18792 C 26.7656 -13.09412 27.234299999999998 -11.50432 27.234299999999998 -9.42232 L 27.234299999999998 -0.0004199999999983106 L 22.265499999999996 -0.0004199999999983106 L 22.265499999999996 -8.062919999999998 C 22.273312999999995 -8.187919999999998 22.281124999999996 -8.312919999999998 22.281124999999996 -8.437919999999998 L 22.281124999999996 -8.984799999999998 C 22.281124999999996 -10.086399999999998 22.117064999999997 -10.883199999999999 21.796744999999994 -11.375399999999999 C 21.484244999999994 -11.863679999999999 20.968624999999996 -12.109779999999999 20.249844999999993 -12.109779999999999 C 19.300624999999993 -12.109779999999999 18.570144999999993 -11.723059999999998 18.062344999999993 -10.953579999999999 C 17.550624999999993 -10.180139999999998 17.288904999999993 -9.06298 17.281094999999993 -7.594179999999999 L 17.281094999999993 -0.00037999999999893674 L 12.296694999999993 -0.00037999999999893674 L 12.296694999999993 -8.06288 C 12.296694999999993 -9.78168 12.148254999999992 -10.88318 11.859194999999993 -11.37538 C 11.566224999999992 -11.86366 11.038884999999993 -12.10976 10.281094999999993 -12.10976 C 9.331874999999993 -12.10976 8.597494999999993 -11.71914 8.077994999999994 -10.93786 C 7.566274999999994 -10.16442 7.312374999999994 -9.055060000000001 7.312374999999994 -7.6097600000000005 L 7.312374999999994 -0.0003600000000005821 L 2.343574999999994 -0.0003600000000005821 L 2.343574999999994 -15.46936 L 7.312374999999994 -15.46936 L 7.312374999999994 -13.203759999999999 C 7.925654999999994 -14.078759999999999 8.624874999999994 -14.73496 9.406174999999994 -15.172559999999999 C 10.195234999999993 -15.617869999999998 11.066374999999994 -15.844439999999999 12.015574999999995 -15.844439999999999 C 13.078074999999995 -15.844439999999999 14.019474999999995 -15.582719999999998 14.843674999999994 -15.063189999999999 C 15.663984999999993 -14.551469999999998 16.285074999999996 -13.828789999999998 16.703074999999995 -12.891289999999998 z" stroke-linecap="round" />
</g>
		<g transform="matrix(1.3333333333 0 0 1.3333333333 -251.1667466667 417.604616)" id="CGEo-GkK6953Sizirz8aH"  >
<path style="stroke: none; stroke-width: 1; stroke-dasharray: none; stroke-linecap: butt; stroke-dashoffset: 0; stroke-linejoin: miter; stroke-miterlimit: 4; fill: rgb(0,0,0); fill-rule: nonzero; opacity: 1;" vector-effect="non-scaling-stroke"  transform=" translate(-6.62494, 9.92935)" d="M 7.7812 -19.859 L 7.7812 -15.468400000000003 L 12.875 -15.468400000000003 L 12.875 -11.937200000000002 L 7.7812 -11.937200000000002 L 7.7812 -5.3747000000000025 C 7.7812 -4.6559500000000025 7.92182 -4.163800000000002 8.20308 -3.9059000000000026 C 8.48433 -3.6559000000000026 9.05074 -3.5309000000000026 9.906179999999999 -3.5309000000000026 L 12.43738 -3.5309000000000026 L 12.43738 0.00029999999999752447 L 8.20298 0.00029999999999752447 C 6.25378 0.00029999999999752447 4.86708 -0.4059500000000025 4.04678 -1.2185000000000026 C 3.23428 -2.0310000000000024 2.82798 -3.413800000000003 2.82798 -5.3747000000000025 L 2.82798 -11.937200000000002 L 0.3748800000000001 -11.937200000000002 L 0.3748800000000001 -15.468400000000003 L 2.82798 -15.468400000000003 L 2.82798 -19.859 z" stroke-linecap="round" />
</g>
		<g transform="matrix(1.3333333333 0 0 1.3333333333 -228.442572 416.5211893333)" id="6MYB9LICEr9m_4z39SZ5y"  >
<path style="stroke: none; stroke-width: 1; stroke-dasharray: none; stroke-linecap: butt; stroke-dashoffset: 0; stroke-linejoin: miter; stroke-miterlimit: 4; fill: rgb(0,0,0); fill-rule: nonzero; opacity: 1;" vector-effect="non-scaling-stroke"  transform=" translate(-10.14854, 10.74192)" d="M 17.922 -9.4219 L 17.922 0 L 12.9532 0 L 12.9532 -7.1875 C 12.9532 -8.5313 12.92195 -9.457 12.85945 -9.9687 C 12.804763000000001 -10.47651 12.7032 -10.85151 12.54695 -11.0937 C 12.35945 -11.41401 12.09773 -11.66401 11.7657 -11.8437 C 11.42976 -12.01948 11.05476 -12.10932 10.6407 -12.10932 C 9.6095 -12.10932 8.7969 -11.70698 8.2032 -10.906220000000001 C 7.609450000000001 -10.11325 7.3125800000000005 -9.015620000000002 7.3125800000000005 -7.609320000000001 L 7.3125800000000005 0.00007999999999874774 L 2.3750800000000005 0.00007999999999874774 L 2.3750800000000005 -21.483920000000005 L 7.3125800000000005 -21.483920000000005 L 7.3125800000000005 -13.202720000000005 C 8.06258 -14.108970000000005 8.85168 -14.773020000000004 9.68758 -15.202720000000005 C 10.53133 -15.628500000000004 11.457080000000001 -15.843340000000005 12.46878 -15.843340000000005 C 14.25788 -15.843340000000005 15.61328 -15.288650000000004 16.531280000000002 -14.187140000000005 C 17.457060000000002 -13.093340000000005 17.92188 -11.503540000000005 17.92188 -9.421540000000004 z" stroke-linecap="round" />
</g>
		<g transform="matrix(1.3333333333 0 0 1.3333333333 -202.4374666667 420.552296)" id="_2XZLnK1BfCtSbB5ijZnM"  >
<path style="stroke: none; stroke-width: 1; stroke-dasharray: none; stroke-linecap: butt; stroke-dashoffset: 0; stroke-linejoin: miter; stroke-miterlimit: 4; fill: rgb(0,0,0); fill-rule: nonzero; opacity: 1;" vector-effect="non-scaling-stroke"  transform=" translate(-9.51565, 7.71859)" d="M 17.812 -7.7812 L 17.812 -6.3593 L 6.250000000000002 -6.3593 C 6.375000000000002 -5.2031 6.796880000000002 -4.332000000000001 7.515600000000002 -3.7499000000000002 C 8.234350000000003 -3.1756800000000003 9.234400000000003 -2.8905200000000004 10.515600000000003 -2.8905200000000004 C 11.554700000000002 -2.8905200000000004 12.625000000000004 -3.0389600000000003 13.718700000000002 -3.3436400000000006 C 14.812500000000002 -3.6561400000000006 15.929600000000002 -4.124890000000001 17.078100000000003 -4.749840000000001 L 17.078100000000003 -0.9373400000000007 C 15.910100000000003 -0.49984000000000073 14.742200000000002 -0.1639000000000007 13.578100000000003 0.06265999999999927 C 12.410100000000003 0.28921999999999926 11.238300000000002 0.40640999999999927 10.062500000000004 0.40640999999999927 C 7.269500000000003 0.40640999999999927 5.097700000000003 -0.3006200000000008 3.5469000000000035 -1.7185900000000007 C 1.9922000000000035 -3.1443900000000005 1.2188000000000034 -5.144390000000001 1.2188000000000034 -7.718590000000001 C 1.2188000000000034 -10.23809 1.9766100000000035 -12.22249 3.5000000000000036 -13.671690000000002 C 5.019500000000003 -15.116990000000001 7.117200000000004 -15.843590000000003 9.796900000000004 -15.843590000000003 C 12.222700000000005 -15.843590000000003 14.164100000000005 -15.109210000000003 15.625000000000004 -13.640490000000003 C 17.082000000000004 -12.179590000000003 17.812500000000004 -10.226390000000004 17.812500000000004 -7.781090000000003 z M 12.733900000000002 -9.421800000000001 C 12.733900000000002 -10.359300000000001 12.456560000000001 -11.1132 11.905780000000002 -11.6874 C 11.362810000000001 -12.25771 10.647980000000002 -12.54678 9.76518 -12.54678 C 8.80424 -12.54678 8.02298 -12.27334 7.421380000000001 -11.73428 C 6.827630000000001 -11.20303 6.456540000000001 -10.42958 6.311980000000001 -9.42178 z" stroke-linecap="round" />
</g>
		<g transform="matrix(1.3333333333 0 0 1.3333333333 -160.6405413333 417.104416)" id="s2kLSS13jCGOZXLqktktm"  >
<path style="stroke: none; stroke-width: 1; stroke-dasharray: none; stroke-linecap: butt; stroke-dashoffset: 0; stroke-linejoin: miter; stroke-miterlimit: 4; fill: rgb(0,0,0); fill-rule: nonzero; opacity: 1;" vector-effect="non-scaling-stroke"  transform=" translate(-11.836, 10.3045)" d="M 2.5938 -20.609 L 8.5313 -20.609 L 16.0313 -6.468000000000002 L 16.0313 -20.609 L 21.078200000000002 -20.609 L 21.078200000000002 0 L 15.140700000000002 0 L 7.6407000000000025 -14.141 L 7.6407000000000025 0 L 2.5938000000000025 0 z" stroke-linecap="round" />
</g>
		<g transform="matrix(1.3333333333 0 0 1.3333333333 -131.9009746667 420.5518826667)" id="Qvoo6RnXmG4y2Uz8jFydi"  >
<path style="stroke: none; stroke-width: 1; stroke-dasharray: none; stroke-linecap: butt; stroke-dashoffset: 0; stroke-linejoin: miter; stroke-miterlimit: 4; fill: rgb(0,0,0); fill-rule: nonzero; opacity: 1;" vector-effect="non-scaling-stroke"  transform=" translate(-9.7188, 7.7189)" d="M 9.7344 -12.297 C 8.640600000000001 -12.297 7.800800000000001 -11.89856 7.218800000000001 -11.1095 C 6.644580000000001 -10.32825 6.359420000000001 -9.195400000000001 6.359420000000001 -7.7189000000000005 C 6.359420000000001 -6.2384 6.644580000000001 -5.101700000000001 7.218800000000001 -4.3127 C 7.800830000000001 -3.5314500000000004 8.6407 -3.1408000000000005 9.7344 -3.1408000000000005 C 10.8047 -3.1408000000000005 11.628900000000002 -3.5314200000000007 12.2032 -4.3127 C 12.77351 -5.1017600000000005 13.06258 -6.2385 13.06258 -7.7189000000000005 C 13.06258 -9.195500000000001 12.773520000000001 -10.3283 12.2032 -11.1095 C 11.62898 -11.89856 10.8048 -12.297 9.7344 -12.297 z M 9.7344 -15.843900000000001 C 12.390600000000001 -15.843900000000001 14.468800000000002 -15.125150000000001 15.968800000000002 -13.687700000000001 C 17.4688 -12.250250000000001 18.2188 -10.258000000000001 18.2188 -7.718900000000001 C 18.2188 -5.175900000000001 17.4688 -3.1877000000000013 15.968800000000002 -1.7501000000000015 C 14.468800000000002 -0.3125000000000018 12.390700000000002 0.4060999999999986 9.7344 0.4060999999999986 C 7.066400000000001 0.4060999999999986 4.976600000000001 -0.3126500000000014 3.4688000000000008 -1.7501000000000015 C 1.9688000000000008 -3.1876000000000015 1.2188000000000008 -5.175900000000002 1.2188000000000008 -7.718900000000001 C 1.2188000000000008 -10.258000000000001 1.9688000000000008 -12.250100000000002 3.4688000000000008 -13.687700000000001 C 4.976600000000001 -15.125200000000001 7.066500000000001 -15.843900000000001 9.7344 -15.843900000000001 z" stroke-linecap="round" />
</g>
		<g transform="matrix(1.3333333333 0 0 1.3333333333 -105.6406453333 420.802296)" id="gEPg31l587sA4K3A3MYaD"  >
<path style="stroke: none; stroke-width: 1; stroke-dasharray: none; stroke-linecap: butt; stroke-dashoffset: 0; stroke-linejoin: miter; stroke-miterlimit: 4; fill: rgb(0,0,0); fill-rule: nonzero; opacity: 1;" vector-effect="non-scaling-stroke"  transform=" translate(-9.98436, 7.53109)" d="M 2.2031 -6.0156 L 2.2031 -15.468699999999998 L 7.1875 -15.468699999999998 L 7.1875 -13.921799999999998 C 7.1875 -13.078049999999998 7.179688 -12.019499999999997 7.171875 -10.749899999999997 C 7.160156 -9.488199999999997 7.15625 -8.648299999999997 7.15625 -8.234299999999998 C 7.15625 -6.9842999999999975 7.1875 -6.081999999999997 7.25 -5.5311999999999975 C 7.3125 -4.988229999999998 7.42188 -4.5936999999999975 7.57812 -4.3436999999999975 C 7.78515 -4.019479999999997 8.05078 -3.7694799999999975 8.375 -3.5936999999999975 C 8.69531 -3.4257299999999975 9.07031 -3.3436999999999975 9.5 -3.3436999999999975 C 10.5312 -3.3436999999999975 11.3359 -3.7382299999999975 11.9219 -4.5311999999999975 C 12.51565 -5.3202599999999975 12.812520000000001 -6.4217999999999975 12.812520000000001 -7.828099999999997 L 12.812520000000001 -15.468699999999998 L 17.765620000000002 -15.468699999999998 L 17.765620000000002 0.0003000000000010772 L 12.812520000000003 0.0003000000000010772 L 12.812520000000003 -2.234099999999999 C 12.070330000000002 -1.335659999999999 11.285220000000002 -0.6715999999999989 10.453120000000002 -0.23409999999999886 C 9.617180000000001 0.19168000000000113 8.695320000000002 0.4065200000000011 7.687520000000002 0.4065200000000011 C 5.906320000000002 0.4065200000000011 4.546920000000002 -0.14035999999999893 3.609420000000002 -1.234079999999999 C 2.671920000000002 -2.335679999999999 2.2032200000000017 -3.929379999999999 2.2032200000000017 -6.015279999999999 z" stroke-linecap="round" />
</g>
		<g transform="matrix(1.3333333333 0 0 1.3333333333 -78.577988 420.281176)" id="J6EDE3bpNQmZdfVcudzop"  >
<path style="stroke: none; stroke-width: 1; stroke-dasharray: none; stroke-linecap: butt; stroke-dashoffset: 0; stroke-linejoin: miter; stroke-miterlimit: 4; fill: rgb(0,0,0); fill-rule: nonzero; opacity: 1;" vector-effect="non-scaling-stroke"  transform=" translate(-10.14854, 7.92193)" d="M 17.922 -9.4219 L 17.922 0 L 12.9532 0 L 12.9532 -7.2031 C 12.9532 -8.5351 12.92195 -9.457 12.85945 -9.9687 C 12.804763000000001 -10.47651 12.7032 -10.85151 12.54695 -11.0937 C 12.35945 -11.41401 12.09773 -11.66401 11.7657 -11.8437 C 11.42976 -12.01948 11.05476 -12.10932 10.6407 -12.10932 C 9.6095 -12.10932 8.7969 -11.70698 8.2032 -10.906220000000001 C 7.609450000000001 -10.11325 7.3125800000000005 -9.015620000000002 7.3125800000000005 -7.609320000000001 L 7.3125800000000005 0.00007999999999874774 L 2.3750800000000005 0.00007999999999874774 L 2.3750800000000005 -15.46892 L 7.3125800000000005 -15.46892 L 7.3125800000000005 -13.203320000000001 C 8.06258 -14.109570000000001 8.85168 -14.773620000000001 9.68758 -15.203320000000001 C 10.53133 -15.629100000000001 11.457080000000001 -15.843940000000002 12.46878 -15.843940000000002 C 14.25788 -15.843940000000002 15.61328 -15.289250000000001 16.531280000000002 -14.187740000000002 C 17.457060000000002 -13.093940000000002 17.92188 -11.504140000000001 17.92188 -9.422140000000002 z" stroke-linecap="round" />
</g>
		<g transform="matrix(1.3333333333 0 0 1.3333333333 -37.3593413333 417.1046826667)" id="XCjqC2ID-Ax_HpuHChXW7"  >
<path style="stroke: none; stroke-width: 1; stroke-dasharray: none; stroke-linecap: butt; stroke-dashoffset: 0; stroke-linejoin: miter; stroke-miterlimit: 4; fill: rgb(0,0,0); fill-rule: nonzero; opacity: 1;" vector-effect="non-scaling-stroke"  transform=" translate(-11.07815, 10.3043)" d="M 2.5938 -20.609 L 11.421899999999999 -20.609 C 14.046899999999999 -20.609 16.054699999999997 -20.02306 17.4531 -18.859 C 18.859299999999998 -17.702800000000003 19.5625 -16.0465 19.5625 -13.890200000000002 C 19.5625 -11.7222 18.85938 -10.054300000000001 17.4531 -8.890200000000002 C 16.0547 -7.734000000000002 14.046899999999999 -7.155800000000002 11.421899999999999 -7.155800000000002 L 7.906299999999999 -7.155800000000002 L 7.906299999999999 0.0003999999999981796 L 2.593799999999999 0.0003999999999981796 z M 7.9063 -16.7652 L 7.9063 -10.999600000000001 L 10.8594 -10.999600000000001 C 11.890600000000001 -10.999600000000001 12.6797 -11.249600000000001 13.2344 -11.749600000000001 C 13.7969 -12.25741 14.07815 -12.9723 14.07815 -13.8902 C 14.07815 -14.80426 13.7969 -15.5152 13.2344 -16.0152 C 12.67971 -16.5152 11.890600000000001 -16.7652 10.8594 -16.7652 z" stroke-linecap="round" />
</g>
		<g transform="matrix(1.3333333333 0 0 1.3333333333 -13.6723253333 420.2811493333)" id="Fr_brSZ_flhcvUQ4dNQg6"  >
<path style="stroke: none; stroke-width: 1; stroke-dasharray: none; stroke-linecap: butt; stroke-dashoffset: 0; stroke-linejoin: miter; stroke-miterlimit: 4; fill: rgb(0,0,0); fill-rule: nonzero; opacity: 1;" vector-effect="non-scaling-stroke"  transform=" translate(-8.11685, 7.92195)" d="M 13.859 -11.25 C 13.42931 -11.45703 13.00353 -11.60938 12.5778 -11.70312 C 12.148109999999999 -11.79687 11.71842 -11.84374 11.280899999999999 -11.84374 C 10.007499999999999 -11.84374 9.030899999999999 -11.43749 8.343399999999999 -10.62494 C 7.655899999999999 -9.81239 7.312199999999999 -8.644440000000001 7.312199999999999 -7.1249400000000005 L 7.312199999999999 0.000059999999999504894 L 2.374699999999999 0.000059999999999504894 L 2.374699999999999 -15.46894 L 7.312199999999999 -15.46894 L 7.312199999999999 -12.922039999999999 C 7.945009999999999 -13.929839999999999 8.6755 -14.672039999999999 9.499699999999999 -15.140839999999999 C 10.331729999999999 -15.609589999999999 11.319999999999999 -15.84396 12.468499999999999 -15.84396 C 12.632559999999998 -15.84396 12.812249999999999 -15.832241 12.999749999999999 -15.81271 C 13.195059999999998 -15.800991 13.476309999999998 -15.773648 13.843499999999999 -15.734585 z" stroke-linecap="round" />
</g>
		<g transform="matrix(1.3333333333 0 0 1.3333333333 7.0625666667 420.5518826667)" id="jX-Opz9cturktJwdUixoR"  >
<path style="stroke: none; stroke-width: 1; stroke-dasharray: none; stroke-linecap: butt; stroke-dashoffset: 0; stroke-linejoin: miter; stroke-miterlimit: 4; fill: rgb(0,0,0); fill-rule: nonzero; opacity: 1;" vector-effect="non-scaling-stroke"  transform=" translate(-9.7188, 7.7189)" d="M 9.7344 -12.297 C 8.640600000000001 -12.297 7.800800000000001 -11.89856 7.218800000000001 -11.1095 C 6.644580000000001 -10.32825 6.359420000000001 -9.195400000000001 6.359420000000001 -7.7189000000000005 C 6.359420000000001 -6.2384 6.644580000000001 -5.101700000000001 7.218800000000001 -4.3127 C 7.800830000000001 -3.5314500000000004 8.6407 -3.1408000000000005 9.7344 -3.1408000000000005 C 10.8047 -3.1408000000000005 11.628900000000002 -3.5314200000000007 12.2032 -4.3127 C 12.77351 -5.1017600000000005 13.06258 -6.2385 13.06258 -7.7189000000000005 C 13.06258 -9.195500000000001 12.773520000000001 -10.3283 12.2032 -11.1095 C 11.62898 -11.89856 10.8048 -12.297 9.7344 -12.297 z M 9.7344 -15.843900000000001 C 12.390600000000001 -15.843900000000001 14.468800000000002 -15.125150000000001 15.968800000000002 -13.687700000000001 C 17.4688 -12.250250000000001 18.2188 -10.258000000000001 18.2188 -7.718900000000001 C 18.2188 -5.175900000000001 17.4688 -3.1877000000000013 15.968800000000002 -1.7501000000000015 C 14.468800000000002 -0.3125000000000018 12.390700000000002 0.4060999999999986 9.7344 0.4060999999999986 C 7.066400000000001 0.4060999999999986 4.976600000000001 -0.3126500000000014 3.4688000000000008 -1.7501000000000015 C 1.9688000000000008 -3.1876000000000015 1.2188000000000008 -5.175900000000002 1.2188000000000008 -7.718900000000001 C 1.2188000000000008 -10.258000000000001 1.9688000000000008 -12.250100000000002 3.4688000000000008 -13.687700000000001 C 4.976600000000001 -15.125200000000001 7.066500000000001 -15.843900000000001 9.7344 -15.843900000000001 z" stroke-linecap="round" />
</g>
		<g transform="matrix(1.3333333333 0 0 1.3333333333 24.2604173333 420.5937493333)" id="LvftQfpInUMs2F2jRrK3Z"  >
<path style="stroke: none; stroke-width: 1; stroke-dasharray: none; stroke-linecap: butt; stroke-dashoffset: 0; stroke-linejoin: miter; stroke-miterlimit: 4; fill: rgb(0,0,0); fill-rule: nonzero; opacity: 1;" vector-effect="non-scaling-stroke"  transform=" translate(-3.1875, 7.6875)" d="M 2.375 -15.469 L 7.3125 -15.469 L 7.3125 -0.2809999999999988 C 7.3125 1.7893000000000012 6.81641 3.3752000000000013 5.8281 4.469000000000001 C 4.83591 5.562800000000001 3.3945 6.109600000000001 1.5 6.109600000000001 L -0.9375 6.109600000000001 L -0.9375 2.8596000000000013 L -0.07811999999999997 2.8596000000000013 C 0.85938 2.8596000000000013 1.49998 2.644760000000001 1.84378 2.218980000000001 C 2.19534 1.801010000000001 2.3750299999999998 0.9689800000000011 2.3750299999999998 -0.28101999999999894 z M 2.375 -21.4846 L 7.3125 -21.4846 L 7.3125 -17.453400000000002 L 2.375 -17.453400000000002 z" stroke-linecap="round" />
</g>
		<g transform="matrix(1.3333333333 0 0 1.3333333333 45.6250333333 420.552296)" id="vUkFox4HrGebfaZfv0Gns"  >
<path style="stroke: none; stroke-width: 1; stroke-dasharray: none; stroke-linecap: butt; stroke-dashoffset: 0; stroke-linejoin: miter; stroke-miterlimit: 4; fill: rgb(0,0,0); fill-rule: nonzero; opacity: 1;" vector-effect="non-scaling-stroke"  transform=" translate(-9.51565, 7.71859)" d="M 17.812 -7.7812 L 17.812 -6.3593 L 6.250000000000002 -6.3593 C 6.375000000000002 -5.2031 6.796880000000002 -4.332000000000001 7.515600000000002 -3.7499000000000002 C 8.234350000000003 -3.1756800000000003 9.234400000000003 -2.8905200000000004 10.515600000000003 -2.8905200000000004 C 11.554700000000002 -2.8905200000000004 12.625000000000004 -3.0389600000000003 13.718700000000002 -3.3436400000000006 C 14.812500000000002 -3.6561400000000006 15.929600000000002 -4.124890000000001 17.078100000000003 -4.749840000000001 L 17.078100000000003 -0.9373400000000007 C 15.910100000000003 -0.49984000000000073 14.742200000000002 -0.1639000000000007 13.578100000000003 0.06265999999999927 C 12.410100000000003 0.28921999999999926 11.238300000000002 0.40640999999999927 10.062500000000004 0.40640999999999927 C 7.269500000000003 0.40640999999999927 5.097700000000003 -0.3006200000000008 3.5469000000000035 -1.7185900000000007 C 1.9922000000000035 -3.1443900000000005 1.2188000000000034 -5.144390000000001 1.2188000000000034 -7.718590000000001 C 1.2188000000000034 -10.23809 1.9766100000000035 -12.22249 3.5000000000000036 -13.671690000000002 C 5.019500000000003 -15.116990000000001 7.117200000000004 -15.843590000000003 9.796900000000004 -15.843590000000003 C 12.222700000000005 -15.843590000000003 14.164100000000005 -15.109210000000003 15.625000000000004 -13.640490000000003 C 17.082000000000004 -12.179590000000003 17.812500000000004 -10.226390000000004 17.812500000000004 -7.781090000000003 z M 12.733900000000002 -9.421800000000001 C 12.733900000000002 -10.359300000000001 12.456560000000001 -11.1132 11.905780000000002 -11.6874 C 11.362810000000001 -12.25771 10.647980000000002 -12.54678 9.76518 -12.54678 C 8.80424 -12.54678 8.02298 -12.27334 7.421380000000001 -11.73428 C 6.827630000000001 -11.20303 6.456540000000001 -10.42958 6.311980000000001 -9.42178 z" stroke-linecap="round" />
</g>
		<g transform="matrix(1.3333333333 0 0 1.3333333333 69.2447586667 420.5525493333)" id="yDBvJPtT_RC8XZDMy2EPw"  >
<path style="stroke: none; stroke-width: 1; stroke-dasharray: none; stroke-linecap: butt; stroke-dashoffset: 0; stroke-linejoin: miter; stroke-miterlimit: 4; fill: rgb(0,0,0); fill-rule: nonzero; opacity: 1;" vector-effect="non-scaling-stroke"  transform=" translate(-8.04685, 7.7184)" d="M 14.875 -14.984 L 14.875 -10.9528 C 14.19531 -11.40983 13.5195 -11.74968 12.8438 -11.968399999999999 C 12.164109999999999 -12.187149999999999 11.4688 -12.29652 10.75 -12.29652 C 9.3633 -12.29652 8.2852 -11.894179999999999 7.5156 -11.093419999999998 C 6.74216 -10.288729999999997 6.3594 -9.163719999999998 6.3594 -7.718419999999998 C 6.3594 -6.269219999999998 6.74221 -5.144219999999999 7.5156 -4.343419999999998 C 8.28513 -3.5387299999999984 9.3633 -3.1403199999999982 10.75 -3.1403199999999982 C 11.51953 -3.1403199999999982 12.25 -3.2535999999999983 12.9375 -3.4840699999999982 C 13.63281 -3.7106299999999983 14.2813 -4.0504799999999985 14.875 -4.499669999999998 L 14.875 -0.45276999999999834 C 14.10156 -0.17151999999999834 13.3164 0.039420000000001676 12.5156 0.18785000000000163 C 11.722629999999999 0.3323800000000016 10.925799999999999 0.4066000000000016 10.125 0.4066000000000016 C 7.332 0.4066000000000016 5.1484 -0.3043399999999984 3.5781 -1.7339999999999984 C 2.0039 -3.171499999999998 1.2187000000000001 -5.163699999999999 1.2187000000000001 -7.718399999999998 C 1.2187000000000001 -10.269199999999998 2.00386 -12.257499999999999 3.5781 -13.687199999999997 C 5.1484000000000005 -15.124699999999997 7.332 -15.843399999999997 10.125 -15.843399999999997 C 10.9375 -15.843399999999997 11.7344 -15.769180999999998 12.5156 -15.624649999999997 C 13.304659999999998 -15.476209999999996 14.093699999999998 -15.265269999999997 14.875 -14.984029999999997 z" stroke-linecap="round" />
</g>
		<g transform="matrix(1.3333333333 0 0 1.3333333333 89.7030453333 417.604616)" id="-zsWQKExHoTUj-TOyQn-y"  >
<path style="stroke: none; stroke-width: 1; stroke-dasharray: none; stroke-linecap: butt; stroke-dashoffset: 0; stroke-linejoin: miter; stroke-miterlimit: 4; fill: rgb(0,0,0); fill-rule: nonzero; opacity: 1;" vector-effect="non-scaling-stroke"  transform=" translate(-6.62494, 9.92935)" d="M 7.7812 -19.859 L 7.7812 -15.468400000000003 L 12.875 -15.468400000000003 L 12.875 -11.937200000000002 L 7.7812 -11.937200000000002 L 7.7812 -5.3747000000000025 C 7.7812 -4.6559500000000025 7.92182 -4.163800000000002 8.20308 -3.9059000000000026 C 8.48433 -3.6559000000000026 9.05074 -3.5309000000000026 9.906179999999999 -3.5309000000000026 L 12.43738 -3.5309000000000026 L 12.43738 0.00029999999999752447 L 8.20298 0.00029999999999752447 C 6.25378 0.00029999999999752447 4.86708 -0.4059500000000025 4.04678 -1.2185000000000026 C 3.23428 -2.0310000000000024 2.82798 -3.413800000000003 2.82798 -5.3747000000000025 L 2.82798 -11.937200000000002 L 0.3748800000000001 -11.937200000000002 L 0.3748800000000001 -15.468400000000003 L 2.82798 -15.468400000000003 L 2.82798 -19.859 z" stroke-linecap="round" />
</g>
</g>
</g>
</svg>