<?xml version="1.0" encoding="UTF-8" standalone="no" ?>
<!DOCTYPE svg PUBLIC "-//W3C//DTD SVG 1.1//EN" "http://www.w3.org/Graphics/SVG/1.1/DTD/svg11.dtd">
<svg xmlns="http://www.w3.org/2000/svg" xmlns:xlink="http://www.w3.org/1999/xlink" version="1.1" width="700" height="700" viewBox="0 0 700 700" xml:space="preserve">
<desc>Created with Fabric.js 5.3.0</desc>
<defs>
</defs>
<g transform="matrix(0.8337797619 0 0 0.8337797619 350 427.5694444444)" id="A0iMG4YksOawveBA6cJlx"  >
<g style="" vector-effect="non-scaling-stroke"   >
		<g transform="matrix(1.3333333333 0 0 1.3333333333 -20.2446666667 -287.8133333333)" id="nYwpJzpd8Oxcn26STAFGu"  >
<path style="stroke: none; stroke-width: 1; stroke-dasharray: none; stroke-linecap: butt; stroke-dashoffset: 0; stroke-linejoin: miter; stroke-miterlimit: 4; fill: rgb(0,0,0); fill-rule: nonzero; opacity: 1;" vector-effect="non-scaling-stroke"  transform=" translate(-334.8165, -134.14)" d="M 320.51 125.39 C 315.678 125.39 311.76 129.308 311.76 134.14 C 311.76 138.97199999999998 315.678 142.89 320.51 142.89 L 349.123 142.89 C 353.955 142.89 357.873 138.97199999999998 357.873 134.14 C 357.873 129.308 353.955 125.38999999999999 349.123 125.38999999999999 z" stroke-linecap="round" />
</g>
		<g transform="matrix(1.3333333333 0 0 1.3333333333 -279.704 -28.6452)" id="Ugpl_6-NBNP5fXvLc9qL1"  >
<path style="stroke: none; stroke-width: 1; stroke-dasharray: none; stroke-linecap: butt; stroke-dashoffset: 0; stroke-linejoin: miter; stroke-miterlimit: 4; fill: rgb(0,0,0); fill-rule: nonzero; opacity: 1;" vector-effect="non-scaling-stroke"  transform=" translate(-140.222, -328.5161)" d="M 121.89 355.51 L 158.554 355.51 C 160.8743 355.51 163.1009 354.58812 164.7415 352.9475 C 166.3821 351.30688 167.304 349.08029999999997 167.304 346.76 L 167.304 310.272 C 167.304 307.9517 166.38212000000001 305.729 164.7415 304.0845 C 163.1009 302.4439 160.8743 301.522 158.554 301.522 L 121.89 301.522 C 117.058 301.522 113.14 305.44 113.14 310.272 L 113.14 346.936 C 113.237656 351.7016 117.1244 355.5102 121.89 355.5102 z M 130.64 318.846 L 149.98 318.849906 L 149.98 338.361906 L 130.464 338.361906 z" stroke-linecap="round" />
</g>
		<g transform="matrix(1.3333333333 0 0 1.3333333333 -279.704 60.9575313263)" id="ck8A4BCYvZoirzqHDN9gt"  >
<path style="stroke: none; stroke-width: 1; stroke-dasharray: none; stroke-linecap: butt; stroke-dashoffset: 0; stroke-linejoin: miter; stroke-miterlimit: 4; fill: rgb(0,0,0); fill-rule: nonzero; opacity: 1;" vector-effect="non-scaling-stroke"  transform=" translate(-140.222, -395.7181484947)" d="M 121.89 422.71 L 158.554 422.71 C 160.8743 422.71 163.1009 421.78812 164.7415 420.1475 C 166.3821 418.5069 167.304 416.28029999999995 167.304 413.96 L 167.304 377.476 C 167.304 375.1557 166.38212000000001 372.9291 164.7415 371.2885 C 163.1009 369.6479 160.8743 368.726 158.554 368.726 L 121.89 368.726 C 117.058 368.726 113.14 372.6401 113.14 377.476 L 113.14 414.14 L 113.14 414.136094 C 113.237656 418.901694 117.1244 422.714194 121.89 422.71029400000003 z M 130.64 386.046 L 149.98 386.04990599999996 L 149.98 405.56190599999996 L 130.464 405.56190599999996 z" stroke-linecap="round" />
</g>
		<g transform="matrix(1.3333333333 0 0 1.3333333333 -279.704 147.1814666667)" id="4Azwrs3TtV7d4Twio54Dt"  >
<path style="stroke: none; stroke-width: 1; stroke-dasharray: none; stroke-linecap: butt; stroke-dashoffset: 0; stroke-linejoin: miter; stroke-miterlimit: 4; fill: rgb(0,0,0); fill-rule: nonzero; opacity: 1;" vector-effect="non-scaling-stroke"  transform=" translate(-140.222, -460.3861)" d="M 121.89 487.38 L 158.554 487.38 C 160.8743 487.38 163.1009 486.45812 164.7415 484.8175 C 166.3821 483.17688 167.304 480.95029999999997 167.304 478.63 L 167.304 442.142 C 167.304 439.8217 166.38212000000001 437.5951 164.7415 435.9545 C 163.10088 434.3139 160.8743 433.392 158.554 433.392 L 121.89 433.392 C 117.058 433.392 113.14 437.31 113.14 442.142 L 113.14 478.806 C 113.237656 483.5677 117.1244 487.3802 121.89 487.3802 z M 130.64 450.716 L 149.98 450.716 L 149.98 470.228 L 130.464 470.231906 z" stroke-linecap="round" />
</g>
		<g transform="matrix(1.3333333333 0 0 1.3333333333 -187.7106666667 -28.6452)" id="Wh0yiWO4-Q_dcfki89zAm"  >
<path style="stroke: none; stroke-width: 1; stroke-dasharray: none; stroke-linecap: butt; stroke-dashoffset: 0; stroke-linejoin: miter; stroke-miterlimit: 4; fill: rgb(0,0,0); fill-rule: nonzero; opacity: 1;" vector-effect="non-scaling-stroke"  transform=" translate(-209.217, -328.5161)" d="M 190.93 355.51 L 227.50400000000002 355.51 C 229.82430000000002 355.51 232.0509 354.58812 233.69150000000002 352.9475 C 235.33210000000003 351.30688 236.25400000000002 349.08029999999997 236.25400000000002 346.76 L 236.25400000000002 310.272 C 236.25400000000002 307.9517 235.33212000000003 305.729 233.69150000000002 304.0845 C 232.0509 302.4439 229.82430000000002 301.522 227.50400000000002 301.522 L 190.93 301.522 C 186.098 301.522 182.18 305.44 182.18 310.272 L 182.18 346.936 C 182.27375 351.7016 186.1644 355.5102 190.93 355.5102 z M 199.68 318.846 L 218.75400000000002 318.849906 L 218.75400000000002 338.361906 L 199.50400000000002 338.361906 z" stroke-linecap="round" />
</g>
		<g transform="matrix(1.3333333333 0 0 1.3333333333 -187.7106666667 60.9575313263)" id="8WcC8fax_d_xsfq7A8Lz9"  >
<path style="stroke: none; stroke-width: 1; stroke-dasharray: none; stroke-linecap: butt; stroke-dashoffset: 0; stroke-linejoin: miter; stroke-miterlimit: 4; fill: rgb(0,0,0); fill-rule: nonzero; opacity: 1;" vector-effect="non-scaling-stroke"  transform=" translate(-209.217, -395.7181484947)" d="M 190.93 422.71 L 227.50400000000002 422.71 C 229.82430000000002 422.71 232.0509 421.78812 233.69150000000002 420.1475 C 235.33210000000003 418.5069 236.25400000000002 416.28029999999995 236.25400000000002 413.96 L 236.25400000000002 377.476 C 236.25400000000002 375.1557 235.33212000000003 372.9291 233.69150000000002 371.2885 C 232.0509 369.6479 229.82430000000002 368.726 227.50400000000002 368.726 L 190.93 368.726 C 186.098 368.726 182.18 372.6401 182.18 377.476 L 182.18 414.14 L 182.18 414.136094 C 182.27375 418.901694 186.1644 422.714194 190.93 422.71029400000003 z M 199.68 386.046 L 218.75400000000002 386.04990599999996 L 218.75400000000002 405.56190599999996 L 199.50400000000002 405.56190599999996 z" stroke-linecap="round" />
</g>
		<g transform="matrix(1.3333333333 0 0 1.3333333333 -47.2466666667 147.1814666667)" id="X_fumZ-RO9qFwsxoMvSHg"  >
<path style="stroke: none; stroke-width: 1; stroke-dasharray: none; stroke-linecap: butt; stroke-dashoffset: 0; stroke-linejoin: miter; stroke-miterlimit: 4; fill: rgb(0,0,0); fill-rule: nonzero; opacity: 1;" vector-effect="non-scaling-stroke"  transform=" translate(-314.565, -460.3861)" d="M 190.93 487.38 L 438.20000000000005 487.38 C 440.5203 487.38 442.74690000000004 486.45812 444.38750000000005 484.8175 C 446.02810000000005 483.17688 446.95000000000005 480.95029999999997 446.95000000000005 478.63 L 446.95000000000005 442.142 C 446.95000000000005 439.8217 446.02812000000006 437.5951 444.38750000000005 435.9545 C 442.74688000000003 434.3139 440.5203 433.392 438.20000000000005 433.392 L 190.93000000000004 433.392 C 186.09800000000004 433.392 182.18000000000004 437.31 182.18000000000004 442.142 L 182.18000000000004 478.806 C 182.27375000000004 483.5677 186.16440000000003 487.3802 190.93000000000004 487.3802 z M 199.68 450.716 L 429.63 450.716 L 429.63 470.228 L 199.51 470.231906 z" stroke-linecap="round" />
</g>
		<g transform="matrix(1.3333333333 0 0 1.3333333333 -95.6106666667 -28.6452)" id="WkXm9pnybK336gQfBB36M"  >
<path style="stroke: none; stroke-width: 1; stroke-dasharray: none; stroke-linecap: butt; stroke-dashoffset: 0; stroke-linejoin: miter; stroke-miterlimit: 4; fill: rgb(0,0,0); fill-rule: nonzero; opacity: 1;" vector-effect="non-scaling-stroke"  transform=" translate(-278.292, -328.5161)" d="M 259.96 355.51 L 296.62399999999997 355.51 C 298.94429999999994 355.51 301.17089999999996 354.58812 302.81149999999997 352.9475 C 304.4521 351.30688 305.37399999999997 349.08029999999997 305.37399999999997 346.76 L 305.37399999999997 310.272 C 305.37399999999997 307.9517 304.45212 305.729 302.81149999999997 304.0845 C 301.17089999999996 302.4439 298.94429999999994 301.522 296.62399999999997 301.522 L 259.96 301.522 C 255.128 301.522 251.20999999999998 305.44 251.20999999999998 310.272 L 251.20999999999998 346.936 C 251.30765599999998 351.7016 255.1983 355.5102 259.96 355.5102 z M 268.71 318.846 L 288.222 318.846 L 288.222 338.358 L 268.53799999999995 338.361906 z" stroke-linecap="round" />
</g>
		<g transform="matrix(1.3333333333 0 0 1.3333333333 -95.6106666667 60.9575313263)" id="RzHKq5fBDTICshcZTmMjQ"  >
<path style="stroke: none; stroke-width: 1; stroke-dasharray: none; stroke-linecap: butt; stroke-dashoffset: 0; stroke-linejoin: miter; stroke-miterlimit: 4; fill: rgb(0,0,0); fill-rule: nonzero; opacity: 1;" vector-effect="non-scaling-stroke"  transform=" translate(-278.292, -395.7181484947)" d="M 259.96 422.71 L 296.62399999999997 422.71 C 298.94429999999994 422.71 301.17089999999996 421.78812 302.81149999999997 420.1475 C 304.4521 418.5069 305.37399999999997 416.28029999999995 305.37399999999997 413.96 L 305.37399999999997 377.476 C 305.37399999999997 375.1557 304.45212 372.9291 302.81149999999997 371.2885 C 301.17089999999996 369.6479 298.94429999999994 368.726 296.62399999999997 368.726 L 259.96 368.726 C 255.128 368.726 251.20999999999998 372.6401 251.20999999999998 377.476 L 251.20999999999998 414.14 L 251.20999999999998 414.136094 C 251.30765599999998 418.901694 255.1983 422.714194 259.96 422.71029400000003 z M 268.71 386.046 L 288.222 386.046 L 288.222 405.558 L 268.53799999999995 405.56190599999996 z" stroke-linecap="round" />
</g>
		<g transform="matrix(1.3333333333 0 0 1.3333333333 -3.6798746667 -28.6452)" id="DW5QageqVhMtCBvBHmFOz"  >
<path style="stroke: none; stroke-width: 1; stroke-dasharray: none; stroke-linecap: butt; stroke-dashoffset: 0; stroke-linejoin: miter; stroke-miterlimit: 4; fill: rgb(0,0,0); fill-rule: nonzero; opacity: 1;" vector-effect="non-scaling-stroke"  transform=" translate(-347.240094, -328.5161)" d="M 328.91 355.51 L 365.574 355.51 L 365.57009400000004 355.51 C 367.890394 355.51 370.11699400000003 354.58812 371.75759400000004 352.9475 C 373.39819400000005 351.30688 374.32009400000004 349.08029999999997 374.32009400000004 346.76 L 374.32009400000004 310.272 C 374.32009400000004 307.9517 373.39821400000005 305.729 371.75759400000004 304.0845 C 370.11699400000003 302.4439 367.890394 301.522 365.57009400000004 301.522 L 328.9100940000001 301.522 C 324.0741940000001 301.522 320.1600940000001 305.44 320.1600940000001 310.272 L 320.1600940000001 346.936 C 320.2538440000001 351.7016 324.14449400000007 355.5102 328.9100940000001 355.5102 z M 337.66 318.846 L 356.99600000000004 318.849906 L 356.99600000000004 338.361906 L 337.48400000000004 338.361906 z" stroke-linecap="round" />
</g>
		<g transform="matrix(1.3333333333 0 0 1.3333333333 -3.6798746667 60.9575313263)" id="qwCuORrmjflZ6oB3ay142"  >
<path style="stroke: none; stroke-width: 1; stroke-dasharray: none; stroke-linecap: butt; stroke-dashoffset: 0; stroke-linejoin: miter; stroke-miterlimit: 4; fill: rgb(0,0,0); fill-rule: nonzero; opacity: 1;" vector-effect="non-scaling-stroke"  transform=" translate(-347.240094, -395.7181484947)" d="M 328.91 422.71 L 365.574 422.71 L 365.57009400000004 422.71 C 367.890394 422.71 370.11699400000003 421.78812 371.75759400000004 420.1475 C 373.39819400000005 418.5069 374.32009400000004 416.28029999999995 374.32009400000004 413.96 L 374.32009400000004 377.476 C 374.32009400000004 375.1557 373.39821400000005 372.9291 371.75759400000004 371.2885 C 370.11699400000003 369.6479 367.890394 368.726 365.57009400000004 368.726 L 328.9100940000001 368.726 C 324.0741940000001 368.726 320.1600940000001 372.6401 320.1600940000001 377.476 L 320.1600940000001 414.14 L 320.1600940000001 414.136094 C 320.2538440000001 418.901694 324.14449400000007 422.714194 328.9100940000001 422.71029400000003 z M 337.66 386.046 L 356.99600000000004 386.04990599999996 L 356.99600000000004 405.56190599999996 L 337.48400000000004 405.56190599999996 z" stroke-linecap="round" />
</g>
		<g transform="matrix(1.3333333333 0 0 1.3333333333 88.376 60.9575313263)" id="sw1YNpHLWLMelqxunC63E"  >
<path style="stroke: none; stroke-width: 1; stroke-dasharray: none; stroke-linecap: butt; stroke-dashoffset: 0; stroke-linejoin: miter; stroke-miterlimit: 4; fill: rgb(0,0,0); fill-rule: nonzero; opacity: 1;" vector-effect="non-scaling-stroke"  transform=" translate(-416.282, -395.7181484947)" d="M 397.95 422.71 L 434.614 422.71 C 436.93429999999995 422.71 439.16089999999997 421.78812 440.8015 420.1475 C 442.4421 418.5069 443.364 416.28029999999995 443.364 413.96 L 443.364 377.476 C 443.364 375.1557 442.44212 372.9291 440.8015 371.2885 C 439.16089999999997 369.6479 436.93429999999995 368.726 434.614 368.726 L 397.95 368.726 C 393.118 368.726 389.2 372.6401 389.2 377.476 L 389.2 414.14 L 389.2 414.136094 C 389.29765599999996 418.901694 393.1844 422.714194 397.95 422.71029400000003 z M 406.7 386.046 L 426.212 386.046 L 426.212 405.558 L 406.524 405.56190599999996 z" stroke-linecap="round" />
</g>
		<g transform="matrix(1.3333333333 0 0 1.3333333333 134.5734586667 16.2733333333)" id="00ORazB2gsLdtC0jkxVE8"  >
<path style="stroke: none; stroke-width: 1; stroke-dasharray: none; stroke-linecap: butt; stroke-dashoffset: 0; stroke-linejoin: miter; stroke-miterlimit: 4; fill: rgb(0,0,0); fill-rule: nonzero; opacity: 1;" vector-effect="non-scaling-stroke"  transform=" translate(-450.930094, -362.205)" d="M 398.04 355.51 L 458.415 355.51 L 458.415 414.135 C 458.415 416.45529999999997 459.33688 418.6819 460.9775 420.3225 C 462.6181 421.9631 464.84470000000005 422.885 467.165 422.885 L 503.829 422.885 L 503.82509400000004 422.885 C 506.145394 422.885 508.37199400000003 421.96312 510.01259400000004 420.3225 C 511.65319400000004 418.68188 512.575094 416.45529999999997 512.575094 414.135 L 512.575094 310.275 C 512.575094 307.9547 511.65321400000005 305.73199999999997 510.01259400000004 304.0875 C 508.37199400000003 302.44689999999997 506.145394 301.525 503.82509400000004 301.525 L 398.035094 301.525 C 393.19919400000003 301.525 389.285094 305.443 389.285094 310.275 L 389.285094 346.93899999999996 C 389.378844 351.70459999999997 393.269494 355.5132 398.035094 355.5132 z M 406.79 318.846 L 495.07500000000005 318.849906 L 495.07500000000005 405.560906 L 475.56300000000005 405.560906 L 475.56300000000005 346.935906 C 475.56300000000005 344.615606 474.64112000000006 342.389006 473.00050000000005 340.748406 C 471.35988000000003 339.107806 469.1333 338.185906 466.81300000000005 338.185906 L 406.43800000000005 338.185906 z" stroke-linecap="round" />
</g>
		<g transform="matrix(1.3333333333 0 0 1.3333333333 180.4267293333 147.5225333333)" id="YayLhXKxzhlwan4zgaLKU"  >
<path style="stroke: none; stroke-width: 1; stroke-dasharray: none; stroke-linecap: butt; stroke-dashoffset: 0; stroke-linejoin: miter; stroke-miterlimit: 4; fill: rgb(0,0,0); fill-rule: nonzero; opacity: 1;" vector-effect="non-scaling-stroke"  transform=" translate(-485.320047, -460.6419)" d="M 503.65 433.56 L 466.99 433.56 C 462.158 433.56 458.24 437.478 458.24 442.31 L 458.24 478.974 C 458.24 481.29429999999996 459.16188 483.517 460.8025 485.1615 C 462.4431 486.8021 464.66970000000003 487.724 466.99 487.724 L 503.654 487.724 L 503.650094 487.724 C 505.970394 487.724 508.196994 486.80213 509.837594 485.1615 C 511.47819400000003 483.517 512.4000940000001 481.29429999999996 512.4000940000001 478.974 L 512.4000940000001 442.134 C 512.3063440000001 437.3723 508.4156940000001 433.5598 503.6500940000001 433.5598 z M 494.9 470.224 L 475.56399999999996 470.224 L 475.56399999999996 450.70799999999997 L 495.07599999999996 450.70799999999997 z" stroke-linecap="round" />
</g>
		<g transform="matrix(1.3333333333 0 0 1.3333333333 272.4693333333 -28.6452)" id="d6XAbVsgF_1vDqWLMnv1W"  >
<path style="stroke: none; stroke-width: 1; stroke-dasharray: none; stroke-linecap: butt; stroke-dashoffset: 0; stroke-linejoin: miter; stroke-miterlimit: 4; fill: rgb(0,0,0); fill-rule: nonzero; opacity: 1;" vector-effect="non-scaling-stroke"  transform=" translate(-554.352, -328.5161)" d="M 536.02 355.51 L 572.684 355.51 C 575.0043 355.51 577.2309 354.58812 578.8715 352.9475 C 580.5120999999999 351.30688 581.434 349.08029999999997 581.434 346.76 L 581.434 310.272 C 581.434 307.9517 580.51212 305.729 578.8715 304.0845 C 577.2309 302.4439 575.0043 301.522 572.684 301.522 L 536.02 301.522 C 531.188 301.522 527.27 305.44 527.27 310.272 L 527.27 346.936 C 527.367656 351.7016 531.2583 355.5102 536.02 355.5102 z M 544.77 318.846 L 564.2819999999999 318.846 L 564.2819999999999 338.358 L 544.598 338.361906 z" stroke-linecap="round" />
</g>
		<g transform="matrix(1.3333333333 0 0 1.3333333333 272.4693333333 104.0733333333)" id="PzafB0qgKZ_vM2S6kSrY9"  >
<path style="stroke: none; stroke-width: 1; stroke-dasharray: none; stroke-linecap: butt; stroke-dashoffset: 0; stroke-linejoin: miter; stroke-miterlimit: 4; fill: rgb(0,0,0); fill-rule: nonzero; opacity: 1;" vector-effect="non-scaling-stroke"  transform=" translate(-554.352, -428.055)" d="M 536.02 487.38 L 572.684 487.38 C 575.0043 487.38 577.2309 486.45812 578.8715 484.8175 C 580.5120999999999 483.17688 581.434 480.95029999999997 581.434 478.63 L 581.434 377.48 C 581.434 375.15970000000004 580.51212 372.9331 578.8715 371.2925 C 577.2309 369.6519 575.0043 368.73 572.684 368.73 L 536.02 368.73 C 531.188 368.73 527.27 372.64410000000004 527.27 377.48 L 527.27 478.8 C 527.367656 483.56170000000003 531.2583 487.37420000000003 536.02 487.37420000000003 z M 544.77 386.06 L 564.2819999999999 386.06 L 564.2819999999999 470.236 L 544.598 470.236 z" stroke-linecap="round" />
</g>
		<g transform="matrix(1.3333333333 0 0 1.3333333333 -1.8 -288.1013589219)" id="NPjyitUeu0wTjOOtdXswR"  >
<path style="stroke: none; stroke-width: 1; stroke-dasharray: none; stroke-linecap: butt; stroke-dashoffset: 0; stroke-linejoin: miter; stroke-miterlimit: 4; fill: rgb(0,0,0); fill-rule: nonzero; opacity: 1;" vector-effect="non-scaling-stroke"  transform=" translate(-348.65, -133.9239808086)" d="M 610.31 125.39 L 414.48999999999995 125.39 C 412.3298 101.949 401.50199999999995 80.156 384.11899999999997 64.281 C 366.736 48.40200000000001 344.05699999999996 39.586000000000006 320.51399999999995 39.554 L 175.52399999999994 39.554 C 150.00099999999995 38.77666 125.24699999999994 48.374300000000005 106.91499999999995 66.156 C 88.58699999999995 83.93700000000001 78.23899999999995 108.38300000000001 78.23899999999995 133.92200000000003 C 78.23899999999995 159.461 88.58699999999995 183.91000000000003 106.91499999999995 201.692 C 125.24699999999996 219.473 150.00099999999995 229.071 175.52399999999994 228.294 L 320.51399999999995 228.294 C 344.049 228.282282 366.7289999999999 219.4854 384.11199999999997 203.622 C 401.49899999999997 187.75900000000001 412.33099999999996 165.977 414.491 142.544 L 610.3109999999999 142.544 C 615.1429999999999 142.544 619.0609999999999 138.626 619.0609999999999 133.794 C 619.0609999999999 128.9581 615.1429999999999 125.04400000000001 610.3109999999999 125.04400000000001 z M 298.98999999999995 56.702 C 288.424 60.5848 277.52899999999994 63.5145 266.43899999999996 65.452 C 228.89999999999998 72.3661 197.22799999999995 66.6786 185.58699999999996 56.702 z M 187.59999999999997 211.142 C 200.54899999999998 201.7787 230.82699999999997 196.966 266.34999999999997 203.5287 C 275.98279999999994 205.3295 285.45899999999995 207.87249999999997 294.698 211.142 z M 351.14 101.85199999999999 L 252.265 101.85199999999999 C 243.47199999999998 101.39106 234.86999999999998 104.56289999999998 228.48399999999998 110.62539999999998 C 222.0973 116.69179999999999 218.47599999999997 125.10939999999998 218.47599999999997 133.9184 C 218.47599999999997 142.727 222.09709999999998 151.14839999999998 228.48399999999998 157.2114 C 234.87089999999998 163.2744 243.47199999999998 166.4458 252.265 165.9887 L 351.14 165.9887 C 358.1322 165.976981 364.925 163.6762 370.484 159.4418 C 376.0465 155.2074 380.06989999999996 149.2738 381.941 142.5398 L 397.253 142.5398 C 395.2725 159.4418 387.7647 175.2158 375.89799999999997 187.4148 C 364.03099999999995 199.61380000000003 348.46799999999996 207.55180000000001 331.628 210.00080000000003 C 312.714 198.12180000000004 291.62399999999997 190.12180000000004 269.589 186.46180000000004 C 218.753 177.36410000000004 176.753 187.60240000000005 166.249 210.52380000000005 C 141.167 207.46520000000004 119.17099999999999 192.32080000000005 107.362 169.97680000000005 C 95.55699999999999 147.63680000000005 95.43599999999999 120.92980000000006 107.03778 98.48480000000005 C 118.63978 76.03580000000005 140.49478 60.69180000000005 165.54978 57.39880000000005 C 172.63568 75.51180000000005 198.88578 86.18780000000005 233.62378 86.18780000000005 C 245.69378 86.12530000000005 257.72878000000003 84.95340000000006 269.58478 82.68780000000005 C 292.37778000000003 78.95340000000006 314.13578 70.48880000000005 333.45978 57.83580000000005 C 349.97578000000004 60.66780000000005 365.12378 68.78480000000005 376.62778000000003 80.96880000000004 C 388.13178000000005 93.15280000000004 395.36578000000003 108.73880000000004 397.24878 125.38680000000005 L 381.93678 125.38680000000005 C 380.08128 118.63680000000005 376.06568 112.67980000000006 370.50278 108.42980000000006 C 364.93987999999996 104.17980000000006 358.13577999999995 101.86730000000006 351.13577999999995 101.85170000000005 z M 366.101 133.96499999999997 L 366.10490599999997 133.96109399999997 C 366.05803199999997 137.90249399999996 364.460406 141.66029399999996 361.659606 144.43009399999997 C 358.858806 147.19959399999996 355.077606 148.75039399999997 351.139606 148.75039399999997 L 252.26460600000001 148.75039399999997 C 246.92080600000003 148.75039399999997 241.97960600000002 145.89879399999998 239.30760600000002 141.26989399999997 C 236.63570600000003 136.64099399999998 236.63570600000003 130.93789399999997 239.30760600000002 126.30489399999996 C 241.97950600000001 121.67599399999996 246.92090600000003 118.82439399999996 252.26460600000001 118.82439399999996 L 351.139606 118.82439399999996 C 355.147406 118.80095599999996 358.99120600000003 120.39469399999996 361.807606 123.24239399999996 C 364.624006 126.09399399999997 366.17480600000005 129.95719399999996 366.104506 133.96139399999996 z" stroke-linecap="round" />
</g>
		<g transform="matrix(1.3333333333 0 0 1.3333333333 -0.0066666667 -7.8186666667)" id="cuKdFnZTSDyvc2Z7J1VuO"  >
<path style="stroke: none; stroke-width: 1; stroke-dasharray: none; stroke-linecap: butt; stroke-dashoffset: 0; stroke-linejoin: miter; stroke-miterlimit: 4; fill: rgb(0,0,0); fill-rule: nonzero; opacity: 1;" vector-effect="non-scaling-stroke"  transform=" translate(-349.995, -344.136)" d="M 610.31 185.15 C 615.1419999999999 185.15 619.06 181.23590000000002 619.06 176.4 C 619.06 171.568 615.1419999999999 167.65 610.31 167.65 L 554.31 167.65 C 549.478 167.65 545.56 171.568 545.56 176.4 L 545.56 270.552 L 89.67999999999995 270.552 C 84.84799999999996 270.552 80.92999999999995 274.47 80.92999999999995 279.302 L 80.92999999999995 511.872 C 80.92999999999995 514.1923 81.85187999999995 516.4189 83.49249999999995 518.0595000000001 C 85.13311999999995 519.7001000000001 87.35969999999995 520.6220000000001 89.67999999999995 520.6220000000001 L 610.3 520.6220000000001 C 612.6202999999999 520.6220000000001 614.8469 519.7001200000001 616.4875 518.0595000000001 C 618.1280999999999 516.4188800000001 619.05 514.1923 619.05 511.87200000000007 L 619.05 279.12200000000007 C 619.05 276.8017000000001 618.12812 274.5751000000001 616.4875 272.93450000000007 C 614.8468799999999 271.29390000000006 612.6202999999999 270.37200000000007 610.3 270.37200000000007 L 562.8739999999999 270.37200000000007 L 562.8739999999999 185.14500000000007 z M 601.56 287.7 L 601.56 503.29999999999995 L 98.25999999999993 503.29999999999995 L 98.25999999999993 287.69999999999993 z" stroke-linecap="round" />
</g>
		<g transform="matrix(1.3333333333 0 0 1.3333333333 -352.3446666667 433.7705066667)" id="LtTbsRUOEj9szf2jx680j"  >
<path style="stroke: none; stroke-width: 1; stroke-dasharray: none; stroke-linecap: butt; stroke-dashoffset: 0; stroke-linejoin: miter; stroke-miterlimit: 4; fill: rgb(0,0,0); fill-rule: nonzero; opacity: 1;" vector-effect="non-scaling-stroke"  transform=" translate(-15.7415, 15.92212)" d="M 29.312 -1.75 C 27.8003 -0.96875 26.2222 -0.3789 24.5776 0.015600000000000058 C 22.9409 0.42185000000000006 21.2378 0.6249800000000001 19.4682 0.6249800000000001 C 14.1557 0.6249800000000001 9.9409 -0.8594199999999999 6.8271999999999995 -3.82812 C 3.7216999999999993 -6.79692 2.1709999999999994 -10.82812 2.1709999999999994 -15.92212 C 2.1709999999999994 -21.01612 3.721799999999999 -25.04712 6.8271999999999995 -28.01612 C 9.9405 -30.984920000000002 14.1553 -32.46922 19.4682 -32.46922 C 21.2377 -32.46922 22.9409 -32.27 24.5776 -31.87547 C 26.2221 -31.47703 27.8003 -30.88328 29.312 -30.09427 L 29.312 -23.50047 C 27.780800000000003 -24.53957 26.2729 -25.30127 24.796400000000002 -25.78167 C 23.315900000000003 -26.269949999999998 21.7573 -26.51605 20.1245 -26.51605 C 17.187 -26.51605 14.878400000000001 -25.57074 13.2026 -23.68795 C 11.5229 -21.81295 10.687000000000001 -19.22315 10.687000000000001 -15.922350000000002 C 10.687000000000001 -12.629350000000002 11.522940000000002 -10.039550000000002 13.2026 -8.156750000000002 C 14.878400000000001 -6.281750000000002 17.187 -5.344250000000002 20.1245 -5.344250000000002 C 21.7573 -5.344250000000002 23.3159 -5.582530000000002 24.796400000000002 -6.063000000000002 C 26.273000000000003 -6.551280000000002 27.780800000000003 -7.316900000000002 29.312 -8.359900000000003 z" stroke-linecap="round" />
</g>
		<g transform="matrix(1.3333333333 0 0 1.3333333333 -313.7709666667 438.6674266667)" id="WBWJwa_3MKvyTu13p0cl0"  >
<path style="stroke: none; stroke-width: 1; stroke-dasharray: none; stroke-linecap: butt; stroke-dashoffset: 0; stroke-linejoin: miter; stroke-miterlimit: 4; fill: rgb(0,0,0); fill-rule: nonzero; opacity: 1;" vector-effect="non-scaling-stroke"  transform=" translate(-12.5624, 12.24943)" d="M 21.453 -17.406 C 20.77331 -17.7185 20.101399999999998 -17.945059999999998 19.4374 -18.0935 C 18.78115 -18.24975 18.1171 -18.32788 17.453 -18.32788 C 15.4842 -18.32788 13.968599999999999 -17.69507 12.906099999999999 -16.43728 C 11.851399999999998 -15.175580000000002 11.328 -13.366980000000002 11.328 -11.01538 L 11.328 0.0006199999999996209 L 3.6717999999999993 0.0006199999999996209 L 3.6717999999999993 -23.92138 L 11.328 -23.92138 L 11.328 -19.99948 C 12.304559999999999 -21.56198 13.429599999999999 -22.702579999999998 14.703 -23.42138 C 15.9842 -24.14013 17.5155 -24.49948 19.296799999999998 -24.49948 C 19.546799999999998 -24.49948 19.82024 -24.487761 20.124919999999996 -24.46823 C 20.425699999999996 -24.444792 20.859299999999998 -24.397917999999997 21.421819999999997 -24.32761 z" stroke-linecap="round" />
</g>
		<g transform="matrix(1.3333333333 0 0 1.3333333333 -282.1309413333 439.08364)" id="KokXafhsFmAn8r_8xAVIq"  >
<path style="stroke: none; stroke-width: 1; stroke-dasharray: none; stroke-linecap: butt; stroke-dashoffset: 0; stroke-linejoin: miter; stroke-miterlimit: 4; fill: rgb(0,0,0); fill-rule: nonzero; opacity: 1;" vector-effect="non-scaling-stroke"  transform=" translate(-14.7182, 11.93727)" d="M 27.562 -12.031 L 27.562 -9.8435 L 9.671000000000003 -9.8435 C 9.858500000000003 -8.050500000000001 10.503030000000003 -6.706800000000001 11.608500000000003 -5.8123000000000005 C 12.721800000000004 -4.913860000000001 14.280400000000004 -4.468500000000001 16.280400000000004 -4.468500000000001 C 17.882000000000005 -4.468500000000001 19.530400000000004 -4.70288 21.217900000000004 -5.171620000000001 C 22.905400000000004 -5.648180000000001 24.639800000000005 -6.374720000000001 26.421000000000003 -7.343520000000001 L 26.421000000000003 -1.4529200000000007 C 24.616300000000003 -0.7654200000000007 22.811600000000002 -0.2498200000000006 20.999100000000002 0.09397999999999929 C 19.186600000000002 0.44553999999999927 17.378 0.6252299999999993 15.577200000000001 0.6252299999999993 C 11.241300000000003 0.6252299999999993 7.874100000000001 -0.4724700000000006 5.468200000000001 -2.6716700000000007 C 3.069800000000001 -4.8786700000000005 1.8744000000000014 -7.968570000000001 1.8744000000000014 -11.93727 C 1.8744000000000014 -15.84347 3.050200000000001 -18.90997 5.4056000000000015 -21.140369999999997 C 7.768900000000002 -23.378669999999996 11.015 -24.499769999999998 15.140000000000002 -24.499769999999998 C 18.897800000000004 -24.499769999999998 21.9095 -23.363069999999997 24.171200000000002 -21.09357 C 26.429000000000002 -18.83187 27.5618 -15.81237 27.5618 -12.03107 z M 19.7026 -14.5622 C 19.7026 -16.0192 19.27291 -17.1911 18.421400000000002 -18.0778 C 17.577650000000002 -18.97233 16.4722 -19.4216 15.108900000000002 -19.4216 C 13.616700000000002 -19.4216 12.409700000000003 -19.00363 11.483900000000002 -18.1716 C 10.565930000000002 -17.33566 9.991700000000002 -16.1325 9.765100000000002 -14.5622 z" stroke-linecap="round" />
</g>
		<g transform="matrix(1.3333333333 0 0 1.3333333333 -243.5561746667 439.0825466667)" id="043HhhIcqvT89Uus9h8zQ"  >
<path style="stroke: none; stroke-width: 1; stroke-dasharray: none; stroke-linecap: butt; stroke-dashoffset: 0; stroke-linejoin: miter; stroke-miterlimit: 4; fill: rgb(0,0,0); fill-rule: nonzero; opacity: 1;" vector-effect="non-scaling-stroke"  transform=" translate(-13.9774, 11.93809)" d="M 14.391 -10.766 C 12.7972 -10.766 11.597999999999999 -10.49256 10.7972 -9.9535 C 9.99251 -9.41053 9.594100000000001 -8.6137 9.594100000000001 -7.5629 C 9.594100000000001 -6.59415 9.91441 -5.8324 10.562850000000001 -5.2817 C 11.20738 -4.73873 12.109750000000002 -4.4692 13.26595 -4.4692 C 14.70345 -4.4692 15.91045 -4.98482 16.89095 -6.0161 C 17.87923 -7.0473 18.37535 -8.3364 18.37535 -9.8911 L 18.37535 -10.7661 z M 26.079 -13.656600000000001 L 26.079 -0.000600000000000378 L 18.3759 -0.000600000000000378 L 18.3759 -3.5475000000000003 C 17.344700000000003 -2.0983 16.1884 -1.0397000000000003 14.907100000000002 -0.3756000000000004 C 13.625800000000002 0.28849999999999953 12.067300000000001 0.6243999999999996 10.235200000000003 0.6243999999999996 C 7.754700000000002 0.6243999999999996 5.739100000000002 -0.09826000000000035 4.188300000000003 -1.5475000000000003 C 2.6453000000000024 -2.9928000000000003 1.8758000000000026 -4.867800000000001 1.8758000000000026 -7.1725 C 1.8758000000000026 -9.985 2.8367400000000025 -12.0397 4.766400000000003 -13.3444 C 6.703900000000003 -14.6569 9.735200000000003 -15.3132 13.860200000000003 -15.3132 L 18.3758 -15.3132 L 18.3758 -15.92258 C 18.3758 -17.12958 17.89533 -18.016379999999998 16.9383 -18.578780000000002 C 15.989080000000001 -19.141280000000002 14.500800000000002 -19.422530000000002 12.469500000000002 -19.422530000000002 C 10.832800000000002 -19.422530000000002 9.313300000000002 -19.25456 7.907000000000002 -18.922530000000002 C 6.500800000000002 -18.59831 5.188200000000002 -18.110030000000002 3.969500000000002 -17.45373 L 3.969500000000002 -23.28183 C 5.614000000000002 -23.68808 7.258600000000001 -23.98886 8.907000000000002 -24.18808 C 10.563200000000002 -24.39511 12.211700000000002 -24.50058 13.860100000000003 -24.50058 C 18.180400000000002 -24.50058 21.297600000000003 -23.64511 23.203900000000004 -21.93808 C 25.118000000000006 -20.238879999999998 26.078900000000004 -17.47718 26.078900000000004 -13.65688 z" stroke-linecap="round" />
</g>
		<g transform="matrix(1.3333333333 0 0 1.3333333333 -209.1722253333 434.5208133333)" id="3oayuMqa-HgvTGQWvrSbz"  >
<path style="stroke: none; stroke-width: 1; stroke-dasharray: none; stroke-linecap: butt; stroke-dashoffset: 0; stroke-linejoin: miter; stroke-miterlimit: 4; fill: rgb(0,0,0); fill-rule: nonzero; opacity: 1;" vector-effect="non-scaling-stroke"  transform=" translate(-10.241925, 15.35939)" d="M 12.031 -30.719 L 12.031 -23.9221 L 19.906 -23.9221 L 19.906 -18.4533 L 12.030999999999999 -18.4533 L 12.030999999999999 -8.312299999999999 C 12.030999999999999 -7.195099999999998 12.249749999999999 -6.4411999999999985 12.687249999999999 -6.046699999999999 C 13.124749999999999 -5.659979999999998 13.999749999999999 -5.468579999999998 15.312249999999999 -5.468579999999998 L 19.24975 -5.468579999999998 L 19.24975 0.00022000000000144126 L 12.687249999999999 0.00022000000000144126 C 9.663849999999998 0.00022000000000144126 7.5231499999999984 -0.6286899999999985 6.265349999999999 -1.8903799999999986 C 5.003649999999999 -3.1481799999999986 4.374749999999999 -5.288779999999999 4.374749999999999 -8.312279999999998 L 4.374749999999999 -18.45328 L 0.5778499999999989 -18.45328 L 0.5778499999999989 -23.92208 L 4.374749999999999 -23.92208 L 4.374749999999999 -30.718980000000002 z" stroke-linecap="round" />
</g>
		<g transform="matrix(1.3333333333 0 0 1.3333333333 -175.3184413333 439.08364)" id="oqFOZUYQ1dENxXMndlM9P"  >
<path style="stroke: none; stroke-width: 1; stroke-dasharray: none; stroke-linecap: butt; stroke-dashoffset: 0; stroke-linejoin: miter; stroke-miterlimit: 4; fill: rgb(0,0,0); fill-rule: nonzero; opacity: 1;" vector-effect="non-scaling-stroke"  transform=" translate(-14.7182, 11.93727)" d="M 27.562 -12.031 L 27.562 -9.8435 L 9.671000000000003 -9.8435 C 9.858500000000003 -8.050500000000001 10.503030000000003 -6.706800000000001 11.608500000000003 -5.8123000000000005 C 12.721800000000004 -4.913860000000001 14.280400000000004 -4.468500000000001 16.280400000000004 -4.468500000000001 C 17.882000000000005 -4.468500000000001 19.530400000000004 -4.70288 21.217900000000004 -5.171620000000001 C 22.905400000000004 -5.648180000000001 24.639800000000005 -6.374720000000001 26.421000000000003 -7.343520000000001 L 26.421000000000003 -1.4529200000000007 C 24.616300000000003 -0.7654200000000007 22.811600000000002 -0.2498200000000006 20.999100000000002 0.09397999999999929 C 19.186600000000002 0.44553999999999927 17.378 0.6252299999999993 15.577200000000001 0.6252299999999993 C 11.241300000000003 0.6252299999999993 7.874100000000001 -0.4724700000000006 5.468200000000001 -2.6716700000000007 C 3.069800000000001 -4.8786700000000005 1.8744000000000014 -7.968570000000001 1.8744000000000014 -11.93727 C 1.8744000000000014 -15.84347 3.050200000000001 -18.90997 5.4056000000000015 -21.140369999999997 C 7.768900000000002 -23.378669999999996 11.015 -24.499769999999998 15.140000000000002 -24.499769999999998 C 18.897800000000004 -24.499769999999998 21.9095 -23.363069999999997 24.171200000000002 -21.09357 C 26.429000000000002 -18.83187 27.5618 -15.81237 27.5618 -12.03107 z M 19.7026 -14.5622 C 19.7026 -16.0192 19.27291 -17.1911 18.421400000000002 -18.0778 C 17.577650000000002 -18.97233 16.4722 -19.4216 15.108900000000002 -19.4216 C 13.616700000000002 -19.4216 12.409700000000003 -19.00363 11.483900000000002 -18.1716 C 10.565930000000002 -17.33566 9.991700000000002 -16.1325 9.765100000000002 -14.5622 z" stroke-linecap="round" />
</g>
		<g transform="matrix(1.3333333333 0 0 1.3333333333 -135.6407413333 433.26072)" id="ubZ61kXBBH1E5BTg4jkYx"  >
<path style="stroke: none; stroke-width: 1; stroke-dasharray: none; stroke-linecap: butt; stroke-dashoffset: 0; stroke-linejoin: miter; stroke-miterlimit: 4; fill: rgb(0,0,0); fill-rule: nonzero; opacity: 1;" vector-effect="non-scaling-stroke"  transform=" translate(-14.8046, 16.30446)" d="M 19.953 -20.422 L 19.953 -33.234 L 27.6405 -33.234 L 27.6405 0 L 19.953 0 L 19.953 -3.4531 C 18.8983 -2.0469 17.7382 -1.0156 16.4686 -0.3593000000000002 C 15.195199999999998 0.2969499999999998 13.726399999999998 0.6250799999999999 12.062399999999998 0.6250799999999999 C 9.113199999999999 0.6250799999999999 6.691299999999998 -0.5468200000000001 4.796799999999998 -2.8905200000000004 C 2.910099999999998 -5.23432 1.9686999999999983 -8.24992 1.9686999999999983 -11.937420000000001 C 1.9686999999999983 -15.624920000000003 2.910109999999998 -18.640520000000002 4.796799999999998 -20.984320000000004 C 6.691299999999998 -23.328120000000006 9.113199999999999 -24.499920000000003 12.062399999999998 -24.499920000000003 C 13.718599999999999 -24.499920000000003 15.179599999999999 -24.163980000000002 16.453 -23.499920000000003 C 17.734199999999998 -22.843670000000003 18.8983 -21.816320000000005 19.953 -20.421820000000004 z M 14.906099999999999 -4.938000000000001 C 16.5506 -4.938000000000001 17.8006 -5.535660000000001 18.6561 -6.7349000000000006 C 19.519379999999998 -7.930200000000001 19.953 -9.6646 19.953 -11.938 C 19.953 -14.2192 19.51941 -15.9575 18.6561 -17.1568 C 17.800629999999998 -18.3521 16.5506 -18.9537 14.906099999999999 -18.9537 C 13.281099999999999 -18.9537 12.034999999999998 -18.352140000000002 11.171699999999998 -17.1568 C 10.316229999999997 -15.957600000000001 9.890499999999998 -14.2193 9.890499999999998 -11.938 C 9.890499999999998 -9.6646 10.316279999999997 -7.930200000000001 11.171699999999998 -6.7349000000000006 C 12.034979999999997 -5.5357 13.281099999999999 -4.938000000000001 14.906099999999999 -4.938000000000001 z" stroke-linecap="round" />
</g>
		<g transform="matrix(1.3333333333 0 0 1.3333333333 -71.297108 433.2612)" id="Q7D1h7PwsTQ3EawBFWf_w"  >
<path style="stroke: none; stroke-width: 1; stroke-dasharray: none; stroke-linecap: butt; stroke-dashoffset: 0; stroke-linejoin: miter; stroke-miterlimit: 4; fill: rgb(0,0,0); fill-rule: nonzero; opacity: 1;" vector-effect="non-scaling-stroke"  transform=" translate(-16.51545, 16.3041)" d="M 16.406 -4.9375 C 18.0388 -4.9375 19.2888 -5.53516 20.156 -6.7344 C 21.01928 -7.9297 21.4529 -9.6641 21.4529 -11.9375 C 21.4529 -14.2187 21.01931 -15.957 20.156 -17.1563 C 19.288809999999998 -18.3516 18.0388 -18.953200000000002 16.406 -18.953200000000002 C 14.7693 -18.953200000000002 13.5154 -18.347730000000002 12.6404 -17.140700000000002 C 11.7654 -15.941500000000003 11.3279 -14.207100000000002 11.3279 -11.937600000000003 C 11.3279 -9.675900000000004 11.7654 -7.941500000000003 12.6404 -6.734500000000003 C 13.5154 -5.535300000000003 14.7693 -4.937600000000003 16.406 -4.937600000000003 z M 11.3279 -20.4215 C 12.3787 -21.816000000000003 13.5467 -22.843400000000003 14.8279 -23.4996 C 16.109099999999998 -24.16366 17.5818 -24.4996 19.2498 -24.4996 C 22.1951 -24.4996 24.617 -23.3277 26.5154 -20.984 C 28.4099 -18.6402 29.3592 -15.624600000000001 29.3592 -11.937100000000001 C 29.3592 -8.249600000000001 28.40998 -5.234000000000001 26.5154 -2.8902 C 24.617 -0.5464000000000002 22.1951 0.6254 19.2498 0.6254 C 17.5818 0.6254 16.1092 0.28945999999999994 14.8279 -0.37460000000000004 C 13.546599999999998 -1.0386600000000001 12.3787 -2.066 11.3279 -3.4527 L 11.3279 0.00039999999999995595 L 3.6716999999999995 0.00039999999999995595 L 3.6716999999999995 -33.2336 L 11.3279 -33.2336 z" stroke-linecap="round" />
</g>
		<g transform="matrix(1.3333333333 0 0 1.3333333333 -32.7187666667 445.3439333333)" id="5mue5dUr08a8L5jf4zSO5"  >
<path style="stroke: none; stroke-width: 1; stroke-dasharray: none; stroke-linecap: butt; stroke-dashoffset: 0; stroke-linejoin: miter; stroke-miterlimit: 4; fill: rgb(0,0,0); fill-rule: nonzero; opacity: 1;" vector-effect="non-scaling-stroke"  transform=" translate(-14.1328, 7.24205)" d="M 0.53125 -23.922 L 8.18745 -23.922 L 14.60935 -7.687999999999999 L 20.07815 -23.922 L 27.73435 -23.922 L 17.67235 2.2659999999999982 C 16.66065 4.930099999999998 15.477050000000002 6.789399999999998 14.12545 7.844099999999998 C 12.78165 8.906599999999997 11.00435 9.437899999999999 8.797350000000002 9.437899999999999 L 4.375450000000002 9.437899999999999 L 4.375450000000002 4.422299999999999 L 6.766050000000002 4.422299999999999 C 8.066850000000002 4.422299999999999 9.008250000000002 4.211359999999999 9.594150000000003 3.797299999999999 C 10.187900000000003 3.391049999999999 10.648850000000003 2.648899999999999 10.984750000000002 1.5784999999999991 L 11.187870000000002 0.9222499999999991 z" stroke-linecap="round" />
</g>
		<g transform="matrix(1.3333333333 0 0 1.3333333333 27.7398266667 433.7703466667)" id="Zs43ayS0lxDI56UbgLYjk"  >
<path style="stroke: none; stroke-width: 1; stroke-dasharray: none; stroke-linecap: butt; stroke-dashoffset: 0; stroke-linejoin: miter; stroke-miterlimit: 4; fill: rgb(0,0,0); fill-rule: nonzero; opacity: 1;" vector-effect="non-scaling-stroke"  transform=" translate(-15.726745, 15.92224)" d="M 26.219 -30.891 L 26.219 -24.141 C 24.4573 -24.92225 22.7424 -25.5082 21.078400000000002 -25.906599999999997 C 19.410400000000003 -26.312849999999997 17.8362 -26.51598 16.3596 -26.51598 C 14.3987 -26.51598 12.945500000000001 -26.242539999999998 12.0002 -25.70348 C 11.0627 -25.16051 10.594 -24.316779999999998 10.594 -23.17228 C 10.594 -22.31681 10.910409999999999 -21.648880000000002 11.54712 -21.17228 C 12.179929999999999 -20.70353 13.33232 -20.29728 15.000219999999999 -19.95348 L 18.50022 -19.25036 C 22.03932 -18.53161 24.56272 -17.44566 26.06272 -16.00036 C 27.56272 -14.551160000000001 28.31272 -12.488660000000001 28.31272 -9.81286 C 28.31272 -6.28946 27.265819999999998 -3.6722600000000005 25.17212 -1.9534600000000006 C 23.08622 -0.23466000000000053 19.89872 0.6246399999999994 15.60962 0.6246399999999994 C 13.586219999999999 0.6246399999999994 11.55492 0.42932999999999943 9.51582 0.04651999999999945 C 7.48462 -0.33629000000000053 5.45332 -0.9105100000000006 3.42202 -1.6722800000000007 L 3.42202 -8.60978 C 5.45322 -7.52388 7.41422 -6.70748 9.312619999999999 -6.156680000000001 C 11.21882 -5.613710000000001 13.05482 -5.344180000000001 14.828219999999998 -5.344180000000001 C 16.61732 -5.344180000000001 17.988419999999998 -5.64106 18.93762 -6.234800000000001 C 19.89465 -6.836360000000001 20.37512 -7.691800000000001 20.37512 -8.7973 C 20.37512 -9.7973 20.0509 -10.5668 19.40637 -11.1098 C 18.757929999999998 -11.648859999999999 17.46887 -12.1332 15.531369999999999 -12.562899999999999 L 12.343869999999999 -13.26602 C 9.156369999999999 -13.95352 6.820469999999999 -15.03942 5.343869999999999 -16.53162 C 3.875069999999999 -18.03162 3.140769999999999 -20.04722 3.140769999999999 -22.57852 C 3.140769999999999 -25.75432 4.164169999999999 -28.19572 6.218869999999999 -29.90662 C 8.26967 -31.61362 11.218869999999999 -32.469120000000004 15.062669999999999 -32.469120000000004 C 16.812669999999997 -32.469120000000004 18.61347 -32.336310000000005 20.46887 -32.078500000000005 C 22.32047 -31.816780000000005 24.23837 -31.422250000000005 26.21887 -30.891000000000005 z" stroke-linecap="round" />
</g>
		<g transform="matrix(1.3333333333 0 0 1.3333333333 67.422992 439.0825466667)" id="JUIGJ0KBDNOTq7bY3JAxB"  >
<path style="stroke: none; stroke-width: 1; stroke-dasharray: none; stroke-linecap: butt; stroke-dashoffset: 0; stroke-linejoin: miter; stroke-miterlimit: 4; fill: rgb(0,0,0); fill-rule: nonzero; opacity: 1;" vector-effect="non-scaling-stroke"  transform=" translate(-13.9774, 11.93809)" d="M 14.391 -10.766 C 12.7972 -10.766 11.597999999999999 -10.49256 10.7972 -9.9535 C 9.99251 -9.41053 9.594100000000001 -8.6137 9.594100000000001 -7.5629 C 9.594100000000001 -6.59415 9.91441 -5.8324 10.562850000000001 -5.2817 C 11.20738 -4.73873 12.109750000000002 -4.4692 13.26595 -4.4692 C 14.70345 -4.4692 15.91045 -4.98482 16.89095 -6.0161 C 17.87923 -7.0473 18.37535 -8.3364 18.37535 -9.8911 L 18.37535 -10.7661 z M 26.079 -13.656600000000001 L 26.079 -0.000600000000000378 L 18.3759 -0.000600000000000378 L 18.3759 -3.5475000000000003 C 17.344700000000003 -2.0983 16.1884 -1.0397000000000003 14.907100000000002 -0.3756000000000004 C 13.625800000000002 0.28849999999999953 12.067300000000001 0.6243999999999996 10.235200000000003 0.6243999999999996 C 7.754700000000002 0.6243999999999996 5.739100000000002 -0.09826000000000035 4.188300000000003 -1.5475000000000003 C 2.6453000000000024 -2.9928000000000003 1.8758000000000026 -4.867800000000001 1.8758000000000026 -7.1725 C 1.8758000000000026 -9.985 2.8367400000000025 -12.0397 4.766400000000003 -13.3444 C 6.703900000000003 -14.6569 9.735200000000003 -15.3132 13.860200000000003 -15.3132 L 18.3758 -15.3132 L 18.3758 -15.92258 C 18.3758 -17.12958 17.89533 -18.016379999999998 16.9383 -18.578780000000002 C 15.989080000000001 -19.141280000000002 14.500800000000002 -19.422530000000002 12.469500000000002 -19.422530000000002 C 10.832800000000002 -19.422530000000002 9.313300000000002 -19.25456 7.907000000000002 -18.922530000000002 C 6.500800000000002 -18.59831 5.188200000000002 -18.110030000000002 3.969500000000002 -17.45373 L 3.969500000000002 -23.28183 C 5.614000000000002 -23.68808 7.258600000000001 -23.98886 8.907000000000002 -24.18808 C 10.563200000000002 -24.39511 12.211700000000002 -24.50058 13.860100000000003 -24.50058 C 18.180400000000002 -24.50058 21.297600000000003 -23.64511 23.203900000000004 -21.93808 C 25.118000000000006 -20.238879999999998 26.078900000000004 -17.47718 26.078900000000004 -13.65688 z" stroke-linecap="round" />
</g>
		<g transform="matrix(1.3333333333 0 0 1.3333333333 109.0880613333 432.8450933333)" id="gdziTXA_X7qYMCb8uu7dx"  >
<path style="stroke: none; stroke-width: 1; stroke-dasharray: none; stroke-linecap: butt; stroke-dashoffset: 0; stroke-linejoin: miter; stroke-miterlimit: 4; fill: rgb(0,0,0); fill-rule: nonzero; opacity: 1;" vector-effect="non-scaling-stroke"  transform=" translate(-15.702765, 16.61618)" d="M 27.734 -14.562 L 27.734 0 L 20.030900000000003 0 L 20.030900000000003 -11.109 C 20.030900000000003 -13.2028 19.984025000000003 -14.6402 19.890280000000004 -15.4215 C 19.804343000000003 -16.20275 19.648090000000003 -16.7809 19.421530000000004 -17.1559 C 19.116840000000003 -17.6559 18.710590000000003 -18.03871 18.202730000000003 -18.312099999999997 C 17.691010000000002 -18.593349999999997 17.10893 -18.73398 16.452730000000003 -18.73398 C 14.858930000000003 -18.73398 13.601130000000003 -18.116789999999998 12.687130000000003 -16.890179999999997 C 11.780880000000003 -15.659679999999998 11.327730000000003 -13.952679999999997 11.327730000000003 -11.765179999999997 L 11.327730000000003 0.0008200000000027075 L 3.6715300000000024 0.0008200000000027075 L 3.6715300000000024 -33.23318 L 11.327730000000003 -33.23318 L 11.327730000000003 -20.42118 C 12.472230000000003 -21.81568 13.691030000000003 -22.84308 14.983930000000003 -23.49928 C 16.284730000000003 -24.163339999999998 17.722230000000003 -24.49928 19.29643 -24.49928 C 22.05423 -24.49928 24.148030000000002 -23.64772 25.57763 -21.952379999999998 C 27.01513 -20.264879999999998 27.733829999999998 -17.800079999999998 27.733829999999998 -14.561779999999999 z" stroke-linecap="round" />
</g>
		<g transform="matrix(1.3333333333 0 0 1.3333333333 148.313616 439.0825466667)" id="Y19vGU5iWAu2waDXshOE6"  >
<path style="stroke: none; stroke-width: 1; stroke-dasharray: none; stroke-linecap: butt; stroke-dashoffset: 0; stroke-linejoin: miter; stroke-miterlimit: 4; fill: rgb(0,0,0); fill-rule: nonzero; opacity: 1;" vector-effect="non-scaling-stroke"  transform=" translate(-13.9774, 11.93809)" d="M 14.391 -10.766 C 12.7972 -10.766 11.597999999999999 -10.49256 10.7972 -9.9535 C 9.99251 -9.41053 9.594100000000001 -8.6137 9.594100000000001 -7.5629 C 9.594100000000001 -6.59415 9.91441 -5.8324 10.562850000000001 -5.2817 C 11.20738 -4.73873 12.109750000000002 -4.4692 13.26595 -4.4692 C 14.70345 -4.4692 15.91045 -4.98482 16.89095 -6.0161 C 17.87923 -7.0473 18.37535 -8.3364 18.37535 -9.8911 L 18.37535 -10.7661 z M 26.079 -13.656600000000001 L 26.079 -0.000600000000000378 L 18.3759 -0.000600000000000378 L 18.3759 -3.5475000000000003 C 17.344700000000003 -2.0983 16.1884 -1.0397000000000003 14.907100000000002 -0.3756000000000004 C 13.625800000000002 0.28849999999999953 12.067300000000001 0.6243999999999996 10.235200000000003 0.6243999999999996 C 7.754700000000002 0.6243999999999996 5.739100000000002 -0.09826000000000035 4.188300000000003 -1.5475000000000003 C 2.6453000000000024 -2.9928000000000003 1.8758000000000026 -4.867800000000001 1.8758000000000026 -7.1725 C 1.8758000000000026 -9.985 2.8367400000000025 -12.0397 4.766400000000003 -13.3444 C 6.703900000000003 -14.6569 9.735200000000003 -15.3132 13.860200000000003 -15.3132 L 18.3758 -15.3132 L 18.3758 -15.92258 C 18.3758 -17.12958 17.89533 -18.016379999999998 16.9383 -18.578780000000002 C 15.989080000000001 -19.141280000000002 14.500800000000002 -19.422530000000002 12.469500000000002 -19.422530000000002 C 10.832800000000002 -19.422530000000002 9.313300000000002 -19.25456 7.907000000000002 -18.922530000000002 C 6.500800000000002 -18.59831 5.188200000000002 -18.110030000000002 3.969500000000002 -17.45373 L 3.969500000000002 -23.28183 C 5.614000000000002 -23.68808 7.258600000000001 -23.98886 8.907000000000002 -24.18808 C 10.563200000000002 -24.39511 12.211700000000002 -24.50058 13.860100000000003 -24.50058 C 18.180400000000002 -24.50058 21.297600000000003 -23.64511 23.203900000000004 -21.93808 C 25.118000000000006 -20.238879999999998 26.078900000000004 -17.47718 26.078900000000004 -13.65688 z" stroke-linecap="round" />
</g>
		<g transform="matrix(1.3333333333 0 0 1.3333333333 191.0622666667 433.2612)" id="RyV6lkoXdEFbJOyMyfemQ"  >
<path style="stroke: none; stroke-width: 1; stroke-dasharray: none; stroke-linecap: butt; stroke-dashoffset: 0; stroke-linejoin: miter; stroke-miterlimit: 4; fill: rgb(0,0,0); fill-rule: nonzero; opacity: 1;" vector-effect="non-scaling-stroke"  transform=" translate(-16.51545, 16.3041)" d="M 16.406 -4.9375 C 18.0388 -4.9375 19.2888 -5.53516 20.156 -6.7344 C 21.01928 -7.9297 21.4529 -9.6641 21.4529 -11.9375 C 21.4529 -14.2187 21.01931 -15.957 20.156 -17.1563 C 19.288809999999998 -18.3516 18.0388 -18.953200000000002 16.406 -18.953200000000002 C 14.7693 -18.953200000000002 13.5154 -18.347730000000002 12.6404 -17.140700000000002 C 11.7654 -15.941500000000003 11.3279 -14.207100000000002 11.3279 -11.937600000000003 C 11.3279 -9.675900000000004 11.7654 -7.941500000000003 12.6404 -6.734500000000003 C 13.5154 -5.535300000000003 14.7693 -4.937600000000003 16.406 -4.937600000000003 z M 11.3279 -20.4215 C 12.3787 -21.816000000000003 13.5467 -22.843400000000003 14.8279 -23.4996 C 16.109099999999998 -24.16366 17.5818 -24.4996 19.2498 -24.4996 C 22.1951 -24.4996 24.617 -23.3277 26.5154 -20.984 C 28.4099 -18.6402 29.3592 -15.624600000000001 29.3592 -11.937100000000001 C 29.3592 -8.249600000000001 28.40998 -5.234000000000001 26.5154 -2.8902 C 24.617 -0.5464000000000002 22.1951 0.6254 19.2498 0.6254 C 17.5818 0.6254 16.1092 0.28945999999999994 14.8279 -0.37460000000000004 C 13.546599999999998 -1.0386600000000001 12.3787 -2.066 11.3279 -3.4527 L 11.3279 0.00039999999999995595 L 3.6716999999999995 0.00039999999999995595 L 3.6716999999999995 -33.2336 L 11.3279 -33.2336 z" stroke-linecap="round" />
</g>
		<g transform="matrix(1.3333333333 0 0 1.3333333333 254.7917666667 434.1556666667)" id="WyRMFg6p0xoiREQCEgJcS"  >
<path style="stroke: none; stroke-width: 1; stroke-dasharray: none; stroke-linecap: butt; stroke-dashoffset: 0; stroke-linejoin: miter; stroke-miterlimit: 4; fill: rgb(0,0,0); fill-rule: nonzero; opacity: 1;" vector-effect="non-scaling-stroke"  transform=" translate(-17.7657, 15.63325)" d="M 4.0156 -31.891 L 12.2344 -31.891 L 12.2344 -12.781999999999996 C 12.2344 -10.145299999999997 12.664090000000002 -8.258599999999998 13.531300000000002 -7.125799999999996 C 14.394580000000001 -5.989099999999996 15.800800000000002 -5.422699999999996 17.750100000000003 -5.422699999999996 C 19.718900000000005 -5.422699999999996 21.129000000000005 -5.989109999999997 21.984500000000004 -7.125799999999996 C 22.847780000000004 -8.258599999999996 23.281400000000005 -10.145299999999995 23.281400000000005 -12.781999999999996 L 23.281400000000005 -31.891 L 31.515800000000006 -31.891 L 31.515800000000006 -12.781999999999996 C 31.515800000000006 -8.258599999999998 30.379100000000005 -4.895299999999996 28.109600000000007 -2.687999999999997 C 25.847900000000006 -0.47709999999999697 22.394800000000007 0.6245000000000029 17.750600000000006 0.6245000000000029 C 13.125600000000006 0.6245000000000029 9.676400000000006 -0.47709999999999697 7.406600000000006 -2.687999999999997 C 5.144900000000007 -4.894999999999997 4.016000000000006 -8.258299999999997 4.016000000000006 -12.781999999999996 z" stroke-linecap="round" />
</g>
		<g transform="matrix(1.3333333333 0 0 1.3333333333 298.2134253333 433.26072)" id="gYiXuHQIqzo9dKMF-sLUc"  >
<path style="stroke: none; stroke-width: 1; stroke-dasharray: none; stroke-linecap: butt; stroke-dashoffset: 0; stroke-linejoin: miter; stroke-miterlimit: 4; fill: rgb(0,0,0); fill-rule: nonzero; opacity: 1;" vector-effect="non-scaling-stroke"  transform=" translate(-14.8046, 16.30446)" d="M 19.953 -20.422 L 19.953 -33.234 L 27.6405 -33.234 L 27.6405 0 L 19.953 0 L 19.953 -3.4531 C 18.8983 -2.0469 17.7382 -1.0156 16.4686 -0.3593000000000002 C 15.195199999999998 0.2969499999999998 13.726399999999998 0.6250799999999999 12.062399999999998 0.6250799999999999 C 9.113199999999999 0.6250799999999999 6.691299999999998 -0.5468200000000001 4.796799999999998 -2.8905200000000004 C 2.910099999999998 -5.23432 1.9686999999999983 -8.24992 1.9686999999999983 -11.937420000000001 C 1.9686999999999983 -15.624920000000003 2.910109999999998 -18.640520000000002 4.796799999999998 -20.984320000000004 C 6.691299999999998 -23.328120000000006 9.113199999999999 -24.499920000000003 12.062399999999998 -24.499920000000003 C 13.718599999999999 -24.499920000000003 15.179599999999999 -24.163980000000002 16.453 -23.499920000000003 C 17.734199999999998 -22.843670000000003 18.8983 -21.816320000000005 19.953 -20.421820000000004 z M 14.906099999999999 -4.938000000000001 C 16.5506 -4.938000000000001 17.8006 -5.535660000000001 18.6561 -6.7349000000000006 C 19.519379999999998 -7.930200000000001 19.953 -9.6646 19.953 -11.938 C 19.953 -14.2192 19.51941 -15.9575 18.6561 -17.1568 C 17.800629999999998 -18.3521 16.5506 -18.9537 14.906099999999999 -18.9537 C 13.281099999999999 -18.9537 12.034999999999998 -18.352140000000002 11.171699999999998 -17.1568 C 10.316229999999997 -15.957600000000001 9.890499999999998 -14.2193 9.890499999999998 -11.938 C 9.890499999999998 -9.6646 10.316279999999997 -7.930200000000001 11.171699999999998 -6.7349000000000006 C 12.034979999999997 -5.5357 13.281099999999999 -4.938000000000001 14.906099999999999 -4.938000000000001 z" stroke-linecap="round" />
</g>
		<g transform="matrix(1.3333333333 0 0 1.3333333333 339.9686333333 433.26072)" id="yERsfOWBb4xN7vczqXaeP"  >
<path style="stroke: none; stroke-width: 1; stroke-dasharray: none; stroke-linecap: butt; stroke-dashoffset: 0; stroke-linejoin: miter; stroke-miterlimit: 4; fill: rgb(0,0,0); fill-rule: nonzero; opacity: 1;" vector-effect="non-scaling-stroke"  transform=" translate(-14.8046, 16.30446)" d="M 19.953 -20.422 L 19.953 -33.234 L 27.6405 -33.234 L 27.6405 0 L 19.953 0 L 19.953 -3.4531 C 18.8983 -2.0469 17.7382 -1.0156 16.4686 -0.3593000000000002 C 15.195199999999998 0.2969499999999998 13.726399999999998 0.6250799999999999 12.062399999999998 0.6250799999999999 C 9.113199999999999 0.6250799999999999 6.691299999999998 -0.5468200000000001 4.796799999999998 -2.8905200000000004 C 2.910099999999998 -5.23432 1.9686999999999983 -8.24992 1.9686999999999983 -11.937420000000001 C 1.9686999999999983 -15.624920000000003 2.910109999999998 -18.640520000000002 4.796799999999998 -20.984320000000004 C 6.691299999999998 -23.328120000000006 9.113199999999999 -24.499920000000003 12.062399999999998 -24.499920000000003 C 13.718599999999999 -24.499920000000003 15.179599999999999 -24.163980000000002 16.453 -23.499920000000003 C 17.734199999999998 -22.843670000000003 18.8983 -21.816320000000005 19.953 -20.421820000000004 z M 14.906099999999999 -4.938000000000001 C 16.5506 -4.938000000000001 17.8006 -5.535660000000001 18.6561 -6.7349000000000006 C 19.519379999999998 -7.930200000000001 19.953 -9.6646 19.953 -11.938 C 19.953 -14.2192 19.51941 -15.9575 18.6561 -17.1568 C 17.800629999999998 -18.3521 16.5506 -18.9537 14.906099999999999 -18.9537 C 13.281099999999999 -18.9537 12.034999999999998 -18.352140000000002 11.171699999999998 -17.1568 C 10.316229999999997 -15.957600000000001 9.890499999999998 -14.2193 9.890499999999998 -11.938 C 9.890499999999998 -9.6646 10.316279999999997 -7.930200000000001 11.171699999999998 -6.7349000000000006 C 12.034979999999997 -5.5357 13.281099999999999 -4.938000000000001 14.906099999999999 -4.938000000000001 z" stroke-linecap="round" />
</g>
		<g transform="matrix(1.3333333333 0 0 1.3333333333 371.9843746667 432.8436666667)" id="bSyjI8mv-fqaMB5N6VV37"  >
<path style="stroke: none; stroke-width: 1; stroke-dasharray: none; stroke-linecap: butt; stroke-dashoffset: 0; stroke-linejoin: miter; stroke-miterlimit: 4; fill: rgb(0,0,0); fill-rule: nonzero; opacity: 1;" vector-effect="non-scaling-stroke"  transform=" translate(-7.5, 16.61725)" d="M 3.6719 -23.922 L 11.3281 -23.922 L 11.3281 0 L 3.671899999999999 0 z M 3.6719 -33.2345 L 11.3281 -33.2345 L 11.3281 -27.000099999999996 L 3.671899999999999 -27.000099999999996 z" stroke-linecap="round" />
</g>
		<g transform="matrix(1.3333333333 0 0 1.3333333333 402.9161866667 438.66756)" id="H8YOEv8i4pMSgBJk3R_1y"  >
<path style="stroke: none; stroke-width: 1; stroke-dasharray: none; stroke-linecap: butt; stroke-dashoffset: 0; stroke-linejoin: miter; stroke-miterlimit: 4; fill: rgb(0,0,0); fill-rule: nonzero; opacity: 1;" vector-effect="non-scaling-stroke"  transform=" translate(-15.702765, 12.24933)" d="M 27.734 -14.562 L 27.734 0 L 20.030900000000003 0 L 20.030900000000003 -11.156 C 20.030900000000003 -13.2185 19.984025000000003 -14.6404 19.890280000000004 -15.421600000000002 C 19.804343000000003 -16.20285 19.648090000000003 -16.781000000000002 19.421530000000004 -17.156000000000002 C 19.116840000000003 -17.656000000000002 18.710590000000003 -18.03881 18.202730000000003 -18.3122 C 17.691010000000002 -18.59345 17.10893 -18.734080000000002 16.452730000000003 -18.734080000000002 C 14.858930000000003 -18.734080000000002 13.601130000000003 -18.11689 12.687130000000003 -16.89028 C 11.780880000000003 -15.659780000000001 11.327730000000003 -13.95278 11.327730000000003 -11.76528 L 11.327730000000003 0.0007199999999993878 L 3.6715300000000024 0.0007199999999993878 L 3.6715300000000024 -23.921280000000003 L 11.327730000000003 -23.921280000000003 L 11.327730000000003 -20.421280000000003 C 12.472230000000003 -21.815780000000004 13.691030000000003 -22.843180000000004 14.983930000000003 -23.499380000000002 C 16.284730000000003 -24.16344 17.722230000000003 -24.499380000000002 19.29643 -24.499380000000002 C 22.05423 -24.499380000000002 24.148030000000002 -23.647820000000003 25.57763 -21.95248 C 27.01513 -20.26498 27.733829999999998 -17.80018 27.733829999999998 -14.561880000000002 z" stroke-linecap="round" />
</g>
</g>
</g>
</svg>