<?xml version="1.0" encoding="UTF-8" standalone="no" ?>
<!DOCTYPE svg PUBLIC "-//W3C//DTD SVG 1.1//EN" "http://www.w3.org/Graphics/SVG/1.1/DTD/svg11.dtd">
<svg xmlns="http://www.w3.org/2000/svg" xmlns:xlink="http://www.w3.org/1999/xlink" version="1.1" width="700" height="700" viewBox="0 0 700 700" xml:space="preserve">
<desc>Created with Fabric.js 5.3.0</desc>
<defs>
</defs>
<g transform="matrix(0.9321975219 0 0 0.9321975219 334.6853741497 435.5357142857)" id="5FiTjbs-G4kcrvgo5rBEq"  >
<g style="" vector-effect="non-scaling-stroke"   >
		<g transform="matrix(1.3333333333 0 0 1.3333333333 0.7181937557 -91.8865201214)" id="38AhvQTdhHoPOL6NczHPK"  >
<path style="stroke: none; stroke-width: 1; stroke-dasharray: none; stroke-linecap: butt; stroke-dashoffset: 0; stroke-linejoin: miter; stroke-miterlimit: 4; fill: rgb(0,0,0); fill-rule: nonzero; opacity: 1;" vector-effect="non-scaling-stroke"  transform=" translate(-350.5386453168, -281.085109909)" d="M 591.59 174.5 L 485.86 282.36 C 479.028 289.3053 468.723 291.4303 459.762 287.735 C 450.8011 284.03970000000004 444.305 275.192 444.305 265.337 L 444.305 220.314 L 124.54500000000002 220.64994 C 118.16220000000001 220.64994 112.11100000000002 218.18514 107.52200000000002 213.59524 C 103.04150000000001 209.00144 100.46730000000002 202.84124 100.46730000000002 196.45824 L 100.24074000000002 108.64923999999999 C 100.24074000000002 95.20823999999999 110.88174000000002 84.34423999999999 124.20974000000001 84.34423999999999 L 444.30974000000003 83.89501999999999 L 444.30974000000003 38.872019999999985 C 444.30974000000003 29.016519999999986 450.13394000000005 20.169019999999986 459.09474000000006 16.474019999999985 C 468.05564000000004 12.665419999999985 478.3607400000001 14.794319999999985 485.30174000000005 21.739619999999984 L 591.5917400000001 129.03961999999999 C 603.9077400000001 141.57861999999997 604.02174 161.85161999999997 591.5917400000001 174.50861999999998 z M 215.83000000000004 279.78 C 222.66200000000003 272.8347 233.07600000000005 270.8191 242.03700000000003 274.51439999999997 C 250.99790000000004 278.323 256.82200000000006 287.1704 256.82200000000006 296.9124 L 256.82200000000006 341.9354 L 576.922 342.38462000000004 C 590.1370000000001 342.38462000000004 600.8910000000001 353.24762000000004 600.777 366.68962000000005 L 600.55434 454.61162 C 600.55434 460.99442 597.98014 467.15462 593.49964 471.74862 C 589.01914 476.22912 582.85864 478.80332000000004 576.47664 478.80332000000004 L 256.71664 478.3541 L 256.71664 523.3771 C 256.71664 533.2326 250.22053999999997 541.9711000000001 241.25964 545.7751000000001 C 232.29873999999998 549.4704 221.99364 547.3415000000001 215.16163999999998 540.4001000000001 L 109.43163999999997 432.54010000000005 C 97.11163999999997 419.99710000000005 97.11163999999997 399.61010000000005 109.54491999999998 387.06710000000004 z" stroke-linecap="round" />
</g>
		<g transform="matrix(1.3333333333 0 0 1.3333333333 -370.6458533333 299.6822613333)" id="SFTo-x0-r3khX43NnwDFZ"  >
<path style="stroke: none; stroke-width: 1; stroke-dasharray: none; stroke-linecap: butt; stroke-dashoffset: 0; stroke-linejoin: miter; stroke-miterlimit: 4; fill: rgb(0,0,0); fill-rule: nonzero; opacity: 1;" vector-effect="non-scaling-stroke"  transform=" translate(-2.01561, 2.039085)" d="M 3.75 -0.21875 C 3.55078 -0.125 3.34766 -0.05077999999999999 3.14062 0 C 2.9296800000000003 0.050781 2.7109300000000003 0.078125 2.48437 0.078125 C 1.8046800000000003 0.078125 1.26957 -0.109375 0.8749700000000002 -0.484375 C 0.47653000000000023 -0.867185 0.28122000000000025 -1.382815 0.28122000000000025 -2.031275 C 0.28122000000000025 -2.687525 0.47653000000000023 -3.203175 0.8749700000000002 -3.578175 C 1.2695000000000003 -3.960985 1.8046600000000002 -4.156295 2.48437 -4.156295 C 2.7109300000000003 -4.156295 2.9296800000000003 -4.128951 3.14062 -4.07817 C 3.3476500000000002 -4.023483 3.55078 -3.94536 3.75 -3.8437900000000003 L 3.75 -3.0000400000000003 C 3.55078 -3.1328500000000004 3.35938 -3.23442 3.17188 -3.29692 C 2.98438 -3.35942 2.78516 -3.39067 2.57813 -3.39067 C 2.20313 -3.39067 1.9062499999999998 -3.26958 1.6875099999999998 -3.0312900000000003 C 1.4687599999999998 -2.7891000000000004 1.3593899999999999 -2.4570700000000003 1.3593899999999999 -2.0312900000000003 C 1.3593899999999999 -1.6133200000000003 1.46877 -1.2852000000000001 1.6875099999999998 -1.0469100000000002 C 1.9062599999999998 -0.8047200000000002 2.20313 -0.6875300000000002 2.57813 -0.6875300000000002 C 2.78516 -0.6875300000000002 2.98438 -0.7187800000000002 3.17188 -0.7812800000000002 C 3.35938 -0.8437800000000002 3.5507899999999997 -0.9375300000000002 3.75 -1.0625300000000002 z" stroke-linecap="round" />
</g>
		<g transform="matrix(1.3333333333 0 0 1.3333333333 -365.7083266667 300.3071613333)" id="Cl8SeZEfxdQnMdLYh3gKw"  >
<path style="stroke: none; stroke-width: 1; stroke-dasharray: none; stroke-linecap: butt; stroke-dashoffset: 0; stroke-linejoin: miter; stroke-miterlimit: 4; fill: rgb(0,0,0); fill-rule: nonzero; opacity: 1;" vector-effect="non-scaling-stroke"  transform=" translate(-1.60938, 1.57041)" d="M 2.75 -2.2188 C 2.65625 -2.257862 2.56641 -2.289112 2.48438 -2.31255 C 2.398443 -2.332081 2.31641 -2.3438 2.23438 -2.3438 C 1.9843799999999998 -2.3438 1.7890699999999997 -2.257862 1.6562599999999998 -2.0938 C 1.51954 -1.9375499999999999 1.4531399999999999 -1.70708 1.4531399999999999 -1.4062999999999999 L 1.4531399999999999 -0.00009999999999998899 L 0.46875999999999984 -0.00009999999999998899 L 0.46875999999999984 -3.0625999999999998 L 1.4531399999999999 -3.0625999999999998 L 1.4531399999999999 -2.5625999999999998 C 1.5781399999999999 -2.75791 1.7187599999999998 -2.9063499999999998 1.87502 -3.0000999999999998 C 2.03908 -3.0938499999999998 2.2382999999999997 -3.14072 2.46877 -3.14072 C 2.50002 -3.14072 2.53127 -3.132907 2.56252 -3.125095 C 2.601582 -3.125095 2.6601760000000003 -3.117283 2.7344 -3.10947 z" stroke-linecap="round" />
</g>
		<g transform="matrix(1.3333333333 0 0 1.3333333333 -361.6718746667 300.359408)" id="y_HjcxBdP0AN8-lere-oG"  >
<path style="stroke: none; stroke-width: 1; stroke-dasharray: none; stroke-linecap: butt; stroke-dashoffset: 0; stroke-linejoin: miter; stroke-miterlimit: 4; fill: rgb(0,0,0); fill-rule: nonzero; opacity: 1;" vector-effect="non-scaling-stroke"  transform=" translate(-1.875, 1.531225)" d="M 3.5156 -1.5312 L 3.5156 -1.26558 L 1.2344 -1.26558 C 1.253931 -1.03511 1.33596 -0.86324 1.4844 -0.74996 C 1.62893 -0.6327699999999999 1.82815 -0.5780799999999999 2.07815 -0.5780799999999999 C 2.28518 -0.5780799999999999 2.49221 -0.601517 2.70315 -0.6562049999999999 C 2.9219 -0.7187049999999999 3.14456 -0.8124549999999999 3.3750299999999998 -0.9374549999999999 L 3.3750299999999998 -0.18745499999999993 C 3.14456 -0.09370499999999993 2.91409 -0.023394999999999916 2.6875299999999998 0.015665000000000068 C 2.45706 0.05472700000000007 2.2226899999999996 0.07816500000000007 1.9844099999999998 0.07816500000000007 C 1.4297199999999997 0.07816500000000007 1.0000299999999998 -0.06245499999999993 0.6875099999999998 -0.3437149999999999 C 0.3828199999999998 -0.6249649999999999 0.23438999999999982 -1.019495 0.23438999999999982 -1.531215 C 0.23438999999999982 -2.031215 0.3828299999999998 -2.4218349999999997 0.6875099999999998 -2.703115 C 0.9882899999999999 -2.992175 1.4062599999999998 -3.140615 1.9375099999999998 -3.140615 C 2.4140699999999997 -3.140615 2.79689 -2.992175 3.0781099999999997 -2.703115 C 3.3671699999999998 -2.410145 3.5156099999999997 -2.019525 3.5156099999999997 -1.531215 z M 2.5156 -1.8593199999999999 C 2.5156 -2.04682 2.4570060000000002 -2.1952599999999998 2.3437200000000002 -2.31244 C 2.2382500000000003 -2.42572 2.1015300000000003 -2.48432 1.9374700000000002 -2.48432 C 1.7382500000000003 -2.48432 1.5820000000000003 -2.425726 1.4687200000000002 -2.31244 C 1.3515300000000003 -2.20697 1.2812200000000002 -2.05463 1.2499700000000002 -1.85932 z" stroke-linecap="round" />
</g>
		<g transform="matrix(1.3333333333 0 0 1.3333333333 -356.7342813333 300.3593746667)" id="qP8uPwJfvVMdD6KRtLbS9"  >
<path style="stroke: none; stroke-width: 1; stroke-dasharray: none; stroke-linecap: butt; stroke-dashoffset: 0; stroke-linejoin: miter; stroke-miterlimit: 4; fill: rgb(0,0,0); fill-rule: nonzero; opacity: 1;" vector-effect="non-scaling-stroke"  transform=" translate(-1.78132, 1.53125)" d="M 1.8438 -1.375 C 1.6328600000000002 -1.375 1.47661 -1.335938 1.37505 -1.26562 C 1.2695800000000002 -1.20312 1.2188 -1.1015599999999999 1.2188 -0.9687399999999999 C 1.2188 -0.8437399999999999 1.257862 -0.74218 1.3438 -0.6718599999999999 C 1.425831 -0.6093599999999999 1.54692 -0.5781099999999999 1.7031800000000001 -0.5781099999999999 C 1.8789600000000002 -0.5781099999999999 2.0313000000000003 -0.6406099999999999 2.1563000000000003 -0.7656099999999999 C 2.2813000000000003 -0.8984199999999999 2.3438000000000003 -1.06639 2.3438000000000003 -1.26561 L 2.3438000000000003 -1.37499 z M 3.3282 -1.75 L 3.3282 0 L 2.34382 0 L 2.34382 -0.45312 C 2.21882 -0.26562 2.07038 -0.12890000000000001 1.90632 -0.04687000000000002 C 1.73835 0.035160999999999984 1.53913 0.07812999999999998 1.31257 0.07812999999999998 C 0.9883500000000001 0.07812999999999998 0.72663 -0.007808000000000023 0.53132 -0.18749000000000005 C 0.3321 -0.37499000000000005 0.23444000000000004 -0.6171800000000001 0.23444000000000004 -0.9218700000000001 C 0.23444000000000004 -1.27343 0.35944000000000004 -1.5351500000000002 0.60944 -1.7031200000000002 C 0.85944 -1.8671800000000003 1.2422499999999999 -1.9531200000000002 1.7656399999999999 -1.9531200000000002 L 2.3437599999999996 -1.9531200000000002 L 2.3437599999999996 -2.031245 C 2.3437599999999996 -2.187495 2.2812599999999996 -2.3007750000000002 2.1562599999999996 -2.374995 C 2.0390699999999997 -2.445307 1.8515699999999997 -2.484375 1.5937599999999996 -2.484375 C 1.3828199999999997 -2.484375 1.1875099999999996 -2.460938 1.0000099999999996 -2.421875 C 0.8203199999999996 -2.378906 0.6601699999999997 -2.316405 0.5156299999999996 -2.234375 L 0.5156299999999996 -2.984375 C 0.7226599999999996 -3.023438 0.9296899999999996 -3.0625 1.1406299999999996 -3.093755 C 1.3476599999999996 -3.125005 1.5546899999999995 -3.14063 1.7656299999999996 -3.14063 C 2.3164099999999994 -3.14063 2.7109399999999995 -3.03125 2.95313 -2.8125099999999996 C 3.20313 -2.5937599999999996 3.32813 -2.2382899999999997 3.32813 -1.7500099999999996 z" stroke-linecap="round" />
</g>
		<g transform="matrix(1.3333333333 0 0 1.3333333333 -352.3177913333 299.7864413333)" id="lbBVuGn9Mv3dvfP82_-zw"  >
<path style="stroke: none; stroke-width: 1; stroke-dasharray: none; stroke-linecap: butt; stroke-dashoffset: 0; stroke-linejoin: miter; stroke-miterlimit: 4; fill: rgb(0,0,0); fill-rule: nonzero; opacity: 1;" vector-effect="non-scaling-stroke"  transform=" translate(-1.3124375, 1.96095)" d="M 1.5312 -3.9219 L 1.5312 -3.06252 L 2.5468 -3.06252 L 2.5468 -2.3594 L 1.5312000000000001 -2.3594 L 1.5312000000000001 -1.0625 C 1.5312000000000001 -0.91406 1.5546380000000002 -0.81641 1.6093250000000001 -0.76562 C 1.6718250000000001 -0.7226509999999999 1.7851050000000002 -0.70312 1.9530750000000001 -0.70312 L 2.453075 -0.70312 L 2.453075 0 L 1.6249550000000001 0 C 1.2382350000000002 0 0.9608950000000002 -0.078125 0.7968350000000002 -0.23438 C 0.6405850000000002 -0.39844 0.5624550000000001 -0.67579 0.5624550000000001 -1.0625 L 0.5624550000000001 -2.3594 L 0.07807500000000017 -2.3594 L 0.07807500000000017 -3.06252 L 0.5624550000000001 -3.06252 L 0.5624550000000001 -3.9219 z" stroke-linecap="round" />
</g>
		<g transform="matrix(1.3333333333 0 0 1.3333333333 -348 300.359408)" id="TwJurTdRf6qKKJShWUc1_"  >
<path style="stroke: none; stroke-width: 1; stroke-dasharray: none; stroke-linecap: butt; stroke-dashoffset: 0; stroke-linejoin: miter; stroke-miterlimit: 4; fill: rgb(0,0,0); fill-rule: nonzero; opacity: 1;" vector-effect="non-scaling-stroke"  transform=" translate(-1.875, 1.531225)" d="M 3.5156 -1.5312 L 3.5156 -1.26558 L 1.2344 -1.26558 C 1.253931 -1.03511 1.33596 -0.86324 1.4844 -0.74996 C 1.62893 -0.6327699999999999 1.82815 -0.5780799999999999 2.07815 -0.5780799999999999 C 2.28518 -0.5780799999999999 2.49221 -0.601517 2.70315 -0.6562049999999999 C 2.9219 -0.7187049999999999 3.14456 -0.8124549999999999 3.3750299999999998 -0.9374549999999999 L 3.3750299999999998 -0.18745499999999993 C 3.14456 -0.09370499999999993 2.91409 -0.023394999999999916 2.6875299999999998 0.015665000000000068 C 2.45706 0.05472700000000007 2.2226899999999996 0.07816500000000007 1.9844099999999998 0.07816500000000007 C 1.4297199999999997 0.07816500000000007 1.0000299999999998 -0.06245499999999993 0.6875099999999998 -0.3437149999999999 C 0.3828199999999998 -0.6249649999999999 0.23438999999999982 -1.019495 0.23438999999999982 -1.531215 C 0.23438999999999982 -2.031215 0.3828299999999998 -2.4218349999999997 0.6875099999999998 -2.703115 C 0.9882899999999999 -2.992175 1.4062599999999998 -3.140615 1.9375099999999998 -3.140615 C 2.4140699999999997 -3.140615 2.79689 -2.992175 3.0781099999999997 -2.703115 C 3.3671699999999998 -2.410145 3.5156099999999997 -2.019525 3.5156099999999997 -1.531215 z M 2.5156 -1.8593199999999999 C 2.5156 -2.04682 2.4570060000000002 -2.1952599999999998 2.3437200000000002 -2.31244 C 2.2382500000000003 -2.42572 2.1015300000000003 -2.48432 1.9374700000000002 -2.48432 C 1.7382500000000003 -2.48432 1.5820000000000003 -2.425726 1.4687200000000002 -2.31244 C 1.3515300000000003 -2.20697 1.2812200000000002 -2.05463 1.2499700000000002 -1.85932 z" stroke-linecap="round" />
</g>
		<g transform="matrix(1.3333333333 0 0 1.3333333333 -342.9166333333 299.619788)" id="NbkkaiBaauUBcrW9-dWKg"  >
<path style="stroke: none; stroke-width: 1; stroke-dasharray: none; stroke-linecap: butt; stroke-dashoffset: 0; stroke-linejoin: miter; stroke-miterlimit: 4; fill: rgb(0,0,0); fill-rule: nonzero; opacity: 1;" vector-effect="non-scaling-stroke"  transform=" translate(-1.89065, 2.08594)" d="M 2.5469 -2.6094 L 2.5469 -4.25 L 3.5312799999999998 -4.25 L 3.5312799999999998 0 L 2.5469 0 L 2.5469 -0.4375 C 2.41018 -0.25781 2.25784 -0.12891000000000002 2.0937799999999998 -0.04687999999999998 C 1.9375299999999998 0.03515100000000003 1.7539399999999998 0.07812000000000002 1.5468999999999997 0.07812000000000002 C 1.1718999999999997 0.07812000000000002 0.8593999999999997 -0.06640999999999997 0.6093999999999997 -0.35938 C 0.3672099999999997 -0.66016 0.25001999999999974 -1.05079 0.25001999999999974 -1.53128 C 0.25001999999999974 -2.0000299999999998 0.36720999999999976 -2.38284 0.6093999999999997 -2.68748 C 0.8593999999999997 -2.98826 1.1718999999999997 -3.1406 1.5468999999999997 -3.1406 C 1.7539299999999998 -3.1406 1.9375199999999997 -3.093725 2.0937799999999998 -2.99998 C 2.25784 -2.914042 2.4101899999999996 -2.7851399999999997 2.5469 -2.6093599999999997 z M 1.90628 -0.625 C 2.11331 -0.625 2.26956 -0.703125 2.3750299999999998 -0.85938 C 2.48831 -1.01563 2.5469099999999996 -1.2382900000000001 2.5469099999999996 -1.53126 C 2.5469099999999996 -1.8203200000000002 2.4883159999999998 -2.03907 2.3750299999999998 -2.18751 C 2.26956 -2.34376 2.11331 -2.42189 1.9062799999999998 -2.42189 C 1.6953399999999998 -2.42189 1.5351899999999998 -2.343765 1.4218999999999997 -2.18751 C 1.3164299999999998 -2.03907 1.2656499999999997 -1.8203200000000002 1.2656499999999997 -1.53126 C 1.2656499999999997 -1.2382900000000001 1.3164309999999997 -1.01564 1.4218999999999997 -0.85938 C 1.5351799999999998 -0.70313 1.6953399999999998 -0.625 1.9062799999999998 -0.625 z" stroke-linecap="round" />
</g>
		<g transform="matrix(1.3333333333 0 0 1.3333333333 -334.6770106667 299.6197346667)" id="y-Uoy9azDOTCzKNILOZ0A"  >
<path style="stroke: none; stroke-width: 1; stroke-dasharray: none; stroke-linecap: butt; stroke-dashoffset: 0; stroke-linejoin: miter; stroke-miterlimit: 4; fill: rgb(0,0,0); fill-rule: nonzero; opacity: 1;" vector-effect="non-scaling-stroke"  transform=" translate(-2.10943, 2.08598)" d="M 2.0938 -0.625 C 2.30083 -0.625 2.46099 -0.703125 2.5781799999999997 -0.85938 C 2.6914599999999997 -1.01563 2.7500599999999995 -1.2382900000000001 2.7500599999999995 -1.53126 C 2.7500599999999995 -1.8203200000000002 2.6914659999999997 -2.03907 2.5781799999999997 -2.18751 C 2.46099 -2.34376 2.3008399999999996 -2.42189 2.0938 -2.42189 C 1.88286 -2.42189 1.72271 -2.343765 1.6094199999999999 -2.18751 C 1.50395 -2.03907 1.4531699999999999 -1.8203200000000002 1.4531699999999999 -1.53126 C 1.4531699999999999 -1.2382900000000001 1.5039509999999998 -1.01564 1.6094199999999999 -0.85938 C 1.7227 -0.70313 1.88286 -0.625 2.0938 -0.625 z M 1.45318 -2.6094 C 1.58599 -2.78518 1.73443 -2.91409 1.89068 -3.00002 C 2.05474 -3.09377 2.24224 -3.1406400000000003 2.4531799999999997 -3.1406400000000003 C 2.83599 -3.1406400000000003 3.14849 -2.9883 3.3906799999999997 -2.68752 C 3.6289599999999997 -2.3828300000000002 3.7500599999999995 -2.00002 3.7500599999999995 -1.5313200000000002 C 3.7500599999999995 -1.0508500000000003 3.6289699999999994 -0.6602300000000002 3.3906799999999997 -0.3594200000000003 C 3.14849 -0.06645000000000029 2.83599 0.0780799999999997 2.4531799999999997 0.0780799999999997 C 2.24224 0.0780799999999997 2.05474 0.035110999999999705 1.8906799999999997 -0.046920000000000295 C 1.7344299999999997 -0.12895100000000032 1.5859899999999998 -0.2578600000000003 1.4531799999999997 -0.4375400000000003 L 1.4531799999999997 -0.00004000000000031756 L 0.46879999999999966 -0.00004000000000031756 L 0.46879999999999966 -4.25004 L 1.4531799999999997 -4.25004 z" stroke-linecap="round" />
</g>
		<g transform="matrix(1.3333333333 0 0 1.3333333333 -329.73958 301.161468)" id="6Uo0xn_pPfx2nY9XNa73c"  >
<path style="stroke: none; stroke-width: 1; stroke-dasharray: none; stroke-linecap: butt; stroke-dashoffset: 0; stroke-linejoin: miter; stroke-miterlimit: 4; fill: rgb(0,0,0); fill-rule: nonzero; opacity: 1;" vector-effect="non-scaling-stroke"  transform=" translate(-1.80469, 0.92968)" d="M 0.0625 -3.0625 L 1.04688 -3.0625 L 1.875 -0.9843999999999999 L 2.5625 -3.0625 L 3.54688 -3.0625 L 2.2656799999999997 0.29689999999999994 C 2.1289599999999997 0.62893 1.9727099999999997 0.8633099999999999 1.7969299999999997 1.00002 C 1.6289599999999997 1.13283 1.4063099999999997 1.2031399999999999 1.1250499999999997 1.2031399999999999 L 0.5625499999999997 1.2031399999999999 L 0.5625499999999997 0.5625199999999999 L 0.8594299999999997 0.5625199999999999 C 1.0234899999999998 0.5625199999999999 1.1445899999999998 0.5351759999999999 1.2188099999999997 0.4843949999999999 C 1.3008409999999997 0.4297079999999999 1.3633399999999998 0.3359549999999999 1.4063099999999997 0.2031449999999999 L 1.4375599999999997 0.1250199999999999 z" stroke-linecap="round" />
</g>
		<g transform="matrix(1.3333333333 0 0 1.3333333333 -323.848952 300.4323213333)" id="YZiz8wYZexotZNu4wxqAR"  >
<path style="stroke: none; stroke-width: 1; stroke-dasharray: none; stroke-linecap: butt; stroke-dashoffset: 0; stroke-linejoin: miter; stroke-miterlimit: 4; fill: rgb(0,0,0); fill-rule: nonzero; opacity: 1;" vector-effect="non-scaling-stroke"  transform=" translate(-0.625005, 1.47654)" d="M 0.51562 -4.0781 L 1.56252 -4.0781 L 1.56252 -0.39060000000000006 C 1.56252 0.10939999999999994 1.4219 0.48439999999999994 1.1406399999999999 0.7343999999999999 C 0.8671999999999999 0.9922099999999999 0.45704999999999985 1.12502 -0.09376000000000007 1.12502 L -0.31251000000000007 1.12502 L -0.31251000000000007 0.3281399999999999 L -0.15626000000000007 0.3281399999999999 C 0.062489999999999934 0.3281399999999999 0.22654999999999992 0.2656399999999999 0.34373999999999993 0.14063999999999988 C 0.4570199999999999 0.015639999999999876 0.51562 -0.16014000000000012 0.51562 -0.3906100000000001 z" stroke-linecap="round" />
</g>
		<g transform="matrix(1.3333333333 0 0 1.3333333333 -319.2656113333 300.4114713333)" id="G1VLmbHLOwfTzpEmUP0aj"  >
<path style="stroke: none; stroke-width: 1; stroke-dasharray: none; stroke-linecap: butt; stroke-dashoffset: 0; stroke-linejoin: miter; stroke-miterlimit: 4; fill: rgb(0,0,0); fill-rule: nonzero; opacity: 1;" vector-effect="non-scaling-stroke"  transform=" translate(-1.9765725, 1.4921775)" d="M 0.4375 -1.1875 L 0.4375 -3.0625 L 1.42188 -3.0625 L 1.42188 -2.75 L 1.42188 -2.125 L 1.42188 -1.625 C 1.42188 -1.38281 1.425786 -1.20703 1.437505 -1.09375 C 1.445317 -0.98828 1.468755 -0.91016 1.500005 -0.85937 C 1.539067 -0.79687 1.593755 -0.74218 1.656255 -0.70312 C 1.718755 -0.67187 1.7890650000000001 -0.656245 1.875005 -0.656245 C 2.082035 -0.656245 2.242195 -0.73437 2.359385 -0.890625 C 2.472665 -1.046875 2.531265 -1.265625 2.531265 -1.546875 L 2.531265 -3.062475 L 3.515645 -3.062475 L 3.515645 0.000024999999999941735 L 2.5312650000000003 0.000024999999999941735 L 2.5312650000000003 -0.43747500000000006 C 2.3828250000000004 -0.25778500000000004 2.2265750000000004 -0.12888500000000008 2.0625150000000003 -0.046855000000000036 C 1.8945450000000004 0.03517599999999997 1.7109550000000002 0.07814499999999996 1.5156350000000003 0.07814499999999996 C 1.1601650000000003 0.07814499999999996 0.8906350000000003 -0.03123500000000004 0.7031350000000003 -0.24997500000000006 C 0.5234450000000003 -0.46872500000000006 0.43751500000000026 -0.7812250000000001 0.43751500000000026 -1.187475 z" stroke-linecap="round" />
</g>
		<g transform="matrix(1.3333333333 0 0 1.3333333333 -312.682288 300.307228)" id="zMDe_iE7v1QUSMmwe130B"  >
<path style="stroke: none; stroke-width: 1; stroke-dasharray: none; stroke-linecap: butt; stroke-dashoffset: 0; stroke-linejoin: miter; stroke-miterlimit: 4; fill: rgb(0,0,0); fill-rule: nonzero; opacity: 1;" vector-effect="non-scaling-stroke"  transform=" translate(-2.92969, 1.57036)" d="M 3.3125 -2.5469 C 3.42578 -2.7344 3.56641 -2.87893 3.73438 -2.9844 C 3.91016 -3.08596 4.10157 -3.14065 4.3125 -3.14065 C 4.65625 -3.14065 4.92188 -3.03127 5.10938 -2.8125299999999998 C 5.29688 -2.5937899999999994 5.39063 -2.2734699999999997 5.39063 -1.8594099999999998 L 5.39063 -0.000009999999999843467 L 4.40625 -0.000009999999999843467 L 4.40625 -1.59381 L 4.40625 -1.65631 L 4.40625 -1.78131 C 4.40625 -2.00006 4.375 -2.15631 4.3125 -2.25006 C 4.25 -2.34381 4.14453 -2.39068 4 -2.39068 C 3.8125 -2.39068 3.66406 -2.312555 3.5625 -2.1563000000000003 C 3.46875 -2.0078600000000004 3.42188 -1.7891100000000004 3.42188 -1.5000500000000003 L 3.42188 -0.00005000000000032756 L 2.4375 -0.00005000000000032756 L 2.4375 -1.5938500000000004 C 2.4375 -1.9376000000000004 2.40625 -2.1563500000000007 2.34375 -2.2501000000000007 C 2.289062 -2.3438500000000007 2.1875 -2.390720000000001 2.03125 -2.390720000000001 C 1.84375 -2.390720000000001 1.69531 -2.312595000000001 1.59375 -2.156340000000001 C 1.5 -2.007900000000001 1.45313 -1.7891500000000011 1.45313 -1.500090000000001 L 1.45313 -0.0000900000000010337 L 0.46875 -0.0000900000000010337 L 0.46875 -3.062590000000001 L 1.45313 -3.062590000000001 L 1.45313 -2.609470000000001 C 1.56641 -2.785250000000001 1.70313 -2.9141600000000007 1.85938 -3.000090000000001 C 2.01563 -3.093840000000001 2.1875 -3.1407100000000012 2.375 -3.1407100000000012 C 2.58203 -3.1407100000000012 2.76562 -3.0860230000000013 2.92188 -2.9844600000000012 C 3.08594 -2.8789900000000013 3.2187599999999996 -2.7344600000000012 3.3125 -2.5469600000000012 z" stroke-linecap="round" />
</g>
		<g transform="matrix(1.3333333333 0 0 1.3333333333 -305.9947186667 299.6197346667)" id="YWiIQwXO5kLsQV2yH_Men"  >
<path style="stroke: none; stroke-width: 1; stroke-dasharray: none; stroke-linecap: butt; stroke-dashoffset: 0; stroke-linejoin: miter; stroke-miterlimit: 4; fill: rgb(0,0,0); fill-rule: nonzero; opacity: 1;" vector-effect="non-scaling-stroke"  transform=" translate(-2.10943, 2.08598)" d="M 2.0938 -0.625 C 2.30083 -0.625 2.46099 -0.703125 2.5781799999999997 -0.85938 C 2.6914599999999997 -1.01563 2.7500599999999995 -1.2382900000000001 2.7500599999999995 -1.53126 C 2.7500599999999995 -1.8203200000000002 2.6914659999999997 -2.03907 2.5781799999999997 -2.18751 C 2.46099 -2.34376 2.3008399999999996 -2.42189 2.0938 -2.42189 C 1.88286 -2.42189 1.72271 -2.343765 1.6094199999999999 -2.18751 C 1.50395 -2.03907 1.4531699999999999 -1.8203200000000002 1.4531699999999999 -1.53126 C 1.4531699999999999 -1.2382900000000001 1.5039509999999998 -1.01564 1.6094199999999999 -0.85938 C 1.7227 -0.70313 1.88286 -0.625 2.0938 -0.625 z M 1.45318 -2.6094 C 1.58599 -2.78518 1.73443 -2.91409 1.89068 -3.00002 C 2.05474 -3.09377 2.24224 -3.1406400000000003 2.4531799999999997 -3.1406400000000003 C 2.83599 -3.1406400000000003 3.14849 -2.9883 3.3906799999999997 -2.68752 C 3.6289599999999997 -2.3828300000000002 3.7500599999999995 -2.00002 3.7500599999999995 -1.5313200000000002 C 3.7500599999999995 -1.0508500000000003 3.6289699999999994 -0.6602300000000002 3.3906799999999997 -0.3594200000000003 C 3.14849 -0.06645000000000029 2.83599 0.0780799999999997 2.4531799999999997 0.0780799999999997 C 2.24224 0.0780799999999997 2.05474 0.035110999999999705 1.8906799999999997 -0.046920000000000295 C 1.7344299999999997 -0.12895100000000032 1.5859899999999998 -0.2578600000000003 1.4531799999999997 -0.4375400000000003 L 1.4531799999999997 -0.00004000000000031756 L 0.46879999999999966 -0.00004000000000031756 L 0.46879999999999966 -4.25004 L 1.4531799999999997 -4.25004 z" stroke-linecap="round" />
</g>
		<g transform="matrix(1.3333333333 0 0 1.3333333333 -300.901008 300.3594013333)" id="DzvsAkzUU90fgIwu_l4sL"  >
<path style="stroke: none; stroke-width: 1; stroke-dasharray: none; stroke-linecap: butt; stroke-dashoffset: 0; stroke-linejoin: miter; stroke-miterlimit: 4; fill: rgb(0,0,0); fill-rule: nonzero; opacity: 1;" vector-effect="non-scaling-stroke"  transform=" translate(-1.9219, 1.53123)" d="M 1.9219 -2.4375 C 1.70315 -2.4375 1.53518 -2.359375 1.4219 -2.20312 C 1.31643 -2.04687 1.26565 -1.82031 1.26565 -1.5312400000000002 C 1.26565 -1.2382700000000002 1.316431 -1.0156200000000002 1.4219 -0.8593600000000001 C 1.53518 -0.7031100000000001 1.70315 -0.6249800000000001 1.9219 -0.6249800000000001 C 2.14065 -0.6249800000000001 2.30081 -0.7031050000000001 2.4062799999999998 -0.8593600000000001 C 2.51956 -1.0156100000000001 2.5781599999999996 -1.2382700000000002 2.5781599999999996 -1.5312400000000002 C 2.5781599999999996 -1.8203 2.5195659999999998 -2.04686 2.4062799999999998 -2.20312 C 2.30081 -2.35937 2.1406599999999996 -2.4375 1.9218999999999997 -2.4375 z M 1.9219 -3.14062 C 2.45315 -3.14062 2.86331 -2.9921800000000003 3.1563 -2.70312 C 3.45708 -2.42187 3.60942 -2.0312400000000004 3.60942 -1.5312200000000002 C 3.60942 -1.0195000000000003 3.45708 -0.6249700000000002 3.1563 -0.34372000000000025 C 2.86333 -0.06247000000000025 2.4531799999999997 0.07815999999999973 1.9219 0.07815999999999973 C 1.39846 0.07815999999999973 0.9883099999999999 -0.062460000000000265 0.6875 -0.34372000000000025 C 0.38281 -0.6249700000000002 0.23437999999999998 -1.0195000000000003 0.23437999999999998 -1.5312200000000002 C 0.23437999999999998 -2.0312200000000002 0.38281999999999994 -2.4218400000000004 0.6875 -2.70312 C 0.98828 -2.9921800000000003 1.39844 -3.14062 1.9219 -3.14062 z" stroke-linecap="round" />
</g>
		<g transform="matrix(1.3333333333 0 0 1.3333333333 -294.348948 299.682308)" id="gjBeDe8oemu_2kjpKBVVb"  >
<path style="stroke: none; stroke-width: 1; stroke-dasharray: none; stroke-linecap: butt; stroke-dashoffset: 0; stroke-linejoin: miter; stroke-miterlimit: 4; fill: rgb(0,0,0); fill-rule: nonzero; opacity: 1;" vector-effect="non-scaling-stroke"  transform=" translate(-1.03907, 2.03905)" d="M 0.51562 -4.0781 L 1.56252 -4.0781 L 1.56252 0 L 0.51562 0 z" stroke-linecap="round" />
</g>
		<g transform="matrix(1.3333333333 0 0 1.3333333333 -290.8385586667 300.3593213333)" id="fR3FKXmEDMS-_INRBYf3Y"  >
<path style="stroke: none; stroke-width: 1; stroke-dasharray: none; stroke-linecap: butt; stroke-dashoffset: 0; stroke-linejoin: miter; stroke-miterlimit: 4; fill: rgb(0,0,0); fill-rule: nonzero; opacity: 1;" vector-effect="non-scaling-stroke"  transform=" translate(-1.585925, 1.53129)" d="M 2.9375 -2.9688 L 2.9375 -2.17192 C 2.8125 -2.2539510000000003 2.67969 -2.31645 2.54688 -2.35942 C 2.41016 -2.4102010000000003 2.2695399999999997 -2.437545 2.125 -2.437545 C 1.85156 -2.437545 1.64062 -2.351607 1.48438 -2.187545 C 1.3359400000000001 -2.031295 1.26563 -1.812545 1.26563 -1.531295 C 1.26563 -1.2383250000000001 1.335943 -1.015675 1.48438 -0.859415 C 1.64063 -0.703165 1.8515700000000002 -0.625035 2.125 -0.625035 C 2.28125 -0.625035 2.42578 -0.644566 2.5625 -0.687535 C 2.69531 -0.726597 2.82031 -0.796915 2.9375 -0.890655 L 2.9375 -0.09377499999999994 C 2.78906 -0.03127499999999994 2.63281 0.007785000000000056 2.46875 0.031225000000000058 C 2.3125 0.06247500000000006 2.15625 0.07810000000000006 2 0.07810000000000006 C 1.44531 0.07810000000000006 1.01562 -0.06251999999999994 0.7031000000000001 -0.3437799999999999 C 0.39058000000000015 -0.6250399999999999 0.23435000000000006 -1.01956 0.23435000000000006 -1.53128 C 0.23435000000000006 -2.0312799999999998 0.39060000000000006 -2.4219 0.7031000000000001 -2.7031799999999997 C 1.0156 -2.99224 1.44529 -3.1406799999999997 2 -3.1406799999999997 C 2.16406 -3.1406799999999997 2.32031 -3.1250549999999997 2.46875 -3.0938049999999997 C 2.625 -3.0625549999999997 2.78125 -3.019586 2.9375 -2.9688049999999997 z" stroke-linecap="round" />
</g>
		<g transform="matrix(1.3333333333 0 0 1.3333333333 -285.963508 300.3594013333)" id="dhFokDRvJbMOyIB3i_QuK"  >
<path style="stroke: none; stroke-width: 1; stroke-dasharray: none; stroke-linecap: butt; stroke-dashoffset: 0; stroke-linejoin: miter; stroke-miterlimit: 4; fill: rgb(0,0,0); fill-rule: nonzero; opacity: 1;" vector-effect="non-scaling-stroke"  transform=" translate(-1.9219, 1.53123)" d="M 1.9219 -2.4375 C 1.70315 -2.4375 1.53518 -2.359375 1.4219 -2.20312 C 1.31643 -2.04687 1.26565 -1.82031 1.26565 -1.5312400000000002 C 1.26565 -1.2382700000000002 1.316431 -1.0156200000000002 1.4219 -0.8593600000000001 C 1.53518 -0.7031100000000001 1.70315 -0.6249800000000001 1.9219 -0.6249800000000001 C 2.14065 -0.6249800000000001 2.30081 -0.7031050000000001 2.4062799999999998 -0.8593600000000001 C 2.51956 -1.0156100000000001 2.5781599999999996 -1.2382700000000002 2.5781599999999996 -1.5312400000000002 C 2.5781599999999996 -1.8203 2.5195659999999998 -2.04686 2.4062799999999998 -2.20312 C 2.30081 -2.35937 2.1406599999999996 -2.4375 1.9218999999999997 -2.4375 z M 1.9219 -3.14062 C 2.45315 -3.14062 2.86331 -2.9921800000000003 3.1563 -2.70312 C 3.45708 -2.42187 3.60942 -2.0312400000000004 3.60942 -1.5312200000000002 C 3.60942 -1.0195000000000003 3.45708 -0.6249700000000002 3.1563 -0.34372000000000025 C 2.86333 -0.06247000000000025 2.4531799999999997 0.07815999999999973 1.9219 0.07815999999999973 C 1.39846 0.07815999999999973 0.9883099999999999 -0.062460000000000265 0.6875 -0.34372000000000025 C 0.38281 -0.6249700000000002 0.23437999999999998 -1.0195000000000003 0.23437999999999998 -1.5312200000000002 C 0.23437999999999998 -2.0312200000000002 0.38281999999999994 -2.4218400000000004 0.6875 -2.70312 C 0.98828 -2.9921800000000003 1.39844 -3.14062 1.9219 -3.14062 z" stroke-linecap="round" />
</g>
		<g transform="matrix(1.3333333333 0 0 1.3333333333 -280.71873 300.3072813333)" id="JySHNmmh1tYraiGU32IMG"  >
<path style="stroke: none; stroke-width: 1; stroke-dasharray: none; stroke-linecap: butt; stroke-dashoffset: 0; stroke-linejoin: miter; stroke-miterlimit: 4; fill: rgb(0,0,0); fill-rule: nonzero; opacity: 1;" vector-effect="non-scaling-stroke"  transform=" translate(-2.0078275, 1.57032)" d="M 3.5469 -1.8594 L 3.5469 0 L 2.56252 0 L 2.56252 -1.4219 C 2.56252 -1.69143 2.554708 -1.87502 2.546895 -1.96878 C 2.5351760000000003 -2.07034 2.515645 -2.14456 2.484395 -2.1875299999999998 C 2.4414260000000003 -2.2500299999999998 2.390645 -2.2969099999999996 2.328145 -2.32815 C 2.265645 -2.367213 2.191425 -2.39065 2.109395 -2.39065 C 1.8984550000000002 -2.39065 1.7383050000000002 -2.312525 1.625015 -2.15627 C 1.5078250000000002 -2.00002 1.453135 -1.7812700000000001 1.453135 -1.5000200000000001 L 1.453135 -0.000020000000000131024 L 0.46875500000000003 -0.000020000000000131024 L 0.46875500000000003 -3.06252 L 1.453135 -3.06252 L 1.453135 -2.6094 C 1.5976650000000001 -2.78518 1.7539150000000001 -2.91409 1.921885 -3.00002 C 2.085945 -3.09377 2.269545 -3.1406400000000003 2.4687650000000003 -3.1406400000000003 C 2.8203250000000004 -3.1406400000000003 3.0859550000000002 -3.0312600000000005 3.265645 -2.81252 C 3.453145 -2.59377 3.546895 -2.27346 3.546895 -1.8594000000000002 z" stroke-linecap="round" />
</g>
		<g transform="matrix(1.3333333333 0 0 1.3333333333 -275.8437266667 300.3593046667)" id="F6C-jWZzXi25VEq6PZWfr"  >
<path style="stroke: none; stroke-width: 1; stroke-dasharray: none; stroke-linecap: butt; stroke-dashoffset: 0; stroke-linejoin: miter; stroke-miterlimit: 4; fill: rgb(0,0,0); fill-rule: nonzero; opacity: 1;" vector-effect="non-scaling-stroke"  transform=" translate(-1.679705, 1.5313025)" d="M 2.8594 -2.9688 L 2.8594 -2.2188 C 2.64846 -2.31255 2.44534 -2.3789599999999997 2.25002 -2.42192 C 2.06252 -2.460983 1.8789300000000002 -2.48442 1.70314 -2.48442 C 1.51564 -2.48442 1.3750200000000001 -2.4570760000000003 1.28126 -2.406295 C 1.195322 -2.3633260000000003 1.15626 -2.2969150000000003 1.15626 -2.203175 C 1.15626 -2.117238 1.18751 -2.054735 1.25001 -2.015675 C 1.320322 -1.9727059999999998 1.4453200000000002 -1.9414559999999998 1.62501 -1.9219249999999999 L 1.79689 -1.9062999999999999 C 2.2968900000000003 -1.8437999999999999 2.62892 -1.73833 2.7968900000000003 -1.5937999999999999 C 2.9726700000000004 -1.44536 3.0625100000000005 -1.2187999999999999 3.0625100000000005 -0.9062999999999999 C 3.0625100000000005 -0.5703599999999999 2.9414200000000004 -0.32035999999999987 2.7031300000000007 -0.15629999999999988 C 2.460940000000001 -0.00004999999999988347 2.1015700000000006 0.07808000000000012 1.6250300000000006 0.07808000000000012 C 1.4258100000000007 0.07808000000000012 1.2187800000000006 0.06245500000000012 1.0000300000000006 0.03120500000000012 C 0.7812800000000006 -0.00004499999999987847 0.5625300000000006 -0.04691999999999988 0.34378000000000064 -0.10941499999999987 L 0.34378000000000064 -0.8594149999999998 C 0.5312800000000006 -0.7656649999999998 0.7265900000000006 -0.6914449999999999 0.9375300000000006 -0.6406649999999998 C 1.1445600000000007 -0.5976959999999998 1.3515900000000007 -0.5781649999999998 1.5625300000000006 -0.5781649999999998 C 1.7500300000000006 -0.5781649999999998 1.8906500000000006 -0.6016019999999999 1.9844100000000007 -0.6562899999999998 C 2.0859700000000005 -0.7070709999999998 2.1406600000000005 -0.7851999999999998 2.1406600000000005 -0.8906699999999999 C 2.1406600000000005 -0.9727009999999998 2.1015970000000004 -1.0352 2.0312800000000006 -1.0781699999999999 C 1.9687800000000006 -1.117233 1.8359700000000005 -1.1562949999999999 1.6406600000000007 -1.1875499999999999 L 1.4687800000000006 -1.2031749999999999 C 1.0312800000000006 -1.2539559999999998 0.7226900000000006 -1.3516149999999998 0.5469000000000006 -1.500055 C 0.3789300000000006 -1.644585 0.2969000000000006 -1.867245 0.2969000000000006 -2.171935 C 0.2969000000000006 -2.492245 0.40628000000000064 -2.734435 0.6250200000000006 -2.890685 C 0.8437700000000006 -3.054745 1.1797100000000005 -3.140685 1.6406200000000006 -3.140685 C 1.8281200000000006 -3.140685 2.0195300000000005 -3.12506 2.2187400000000004 -3.09381 C 2.4140500000000005 -3.06256 2.6289000000000002 -3.019591 2.8593600000000006 -2.96881 z" stroke-linecap="round" />
</g>
		<g transform="matrix(1.3333333333 0 0 1.3333333333 -371.6041433333 307.0312426667)" id="MZy7Q6m3iz1oEFwDUYYf8"  >
<path style="stroke: none; stroke-width: 1; stroke-dasharray: none; stroke-linecap: butt; stroke-dashoffset: 0; stroke-linejoin: miter; stroke-miterlimit: 4; fill: rgb(0,0,0); fill-rule: nonzero; opacity: 1;" vector-effect="non-scaling-stroke"  transform=" translate(-1.2968925, 2.125005)" d="M 2.4844 -4.25 L 2.4844 -3.60938 L 1.93752 -3.60938 C 1.8008 -3.60938 1.70705 -3.582036 1.65627 -3.531255 C 1.6015819999999998 -3.4765669999999997 1.578145 -3.3906349999999996 1.578145 -3.2656349999999996 L 1.578145 -3.0625149999999994 L 2.406265 -3.0625149999999994 L 2.406265 -2.3593949999999992 L 1.578145 -2.3593949999999992 L 1.578145 0.00000500000000069889 L 0.5937649999999999 0.00000500000000069889 L 0.5937649999999999 -2.3593949999999992 L 0.1093849999999999 -2.3593949999999992 L 0.1093849999999999 -3.0625149999999994 L 0.5937649999999999 -3.0625149999999994 L 0.5937649999999999 -3.2656349999999996 C 0.5937649999999999 -3.5976649999999997 0.6875149999999999 -3.843755 0.8750149999999999 -4.000014999999999 C 1.0625149999999999 -4.1640749999999995 1.347675 -4.250014999999999 1.734395 -4.250014999999999 z" stroke-linecap="round" />
</g>
		<g transform="matrix(1.3333333333 0 0 1.3333333333 -367.9374933333 307.7707026667)" id="VlGrEsuSsd2v7huo0uzrx"  >
<path style="stroke: none; stroke-width: 1; stroke-dasharray: none; stroke-linecap: butt; stroke-dashoffset: 0; stroke-linejoin: miter; stroke-miterlimit: 4; fill: rgb(0,0,0); fill-rule: nonzero; opacity: 1;" vector-effect="non-scaling-stroke"  transform=" translate(-1.60938, 1.57041)" d="M 2.75 -2.2188 C 2.65625 -2.257862 2.56641 -2.289112 2.48438 -2.31255 C 2.398443 -2.332081 2.31641 -2.3438 2.23438 -2.3438 C 1.9843799999999998 -2.3438 1.7890699999999997 -2.257862 1.6562599999999998 -2.0938 C 1.51954 -1.9375499999999999 1.4531399999999999 -1.70708 1.4531399999999999 -1.4062999999999999 L 1.4531399999999999 -0.00009999999999998899 L 0.46875999999999984 -0.00009999999999998899 L 0.46875999999999984 -3.0625999999999998 L 1.4531399999999999 -3.0625999999999998 L 1.4531399999999999 -2.5625999999999998 C 1.5781399999999999 -2.75791 1.7187599999999998 -2.9063499999999998 1.87502 -3.0000999999999998 C 2.03908 -3.0938499999999998 2.2382999999999997 -3.14072 2.46877 -3.14072 C 2.50002 -3.14072 2.53127 -3.132907 2.56252 -3.125095 C 2.601582 -3.125095 2.6601760000000003 -3.117283 2.7344 -3.10947 z" stroke-linecap="round" />
</g>
		<g transform="matrix(1.3333333333 0 0 1.3333333333 -363.838508 307.8229426667)" id="vdpJJwAFw60rpiQkHeXIb"  >
<path style="stroke: none; stroke-width: 1; stroke-dasharray: none; stroke-linecap: butt; stroke-dashoffset: 0; stroke-linejoin: miter; stroke-miterlimit: 4; fill: rgb(0,0,0); fill-rule: nonzero; opacity: 1;" vector-effect="non-scaling-stroke"  transform=" translate(-1.9219, 1.53123)" d="M 1.9219 -2.4375 C 1.70315 -2.4375 1.53518 -2.359375 1.4219 -2.20312 C 1.31643 -2.04687 1.26565 -1.82031 1.26565 -1.5312400000000002 C 1.26565 -1.2382700000000002 1.316431 -1.0156200000000002 1.4219 -0.8593600000000001 C 1.53518 -0.7031100000000001 1.70315 -0.6249800000000001 1.9219 -0.6249800000000001 C 2.14065 -0.6249800000000001 2.30081 -0.7031050000000001 2.4062799999999998 -0.8593600000000001 C 2.51956 -1.0156100000000001 2.5781599999999996 -1.2382700000000002 2.5781599999999996 -1.5312400000000002 C 2.5781599999999996 -1.8203 2.5195659999999998 -2.04686 2.4062799999999998 -2.20312 C 2.30081 -2.35937 2.1406599999999996 -2.4375 1.9218999999999997 -2.4375 z M 1.9219 -3.14062 C 2.45315 -3.14062 2.86331 -2.9921800000000003 3.1563 -2.70312 C 3.45708 -2.42187 3.60942 -2.0312400000000004 3.60942 -1.5312200000000002 C 3.60942 -1.0195000000000003 3.45708 -0.6249700000000002 3.1563 -0.34372000000000025 C 2.86333 -0.06247000000000025 2.4531799999999997 0.07815999999999973 1.9219 0.07815999999999973 C 1.39846 0.07815999999999973 0.9883099999999999 -0.062460000000000265 0.6875 -0.34372000000000025 C 0.38281 -0.6249700000000002 0.23437999999999998 -1.0195000000000003 0.23437999999999998 -1.5312200000000002 C 0.23437999999999998 -2.0312200000000002 0.38281999999999994 -2.4218400000000004 0.6875 -2.70312 C 0.98828 -2.9921800000000003 1.39844 -3.14062 1.9219 -3.14062 z" stroke-linecap="round" />
</g>
		<g transform="matrix(1.3333333333 0 0 1.3333333333 -357.36458 307.7707693333)" id="D2kIDwSgK_nt-ZiHNtjuE"  >
<path style="stroke: none; stroke-width: 1; stroke-dasharray: none; stroke-linecap: butt; stroke-dashoffset: 0; stroke-linejoin: miter; stroke-miterlimit: 4; fill: rgb(0,0,0); fill-rule: nonzero; opacity: 1;" vector-effect="non-scaling-stroke"  transform=" translate(-2.92969, 1.57036)" d="M 3.3125 -2.5469 C 3.42578 -2.7344 3.56641 -2.87893 3.73438 -2.9844 C 3.91016 -3.08596 4.10157 -3.14065 4.3125 -3.14065 C 4.65625 -3.14065 4.92188 -3.03127 5.10938 -2.8125299999999998 C 5.29688 -2.5937899999999994 5.39063 -2.2734699999999997 5.39063 -1.8594099999999998 L 5.39063 -0.000009999999999843467 L 4.40625 -0.000009999999999843467 L 4.40625 -1.59381 L 4.40625 -1.65631 L 4.40625 -1.78131 C 4.40625 -2.00006 4.375 -2.15631 4.3125 -2.25006 C 4.25 -2.34381 4.14453 -2.39068 4 -2.39068 C 3.8125 -2.39068 3.66406 -2.312555 3.5625 -2.1563000000000003 C 3.46875 -2.0078600000000004 3.42188 -1.7891100000000004 3.42188 -1.5000500000000003 L 3.42188 -0.00005000000000032756 L 2.4375 -0.00005000000000032756 L 2.4375 -1.5938500000000004 C 2.4375 -1.9376000000000004 2.40625 -2.1563500000000007 2.34375 -2.2501000000000007 C 2.289062 -2.3438500000000007 2.1875 -2.390720000000001 2.03125 -2.390720000000001 C 1.84375 -2.390720000000001 1.69531 -2.312595000000001 1.59375 -2.156340000000001 C 1.5 -2.007900000000001 1.45313 -1.7891500000000011 1.45313 -1.500090000000001 L 1.45313 -0.0000900000000010337 L 0.46875 -0.0000900000000010337 L 0.46875 -3.062590000000001 L 1.45313 -3.062590000000001 L 1.45313 -2.609470000000001 C 1.56641 -2.785250000000001 1.70313 -2.9141600000000007 1.85938 -3.000090000000001 C 2.01563 -3.093840000000001 2.1875 -3.1407100000000012 2.375 -3.1407100000000012 C 2.58203 -3.1407100000000012 2.76562 -3.0860230000000013 2.92188 -2.9844600000000012 C 3.08594 -2.8789900000000013 3.2187599999999996 -2.7344600000000012 3.3125 -2.5469600000000012 z" stroke-linecap="round" />
</g>
		<g transform="matrix(1.3333333333 0 0 1.3333333333 -349.1459166667 307.2499826667)" id="EqHcKXDGIE3Tx0qQQXaWL"  >
<path style="stroke: none; stroke-width: 1; stroke-dasharray: none; stroke-linecap: butt; stroke-dashoffset: 0; stroke-linejoin: miter; stroke-miterlimit: 4; fill: rgb(0,0,0); fill-rule: nonzero; opacity: 1;" vector-effect="non-scaling-stroke"  transform=" translate(-1.3124375, 1.96095)" d="M 1.5312 -3.9219 L 1.5312 -3.06252 L 2.5468 -3.06252 L 2.5468 -2.3594 L 1.5312000000000001 -2.3594 L 1.5312000000000001 -1.0625 C 1.5312000000000001 -0.91406 1.5546380000000002 -0.81641 1.6093250000000001 -0.76562 C 1.6718250000000001 -0.7226509999999999 1.7851050000000002 -0.70312 1.9530750000000001 -0.70312 L 2.453075 -0.70312 L 2.453075 0 L 1.6249550000000001 0 C 1.2382350000000002 0 0.9608950000000002 -0.078125 0.7968350000000002 -0.23438 C 0.6405850000000002 -0.39844 0.5624550000000001 -0.67579 0.5624550000000001 -1.0625 L 0.5624550000000001 -2.3594 L 0.07807500000000017 -2.3594 L 0.07807500000000017 -3.06252 L 0.5624550000000001 -3.06252 L 0.5624550000000001 -3.9219 z" stroke-linecap="round" />
</g>
		<g transform="matrix(1.3333333333 0 0 1.3333333333 -344.645814 307.031236)" id="Oxbc9VkqWx_UrpWcaP-4K"  >
<path style="stroke: none; stroke-width: 1; stroke-dasharray: none; stroke-linecap: butt; stroke-dashoffset: 0; stroke-linejoin: miter; stroke-miterlimit: 4; fill: rgb(0,0,0); fill-rule: nonzero; opacity: 1;" vector-effect="non-scaling-stroke"  transform=" translate(-2.0078275, 2.12501)" d="M 3.5469 -1.8594 L 3.5469 0 L 2.56252 0 L 2.56252 -1.4219 C 2.56252 -1.69143 2.554708 -1.87502 2.546895 -1.96878 C 2.5351760000000003 -2.07034 2.515645 -2.14456 2.484395 -2.1875299999999998 C 2.4414260000000003 -2.2500299999999998 2.390645 -2.2969099999999996 2.328145 -2.32815 C 2.265645 -2.367213 2.191425 -2.39065 2.109395 -2.39065 C 1.8984550000000002 -2.39065 1.7383050000000002 -2.312525 1.625015 -2.15627 C 1.5078250000000002 -2.00002 1.453135 -1.7812700000000001 1.453135 -1.5000200000000001 L 1.453135 -0.000020000000000131024 L 0.46875500000000003 -0.000020000000000131024 L 0.46875500000000003 -4.25002 L 1.453135 -4.25002 L 1.453135 -2.60942 C 1.5976650000000001 -2.7852 1.7539150000000001 -2.91411 1.921885 -3.0000400000000003 C 2.085945 -3.0937900000000003 2.269545 -3.1406600000000005 2.4687650000000003 -3.1406600000000005 C 2.8203250000000004 -3.1406600000000005 3.0859550000000002 -3.0312800000000006 3.265645 -2.8125400000000003 C 3.453145 -2.5937900000000003 3.546895 -2.27348 3.546895 -1.8594200000000003 z" stroke-linecap="round" />
</g>
		<g transform="matrix(1.3333333333 0 0 1.3333333333 -339.510416 307.8229493333)" id="Rhr-DUFQn2EhAAESNqDF8"  >
<path style="stroke: none; stroke-width: 1; stroke-dasharray: none; stroke-linecap: butt; stroke-dashoffset: 0; stroke-linejoin: miter; stroke-miterlimit: 4; fill: rgb(0,0,0); fill-rule: nonzero; opacity: 1;" vector-effect="non-scaling-stroke"  transform=" translate(-1.875, 1.531225)" d="M 3.5156 -1.5312 L 3.5156 -1.26558 L 1.2344 -1.26558 C 1.253931 -1.03511 1.33596 -0.86324 1.4844 -0.74996 C 1.62893 -0.6327699999999999 1.82815 -0.5780799999999999 2.07815 -0.5780799999999999 C 2.28518 -0.5780799999999999 2.49221 -0.601517 2.70315 -0.6562049999999999 C 2.9219 -0.7187049999999999 3.14456 -0.8124549999999999 3.3750299999999998 -0.9374549999999999 L 3.3750299999999998 -0.18745499999999993 C 3.14456 -0.09370499999999993 2.91409 -0.023394999999999916 2.6875299999999998 0.015665000000000068 C 2.45706 0.05472700000000007 2.2226899999999996 0.07816500000000007 1.9844099999999998 0.07816500000000007 C 1.4297199999999997 0.07816500000000007 1.0000299999999998 -0.06245499999999993 0.6875099999999998 -0.3437149999999999 C 0.3828199999999998 -0.6249649999999999 0.23438999999999982 -1.019495 0.23438999999999982 -1.531215 C 0.23438999999999982 -2.031215 0.3828299999999998 -2.4218349999999997 0.6875099999999998 -2.703115 C 0.9882899999999999 -2.992175 1.4062599999999998 -3.140615 1.9375099999999998 -3.140615 C 2.4140699999999997 -3.140615 2.79689 -2.992175 3.0781099999999997 -2.703115 C 3.3671699999999998 -2.410145 3.5156099999999997 -2.019525 3.5156099999999997 -1.531215 z M 2.5156 -1.8593199999999999 C 2.5156 -2.04682 2.4570060000000002 -2.1952599999999998 2.3437200000000002 -2.31244 C 2.2382500000000003 -2.42572 2.1015300000000003 -2.48432 1.9374700000000002 -2.48432 C 1.7382500000000003 -2.48432 1.5820000000000003 -2.425726 1.4687200000000002 -2.31244 C 1.3515300000000003 -2.20697 1.2812200000000002 -2.05463 1.2499700000000002 -1.85932 z" stroke-linecap="round" />
</g>
		<g transform="matrix(1.3333333333 0 0 1.3333333333 -331.2187226667 307.1458493333)" id="Ish6ovnVMyUaYkU7BgMAQ"  >
<path style="stroke: none; stroke-width: 1; stroke-dasharray: none; stroke-linecap: butt; stroke-dashoffset: 0; stroke-linejoin: miter; stroke-miterlimit: 4; fill: rgb(0,0,0); fill-rule: nonzero; opacity: 1;" vector-effect="non-scaling-stroke"  transform=" translate(-2.34377, 2.03905)" d="M 0.51562 -4.0781 L 1.68752 -4.0781 L 3.17192 -1.2812000000000001 L 3.17192 -4.0781 L 4.17192 -4.0781 L 4.17192 0 L 3.00002 0 L 1.5156200000000002 -2.7969 L 1.5156200000000002 0 L 0.5156200000000002 0 z" stroke-linecap="round" />
</g>
		<g transform="matrix(1.3333333333 0 0 1.3333333333 -325.531216 307.8229426667)" id="Brtenv5kklohLHw-IPCbG"  >
<path style="stroke: none; stroke-width: 1; stroke-dasharray: none; stroke-linecap: butt; stroke-dashoffset: 0; stroke-linejoin: miter; stroke-miterlimit: 4; fill: rgb(0,0,0); fill-rule: nonzero; opacity: 1;" vector-effect="non-scaling-stroke"  transform=" translate(-1.9219, 1.53123)" d="M 1.9219 -2.4375 C 1.70315 -2.4375 1.53518 -2.359375 1.4219 -2.20312 C 1.31643 -2.04687 1.26565 -1.82031 1.26565 -1.5312400000000002 C 1.26565 -1.2382700000000002 1.316431 -1.0156200000000002 1.4219 -0.8593600000000001 C 1.53518 -0.7031100000000001 1.70315 -0.6249800000000001 1.9219 -0.6249800000000001 C 2.14065 -0.6249800000000001 2.30081 -0.7031050000000001 2.4062799999999998 -0.8593600000000001 C 2.51956 -1.0156100000000001 2.5781599999999996 -1.2382700000000002 2.5781599999999996 -1.5312400000000002 C 2.5781599999999996 -1.8203 2.5195659999999998 -2.04686 2.4062799999999998 -2.20312 C 2.30081 -2.35937 2.1406599999999996 -2.4375 1.9218999999999997 -2.4375 z M 1.9219 -3.14062 C 2.45315 -3.14062 2.86331 -2.9921800000000003 3.1563 -2.70312 C 3.45708 -2.42187 3.60942 -2.0312400000000004 3.60942 -1.5312200000000002 C 3.60942 -1.0195000000000003 3.45708 -0.6249700000000002 3.1563 -0.34372000000000025 C 2.86333 -0.06247000000000025 2.4531799999999997 0.07815999999999973 1.9219 0.07815999999999973 C 1.39846 0.07815999999999973 0.9883099999999999 -0.062460000000000265 0.6875 -0.34372000000000025 C 0.38281 -0.6249700000000002 0.23437999999999998 -1.0195000000000003 0.23437999999999998 -1.5312200000000002 C 0.23437999999999998 -2.0312200000000002 0.38281999999999994 -2.4218400000000004 0.6875 -2.70312 C 0.98828 -2.9921800000000003 1.39844 -3.14062 1.9219 -3.14062 z" stroke-linecap="round" />
</g>
		<g transform="matrix(1.3333333333 0 0 1.3333333333 -320.3333193333 307.8750126667)" id="8ldBL4YdavgPudYZXi6b5"  >
<path style="stroke: none; stroke-width: 1; stroke-dasharray: none; stroke-linecap: butt; stroke-dashoffset: 0; stroke-linejoin: miter; stroke-miterlimit: 4; fill: rgb(0,0,0); fill-rule: nonzero; opacity: 1;" vector-effect="non-scaling-stroke"  transform=" translate(-1.9765725, 1.4921775)" d="M 0.4375 -1.1875 L 0.4375 -3.0625 L 1.42188 -3.0625 L 1.42188 -2.75 L 1.42188 -2.125 L 1.42188 -1.625 C 1.42188 -1.38281 1.425786 -1.20703 1.437505 -1.09375 C 1.445317 -0.98828 1.468755 -0.91016 1.500005 -0.85937 C 1.539067 -0.79687 1.593755 -0.74218 1.656255 -0.70312 C 1.718755 -0.67187 1.7890650000000001 -0.656245 1.875005 -0.656245 C 2.082035 -0.656245 2.242195 -0.73437 2.359385 -0.890625 C 2.472665 -1.046875 2.531265 -1.265625 2.531265 -1.546875 L 2.531265 -3.062475 L 3.515645 -3.062475 L 3.515645 0.000024999999999941735 L 2.5312650000000003 0.000024999999999941735 L 2.5312650000000003 -0.43747500000000006 C 2.3828250000000004 -0.25778500000000004 2.2265750000000004 -0.12888500000000008 2.0625150000000003 -0.046855000000000036 C 1.8945450000000004 0.03517599999999997 1.7109550000000002 0.07814499999999996 1.5156350000000003 0.07814499999999996 C 1.1601650000000003 0.07814499999999996 0.8906350000000003 -0.03123500000000004 0.7031350000000003 -0.24997500000000006 C 0.5234450000000003 -0.46872500000000006 0.43751500000000026 -0.7812250000000001 0.43751500000000026 -1.187475 z" stroke-linecap="round" />
</g>
		<g transform="matrix(1.3333333333 0 0 1.3333333333 -314.973938 307.7708226667)" id="350eVpALBepC-3r9jAR3P"  >
<path style="stroke: none; stroke-width: 1; stroke-dasharray: none; stroke-linecap: butt; stroke-dashoffset: 0; stroke-linejoin: miter; stroke-miterlimit: 4; fill: rgb(0,0,0); fill-rule: nonzero; opacity: 1;" vector-effect="non-scaling-stroke"  transform=" translate(-2.0078275, 1.57032)" d="M 3.5469 -1.8594 L 3.5469 0 L 2.56252 0 L 2.56252 -1.4219 C 2.56252 -1.69143 2.554708 -1.87502 2.546895 -1.96878 C 2.5351760000000003 -2.07034 2.515645 -2.14456 2.484395 -2.1875299999999998 C 2.4414260000000003 -2.2500299999999998 2.390645 -2.2969099999999996 2.328145 -2.32815 C 2.265645 -2.367213 2.191425 -2.39065 2.109395 -2.39065 C 1.8984550000000002 -2.39065 1.7383050000000002 -2.312525 1.625015 -2.15627 C 1.5078250000000002 -2.00002 1.453135 -1.7812700000000001 1.453135 -1.5000200000000001 L 1.453135 -0.000020000000000131024 L 0.46875500000000003 -0.000020000000000131024 L 0.46875500000000003 -3.06252 L 1.453135 -3.06252 L 1.453135 -2.6094 C 1.5976650000000001 -2.78518 1.7539150000000001 -2.91409 1.921885 -3.00002 C 2.085945 -3.09377 2.269545 -3.1406400000000003 2.4687650000000003 -3.1406400000000003 C 2.8203250000000004 -3.1406400000000003 3.0859550000000002 -3.0312600000000005 3.265645 -2.81252 C 3.453145 -2.59377 3.546895 -2.27346 3.546895 -1.8594000000000002 z" stroke-linecap="round" />
</g>
		<g transform="matrix(1.3333333333 0 0 1.3333333333 -306.807308 307.1458893333)" id="G3mNesD3gwtVkzg4ynE32"  >
<path style="stroke: none; stroke-width: 1; stroke-dasharray: none; stroke-linecap: butt; stroke-dashoffset: 0; stroke-linejoin: miter; stroke-miterlimit: 4; fill: rgb(0,0,0); fill-rule: nonzero; opacity: 1;" vector-effect="non-scaling-stroke"  transform=" translate(-2.1953, 2.03902)" d="M 0.51562 -4.0781 L 2.26562 -4.0781 C 2.7734300000000003 -4.0781 3.17187 -3.96091 3.45312 -3.73435 C 3.73437 -3.50388 3.875 -3.17576 3.875 -2.7499700000000002 C 3.875 -2.3202800000000003 3.73438 -1.9921600000000002 3.45312 -1.7655900000000002 C 3.17187 -1.5351200000000003 2.7734300000000003 -1.4218400000000002 2.26562 -1.4218400000000002 L 1.5625000000000002 -1.4218400000000002 L 1.5625000000000002 0.00005999999999972694 L 0.5156000000000003 0.00005999999999972694 z M 1.56252 -3.31248 L 1.56252 -2.17188 L 2.14064 -2.17188 C 2.34767 -2.17188 2.50392 -2.218755 2.60939 -2.3125 C 2.72267 -2.41406 2.7812699999999997 -2.5625 2.7812699999999997 -2.75 C 2.7812699999999997 -2.92578 2.722676 -3.0625 2.60939 -3.15625 C 2.50392 -3.25781 2.34767 -3.3125 2.14064 -3.3125 z" stroke-linecap="round" />
</g>
		<g transform="matrix(1.3333333333 0 0 1.3333333333 -302.1197853333 307.7707026667)" id="xhQOdeXyiMejPMmA3Kl1N"  >
<path style="stroke: none; stroke-width: 1; stroke-dasharray: none; stroke-linecap: butt; stroke-dashoffset: 0; stroke-linejoin: miter; stroke-miterlimit: 4; fill: rgb(0,0,0); fill-rule: nonzero; opacity: 1;" vector-effect="non-scaling-stroke"  transform=" translate(-1.60938, 1.57041)" d="M 2.75 -2.2188 C 2.65625 -2.257862 2.56641 -2.289112 2.48438 -2.31255 C 2.398443 -2.332081 2.31641 -2.3438 2.23438 -2.3438 C 1.9843799999999998 -2.3438 1.7890699999999997 -2.257862 1.6562599999999998 -2.0938 C 1.51954 -1.9375499999999999 1.4531399999999999 -1.70708 1.4531399999999999 -1.4062999999999999 L 1.4531399999999999 -0.00009999999999998899 L 0.46875999999999984 -0.00009999999999998899 L 0.46875999999999984 -3.0625999999999998 L 1.4531399999999999 -3.0625999999999998 L 1.4531399999999999 -2.5625999999999998 C 1.5781399999999999 -2.75791 1.7187599999999998 -2.9063499999999998 1.87502 -3.0000999999999998 C 2.03908 -3.0938499999999998 2.2382999999999997 -3.14072 2.46877 -3.14072 C 2.50002 -3.14072 2.53127 -3.132907 2.56252 -3.125095 C 2.601582 -3.125095 2.6601760000000003 -3.117283 2.7344 -3.10947 z" stroke-linecap="round" />
</g>
		<g transform="matrix(1.3333333333 0 0 1.3333333333 -298.0208 307.8229426667)" id="pRdgdpXJXOSOZ_JvHxFyW"  >
<path style="stroke: none; stroke-width: 1; stroke-dasharray: none; stroke-linecap: butt; stroke-dashoffset: 0; stroke-linejoin: miter; stroke-miterlimit: 4; fill: rgb(0,0,0); fill-rule: nonzero; opacity: 1;" vector-effect="non-scaling-stroke"  transform=" translate(-1.9219, 1.53123)" d="M 1.9219 -2.4375 C 1.70315 -2.4375 1.53518 -2.359375 1.4219 -2.20312 C 1.31643 -2.04687 1.26565 -1.82031 1.26565 -1.5312400000000002 C 1.26565 -1.2382700000000002 1.316431 -1.0156200000000002 1.4219 -0.8593600000000001 C 1.53518 -0.7031100000000001 1.70315 -0.6249800000000001 1.9219 -0.6249800000000001 C 2.14065 -0.6249800000000001 2.30081 -0.7031050000000001 2.4062799999999998 -0.8593600000000001 C 2.51956 -1.0156100000000001 2.5781599999999996 -1.2382700000000002 2.5781599999999996 -1.5312400000000002 C 2.5781599999999996 -1.8203 2.5195659999999998 -2.04686 2.4062799999999998 -2.20312 C 2.30081 -2.35937 2.1406599999999996 -2.4375 1.9218999999999997 -2.4375 z M 1.9219 -3.14062 C 2.45315 -3.14062 2.86331 -2.9921800000000003 3.1563 -2.70312 C 3.45708 -2.42187 3.60942 -2.0312400000000004 3.60942 -1.5312200000000002 C 3.60942 -1.0195000000000003 3.45708 -0.6249700000000002 3.1563 -0.34372000000000025 C 2.86333 -0.06247000000000025 2.4531799999999997 0.07815999999999973 1.9219 0.07815999999999973 C 1.39846 0.07815999999999973 0.9883099999999999 -0.062460000000000265 0.6875 -0.34372000000000025 C 0.38281 -0.6249700000000002 0.23437999999999998 -1.0195000000000003 0.23437999999999998 -1.5312200000000002 C 0.23437999999999998 -2.0312200000000002 0.38281999999999994 -2.4218400000000004 0.6875 -2.70312 C 0.98828 -2.9921800000000003 1.39844 -3.14062 1.9219 -3.14062 z" stroke-linecap="round" />
</g>
		<g transform="matrix(1.3333333333 0 0 1.3333333333 -294.6093786667 307.833316)" id="WSSjysyL_wnKttcIekFMf"  >
<path style="stroke: none; stroke-width: 1; stroke-dasharray: none; stroke-linecap: butt; stroke-dashoffset: 0; stroke-linejoin: miter; stroke-miterlimit: 4; fill: rgb(0,0,0); fill-rule: nonzero; opacity: 1;" vector-effect="non-scaling-stroke"  transform=" translate(-0.63281, 1.52345)" d="M 0.46875 -3.0625 L 1.45313 -3.0625 L 1.45313 -0.04689999999999994 C 1.45313 0.35935000000000006 1.35157 0.6640400000000001 1.15625 0.8749800000000001 C 0.95703 1.09373 0.67187 1.2031 0.29686999999999997 1.2031 L -0.18751 1.2031 L -0.18751 0.5624800000000001 L -0.015630000000000005 0.5624800000000001 C 0.17187 0.5624800000000001 0.29686999999999997 0.5195110000000001 0.35936999999999997 0.4374800000000001 C 0.429683 0.3515420000000001 0.46875 0.1913900000000001 0.46875 -0.046899999999999886 z M 0.46875 -4.25 L 1.45313 -4.25 L 1.45313 -3.45312 L 0.46875 -3.45312 z" stroke-linecap="round" />
</g>
		<g transform="matrix(1.3333333333 0 0 1.3333333333 -290.3906253333 307.8229493333)" id="6CJ7LXKpcBcrPzfVGBkm_"  >
<path style="stroke: none; stroke-width: 1; stroke-dasharray: none; stroke-linecap: butt; stroke-dashoffset: 0; stroke-linejoin: miter; stroke-miterlimit: 4; fill: rgb(0,0,0); fill-rule: nonzero; opacity: 1;" vector-effect="non-scaling-stroke"  transform=" translate(-1.875, 1.531225)" d="M 3.5156 -1.5312 L 3.5156 -1.26558 L 1.2344 -1.26558 C 1.253931 -1.03511 1.33596 -0.86324 1.4844 -0.74996 C 1.62893 -0.6327699999999999 1.82815 -0.5780799999999999 2.07815 -0.5780799999999999 C 2.28518 -0.5780799999999999 2.49221 -0.601517 2.70315 -0.6562049999999999 C 2.9219 -0.7187049999999999 3.14456 -0.8124549999999999 3.3750299999999998 -0.9374549999999999 L 3.3750299999999998 -0.18745499999999993 C 3.14456 -0.09370499999999993 2.91409 -0.023394999999999916 2.6875299999999998 0.015665000000000068 C 2.45706 0.05472700000000007 2.2226899999999996 0.07816500000000007 1.9844099999999998 0.07816500000000007 C 1.4297199999999997 0.07816500000000007 1.0000299999999998 -0.06245499999999993 0.6875099999999998 -0.3437149999999999 C 0.3828199999999998 -0.6249649999999999 0.23438999999999982 -1.019495 0.23438999999999982 -1.531215 C 0.23438999999999982 -2.031215 0.3828299999999998 -2.4218349999999997 0.6875099999999998 -2.703115 C 0.9882899999999999 -2.992175 1.4062599999999998 -3.140615 1.9375099999999998 -3.140615 C 2.4140699999999997 -3.140615 2.79689 -2.992175 3.0781099999999997 -2.703115 C 3.3671699999999998 -2.410145 3.5156099999999997 -2.019525 3.5156099999999997 -1.531215 z M 2.5156 -1.8593199999999999 C 2.5156 -2.04682 2.4570060000000002 -2.1952599999999998 2.3437200000000002 -2.31244 C 2.2382500000000003 -2.42572 2.1015300000000003 -2.48432 1.9374700000000002 -2.48432 C 1.7382500000000003 -2.48432 1.5820000000000003 -2.425726 1.4687200000000002 -2.31244 C 1.3515300000000003 -2.20697 1.2812200000000002 -2.05463 1.2499700000000002 -1.85932 z" stroke-linecap="round" />
</g>
		<g transform="matrix(1.3333333333 0 0 1.3333333333 -285.7135586667 307.8228626667)" id="rZHhCq5gM010nJxvhCcnv"  >
<path style="stroke: none; stroke-width: 1; stroke-dasharray: none; stroke-linecap: butt; stroke-dashoffset: 0; stroke-linejoin: miter; stroke-miterlimit: 4; fill: rgb(0,0,0); fill-rule: nonzero; opacity: 1;" vector-effect="non-scaling-stroke"  transform=" translate(-1.585925, 1.53129)" d="M 2.9375 -2.9688 L 2.9375 -2.17192 C 2.8125 -2.2539510000000003 2.67969 -2.31645 2.54688 -2.35942 C 2.41016 -2.4102010000000003 2.2695399999999997 -2.437545 2.125 -2.437545 C 1.85156 -2.437545 1.64062 -2.351607 1.48438 -2.187545 C 1.3359400000000001 -2.031295 1.26563 -1.812545 1.26563 -1.531295 C 1.26563 -1.2383250000000001 1.335943 -1.015675 1.48438 -0.859415 C 1.64063 -0.703165 1.8515700000000002 -0.625035 2.125 -0.625035 C 2.28125 -0.625035 2.42578 -0.644566 2.5625 -0.687535 C 2.69531 -0.726597 2.82031 -0.796915 2.9375 -0.890655 L 2.9375 -0.09377499999999994 C 2.78906 -0.03127499999999994 2.63281 0.007785000000000056 2.46875 0.031225000000000058 C 2.3125 0.06247500000000006 2.15625 0.07810000000000006 2 0.07810000000000006 C 1.44531 0.07810000000000006 1.01562 -0.06251999999999994 0.7031000000000001 -0.3437799999999999 C 0.39058000000000015 -0.6250399999999999 0.23435000000000006 -1.01956 0.23435000000000006 -1.53128 C 0.23435000000000006 -2.0312799999999998 0.39060000000000006 -2.4219 0.7031000000000001 -2.7031799999999997 C 1.0156 -2.99224 1.44529 -3.1406799999999997 2 -3.1406799999999997 C 2.16406 -3.1406799999999997 2.32031 -3.1250549999999997 2.46875 -3.0938049999999997 C 2.625 -3.0625549999999997 2.78125 -3.019586 2.9375 -2.9688049999999997 z" stroke-linecap="round" />
</g>
		<g transform="matrix(1.3333333333 0 0 1.3333333333 -281.6511246667 307.2499826667)" id="Rppkzf6bxlvqEfGL68Cee"  >
<path style="stroke: none; stroke-width: 1; stroke-dasharray: none; stroke-linecap: butt; stroke-dashoffset: 0; stroke-linejoin: miter; stroke-miterlimit: 4; fill: rgb(0,0,0); fill-rule: nonzero; opacity: 1;" vector-effect="non-scaling-stroke"  transform=" translate(-1.3124375, 1.96095)" d="M 1.5312 -3.9219 L 1.5312 -3.06252 L 2.5468 -3.06252 L 2.5468 -2.3594 L 1.5312000000000001 -2.3594 L 1.5312000000000001 -1.0625 C 1.5312000000000001 -0.91406 1.5546380000000002 -0.81641 1.6093250000000001 -0.76562 C 1.6718250000000001 -0.7226509999999999 1.7851050000000002 -0.70312 1.9530750000000001 -0.70312 L 2.453075 -0.70312 L 2.453075 0 L 1.6249550000000001 0 C 1.2382350000000002 0 0.9608950000000002 -0.078125 0.7968350000000002 -0.23438 C 0.6405850000000002 -0.39844 0.5624550000000001 -0.67579 0.5624550000000001 -1.0625 L 0.5624550000000001 -2.3594 L 0.07807500000000017 -2.3594 L 0.07807500000000017 -3.06252 L 0.5624550000000001 -3.06252 L 0.5624550000000001 -3.9219 z" stroke-linecap="round" />
</g>
</g>
</g>
</svg>