<?xml version="1.0" encoding="UTF-8" standalone="no" ?>
<!DOCTYPE svg PUBLIC "-//W3C//DTD SVG 1.1//EN" "http://www.w3.org/Graphics/SVG/1.1/DTD/svg11.dtd">
<svg xmlns="http://www.w3.org/2000/svg" xmlns:xlink="http://www.w3.org/1999/xlink" version="1.1" width="700" height="700" viewBox="0 0 700 700" xml:space="preserve">
<desc>Created with Fabric.js 5.3.0</desc>
<defs>
</defs>
<g transform="matrix(0.8330205718 0 0 0.8330205718 345.1099746979 424.5529466504)" id="qOq-ruGwsKPluMt56LB5k"  >
<g style="" vector-effect="non-scaling-stroke"   >
		<g transform="matrix(1.3333333333 0 0 1.3333333333 0.0124626667 -93.3326666667)" id="uXEGMvu-v4_h-7NDu-vdv"  >
<path style="stroke: none; stroke-width: 1; stroke-dasharray: none; stroke-linecap: butt; stroke-dashoffset: 0; stroke-linejoin: miter; stroke-miterlimit: 4; fill: rgb(0,0,0); fill-rule: nonzero; opacity: 1;" vector-effect="non-scaling-stroke"  transform=" translate(-350.009347, -280.0005)" d="M 594.74 449.75 L 578.631 449.75 C 574.5529 431.645 558.401 418.047 539.0799999999999 418.047 L 360.53999999999996 418.047 C 341.21999999999997 418.047 325.06699999999995 431.64500000000004 320.989 449.75 L 304.856 449.75 C 290.243 449.75 278.344 461.641 278.344 476.254 L 278.344 493.055 C 278.344 507.676 290.235 519.567 304.856 519.567 L 320.993 519.567 C 325.0789 537.6610000000001 341.223 551.243 360.536 551.243 L 539.076 551.243 C 558.388 551.243 574.529 537.6650000000001 578.619 519.567 L 594.736 519.567 C 609.3489999999999 519.567 621.248 507.676 621.248 493.055 L 621.248 476.254 C 621.2519060000001 461.649 609.3610000000001 449.75 594.74 449.75 z M 295.84000000000003 493.062 L 295.84000000000003 476.261 C 295.84000000000003 471.30010000000004 299.88300000000004 467.25710000000004 304.85170000000005 467.25710000000004 L 319.9297 467.25710000000004 L 319.9297 502.07310000000007 L 304.8557 502.07310000000007 C 299.88300000000004 502.07310000000007 295.8401 498.03010000000006 295.8401 493.06140000000005 z M 562.19 510.64 C 562.19 523.3779999999999 551.8230000000001 533.749 539.081 533.749 L 360.54100000000005 533.749 C 347.80300000000005 533.749 337.4320000000001 523.3820000000001 337.4320000000001 510.64000000000004 L 337.4320000000001 458.65600000000006 C 337.4320000000001 445.91800000000006 347.7990000000001 435.5470000000001 360.54100000000005 435.5470000000001 L 539.081 435.5470000000001 C 551.819 435.5470000000001 562.19 445.9140000000001 562.19 458.65600000000006 z M 603.7520000000001 493.062 C 603.7520000000001 498.0308 599.7090000000001 502.07370000000003 594.7403 502.07370000000003 L 579.6893 502.07370000000003 L 579.6893 467.2497 L 594.7483 467.2497 C 599.7171 467.2497 603.76 471.2927 603.76 476.2536 L 603.76 493.06260000000003 z M 87.50200000000007 199.41200000000003 C 87.50200000000007 204.25180000000003 91.42390000000006 208.16200000000003 96.25200000000007 208.16200000000003 L 190.92800000000005 208.16200000000003 C 195.75610000000006 208.16200000000003 199.67800000000005 204.25180000000003 199.67800000000005 199.41200000000003 L 199.67800000000005 159.02900000000002 L 254.62700000000007 159.02900000000002 L 254.62700000000007 190.63400000000001 L 229.53300000000007 190.63400000000001 L 229.53300000000007 208.13400000000001 L 299.32200000000006 208.13400000000001 L 299.32200000000006 190.63400000000001 L 272.12700000000007 190.63400000000001 L 272.12700000000007 159.02900000000002 L 341.58400000000006 159.02900000000002 C 356.62700000000007 159.02900000000002 368.8570000000001 146.79500000000002 368.8570000000001 131.75600000000003 L 368.8570000000001 36.022000000000034 C 368.8570000000001 20.983000000000033 356.62700000000007 8.749000000000034 341.58400000000006 8.749000000000034 L 96.25400000000005 8.749000000000034 C 91.42590000000004 8.749000000000034 87.50400000000005 12.659200000000034 87.50400000000005 17.499000000000034 z M 190.93200000000007 26.252000000000038 L 341.5920000000001 26.252000000000038 C 346.9826000000001 26.252000000000038 351.3654000000001 30.634800000000038 351.3654000000001 36.02540000000004 L 351.3654000000001 131.75240000000005 C 351.3654000000001 137.14300000000006 346.9826000000001 141.52580000000006 341.5920000000001 141.52580000000006 L 185.1120000000001 141.52580000000006 C 179.7214000000001 141.52580000000006 175.3386000000001 137.14300000000006 175.3386000000001 131.75240000000005 L 175.3386000000001 36.02540000000005 C 175.3386000000001 30.634800000000048 179.7214000000001 26.252000000000045 185.1120000000001 26.252000000000045 z M 105.00600000000007 26.252000000000038 L 159.72100000000006 26.252000000000038 C 158.54130000000006 29.29890000000004 157.83040000000005 32.56840000000004 157.83040000000005 36.02540000000004 L 157.83040000000005 131.75240000000005 C 157.83040000000005 145.78740000000005 168.53340000000006 157.24840000000006 182.18240000000006 158.72940000000006 L 182.18240000000006 190.65940000000006 L 105.00640000000006 190.65549400000006 z M 233.00600000000009 551.2520000000001 C 246.69000000000008 551.2520000000001 257.82200000000006 540.123 257.82200000000006 526.436 L 257.8180940000001 270.706 C 257.8180940000001 257.03000000000003 246.6890940000001 245.89000000000001 233.00209400000008 245.89000000000001 L 103.57209400000008 245.89000000000001 C 89.88409400000008 245.901719 78.75609400000008 257.031 78.75609400000008 270.706 L 78.75609400000008 526.436 C 78.75609400000008 540.124 89.88509400000008 551.2520000000001 103.57209400000008 551.2520000000001 z M 103.57600000000008 263.40200000000004 L 233.00600000000009 263.40200000000004 C 237.0412000000001 263.40200000000004 240.32240000000007 266.68320000000006 240.32240000000007 270.71840000000003 L 240.32240000000007 489.50840000000005 L 96.26240000000007 489.50840000000005 L 96.26240000000007 270.70840000000004 C 96.26240000000007 266.68500000000006 99.54360000000007 263.4037 103.57880000000007 263.4037 z M 96.25960000000008 526.432 L 96.25960000000008 506.998 L 240.3196000000001 506.998 L 240.3196000000001 526.432 C 240.3196000000001 530.4672 237.03840000000008 533.7484000000001 233.0032000000001 533.7484000000001 L 103.5732000000001 533.7484000000001 C 99.5380000000001 533.7484000000001 96.2568000000001 530.4672 96.2568000000001 526.432 z M 612.5096000000001 331.27200000000005 L 587.2206000000001 331.27200000000005 L 587.2206000000001 216.12200000000004 C 587.2206000000001 200.38800000000003 574.4276000000001 187.59900000000005 558.6976000000001 187.59900000000005 L 386.9376000000001 187.59900000000005 C 371.2036000000001 187.59900000000005 358.41460000000006 200.39200000000005 358.41460000000006 216.12200000000004 L 358.41460000000006 331.27200000000005 L 333.08260000000007 331.27200000000005 C 328.25450000000006 331.27200000000005 324.33260000000007 335.1822 324.33260000000007 340.02200000000005 L 324.33260000000007 380.77200000000005 C 324.33260000000007 385.6118000000001 328.25450000000006 389.52200000000005 333.08260000000007 389.52200000000005 L 612.5126 389.52200000000005 C 617.3407 389.52200000000005 621.2626 385.6118000000001 621.2626 380.77200000000005 L 621.2626 340.02200000000005 C 621.2626 335.19390000000004 617.3407 331.27200000000005 612.5126 331.27200000000005 z M 375.90960000000007 216.12200000000004 C 375.90960000000007 210.04780000000005 380.85490000000004 205.09900000000005 386.9326000000001 205.09900000000005 L 558.6926000000001 205.09900000000005 C 564.7746000000001 205.09900000000005 569.7156000000001 210.04430000000005 569.7156000000001 216.12200000000004 L 569.7156000000001 331.27200000000005 L 375.9056000000001 331.27200000000005 z M 603.7596000000001 372.03200000000004 L 341.8296000000001 372.03200000000004 L 341.8296000000001 348.77400000000006 L 603.7596000000001 348.77400000000006 z M 377.1496000000001 462.72700000000003 C 377.1496000000001 468.85200000000003 372.1808000000001 473.821 366.0556000000001 473.821 C 359.9304000000001 473.821 354.9616000000001 468.85220000000004 354.9616000000001 462.72700000000003 C 354.9616000000001 456.6018 359.9304000000001 451.63300000000004 366.0556000000001 451.63300000000004 C 372.1808000000001 451.63300000000004 377.1496000000001 456.6018 377.1496000000001 462.72700000000003 z M 544.6696000000001 462.72700000000003 C 544.6696000000001 468.85200000000003 539.7008000000001 473.821 533.5756 473.821 C 527.4504 473.821 522.4816 468.85220000000004 522.4816 462.72700000000003 C 522.4816 456.6018 527.4504 451.63300000000004 533.5756 451.63300000000004 C 539.7008000000001 451.63300000000004 544.6696000000001 456.6018 544.6696000000001 462.72700000000003 z M 377.1496000000001 506.57500000000005 C 377.1496000000001 512.7 372.1808000000001 517.6690000000001 366.0556000000001 517.6690000000001 C 359.9304000000001 517.6690000000001 354.9616000000001 512.7002000000001 354.9616000000001 506.5750000000001 C 354.9616000000001 500.4498000000001 359.9304000000001 495.4810000000001 366.0556000000001 495.4810000000001 C 372.1806000000001 495.4770930000001 377.1496000000001 500.4498000000001 377.1496000000001 506.5750000000001 z M 544.6696000000001 506.57500000000005 C 544.6696000000001 512.7 539.7008000000001 517.6690000000001 533.5756 517.6690000000001 C 527.4504 517.6690000000001 522.4816 512.7002000000001 522.4816 506.5750000000001 C 522.4816 500.4498000000001 527.4504 495.4810000000001 533.5756 495.4810000000001 C 539.7006 495.4770930000001 544.6696000000001 500.4498000000001 544.6696000000001 506.5750000000001 z M 597.1966000000001 8.755000000000052 L 424.5866000000001 8.755000000000052 C 411.31360000000006 8.755000000000052 400.5166000000001 19.552000000000053 400.5166000000001 32.82500000000005 L 400.5166000000001 134.96500000000006 C 400.5166000000001 148.23800000000006 411.3136000000001 159.03500000000005 424.5866000000001 159.03500000000005 L 597.1966000000001 159.03500000000005 C 610.4696000000001 159.03500000000005 621.2586000000001 148.23800000000006 621.2586000000001 134.96500000000006 L 621.2586000000001 32.82500000000006 C 621.2586000000001 19.55200000000006 610.4616000000001 8.75500000000006 597.1966000000001 8.75500000000006 z M 424.5866000000001 26.255000000000052 L 597.1966000000001 26.255000000000052 C 600.8177000000001 26.255000000000052 603.7591000000001 29.204200000000053 603.7591000000001 32.825300000000055 L 603.7591000000001 75.14930000000005 L 418.0091000000001 75.14930000000005 L 418.0091000000001 32.825300000000055 C 418.0091000000001 29.204200000000057 420.9583000000001 26.255000000000056 424.5833000000001 26.255000000000056 z M 597.1966000000001 141.53500000000005 L 424.5866000000001 141.53500000000005 C 420.9655000000001 141.53500000000005 418.0163000000001 138.58580000000006 418.0163000000001 134.96470000000005 L 418.0163000000001 92.64870000000005 L 603.7563000000001 92.64870000000005 L 603.7563000000001 134.96470000000005 C 603.7563000000001 138.58580000000006 600.8149000000001 141.53500000000005 597.1938000000001 141.53500000000005 z M 567.3606000000001 50.70300000000006 C 567.3606000000001 44.57800000000006 572.3294000000001 39.60900000000006 578.4546000000001 39.60900000000006 C 584.5798000000002 39.60900000000006 589.5486000000002 44.57780000000006 589.5486000000002 50.70300000000006 C 589.5486000000002 56.82820000000006 584.5798000000002 61.79700000000006 578.4546000000001 61.79700000000006 C 572.3294000000001 61.79700000000006 567.3606000000001 56.82820000000006 567.3606000000001 50.70300000000006 z M 530.7476000000001 50.70300000000006 C 530.7476000000001 44.57800000000006 535.7164000000001 39.60900000000006 541.8416000000002 39.60900000000006 C 547.9668000000003 39.60900000000006 552.9356000000002 44.57780000000006 552.9356000000002 50.70300000000006 C 552.9356000000002 56.82820000000006 547.9668000000003 61.79700000000006 541.8416000000002 61.79700000000006 C 535.7205000000002 61.79700000000006 530.7476000000001 56.82820000000006 530.7476000000001 50.70300000000006 z M 589.5486000000002 117.08600000000006 C 589.5486000000002 123.21100000000006 584.5798000000002 128.18000000000006 578.4546000000001 128.18000000000006 C 572.3294000000001 128.18000000000006 567.3606000000001 123.21120000000006 567.3606000000001 117.08600000000007 C 567.3606000000001 110.96080000000008 572.3294000000001 105.99200000000008 578.4546000000001 105.99200000000008 C 584.5798000000002 105.99200000000008 589.5486000000002 110.96080000000008 589.5486000000002 117.08600000000007 z M 552.9396000000002 117.08600000000006 C 552.9396000000002 123.21100000000006 547.9708000000002 128.18000000000006 541.8456000000001 128.18000000000006 C 535.7204 128.18000000000006 530.7516 123.21120000000006 530.7516 117.08600000000007 C 530.7516 110.96080000000008 535.7204 105.99200000000008 541.8456000000001 105.99200000000008 C 547.9708000000002 105.99200000000008 552.9396000000002 110.96080000000008 552.9396000000002 117.08600000000007 z M 436.82960000000014 50.70300000000006 C 436.82960000000014 45.86320000000006 440.75150000000014 41.95300000000006 445.57960000000014 41.95300000000006 L 476.67760000000015 41.95300000000006 C 481.50570000000016 41.95300000000006 485.42760000000015 45.86320000000006 485.42760000000015 50.70300000000006 C 485.42760000000015 55.54280000000006 481.50570000000016 59.45300000000006 476.67760000000015 59.45300000000006 L 445.57960000000014 59.45300000000006 C 440.75150000000014 59.45300000000006 436.82960000000014 55.53890000000006 436.82960000000014 50.70300000000006 z M 485.43460000000016 117.08600000000006 C 485.43460000000016 121.92580000000005 481.51270000000017 125.83600000000006 476.68460000000016 125.83600000000006 L 445.58660000000015 125.83600000000006 C 440.75850000000014 125.83600000000006 436.83660000000015 121.92580000000005 436.83660000000015 117.08600000000006 C 436.83660000000015 112.24620000000006 440.75850000000014 108.33600000000006 445.58660000000015 108.33600000000006 L 476.68460000000016 108.33600000000006 C 481.51660000000015 108.33600000000006 485.43460000000016 112.25010000000006 485.43460000000016 117.08600000000006 z" stroke-linecap="round" />
</g>
		<g transform="matrix(1.3333333333 0 0 1.3333333333 -352.3446666667 433.7705066667)" id="0nSAn4Nr76L43OzU4RANn"  >
<path style="stroke: none; stroke-width: 1; stroke-dasharray: none; stroke-linecap: butt; stroke-dashoffset: 0; stroke-linejoin: miter; stroke-miterlimit: 4; fill: rgb(0,0,0); fill-rule: nonzero; opacity: 1;" vector-effect="non-scaling-stroke"  transform=" translate(-15.7415, 15.92212)" d="M 29.312 -1.75 C 27.8003 -0.96875 26.2222 -0.3789 24.5776 0.015600000000000058 C 22.9409 0.42185000000000006 21.2378 0.6249800000000001 19.4682 0.6249800000000001 C 14.1557 0.6249800000000001 9.9409 -0.8594199999999999 6.8271999999999995 -3.82812 C 3.7216999999999993 -6.79692 2.1709999999999994 -10.82812 2.1709999999999994 -15.92212 C 2.1709999999999994 -21.01612 3.721799999999999 -25.04712 6.8271999999999995 -28.01612 C 9.9405 -30.984920000000002 14.1553 -32.46922 19.4682 -32.46922 C 21.2377 -32.46922 22.9409 -32.27 24.5776 -31.87547 C 26.2221 -31.47703 27.8003 -30.88328 29.312 -30.09427 L 29.312 -23.50047 C 27.780800000000003 -24.53957 26.2729 -25.30127 24.796400000000002 -25.78167 C 23.315900000000003 -26.269949999999998 21.7573 -26.51605 20.1245 -26.51605 C 17.187 -26.51605 14.878400000000001 -25.57074 13.2026 -23.68795 C 11.5229 -21.81295 10.687000000000001 -19.22315 10.687000000000001 -15.922350000000002 C 10.687000000000001 -12.629350000000002 11.522940000000002 -10.039550000000002 13.2026 -8.156750000000002 C 14.878400000000001 -6.281750000000002 17.187 -5.344250000000002 20.1245 -5.344250000000002 C 21.7573 -5.344250000000002 23.3159 -5.582530000000002 24.796400000000002 -6.063000000000002 C 26.273000000000003 -6.551280000000002 27.780800000000003 -7.316900000000002 29.312 -8.359900000000003 z" stroke-linecap="round" />
</g>
		<g transform="matrix(1.3333333333 0 0 1.3333333333 -313.7709666667 438.6674266667)" id="AhSkAbXWl8lcix9JCJT6a"  >
<path style="stroke: none; stroke-width: 1; stroke-dasharray: none; stroke-linecap: butt; stroke-dashoffset: 0; stroke-linejoin: miter; stroke-miterlimit: 4; fill: rgb(0,0,0); fill-rule: nonzero; opacity: 1;" vector-effect="non-scaling-stroke"  transform=" translate(-12.5624, 12.24943)" d="M 21.453 -17.406 C 20.77331 -17.7185 20.101399999999998 -17.945059999999998 19.4374 -18.0935 C 18.78115 -18.24975 18.1171 -18.32788 17.453 -18.32788 C 15.4842 -18.32788 13.968599999999999 -17.69507 12.906099999999999 -16.43728 C 11.851399999999998 -15.175580000000002 11.328 -13.366980000000002 11.328 -11.01538 L 11.328 0.0006199999999996209 L 3.6717999999999993 0.0006199999999996209 L 3.6717999999999993 -23.92138 L 11.328 -23.92138 L 11.328 -19.99948 C 12.304559999999999 -21.56198 13.429599999999999 -22.702579999999998 14.703 -23.42138 C 15.9842 -24.14013 17.5155 -24.49948 19.296799999999998 -24.49948 C 19.546799999999998 -24.49948 19.82024 -24.487761 20.124919999999996 -24.46823 C 20.425699999999996 -24.444792 20.859299999999998 -24.397917999999997 21.421819999999997 -24.32761 z" stroke-linecap="round" />
</g>
		<g transform="matrix(1.3333333333 0 0 1.3333333333 -282.1309413333 439.08364)" id="2tY2RXu-QQBs2mo-ICTRe"  >
<path style="stroke: none; stroke-width: 1; stroke-dasharray: none; stroke-linecap: butt; stroke-dashoffset: 0; stroke-linejoin: miter; stroke-miterlimit: 4; fill: rgb(0,0,0); fill-rule: nonzero; opacity: 1;" vector-effect="non-scaling-stroke"  transform=" translate(-14.7182, 11.93727)" d="M 27.562 -12.031 L 27.562 -9.8435 L 9.671000000000003 -9.8435 C 9.858500000000003 -8.050500000000001 10.503030000000003 -6.706800000000001 11.608500000000003 -5.8123000000000005 C 12.721800000000004 -4.913860000000001 14.280400000000004 -4.468500000000001 16.280400000000004 -4.468500000000001 C 17.882000000000005 -4.468500000000001 19.530400000000004 -4.70288 21.217900000000004 -5.171620000000001 C 22.905400000000004 -5.648180000000001 24.639800000000005 -6.374720000000001 26.421000000000003 -7.343520000000001 L 26.421000000000003 -1.4529200000000007 C 24.616300000000003 -0.7654200000000007 22.811600000000002 -0.2498200000000006 20.999100000000002 0.09397999999999929 C 19.186600000000002 0.44553999999999927 17.378 0.6252299999999993 15.577200000000001 0.6252299999999993 C 11.241300000000003 0.6252299999999993 7.874100000000001 -0.4724700000000006 5.468200000000001 -2.6716700000000007 C 3.069800000000001 -4.8786700000000005 1.8744000000000014 -7.968570000000001 1.8744000000000014 -11.93727 C 1.8744000000000014 -15.84347 3.050200000000001 -18.90997 5.4056000000000015 -21.140369999999997 C 7.768900000000002 -23.378669999999996 11.015 -24.499769999999998 15.140000000000002 -24.499769999999998 C 18.897800000000004 -24.499769999999998 21.9095 -23.363069999999997 24.171200000000002 -21.09357 C 26.429000000000002 -18.83187 27.5618 -15.81237 27.5618 -12.03107 z M 19.7026 -14.5622 C 19.7026 -16.0192 19.27291 -17.1911 18.421400000000002 -18.0778 C 17.577650000000002 -18.97233 16.4722 -19.4216 15.108900000000002 -19.4216 C 13.616700000000002 -19.4216 12.409700000000003 -19.00363 11.483900000000002 -18.1716 C 10.565930000000002 -17.33566 9.991700000000002 -16.1325 9.765100000000002 -14.5622 z" stroke-linecap="round" />
</g>
		<g transform="matrix(1.3333333333 0 0 1.3333333333 -243.5561746667 439.0825466667)" id="fHEHKkA3C0VPYloyfSi8c"  >
<path style="stroke: none; stroke-width: 1; stroke-dasharray: none; stroke-linecap: butt; stroke-dashoffset: 0; stroke-linejoin: miter; stroke-miterlimit: 4; fill: rgb(0,0,0); fill-rule: nonzero; opacity: 1;" vector-effect="non-scaling-stroke"  transform=" translate(-13.9774, 11.93809)" d="M 14.391 -10.766 C 12.7972 -10.766 11.597999999999999 -10.49256 10.7972 -9.9535 C 9.99251 -9.41053 9.594100000000001 -8.6137 9.594100000000001 -7.5629 C 9.594100000000001 -6.59415 9.91441 -5.8324 10.562850000000001 -5.2817 C 11.20738 -4.73873 12.109750000000002 -4.4692 13.26595 -4.4692 C 14.70345 -4.4692 15.91045 -4.98482 16.89095 -6.0161 C 17.87923 -7.0473 18.37535 -8.3364 18.37535 -9.8911 L 18.37535 -10.7661 z M 26.079 -13.656600000000001 L 26.079 -0.000600000000000378 L 18.3759 -0.000600000000000378 L 18.3759 -3.5475000000000003 C 17.344700000000003 -2.0983 16.1884 -1.0397000000000003 14.907100000000002 -0.3756000000000004 C 13.625800000000002 0.28849999999999953 12.067300000000001 0.6243999999999996 10.235200000000003 0.6243999999999996 C 7.754700000000002 0.6243999999999996 5.739100000000002 -0.09826000000000035 4.188300000000003 -1.5475000000000003 C 2.6453000000000024 -2.9928000000000003 1.8758000000000026 -4.867800000000001 1.8758000000000026 -7.1725 C 1.8758000000000026 -9.985 2.8367400000000025 -12.0397 4.766400000000003 -13.3444 C 6.703900000000003 -14.6569 9.735200000000003 -15.3132 13.860200000000003 -15.3132 L 18.3758 -15.3132 L 18.3758 -15.92258 C 18.3758 -17.12958 17.89533 -18.016379999999998 16.9383 -18.578780000000002 C 15.989080000000001 -19.141280000000002 14.500800000000002 -19.422530000000002 12.469500000000002 -19.422530000000002 C 10.832800000000002 -19.422530000000002 9.313300000000002 -19.25456 7.907000000000002 -18.922530000000002 C 6.500800000000002 -18.59831 5.188200000000002 -18.110030000000002 3.969500000000002 -17.45373 L 3.969500000000002 -23.28183 C 5.614000000000002 -23.68808 7.258600000000001 -23.98886 8.907000000000002 -24.18808 C 10.563200000000002 -24.39511 12.211700000000002 -24.50058 13.860100000000003 -24.50058 C 18.180400000000002 -24.50058 21.297600000000003 -23.64511 23.203900000000004 -21.93808 C 25.118000000000006 -20.238879999999998 26.078900000000004 -17.47718 26.078900000000004 -13.65688 z" stroke-linecap="round" />
</g>
		<g transform="matrix(1.3333333333 0 0 1.3333333333 -209.1722253333 434.5208133333)" id="74L8WjyAFFO-M-nltR9yn"  >
<path style="stroke: none; stroke-width: 1; stroke-dasharray: none; stroke-linecap: butt; stroke-dashoffset: 0; stroke-linejoin: miter; stroke-miterlimit: 4; fill: rgb(0,0,0); fill-rule: nonzero; opacity: 1;" vector-effect="non-scaling-stroke"  transform=" translate(-10.241925, 15.35939)" d="M 12.031 -30.719 L 12.031 -23.9221 L 19.906 -23.9221 L 19.906 -18.4533 L 12.030999999999999 -18.4533 L 12.030999999999999 -8.312299999999999 C 12.030999999999999 -7.195099999999998 12.249749999999999 -6.4411999999999985 12.687249999999999 -6.046699999999999 C 13.124749999999999 -5.659979999999998 13.999749999999999 -5.468579999999998 15.312249999999999 -5.468579999999998 L 19.24975 -5.468579999999998 L 19.24975 0.00022000000000144126 L 12.687249999999999 0.00022000000000144126 C 9.663849999999998 0.00022000000000144126 7.5231499999999984 -0.6286899999999985 6.265349999999999 -1.8903799999999986 C 5.003649999999999 -3.1481799999999986 4.374749999999999 -5.288779999999999 4.374749999999999 -8.312279999999998 L 4.374749999999999 -18.45328 L 0.5778499999999989 -18.45328 L 0.5778499999999989 -23.92208 L 4.374749999999999 -23.92208 L 4.374749999999999 -30.718980000000002 z" stroke-linecap="round" />
</g>
		<g transform="matrix(1.3333333333 0 0 1.3333333333 -175.3184413333 439.08364)" id="ZJxjj1Zt91fnaj_f5lyCO"  >
<path style="stroke: none; stroke-width: 1; stroke-dasharray: none; stroke-linecap: butt; stroke-dashoffset: 0; stroke-linejoin: miter; stroke-miterlimit: 4; fill: rgb(0,0,0); fill-rule: nonzero; opacity: 1;" vector-effect="non-scaling-stroke"  transform=" translate(-14.7182, 11.93727)" d="M 27.562 -12.031 L 27.562 -9.8435 L 9.671000000000003 -9.8435 C 9.858500000000003 -8.050500000000001 10.503030000000003 -6.706800000000001 11.608500000000003 -5.8123000000000005 C 12.721800000000004 -4.913860000000001 14.280400000000004 -4.468500000000001 16.280400000000004 -4.468500000000001 C 17.882000000000005 -4.468500000000001 19.530400000000004 -4.70288 21.217900000000004 -5.171620000000001 C 22.905400000000004 -5.648180000000001 24.639800000000005 -6.374720000000001 26.421000000000003 -7.343520000000001 L 26.421000000000003 -1.4529200000000007 C 24.616300000000003 -0.7654200000000007 22.811600000000002 -0.2498200000000006 20.999100000000002 0.09397999999999929 C 19.186600000000002 0.44553999999999927 17.378 0.6252299999999993 15.577200000000001 0.6252299999999993 C 11.241300000000003 0.6252299999999993 7.874100000000001 -0.4724700000000006 5.468200000000001 -2.6716700000000007 C 3.069800000000001 -4.8786700000000005 1.8744000000000014 -7.968570000000001 1.8744000000000014 -11.93727 C 1.8744000000000014 -15.84347 3.050200000000001 -18.90997 5.4056000000000015 -21.140369999999997 C 7.768900000000002 -23.378669999999996 11.015 -24.499769999999998 15.140000000000002 -24.499769999999998 C 18.897800000000004 -24.499769999999998 21.9095 -23.363069999999997 24.171200000000002 -21.09357 C 26.429000000000002 -18.83187 27.5618 -15.81237 27.5618 -12.03107 z M 19.7026 -14.5622 C 19.7026 -16.0192 19.27291 -17.1911 18.421400000000002 -18.0778 C 17.577650000000002 -18.97233 16.4722 -19.4216 15.108900000000002 -19.4216 C 13.616700000000002 -19.4216 12.409700000000003 -19.00363 11.483900000000002 -18.1716 C 10.565930000000002 -17.33566 9.991700000000002 -16.1325 9.765100000000002 -14.5622 z" stroke-linecap="round" />
</g>
		<g transform="matrix(1.3333333333 0 0 1.3333333333 -135.6407413333 433.26072)" id="LSGHbhO84fZa1LdRPXvYY"  >
<path style="stroke: none; stroke-width: 1; stroke-dasharray: none; stroke-linecap: butt; stroke-dashoffset: 0; stroke-linejoin: miter; stroke-miterlimit: 4; fill: rgb(0,0,0); fill-rule: nonzero; opacity: 1;" vector-effect="non-scaling-stroke"  transform=" translate(-14.8046, 16.30446)" d="M 19.953 -20.422 L 19.953 -33.234 L 27.6405 -33.234 L 27.6405 0 L 19.953 0 L 19.953 -3.4531 C 18.8983 -2.0469 17.7382 -1.0156 16.4686 -0.3593000000000002 C 15.195199999999998 0.2969499999999998 13.726399999999998 0.6250799999999999 12.062399999999998 0.6250799999999999 C 9.113199999999999 0.6250799999999999 6.691299999999998 -0.5468200000000001 4.796799999999998 -2.8905200000000004 C 2.910099999999998 -5.23432 1.9686999999999983 -8.24992 1.9686999999999983 -11.937420000000001 C 1.9686999999999983 -15.624920000000003 2.910109999999998 -18.640520000000002 4.796799999999998 -20.984320000000004 C 6.691299999999998 -23.328120000000006 9.113199999999999 -24.499920000000003 12.062399999999998 -24.499920000000003 C 13.718599999999999 -24.499920000000003 15.179599999999999 -24.163980000000002 16.453 -23.499920000000003 C 17.734199999999998 -22.843670000000003 18.8983 -21.816320000000005 19.953 -20.421820000000004 z M 14.906099999999999 -4.938000000000001 C 16.5506 -4.938000000000001 17.8006 -5.535660000000001 18.6561 -6.7349000000000006 C 19.519379999999998 -7.930200000000001 19.953 -9.6646 19.953 -11.938 C 19.953 -14.2192 19.51941 -15.9575 18.6561 -17.1568 C 17.800629999999998 -18.3521 16.5506 -18.9537 14.906099999999999 -18.9537 C 13.281099999999999 -18.9537 12.034999999999998 -18.352140000000002 11.171699999999998 -17.1568 C 10.316229999999997 -15.957600000000001 9.890499999999998 -14.2193 9.890499999999998 -11.938 C 9.890499999999998 -9.6646 10.316279999999997 -7.930200000000001 11.171699999999998 -6.7349000000000006 C 12.034979999999997 -5.5357 13.281099999999999 -4.938000000000001 14.906099999999999 -4.938000000000001 z" stroke-linecap="round" />
</g>
		<g transform="matrix(1.3333333333 0 0 1.3333333333 -71.297108 433.2612)" id="Yj-M38shME5r_y6dninfs"  >
<path style="stroke: none; stroke-width: 1; stroke-dasharray: none; stroke-linecap: butt; stroke-dashoffset: 0; stroke-linejoin: miter; stroke-miterlimit: 4; fill: rgb(0,0,0); fill-rule: nonzero; opacity: 1;" vector-effect="non-scaling-stroke"  transform=" translate(-16.51545, 16.3041)" d="M 16.406 -4.9375 C 18.0388 -4.9375 19.2888 -5.53516 20.156 -6.7344 C 21.01928 -7.9297 21.4529 -9.6641 21.4529 -11.9375 C 21.4529 -14.2187 21.01931 -15.957 20.156 -17.1563 C 19.288809999999998 -18.3516 18.0388 -18.953200000000002 16.406 -18.953200000000002 C 14.7693 -18.953200000000002 13.5154 -18.347730000000002 12.6404 -17.140700000000002 C 11.7654 -15.941500000000003 11.3279 -14.207100000000002 11.3279 -11.937600000000003 C 11.3279 -9.675900000000004 11.7654 -7.941500000000003 12.6404 -6.734500000000003 C 13.5154 -5.535300000000003 14.7693 -4.937600000000003 16.406 -4.937600000000003 z M 11.3279 -20.4215 C 12.3787 -21.816000000000003 13.5467 -22.843400000000003 14.8279 -23.4996 C 16.109099999999998 -24.16366 17.5818 -24.4996 19.2498 -24.4996 C 22.1951 -24.4996 24.617 -23.3277 26.5154 -20.984 C 28.4099 -18.6402 29.3592 -15.624600000000001 29.3592 -11.937100000000001 C 29.3592 -8.249600000000001 28.40998 -5.234000000000001 26.5154 -2.8902 C 24.617 -0.5464000000000002 22.1951 0.6254 19.2498 0.6254 C 17.5818 0.6254 16.1092 0.28945999999999994 14.8279 -0.37460000000000004 C 13.546599999999998 -1.0386600000000001 12.3787 -2.066 11.3279 -3.4527 L 11.3279 0.00039999999999995595 L 3.6716999999999995 0.00039999999999995595 L 3.6716999999999995 -33.2336 L 11.3279 -33.2336 z" stroke-linecap="round" />
</g>
		<g transform="matrix(1.3333333333 0 0 1.3333333333 -32.7187666667 445.3439333333)" id="B33VmhUJ124y_DERHGK63"  >
<path style="stroke: none; stroke-width: 1; stroke-dasharray: none; stroke-linecap: butt; stroke-dashoffset: 0; stroke-linejoin: miter; stroke-miterlimit: 4; fill: rgb(0,0,0); fill-rule: nonzero; opacity: 1;" vector-effect="non-scaling-stroke"  transform=" translate(-14.1328, 7.24205)" d="M 0.53125 -23.922 L 8.18745 -23.922 L 14.60935 -7.687999999999999 L 20.07815 -23.922 L 27.73435 -23.922 L 17.67235 2.2659999999999982 C 16.66065 4.930099999999998 15.477050000000002 6.789399999999998 14.12545 7.844099999999998 C 12.78165 8.906599999999997 11.00435 9.437899999999999 8.797350000000002 9.437899999999999 L 4.375450000000002 9.437899999999999 L 4.375450000000002 4.422299999999999 L 6.766050000000002 4.422299999999999 C 8.066850000000002 4.422299999999999 9.008250000000002 4.211359999999999 9.594150000000003 3.797299999999999 C 10.187900000000003 3.391049999999999 10.648850000000003 2.648899999999999 10.984750000000002 1.5784999999999991 L 11.187870000000002 0.9222499999999991 z" stroke-linecap="round" />
</g>
		<g transform="matrix(1.3333333333 0 0 1.3333333333 31.1772333333 433.7393333333)" id="P89sWcqoguM2DiPPnQova"  >
<path style="stroke: none; stroke-width: 1; stroke-dasharray: none; stroke-linecap: butt; stroke-dashoffset: 0; stroke-linejoin: miter; stroke-miterlimit: 4; fill: rgb(0,0,0); fill-rule: nonzero; opacity: 1;" vector-effect="non-scaling-stroke"  transform=" translate(-18.3048, 15.9455)" d="M 4.0156 -31.891 L 13.2031 -31.891 L 24.7971 -10.015999999999998 L 24.7971 -31.891 L 32.594 -31.891 L 32.594 0 L 23.4065 0 L 11.812500000000002 -21.875 L 11.812500000000002 0 L 4.015600000000002 0 z" stroke-linecap="round" />
</g>
		<g transform="matrix(1.3333333333 0 0 1.3333333333 74.2302826667 439.0825466667)" id="eLDBi3RsQccm0Jaduckx5"  >
<path style="stroke: none; stroke-width: 1; stroke-dasharray: none; stroke-linecap: butt; stroke-dashoffset: 0; stroke-linejoin: miter; stroke-miterlimit: 4; fill: rgb(0,0,0); fill-rule: nonzero; opacity: 1;" vector-effect="non-scaling-stroke"  transform=" translate(-13.9774, 11.93809)" d="M 14.391 -10.766 C 12.7972 -10.766 11.597999999999999 -10.49256 10.7972 -9.9535 C 9.99251 -9.41053 9.594100000000001 -8.6137 9.594100000000001 -7.5629 C 9.594100000000001 -6.59415 9.91441 -5.8324 10.562850000000001 -5.2817 C 11.20738 -4.73873 12.109750000000002 -4.4692 13.26595 -4.4692 C 14.70345 -4.4692 15.91045 -4.98482 16.89095 -6.0161 C 17.87923 -7.0473 18.37535 -8.3364 18.37535 -9.8911 L 18.37535 -10.7661 z M 26.079 -13.656600000000001 L 26.079 -0.000600000000000378 L 18.3759 -0.000600000000000378 L 18.3759 -3.5475000000000003 C 17.344700000000003 -2.0983 16.1884 -1.0397000000000003 14.907100000000002 -0.3756000000000004 C 13.625800000000002 0.28849999999999953 12.067300000000001 0.6243999999999996 10.235200000000003 0.6243999999999996 C 7.754700000000002 0.6243999999999996 5.739100000000002 -0.09826000000000035 4.188300000000003 -1.5475000000000003 C 2.6453000000000024 -2.9928000000000003 1.8758000000000026 -4.867800000000001 1.8758000000000026 -7.1725 C 1.8758000000000026 -9.985 2.8367400000000025 -12.0397 4.766400000000003 -13.3444 C 6.703900000000003 -14.6569 9.735200000000003 -15.3132 13.860200000000003 -15.3132 L 18.3758 -15.3132 L 18.3758 -15.92258 C 18.3758 -17.12958 17.89533 -18.016379999999998 16.9383 -18.578780000000002 C 15.989080000000001 -19.141280000000002 14.500800000000002 -19.422530000000002 12.469500000000002 -19.422530000000002 C 10.832800000000002 -19.422530000000002 9.313300000000002 -19.25456 7.907000000000002 -18.922530000000002 C 6.500800000000002 -18.59831 5.188200000000002 -18.110030000000002 3.969500000000002 -17.45373 L 3.969500000000002 -23.28183 C 5.614000000000002 -23.68808 7.258600000000001 -23.98886 8.907000000000002 -24.18808 C 10.563200000000002 -24.39511 12.211700000000002 -24.50058 13.860100000000003 -24.50058 C 18.180400000000002 -24.50058 21.297600000000003 -23.64511 23.203900000000004 -21.93808 C 25.118000000000006 -20.238879999999998 26.078900000000004 -17.47718 26.078900000000004 -13.65688 z" stroke-linecap="round" />
</g>
		<g transform="matrix(1.3333333333 0 0 1.3333333333 111.7082 438.6674266667)" id="1hRSb9d_CvXKMI9kBzd2z"  >
<path style="stroke: none; stroke-width: 1; stroke-dasharray: none; stroke-linecap: butt; stroke-dashoffset: 0; stroke-linejoin: miter; stroke-miterlimit: 4; fill: rgb(0,0,0); fill-rule: nonzero; opacity: 1;" vector-effect="non-scaling-stroke"  transform=" translate(-12.5624, 12.24943)" d="M 21.453 -17.406 C 20.77331 -17.7185 20.101399999999998 -17.945059999999998 19.4374 -18.0935 C 18.78115 -18.24975 18.1171 -18.32788 17.453 -18.32788 C 15.4842 -18.32788 13.968599999999999 -17.69507 12.906099999999999 -16.43728 C 11.851399999999998 -15.175580000000002 11.328 -13.366980000000002 11.328 -11.01538 L 11.328 0.0006199999999996209 L 3.6717999999999993 0.0006199999999996209 L 3.6717999999999993 -23.92138 L 11.328 -23.92138 L 11.328 -19.99948 C 12.304559999999999 -21.56198 13.429599999999999 -22.702579999999998 14.703 -23.42138 C 15.9842 -24.14013 17.5155 -24.49948 19.296799999999998 -24.49948 C 19.546799999999998 -24.49948 19.82024 -24.487761 20.124919999999996 -24.46823 C 20.425699999999996 -24.444792 20.859299999999998 -24.397917999999997 21.421819999999997 -24.32761 z" stroke-linecap="round" />
</g>
		<g transform="matrix(1.3333333333 0 0 1.3333333333 142.360492 439.0825466667)" id="vlW_eOsoG4aWBkq-ne7XU"  >
<path style="stroke: none; stroke-width: 1; stroke-dasharray: none; stroke-linecap: butt; stroke-dashoffset: 0; stroke-linejoin: miter; stroke-miterlimit: 4; fill: rgb(0,0,0); fill-rule: nonzero; opacity: 1;" vector-effect="non-scaling-stroke"  transform=" translate(-13.9774, 11.93809)" d="M 14.391 -10.766 C 12.7972 -10.766 11.597999999999999 -10.49256 10.7972 -9.9535 C 9.99251 -9.41053 9.594100000000001 -8.6137 9.594100000000001 -7.5629 C 9.594100000000001 -6.59415 9.91441 -5.8324 10.562850000000001 -5.2817 C 11.20738 -4.73873 12.109750000000002 -4.4692 13.26595 -4.4692 C 14.70345 -4.4692 15.91045 -4.98482 16.89095 -6.0161 C 17.87923 -7.0473 18.37535 -8.3364 18.37535 -9.8911 L 18.37535 -10.7661 z M 26.079 -13.656600000000001 L 26.079 -0.000600000000000378 L 18.3759 -0.000600000000000378 L 18.3759 -3.5475000000000003 C 17.344700000000003 -2.0983 16.1884 -1.0397000000000003 14.907100000000002 -0.3756000000000004 C 13.625800000000002 0.28849999999999953 12.067300000000001 0.6243999999999996 10.235200000000003 0.6243999999999996 C 7.754700000000002 0.6243999999999996 5.739100000000002 -0.09826000000000035 4.188300000000003 -1.5475000000000003 C 2.6453000000000024 -2.9928000000000003 1.8758000000000026 -4.867800000000001 1.8758000000000026 -7.1725 C 1.8758000000000026 -9.985 2.8367400000000025 -12.0397 4.766400000000003 -13.3444 C 6.703900000000003 -14.6569 9.735200000000003 -15.3132 13.860200000000003 -15.3132 L 18.3758 -15.3132 L 18.3758 -15.92258 C 18.3758 -17.12958 17.89533 -18.016379999999998 16.9383 -18.578780000000002 C 15.989080000000001 -19.141280000000002 14.500800000000002 -19.422530000000002 12.469500000000002 -19.422530000000002 C 10.832800000000002 -19.422530000000002 9.313300000000002 -19.25456 7.907000000000002 -18.922530000000002 C 6.500800000000002 -18.59831 5.188200000000002 -18.110030000000002 3.969500000000002 -17.45373 L 3.969500000000002 -23.28183 C 5.614000000000002 -23.68808 7.258600000000001 -23.98886 8.907000000000002 -24.18808 C 10.563200000000002 -24.39511 12.211700000000002 -24.50058 13.860100000000003 -24.50058 C 18.180400000000002 -24.50058 21.297600000000003 -23.64511 23.203900000000004 -21.93808 C 25.118000000000006 -20.238879999999998 26.078900000000004 -17.47718 26.078900000000004 -13.65688 z" stroke-linecap="round" />
</g>
		<g transform="matrix(1.3333333333 0 0 1.3333333333 185.4840746667 432.8445333333)" id="PSKsit95ZU7bz-Vajgw0z"  >
<path style="stroke: none; stroke-width: 1; stroke-dasharray: none; stroke-linecap: butt; stroke-dashoffset: 0; stroke-linejoin: miter; stroke-miterlimit: 4; fill: rgb(0,0,0); fill-rule: nonzero; opacity: 1;" vector-effect="non-scaling-stroke"  transform=" translate(-16.79665, 16.6166)" d="M 3.6719 -33.234 L 11.3281 -33.234 L 11.3281 -15.14 L 20.125 -23.9212 L 29.0156 -23.9212 L 17.327599999999997 -12.9522 L 29.921599999999998 0.0007999999999999119 L 20.656 0.0007999999999999119 L 11.3279 -9.968 L 11.3279 0.0007999999999999119 L 3.6716999999999995 0.0007999999999999119 z" stroke-linecap="round" />
</g>
		<g transform="matrix(1.3333333333 0 0 1.3333333333 221.910808 439.0836)" id="y_A_N17e8bEsu_QJGjwYp"  >
<path style="stroke: none; stroke-width: 1; stroke-dasharray: none; stroke-linecap: butt; stroke-dashoffset: 0; stroke-linejoin: miter; stroke-miterlimit: 4; fill: rgb(0,0,0); fill-rule: nonzero; opacity: 1;" vector-effect="non-scaling-stroke"  transform=" translate(-15.02295, 11.9373)" d="M 15.062 -19.031 C 13.3628 -19.031 12.0659 -18.421619999999997 11.171399999999998 -17.2029 C 10.284679999999998 -15.9841 9.8433 -14.2263 9.8433 -11.9373 C 9.8433 -9.644300000000001 10.284709999999999 -7.8904000000000005 11.171399999999998 -6.6717 C 12.065929999999998 -5.4529000000000005 13.362799999999998 -4.8436 15.061999999999998 -4.8436 C 16.7261 -4.8436 17.999499999999998 -5.45298 18.874499999999998 -6.6717 C 19.757309999999997 -7.8905 20.202599999999997 -9.644400000000001 20.202599999999997 -11.9373 C 20.202599999999997 -14.2264 19.757289999999998 -15.984200000000001 18.874499999999998 -17.2029 C 17.999499999999998 -18.4217 16.7261 -19.031 15.061999999999998 -19.031 z M 15.062 -24.4998 C 19.1753 -24.4998 22.3901 -23.3904 24.702599999999997 -21.1717 C 27.015099999999993 -18.953000000000003 28.1714 -15.8748 28.1714 -11.9373 C 28.1714 -8.0076 27.0152 -4.929500000000001 24.702599999999997 -2.7028999999999996 C 22.390099999999997 -0.48409999999999975 19.175299999999996 0.6252000000000004 15.061999999999998 0.6252000000000004 C 10.925299999999996 0.6252000000000004 7.690899999999997 -0.4841999999999995 5.358899999999998 -2.7028999999999996 C 3.0346999999999986 -4.929499999999999 1.8744999999999985 -8.0076 1.8744999999999985 -11.9373 C 1.8744999999999985 -15.8748 3.034699999999998 -18.9529 5.358899999999998 -21.1717 C 7.690899999999998 -23.390500000000003 10.925299999999998 -24.4998 15.061999999999998 -24.4998 z" stroke-linecap="round" />
</g>
		<g transform="matrix(1.3333333333 0 0 1.3333333333 258.7082 438.6674266667)" id="bioslV5B63BZd-0w5j9VU"  >
<path style="stroke: none; stroke-width: 1; stroke-dasharray: none; stroke-linecap: butt; stroke-dashoffset: 0; stroke-linejoin: miter; stroke-miterlimit: 4; fill: rgb(0,0,0); fill-rule: nonzero; opacity: 1;" vector-effect="non-scaling-stroke"  transform=" translate(-12.5624, 12.24943)" d="M 21.453 -17.406 C 20.77331 -17.7185 20.101399999999998 -17.945059999999998 19.4374 -18.0935 C 18.78115 -18.24975 18.1171 -18.32788 17.453 -18.32788 C 15.4842 -18.32788 13.968599999999999 -17.69507 12.906099999999999 -16.43728 C 11.851399999999998 -15.175580000000002 11.328 -13.366980000000002 11.328 -11.01538 L 11.328 0.0006199999999996209 L 3.6717999999999993 0.0006199999999996209 L 3.6717999999999993 -23.92138 L 11.328 -23.92138 L 11.328 -19.99948 C 12.304559999999999 -21.56198 13.429599999999999 -22.702579999999998 14.703 -23.42138 C 15.9842 -24.14013 17.5155 -24.49948 19.296799999999998 -24.49948 C 19.546799999999998 -24.49948 19.82024 -24.487761 20.124919999999996 -24.46823 C 20.425699999999996 -24.444792 20.859299999999998 -24.397917999999997 21.421819999999997 -24.32761 z" stroke-linecap="round" />
</g>
		<g transform="matrix(1.3333333333 0 0 1.3333333333 291.6609786667 438.66756)" id="6ec7FYO7-x0XG8J2BB5-J"  >
<path style="stroke: none; stroke-width: 1; stroke-dasharray: none; stroke-linecap: butt; stroke-dashoffset: 0; stroke-linejoin: miter; stroke-miterlimit: 4; fill: rgb(0,0,0); fill-rule: nonzero; opacity: 1;" vector-effect="non-scaling-stroke"  transform=" translate(-15.702765, 12.24933)" d="M 27.734 -14.562 L 27.734 0 L 20.030900000000003 0 L 20.030900000000003 -11.156 C 20.030900000000003 -13.2185 19.984025000000003 -14.6404 19.890280000000004 -15.421600000000002 C 19.804343000000003 -16.20285 19.648090000000003 -16.781000000000002 19.421530000000004 -17.156000000000002 C 19.116840000000003 -17.656000000000002 18.710590000000003 -18.03881 18.202730000000003 -18.3122 C 17.691010000000002 -18.59345 17.10893 -18.734080000000002 16.452730000000003 -18.734080000000002 C 14.858930000000003 -18.734080000000002 13.601130000000003 -18.11689 12.687130000000003 -16.89028 C 11.780880000000003 -15.659780000000001 11.327730000000003 -13.95278 11.327730000000003 -11.76528 L 11.327730000000003 0.0007199999999993878 L 3.6715300000000024 0.0007199999999993878 L 3.6715300000000024 -23.921280000000003 L 11.327730000000003 -23.921280000000003 L 11.327730000000003 -20.421280000000003 C 12.472230000000003 -21.815780000000004 13.691030000000003 -22.843180000000004 14.983930000000003 -23.499380000000002 C 16.284730000000003 -24.16344 17.722230000000003 -24.499380000000002 19.29643 -24.499380000000002 C 22.05423 -24.499380000000002 24.148030000000002 -23.647820000000003 25.57763 -21.95248 C 27.01513 -20.26498 27.733829999999998 -17.80018 27.733829999999998 -14.561880000000002 z" stroke-linecap="round" />
</g>
		<g transform="matrix(1.3333333333 0 0 1.3333333333 353.5511666667 433.7705066667)" id="VFJfhKsb_dFV0Ns6SZ70C"  >
<path style="stroke: none; stroke-width: 1; stroke-dasharray: none; stroke-linecap: butt; stroke-dashoffset: 0; stroke-linejoin: miter; stroke-miterlimit: 4; fill: rgb(0,0,0); fill-rule: nonzero; opacity: 1;" vector-effect="non-scaling-stroke"  transform=" translate(-15.7415, 15.92212)" d="M 29.312 -1.75 C 27.8003 -0.96875 26.2222 -0.3789 24.5776 0.015600000000000058 C 22.9409 0.42185000000000006 21.2378 0.6249800000000001 19.4682 0.6249800000000001 C 14.1557 0.6249800000000001 9.9409 -0.8594199999999999 6.8271999999999995 -3.82812 C 3.7216999999999993 -6.79692 2.1709999999999994 -10.82812 2.1709999999999994 -15.92212 C 2.1709999999999994 -21.01612 3.721799999999999 -25.04712 6.8271999999999995 -28.01612 C 9.9405 -30.984920000000002 14.1553 -32.46922 19.4682 -32.46922 C 21.2377 -32.46922 22.9409 -32.27 24.5776 -31.87547 C 26.2221 -31.47703 27.8003 -30.88328 29.312 -30.09427 L 29.312 -23.50047 C 27.780800000000003 -24.53957 26.2729 -25.30127 24.796400000000002 -25.78167 C 23.315900000000003 -26.269949999999998 21.7573 -26.51605 20.1245 -26.51605 C 17.187 -26.51605 14.878400000000001 -25.57074 13.2026 -23.68795 C 11.5229 -21.81295 10.687000000000001 -19.22315 10.687000000000001 -15.922350000000002 C 10.687000000000001 -12.629350000000002 11.522940000000002 -10.039550000000002 13.2026 -8.156750000000002 C 14.878400000000001 -6.281750000000002 17.187 -5.344250000000002 20.1245 -5.344250000000002 C 21.7573 -5.344250000000002 23.3159 -5.582530000000002 24.796400000000002 -6.063000000000002 C 26.273000000000003 -6.551280000000002 27.780800000000003 -7.316900000000002 29.312 -8.359900000000003 z" stroke-linecap="round" />
</g>
		<g transform="matrix(1.3333333333 0 0 1.3333333333 396.31202 432.8450933333)" id="1IlDQEGgMiXtMikdUj68V"  >
<path style="stroke: none; stroke-width: 1; stroke-dasharray: none; stroke-linecap: butt; stroke-dashoffset: 0; stroke-linejoin: miter; stroke-miterlimit: 4; fill: rgb(0,0,0); fill-rule: nonzero; opacity: 1;" vector-effect="non-scaling-stroke"  transform=" translate(-15.702765, 16.61618)" d="M 27.734 -14.562 L 27.734 0 L 20.030900000000003 0 L 20.030900000000003 -11.109 C 20.030900000000003 -13.2028 19.984025000000003 -14.6402 19.890280000000004 -15.4215 C 19.804343000000003 -16.20275 19.648090000000003 -16.7809 19.421530000000004 -17.1559 C 19.116840000000003 -17.6559 18.710590000000003 -18.03871 18.202730000000003 -18.312099999999997 C 17.691010000000002 -18.593349999999997 17.10893 -18.73398 16.452730000000003 -18.73398 C 14.858930000000003 -18.73398 13.601130000000003 -18.116789999999998 12.687130000000003 -16.890179999999997 C 11.780880000000003 -15.659679999999998 11.327730000000003 -13.952679999999997 11.327730000000003 -11.765179999999997 L 11.327730000000003 0.0008200000000027075 L 3.6715300000000024 0.0008200000000027075 L 3.6715300000000024 -33.23318 L 11.327730000000003 -33.23318 L 11.327730000000003 -20.42118 C 12.472230000000003 -21.81568 13.691030000000003 -22.84308 14.983930000000003 -23.49928 C 16.284730000000003 -24.163339999999998 17.722230000000003 -24.49928 19.29643 -24.49928 C 22.05423 -24.49928 24.148030000000002 -23.64772 25.57763 -21.952379999999998 C 27.01513 -20.264879999999998 27.733829999999998 -17.800079999999998 27.733829999999998 -14.561779999999999 z" stroke-linecap="round" />
</g>
		<g transform="matrix(1.3333333333 0 0 1.3333333333 435.5375746667 439.0825466667)" id="QfJ7KFDBdxnkG0zVsvJ3i"  >
<path style="stroke: none; stroke-width: 1; stroke-dasharray: none; stroke-linecap: butt; stroke-dashoffset: 0; stroke-linejoin: miter; stroke-miterlimit: 4; fill: rgb(0,0,0); fill-rule: nonzero; opacity: 1;" vector-effect="non-scaling-stroke"  transform=" translate(-13.9774, 11.93809)" d="M 14.391 -10.766 C 12.7972 -10.766 11.597999999999999 -10.49256 10.7972 -9.9535 C 9.99251 -9.41053 9.594100000000001 -8.6137 9.594100000000001 -7.5629 C 9.594100000000001 -6.59415 9.91441 -5.8324 10.562850000000001 -5.2817 C 11.20738 -4.73873 12.109750000000002 -4.4692 13.26595 -4.4692 C 14.70345 -4.4692 15.91045 -4.98482 16.89095 -6.0161 C 17.87923 -7.0473 18.37535 -8.3364 18.37535 -9.8911 L 18.37535 -10.7661 z M 26.079 -13.656600000000001 L 26.079 -0.000600000000000378 L 18.3759 -0.000600000000000378 L 18.3759 -3.5475000000000003 C 17.344700000000003 -2.0983 16.1884 -1.0397000000000003 14.907100000000002 -0.3756000000000004 C 13.625800000000002 0.28849999999999953 12.067300000000001 0.6243999999999996 10.235200000000003 0.6243999999999996 C 7.754700000000002 0.6243999999999996 5.739100000000002 -0.09826000000000035 4.188300000000003 -1.5475000000000003 C 2.6453000000000024 -2.9928000000000003 1.8758000000000026 -4.867800000000001 1.8758000000000026 -7.1725 C 1.8758000000000026 -9.985 2.8367400000000025 -12.0397 4.766400000000003 -13.3444 C 6.703900000000003 -14.6569 9.735200000000003 -15.3132 13.860200000000003 -15.3132 L 18.3758 -15.3132 L 18.3758 -15.92258 C 18.3758 -17.12958 17.89533 -18.016379999999998 16.9383 -18.578780000000002 C 15.989080000000001 -19.141280000000002 14.500800000000002 -19.422530000000002 12.469500000000002 -19.422530000000002 C 10.832800000000002 -19.422530000000002 9.313300000000002 -19.25456 7.907000000000002 -18.922530000000002 C 6.500800000000002 -18.59831 5.188200000000002 -18.110030000000002 3.969500000000002 -17.45373 L 3.969500000000002 -23.28183 C 5.614000000000002 -23.68808 7.258600000000001 -23.98886 8.907000000000002 -24.18808 C 10.563200000000002 -24.39511 12.211700000000002 -24.50058 13.860100000000003 -24.50058 C 18.180400000000002 -24.50058 21.297600000000003 -23.64511 23.203900000000004 -21.93808 C 25.118000000000006 -20.238879999999998 26.078900000000004 -17.47718 26.078900000000004 -13.65688 z" stroke-linecap="round" />
</g>
		<g transform="matrix(1.3333333333 0 0 1.3333333333 477.2026453333 438.66756)" id="DAKIUnuH-DORtIw7GuNqG"  >
<path style="stroke: none; stroke-width: 1; stroke-dasharray: none; stroke-linecap: butt; stroke-dashoffset: 0; stroke-linejoin: miter; stroke-miterlimit: 4; fill: rgb(0,0,0); fill-rule: nonzero; opacity: 1;" vector-effect="non-scaling-stroke"  transform=" translate(-15.702765, 12.24933)" d="M 27.734 -14.562 L 27.734 0 L 20.030900000000003 0 L 20.030900000000003 -11.156 C 20.030900000000003 -13.2185 19.984025000000003 -14.6404 19.890280000000004 -15.421600000000002 C 19.804343000000003 -16.20285 19.648090000000003 -16.781000000000002 19.421530000000004 -17.156000000000002 C 19.116840000000003 -17.656000000000002 18.710590000000003 -18.03881 18.202730000000003 -18.3122 C 17.691010000000002 -18.59345 17.10893 -18.734080000000002 16.452730000000003 -18.734080000000002 C 14.858930000000003 -18.734080000000002 13.601130000000003 -18.11689 12.687130000000003 -16.89028 C 11.780880000000003 -15.659780000000001 11.327730000000003 -13.95278 11.327730000000003 -11.76528 L 11.327730000000003 0.0007199999999993878 L 3.6715300000000024 0.0007199999999993878 L 3.6715300000000024 -23.921280000000003 L 11.327730000000003 -23.921280000000003 L 11.327730000000003 -20.421280000000003 C 12.472230000000003 -21.815780000000004 13.691030000000003 -22.843180000000004 14.983930000000003 -23.499380000000002 C 16.284730000000003 -24.16344 17.722230000000003 -24.499380000000002 19.29643 -24.499380000000002 C 22.05423 -24.499380000000002 24.148030000000002 -23.647820000000003 25.57763 -21.95248 C 27.01513 -20.26498 27.733829999999998 -17.80018 27.733829999999998 -14.561880000000002 z" stroke-linecap="round" />
</g>
</g>
</g>
</svg>