<?xml version="1.0" encoding="UTF-8" standalone="no" ?>
<!DOCTYPE svg PUBLIC "-//W3C//DTD SVG 1.1//EN" "http://www.w3.org/Graphics/SVG/1.1/DTD/svg11.dtd">
<svg xmlns="http://www.w3.org/2000/svg" xmlns:xlink="http://www.w3.org/1999/xlink" version="1.1" width="700" height="700" viewBox="0 0 700 700" xml:space="preserve">
<desc>Created with Fabric.js 5.3.0</desc>
<defs>
</defs>
<g transform="matrix(1 0 0 1 350 444.623655914)" id="ILMuZvjzkhtwKPtsbWEkl"  >
<g style="" vector-effect="non-scaling-stroke"   >
		<g transform="matrix(1.3333333333 0 0 1.3333333333 0 -93.3333333333)" id="zo34cv7CP0q3vfuAOGqlh"  >
<path style="stroke: none; stroke-width: 1; stroke-dasharray: none; stroke-linecap: butt; stroke-dashoffset: 0; stroke-linejoin: miter; stroke-miterlimit: 4; fill: rgb(0,0,0); fill-rule: nonzero; opacity: 1;" vector-effect="non-scaling-stroke"  transform=" translate(-350, -280)" d="M 350 28 C 210.82 28 98 140.82 98 280 C 98 419.18 210.82 532 350 532 C 489.18 532 602 419.18 602 280 C 602 140.82 489.18 28 350 28 z M 350 510.7 C 222.79000000000002 510.7 119.30000000000001 407.21 119.30000000000001 280 C 119.30000000000001 152.79000000000002 222.79000000000002 49.30000000000001 350 49.30000000000001 C 477.21 49.30000000000001 580.7 152.79000000000002 580.7 280 C 580.7 407.21 477.21000000000004 510.7 350.00000000000006 510.7 z" stroke-linecap="round" />
</g>
		<g transform="matrix(1.3333333333 0 0 1.3333333333 -0.0008133333 -93.3297333333)" id="enPEMkObXonQ5A0Z4fVZH"  >
<path style="stroke: none; stroke-width: 1; stroke-dasharray: none; stroke-linecap: butt; stroke-dashoffset: 0; stroke-linejoin: miter; stroke-miterlimit: 4; fill: rgb(0,0,0); fill-rule: nonzero; opacity: 1;" vector-effect="non-scaling-stroke"  transform=" translate(-349.99939, -280.0027)" d="M 472.7 268.72 C 478.68829999999997 258.9778 482.2469 247.06400000000002 482.2469 234.16100000000003 C 482.2469 201.32100000000003 459.43489999999997 174.70400000000004 431.28189999999995 174.70400000000004 C 412.12989999999996 174.70400000000004 395.4658999999999 187.04000000000005 386.75489999999996 205.26300000000003 C 376.93069999999994 195.78250000000003 364.32489999999996 190.08300000000003 350.5829 190.08300000000003 C 335.0209 190.08300000000003 320.9379 197.39550000000003 310.6769 209.22400000000002 C 302.591 188.86100000000002 284.9619 174.704 264.4579 174.704 C 236.31289999999998 174.704 213.4929 201.32500000000002 213.4929 234.161 C 213.4929 247.653 217.3913 260.052 223.8759 270.028 C 193.7739 282.391 173.1179 307.337 173.1179 336.09000000000003 C 173.1179 337.6252 173.2429 339.1408 173.43821 341.27750000000003 L 174.30149 350.9884 L 252.93049000000002 350.9884 C 251.09849000000003 357.0743 250.02429 363.3904 250.02429 369.9184 C 250.02429 371.57460000000003 250.1532 373.20750000000004 250.30945 374.8364 L 251.23523 385.3014 L 454.68523 385.3014 L 455.61100999999996 374.8364 C 455.76334999999995 373.1997 455.89617 371.57860000000005 455.89617 369.9184 C 455.89617 363.39500000000004 454.82196999999996 357.07840000000004 452.98996999999997 350.9884 L 525.75197 350.9884 L 526.63869 340.4144 C 526.76369 338.9808 526.88088 337.5472 526.88088 336.0902 C 526.8691620000001 306.2622 504.63088000000005 280.5512 472.70088000000004 268.7192 z M 431.282 195.997 C 447.364 195.997 460.95 213.47400000000002 460.95 234.161 C 460.95 254.84799999999998 447.364 272.325 431.282 272.325 C 421.5867 272.325 412.825 265.9539 407.376 256.376 L 407.376 256.336938 C 407.376 246.32493799999997 405.4151 236.86393799999996 402.0127 228.35993799999997 C 404.2627 210.30893799999998 416.7317 195.99693799999997 431.2827 195.99693799999997 z M 350.587 211.376 C 370.157 211.376 386.079 231.54000000000002 386.079 256.333 C 386.079 281.12600000000003 370.157 301.29 350.587 301.29 C 331.017 301.29 315.09499999999997 281.12600000000003 315.09499999999997 256.333 C 315.091094 231.54400000000004 331.02099999999996 211.37600000000003 350.587 211.37600000000003 z M 264.462 195.997 C 280.544 195.997 294.13 213.47400000000002 294.13 234.161 C 294.13 254.84799999999998 280.544 272.325 264.462 272.325 C 248.38 272.325 234.79399999999998 254.84799999999998 234.79399999999998 234.161 C 234.79399999999998 213.47400000000002 248.38 195.997 264.462 195.997 z M 194.939 329.687 C 198.1773 309.992 216.146 293.58500000000004 240.49 286.625 C 247.6345 291.082 255.79500000000002 293.625 264.463 293.625 C 273.6075 293.625 282.17 290.7812 289.59200000000004 285.8594 C 293.7873 286.9024 297.80680000000007 288.2188 301.619 289.7813 C 302.94710000000003 292.4258 304.41200000000003 294.95709999999997 306.03700000000003 297.35159999999996 C 288.201 304.63679999999994 273.40000000000003 315.90659999999997 263.49800000000005 329.69559999999996 L 194.93900000000005 329.69559999999996 z M 271.709 363.999 C 274.7207 341.233 294.932 322.144 322.572 313.925 C 330.8415 319.4133 340.392 322.593 350.588 322.593 C 361.322 322.593 371.326 319.0539 379.889 313.0188 C 409.28000000000003 320.6399 431.073 340.3078 434.201 363.9988 z M 442.419 329.687 C 431.825 314.925 415.60699999999997 303.07 396.07899999999995 295.886 C 397.45789999999994 293.7337 398.73519999999996 291.4993 399.87979999999993 289.1594 C 402.28599999999994 288.22581 404.75089999999994 287.3547 407.30949999999996 286.62420000000003 C 414.45399999999995 291.0812 422.61449999999996 293.62420000000003 431.28249999999997 293.62420000000003 C 440.42699999999996 293.62420000000003 448.98949999999996 290.78040000000004 456.4115 285.8586 C 482.3025 292.28830000000005 501.6885 309.18260000000004 505.0595 329.69460000000004 L 442.4185 329.69460000000004 z" stroke-linecap="round" />
</g>
		<g transform="matrix(1.3333333333 0 0 1.3333333333 -359.8952666667 378.40616)" id="reU3VxS-0ndBadyLqzAEJ"  >
<path style="stroke: none; stroke-width: 1; stroke-dasharray: none; stroke-linecap: butt; stroke-dashoffset: 0; stroke-linejoin: miter; stroke-miterlimit: 4; fill: rgb(0,0,0); fill-rule: nonzero; opacity: 1;" vector-effect="non-scaling-stroke"  transform=" translate(-10.07855, 10.19538)" d="M 18.766 -1.125 C 17.79725 -0.625 16.7855 -0.25 15.734799999999998 0 C 14.691799999999999 0.25781 13.598099999999999 0.39062 12.453599999999998 0.39062 C 9.055199999999997 0.39062 6.363799999999998 -0.5546899999999999 4.375499999999999 -2.4531799999999997 C 2.383299999999999 -4.35938 1.391099999999999 -6.93758 1.391099999999999 -10.18758 C 1.391099999999999 -13.44538 2.383289999999999 -16.02348 4.375499999999999 -17.92198 C 6.363799999999999 -19.82818 9.0552 -20.781380000000002 12.453599999999998 -20.781380000000002 C 13.598099999999999 -20.781380000000002 14.691899999999999 -20.648570000000003 15.734799999999998 -20.390760000000004 C 16.7856 -20.140760000000004 17.7973 -19.765760000000004 18.766 -19.265760000000004 L 18.766 -15.046960000000004 C 17.785529999999998 -15.703210000000004 16.8207 -16.187560000000005 15.875399999999999 -16.500060000000005 C 14.926179999999999 -16.812560000000005 13.9262 -16.968810000000005 12.875399999999999 -16.968810000000005 C 11.000399999999999 -16.968810000000005 9.5238 -16.363340000000004 8.453499999999998 -15.156310000000005 C 7.379299999999998 -13.957110000000005 6.844099999999998 -12.300810000000006 6.844099999999998 -10.187510000000005 C 6.844099999999998 -8.082010000000004 7.379259999999999 -6.425810000000006 8.453499999999998 -5.218710000000005 C 9.523799999999998 -4.019510000000005 11.000399999999999 -3.421810000000005 12.875399999999999 -3.421810000000005 C 13.9262 -3.421810000000005 14.9262 -3.570250000000005 15.875399999999999 -3.8749300000000053 C 16.82071 -4.187430000000005 17.7856 -4.675710000000006 18.766 -5.343730000000005 z" stroke-linecap="round" />
</g>
		<g transform="matrix(1.3333333333 0 0 1.3333333333 -335.2035586667 381.54152)" id="S0EBJz7RM-TrbPRQdQ0ce"  >
<path style="stroke: none; stroke-width: 1; stroke-dasharray: none; stroke-linecap: butt; stroke-dashoffset: 0; stroke-linejoin: miter; stroke-miterlimit: 4; fill: rgb(0,0,0); fill-rule: nonzero; opacity: 1;" vector-effect="non-scaling-stroke"  transform=" translate(-8.04655, 7.84386)" d="M 13.734 -11.141 C 13.2965 -11.33631 12.86291 -11.48475 12.437100000000001 -11.5785 C 12.01913 -11.68006 11.59726 -11.73475 11.171500000000002 -11.73475 C 9.909800000000002 -11.73475 8.941000000000003 -11.3285 8.265300000000002 -10.51595 C 7.585610000000002 -9.71126 7.249700000000002 -8.562850000000001 7.249700000000002 -7.06285 L 7.249700000000002 -0.0003500000000000725 L 2.3591000000000015 -0.0003500000000000725 L 2.3591000000000015 -15.312349999999999 L 7.249700000000002 -15.312349999999999 L 7.249700000000002 -12.79675 C 7.874700000000002 -13.79675 8.593500000000002 -14.523349999999999 9.405900000000003 -14.98425 C 10.226210000000002 -15.453 11.206700000000003 -15.68737 12.343400000000003 -15.68737 C 12.507460000000002 -15.68737 12.687150000000003 -15.675651 12.874650000000003 -15.65612 C 13.069960000000002 -15.644401 13.351210000000002 -15.617058 13.718400000000003 -15.577995 z" stroke-linecap="round" />
</g>
		<g transform="matrix(1.3333333333 0 0 1.3333333333 -314.9579 381.8020533333)" id="jCkYiPjsG6Ocr6oA5C3bs"  >
<path style="stroke: none; stroke-width: 1; stroke-dasharray: none; stroke-linecap: butt; stroke-dashoffset: 0; stroke-linejoin: miter; stroke-miterlimit: 4; fill: rgb(0,0,0); fill-rule: nonzero; opacity: 1;" vector-effect="non-scaling-stroke"  transform=" translate(-9.4222, 7.64846)" d="M 17.641 -7.7031 L 17.641 -6.2969 L 6.187999999999999 -6.2969 C 6.312999999999999 -5.1485 6.727059999999999 -4.2890999999999995 7.437999999999999 -3.7188 C 8.145029999999998 -3.14458 9.141099999999998 -2.85942 10.4224 -2.85942 C 11.4536 -2.85942 12.5044 -3.00786 13.5786 -3.3125400000000003 C 14.6606 -3.6250400000000003 15.77 -4.08598 16.9067 -4.70314 L 16.9067 -0.9375400000000003 C 15.7505 -0.5000400000000003 14.5942 -0.1719200000000003 13.4379 0.04683999999999977 C 12.2817 0.27339999999999975 11.1254 0.39058999999999977 9.969100000000001 0.39058999999999977 C 7.1957 0.39058999999999977 5.0394000000000005 -0.3125300000000002 3.500300000000001 -1.7188100000000002 C 1.9691000000000012 -3.12501 1.2034000000000011 -5.09771 1.2034000000000011 -7.64071 C 1.2034000000000011 -10.14071 1.957310000000001 -12.10161 3.469000000000001 -13.531310000000001 C 4.976800000000001 -14.968810000000001 7.051000000000001 -15.687510000000001 9.687800000000001 -15.687510000000001 C 12.094000000000001 -15.687510000000001 14.0198 -14.957040000000001 15.469000000000001 -13.500010000000001 C 16.9143 -12.050810000000002 17.640900000000002 -10.117210000000002 17.640900000000002 -7.7031100000000015 z M 12.609799999999998 -9.3281 C 12.609799999999998 -10.253879999999999 12.336359999999997 -11 11.797299999999998 -11.5625 C 11.254329999999998 -12.13281 10.547299999999998 -12.42188 9.672299999999998 -12.42188 C 8.723079999999998 -12.42188 7.953499999999998 -12.15626 7.359799999999998 -11.625 C 6.766099999999998 -11.09374 6.394959999999998 -10.3281 6.250399999999998 -9.3281 z" stroke-linecap="round" />
</g>
		<g transform="matrix(1.3333333333 0 0 1.3333333333 -290.275992 381.80204)" id="g1NX44wZe9A-lTfTgXeeJ"  >
<path style="stroke: none; stroke-width: 1; stroke-dasharray: none; stroke-linecap: butt; stroke-dashoffset: 0; stroke-linejoin: miter; stroke-miterlimit: 4; fill: rgb(0,0,0); fill-rule: nonzero; opacity: 1;" vector-effect="non-scaling-stroke"  transform=" translate(-8.94535, 7.64847)" d="M 9.2188 -6.8906 C 8.1954 -6.8906 7.4258 -6.71872 6.9063 -6.37498 C 6.3945799999999995 -6.03123 6.14068 -5.51951 6.14068 -4.84378 C 6.14068 -4.21878 6.347709999999999 -3.72658 6.76568 -3.37498 C 7.17974 -3.03123 7.753959999999999 -2.8593599999999997 8.48448 -2.8593599999999997 C 9.41026 -2.8593599999999997 10.18758 -3.18748 10.81258 -3.8437399999999995 C 11.44539 -4.5078 11.7657 -5.335939999999999 11.7657 -6.328139999999999 L 11.7657 -6.890639999999999 z M 16.6876 -8.7344 L 16.6876 0 L 11.765699999999999 0 L 11.765699999999999 -2.2656 C 11.109449999999999 -1.3359100000000002 10.367299999999998 -0.6601000000000001 9.546899999999999 -0.23439999999999994 C 8.722679999999999 0.17966000000000004 7.722699999999999 0.39060000000000006 6.546899999999999 0.39060000000000006 C 4.9609999999999985 0.39060000000000006 3.675799999999999 -0.06642999999999993 2.687499999999999 -0.9843999999999999 C 1.6953099999999992 -1.91018 1.2030999999999992 -3.1132999999999997 1.2030999999999992 -4.5938 C 1.2030999999999992 -6.382899999999999 1.8163799999999992 -7.695399999999999 3.046899999999999 -8.5313 C 4.285199999999999 -9.37505 6.2265999999999995 -9.7969 8.875 -9.7969 L 11.7656 -9.7969 L 11.7656 -10.187520000000001 C 11.7656 -10.95705 11.457009999999999 -11.519520000000002 10.84372 -11.875020000000001 C 10.226529999999999 -12.2383 9.27342 -12.4219 7.984319999999999 -12.4219 C 6.92962 -12.4219 5.953119999999999 -12.31643 5.046819999999999 -12.1094 C 4.1483799999999995 -11.89846 3.3163199999999993 -11.58596 2.5468199999999994 -11.1719 L 2.5468199999999994 -14.906300000000002 C 3.5859199999999993 -15.156300000000002 4.632719999999999 -15.347710000000001 5.6874199999999995 -15.484420000000002 C 6.7499199999999995 -15.617230000000001 7.8124199999999995 -15.687540000000002 8.87492 -15.687540000000002 C 11.632719999999999 -15.687540000000002 13.62492 -15.140660000000002 14.84372 -14.046940000000003 C 16.07032 -12.961040000000002 16.68752 -11.191440000000004 16.68752 -8.734440000000003 z" stroke-linecap="round" />
</g>
		<g transform="matrix(1.3333333333 0 0 1.3333333333 -268.2604293333 378.8962)" id="v85GF_IM8ZJVLfsc6eqbQ"  >
<path style="stroke: none; stroke-width: 1; stroke-dasharray: none; stroke-linecap: butt; stroke-dashoffset: 0; stroke-linejoin: miter; stroke-miterlimit: 4; fill: rgb(0,0,0); fill-rule: nonzero; opacity: 1;" vector-effect="non-scaling-stroke"  transform=" translate(-6.56249, 9.82785)" d="M 7.7031 -19.656 L 7.7031 -15.312199999999999 L 12.75 -15.312199999999999 L 12.75 -11.812199999999999 L 7.7031 -11.812199999999999 L 7.7031 -5.312199999999999 C 7.7031 -4.601259999999999 7.84372 -4.124699999999999 8.12498 -3.874699999999999 C 8.40624 -3.624699999999999 8.960920000000002 -3.499699999999999 9.796880000000002 -3.499699999999999 L 12.31248 -3.499699999999999 L 12.31248 0.0003000000000010772 L 8.12498 0.0003000000000010772 C 6.187480000000001 0.0003000000000010772 4.812480000000001 -0.39813999999999894 3.9999800000000008 -1.202799999999999 C 3.195290000000001 -2.015299999999999 2.7968800000000007 -3.382499999999999 2.7968800000000007 -5.312199999999999 L 2.7968800000000007 -11.812199999999999 L 0.37498000000000076 -11.812199999999999 L 0.37498000000000076 -15.312199999999999 L 2.7968800000000007 -15.312199999999999 L 2.7968800000000007 -19.656 z" stroke-linecap="round" />
</g>
		<g transform="matrix(1.3333333333 0 0 1.3333333333 -246.5985253333 381.8020533333)" id="cFW81uIOyYisCrgiqxjIr"  >
<path style="stroke: none; stroke-width: 1; stroke-dasharray: none; stroke-linecap: butt; stroke-dashoffset: 0; stroke-linejoin: miter; stroke-miterlimit: 4; fill: rgb(0,0,0); fill-rule: nonzero; opacity: 1;" vector-effect="non-scaling-stroke"  transform=" translate(-9.4222, 7.64846)" d="M 17.641 -7.7031 L 17.641 -6.2969 L 6.187999999999999 -6.2969 C 6.312999999999999 -5.1485 6.727059999999999 -4.2890999999999995 7.437999999999999 -3.7188 C 8.145029999999998 -3.14458 9.141099999999998 -2.85942 10.4224 -2.85942 C 11.4536 -2.85942 12.5044 -3.00786 13.5786 -3.3125400000000003 C 14.6606 -3.6250400000000003 15.77 -4.08598 16.9067 -4.70314 L 16.9067 -0.9375400000000003 C 15.7505 -0.5000400000000003 14.5942 -0.1719200000000003 13.4379 0.04683999999999977 C 12.2817 0.27339999999999975 11.1254 0.39058999999999977 9.969100000000001 0.39058999999999977 C 7.1957 0.39058999999999977 5.0394000000000005 -0.3125300000000002 3.500300000000001 -1.7188100000000002 C 1.9691000000000012 -3.12501 1.2034000000000011 -5.09771 1.2034000000000011 -7.64071 C 1.2034000000000011 -10.14071 1.957310000000001 -12.10161 3.469000000000001 -13.531310000000001 C 4.976800000000001 -14.968810000000001 7.051000000000001 -15.687510000000001 9.687800000000001 -15.687510000000001 C 12.094000000000001 -15.687510000000001 14.0198 -14.957040000000001 15.469000000000001 -13.500010000000001 C 16.9143 -12.050810000000002 17.640900000000002 -10.117210000000002 17.640900000000002 -7.7031100000000015 z M 12.609799999999998 -9.3281 C 12.609799999999998 -10.253879999999999 12.336359999999997 -11 11.797299999999998 -11.5625 C 11.254329999999998 -12.13281 10.547299999999998 -12.42188 9.672299999999998 -12.42188 C 8.723079999999998 -12.42188 7.953499999999998 -12.15626 7.359799999999998 -11.625 C 6.766099999999998 -11.09374 6.394959999999998 -10.3281 6.250399999999998 -9.3281 z" stroke-linecap="round" />
</g>
		<g transform="matrix(1.3333333333 0 0 1.3333333333 -221.207816 378.0729333333)" id="5_eS9sMJo4fxptVtWt8oR"  >
<path style="stroke: none; stroke-width: 1; stroke-dasharray: none; stroke-linecap: butt; stroke-dashoffset: 0; stroke-linejoin: miter; stroke-miterlimit: 4; fill: rgb(0,0,0); fill-rule: nonzero; opacity: 1;" vector-effect="non-scaling-stroke"  transform=" translate(-9.47695, 10.4453)" d="M 12.766 -13.078 L 12.766 -21.2811 L 17.6879 -21.2811 L 17.6879 -0.00009999999999976694 L 12.765999999999998 -0.00009999999999976694 L 12.765999999999998 -2.2188999999999997 C 12.098029999999998 -1.3126499999999997 11.359799999999998 -0.6485999999999996 10.547199999999998 -0.2344999999999997 C 9.734599999999999 0.1796000000000002 8.789399999999999 0.3905000000000003 7.719099999999998 0.3905000000000003 C 5.832399999999998 0.3905000000000003 4.285499999999998 -0.3594999999999997 3.0784999999999982 -1.8594999999999997 C 1.8675999999999982 -3.3594999999999997 1.2659999999999982 -5.285299999999999 1.2659999999999982 -7.6407 C 1.2659999999999982 -10.004 1.8675599999999983 -11.9376 3.0784999999999982 -13.4376 C 4.285499999999998 -14.9376 5.832399999999998 -15.6876 7.719099999999998 -15.6876 C 8.781599999999997 -15.6876 9.719099999999997 -15.47276 10.531599999999997 -15.04698 C 11.351909999999997 -14.617289999999999 12.097999999999997 -13.961079999999999 12.765999999999998 -13.07818 z M 9.5472 -3.1560999999999986 C 10.5863 -3.1560999999999986 11.3831 -3.5350099999999984 11.9378 -4.296699999999999 C 12.488579999999999 -5.066229999999999 12.76592 -6.179499999999999 12.76592 -7.6404999999999985 C 12.76592 -9.097499999999998 12.488579999999999 -10.206899999999997 11.9378 -10.968599999999999 C 11.383109999999999 -11.738129999999998 10.5862 -12.124799999999999 9.5472 -12.124799999999999 C 8.5042 -12.124799999999999 7.7074 -11.738079999999998 7.1566 -10.968599999999999 C 6.60191 -10.206879999999998 6.32848 -9.097499999999998 6.32848 -7.6404999999999985 C 6.32848 -6.179599999999999 6.60192 -5.066299999999998 7.1566 -4.296699999999999 C 7.707380000000001 -3.5349799999999987 8.5043 -3.1560999999999986 9.5472 -3.1560999999999986 z" stroke-linecap="round" />
</g>
		<g transform="matrix(1.3333333333 0 0 1.3333333333 -180.0260586667 378.07304)" id="fBcEZ7j0zpXDr5PW7e9tU"  >
<path style="stroke: none; stroke-width: 1; stroke-dasharray: none; stroke-linecap: butt; stroke-dashoffset: 0; stroke-linejoin: miter; stroke-miterlimit: 4; fill: rgb(0,0,0); fill-rule: nonzero; opacity: 1;" vector-effect="non-scaling-stroke"  transform=" translate(-10.5703, 10.44522)" d="M 10.5 -3.1562 C 11.5508 -3.1562 12.3516 -3.53511 12.9062 -4.2968 C 13.45698 -5.066330000000001 13.73432 -6.179600000000001 13.73432 -7.6406 C 13.73432 -9.0976 13.45698 -10.207 12.9062 -10.9687 C 12.35151 -11.73823 11.5507 -12.1249 10.5 -12.1249 C 9.4453 -12.1249 8.6406 -11.73818 8.0781 -10.9687 C 7.523409999999999 -10.19526 7.249979999999999 -9.0859 7.249979999999999 -7.6406 C 7.249979999999999 -6.1914 7.523419999999999 -5.082 8.0781 -4.3125 C 8.6406 -3.53906 9.4453 -3.1563 10.5 -3.1563 z M 7.25 -13.078100000000001 C 7.92578 -13.96091 8.6719 -14.6172 9.4844 -15.0469 C 10.30471 -15.47268 11.25 -15.687520000000001 12.3125 -15.687520000000001 C 14.207 -15.687520000000001 15.7578 -14.937520000000001 16.9687 -13.437520000000001 C 18.1757 -11.937520000000001 18.7812 -10.00392 18.7812 -7.640620000000001 C 18.7812 -5.285120000000001 18.175729999999998 -3.359420000000001 16.9687 -1.859420000000001 C 15.757799999999998 -0.35942000000000096 14.206999999999999 0.39057999999999904 12.312499999999998 0.39057999999999904 C 11.249999999999998 0.39057999999999904 10.304699999999999 0.17963999999999905 9.484399999999997 -0.23442000000000096 C 8.671899999999997 -0.660200000000001 7.925799999999997 -1.320320000000001 7.249999999999997 -2.218820000000001 L 7.249999999999997 -0.000020000000001019203 L 2.3593999999999973 -0.000020000000001019203 L 2.3593999999999973 -21.281019999999998 L 7.249999999999997 -21.281019999999998 z" stroke-linecap="round" />
</g>
		<g transform="matrix(1.3333333333 0 0 1.3333333333 -155.3333666667 385.8238)" id="azyrlZMADgbD48Q_IDLiL"  >
<path style="stroke: none; stroke-width: 1; stroke-dasharray: none; stroke-linecap: butt; stroke-dashoffset: 0; stroke-linejoin: miter; stroke-miterlimit: 4; fill: rgb(0,0,0); fill-rule: nonzero; opacity: 1;" vector-effect="non-scaling-stroke"  transform=" translate(-9.04685, 4.63215)" d="M 0.34375 -15.312 L 5.23435 -15.312 L 9.35935 -4.920999999999999 L 12.85935 -15.312 L 17.74995 -15.312 L 11.312449999999998 1.4539999999999988 C 10.664009999999998 3.149299999999999 9.910149999999998 4.336799999999998 9.04685 5.016499999999999 C 8.179659999999998 5.703999999999999 7.046849999999999 6.047699999999999 5.640649999999999 6.047699999999999 L 2.796849999999999 6.047699999999999 L 2.796849999999999 2.828899999999999 L 4.328049999999999 2.828899999999999 C 5.160079999999999 2.828899999999999 5.765549999999999 2.692179999999999 6.140549999999999 2.422649999999999 C 6.523359999999999 2.160929999999999 6.820239999999999 1.6921799999999991 7.0311699999999995 1.0164499999999992 L 7.17179 0.5945699999999992 z" stroke-linecap="round" />
</g>
		<g transform="matrix(1.3333333333 0 0 1.3333333333 -114.2078333333 378.4058666667)" id="2YyNToAO11GE0WXZ65MMl"  >
<path style="stroke: none; stroke-width: 1; stroke-dasharray: none; stroke-linecap: butt; stroke-dashoffset: 0; stroke-linejoin: miter; stroke-miterlimit: 4; fill: rgb(0,0,0); fill-rule: nonzero; opacity: 1;" vector-effect="non-scaling-stroke"  transform=" translate(-11.891, 10.1956)" d="M 11.891 -16.969 C 10.2855 -16.969 9.0394 -16.37525 8.156600000000001 -15.187800000000001 C 7.281600000000001 -14.000300000000001 6.844100000000001 -12.3323 6.844100000000001 -10.187800000000001 C 6.844100000000001 -8.0394 7.281600000000001 -6.375300000000001 8.156600000000001 -5.187800000000001 C 9.03941 -4.008100000000001 10.2855 -3.422200000000001 11.891000000000002 -3.422200000000001 C 13.504300000000002 -3.422200000000001 14.754300000000002 -4.008140000000001 15.641000000000002 -5.187800000000001 C 16.52381 -6.375300000000001 16.9691 -8.0394 16.9691 -10.187800000000001 C 16.9691 -12.3323 16.52379 -14.000300000000001 15.641000000000002 -15.187800000000001 C 14.754280000000001 -16.375300000000003 13.504300000000002 -16.969 11.891000000000002 -16.969 z M 11.891 -20.7815 C 15.1722 -20.7815 17.7387 -19.844 19.5941 -17.969 C 21.4574 -16.094 22.391000000000002 -13.500200000000001 22.391000000000002 -10.187800000000001 C 22.391000000000002 -6.883100000000001 21.457410000000003 -4.297200000000001 19.5941 -2.422200000000001 C 17.7386 -0.547200000000001 15.1722 0.390299999999999 11.891000000000002 0.390299999999999 C 8.617600000000001 0.390299999999999 6.0512000000000015 -0.547200000000001 4.187900000000002 -2.422200000000001 C 2.3207000000000018 -4.297200000000001 1.3910000000000018 -6.883100000000001 1.3910000000000018 -10.187800000000001 C 1.3910000000000018 -13.500300000000001 2.3206900000000017 -16.094 4.187900000000002 -17.969 C 6.0512000000000015 -19.844 8.617600000000003 -20.7815 11.891000000000002 -20.7815 z" stroke-linecap="round" />
</g>
		<g transform="matrix(1.3333333333 0 0 1.3333333333 -83.9844586667 377.8129333333)" id="eFBLOGINMvBX5Qfnea2Ve"  >
<path style="stroke: none; stroke-width: 1; stroke-dasharray: none; stroke-linecap: butt; stroke-dashoffset: 0; stroke-linejoin: miter; stroke-miterlimit: 4; fill: rgb(0,0,0); fill-rule: nonzero; opacity: 1;" vector-effect="non-scaling-stroke"  transform=" translate(-10.75775, 10.6403)" d="M 2.3594 -21.281 L 7.25 -21.281 L 7.25 -9.687 L 12.875 -15.312 L 18.5625 -15.312 L 11.0937 -8.2808 L 19.1562 0.0004000000000008441 L 13.218699999999998 0.0004000000000008441 L 7.2498999999999985 -6.390199999999999 L 7.2498999999999985 0.0004000000000008441 L 2.3592999999999984 0.0004000000000008441 z" stroke-linecap="round" />
</g>
		<g transform="matrix(1.3333333333 0 0 1.3333333333 -62.3025266667 381.8022733333)" id="_cynugYe2mDztlhKgI_Gi"  >
<path style="stroke: none; stroke-width: 1; stroke-dasharray: none; stroke-linecap: butt; stroke-dashoffset: 0; stroke-linejoin: miter; stroke-miterlimit: 4; fill: rgb(0,0,0); fill-rule: nonzero; opacity: 1;" vector-effect="non-scaling-stroke"  transform=" translate(-8.398105, 7.648295)" d="M 14.312 -14.828 L 14.312 -11.1092 C 13.269 -11.5467 12.257299999999999 -11.87482 11.2808 -12.09358 C 10.300329999999999 -12.31233 9.378499999999999 -12.4217 8.5152 -12.4217 C 7.58551 -12.4217 6.8941 -12.304509999999999 6.4371 -12.07795 C 5.98788 -11.84748 5.76522 -11.488109999999999 5.76522 -10.999849999999999 C 5.76522 -10.613129999999998 5.9371 -10.316259999999998 6.28084 -10.109229999999998 C 6.62459 -9.898289999999998 7.237870000000001 -9.742039999999998 8.124640000000001 -9.640479999999998 L 8.984020000000001 -9.515479999999998 C 11.49182 -9.191259999999998 13.17932 -8.66392 14.046520000000001 -7.937379999999998 C 14.9098 -7.206909999999999 15.343420000000002 -6.066279999999998 15.343420000000002 -4.515479999999998 C 15.343420000000002 -2.878779999999998 14.737950000000001 -1.6482799999999984 13.530920000000002 -0.8279799999999984 C 12.331720000000002 -0.015479999999998384 10.538720000000001 0.3908200000000017 8.155920000000002 0.3908200000000017 C 7.132520000000001 0.3908200000000017 6.0817200000000025 0.3126950000000017 4.999720000000002 0.15644000000000172 C 3.9255200000000015 0.00019000000000171657 2.8200200000000017 -0.23808999999999828 1.6872200000000017 -0.5623099999999983 L 1.6872200000000017 -4.281109999999998 C 2.6559700000000017 -3.8006399999999982 3.648120000000002 -3.441269999999998 4.671620000000002 -3.203009999999998 C 5.702820000000002 -2.972539999999998 6.749720000000002 -2.859259999999998 7.812220000000002 -2.859259999999998 C 8.769250000000001 -2.859259999999998 9.488020000000002 -2.988169999999998 9.968420000000002 -3.2498799999999983 C 10.444980000000001 -3.5194099999999984 10.687170000000002 -3.9139399999999984 10.687170000000002 -4.437379999999998 C 10.687170000000002 -4.874879999999998 10.519200000000001 -5.195189999999998 10.187170000000002 -5.406129999999998 C 9.851230000000001 -5.624879999999998 9.191080000000001 -5.788939999999998 8.202770000000001 -5.906129999999998 L 7.343390000000001 -6.015509999999998 C 5.163690000000001 -6.285039999999998 3.640290000000001 -6.788949999999998 2.765290000000001 -7.531109999999998 C 1.8902900000000011 -8.269389999999998 1.4527900000000011 -9.390509999999999 1.4527900000000011 -10.890509999999999 C 1.4527900000000011 -12.515509999999999 2.003570000000001 -13.718609999999998 3.1089900000000013 -14.49991 C 4.222290000000001 -15.288969999999999 5.929290000000002 -15.68741 8.233990000000002 -15.68741 C 9.128520000000002 -15.68741 10.069890000000003 -15.613191 11.062090000000001 -15.46866 C 12.062090000000001 -15.33194 13.144090000000002 -15.1171 14.312090000000001 -14.82804 z" stroke-linecap="round" />
</g>
		<g transform="matrix(1.3333333333 0 0 1.3333333333 -39.3541173333 381.80204)" id="NvIgKxHO_g9TGLND1YG86"  >
<path style="stroke: none; stroke-width: 1; stroke-dasharray: none; stroke-linecap: butt; stroke-dashoffset: 0; stroke-linejoin: miter; stroke-miterlimit: 4; fill: rgb(0,0,0); fill-rule: nonzero; opacity: 1;" vector-effect="non-scaling-stroke"  transform=" translate(-8.94535, 7.64847)" d="M 9.2188 -6.8906 C 8.1954 -6.8906 7.4258 -6.71872 6.9063 -6.37498 C 6.3945799999999995 -6.03123 6.14068 -5.51951 6.14068 -4.84378 C 6.14068 -4.21878 6.347709999999999 -3.72658 6.76568 -3.37498 C 7.17974 -3.03123 7.753959999999999 -2.8593599999999997 8.48448 -2.8593599999999997 C 9.41026 -2.8593599999999997 10.18758 -3.18748 10.81258 -3.8437399999999995 C 11.44539 -4.5078 11.7657 -5.335939999999999 11.7657 -6.328139999999999 L 11.7657 -6.890639999999999 z M 16.6876 -8.7344 L 16.6876 0 L 11.765699999999999 0 L 11.765699999999999 -2.2656 C 11.109449999999999 -1.3359100000000002 10.367299999999998 -0.6601000000000001 9.546899999999999 -0.23439999999999994 C 8.722679999999999 0.17966000000000004 7.722699999999999 0.39060000000000006 6.546899999999999 0.39060000000000006 C 4.9609999999999985 0.39060000000000006 3.675799999999999 -0.06642999999999993 2.687499999999999 -0.9843999999999999 C 1.6953099999999992 -1.91018 1.2030999999999992 -3.1132999999999997 1.2030999999999992 -4.5938 C 1.2030999999999992 -6.382899999999999 1.8163799999999992 -7.695399999999999 3.046899999999999 -8.5313 C 4.285199999999999 -9.37505 6.2265999999999995 -9.7969 8.875 -9.7969 L 11.7656 -9.7969 L 11.7656 -10.187520000000001 C 11.7656 -10.95705 11.457009999999999 -11.519520000000002 10.84372 -11.875020000000001 C 10.226529999999999 -12.2383 9.27342 -12.4219 7.984319999999999 -12.4219 C 6.92962 -12.4219 5.953119999999999 -12.31643 5.046819999999999 -12.1094 C 4.1483799999999995 -11.89846 3.3163199999999993 -11.58596 2.5468199999999994 -11.1719 L 2.5468199999999994 -14.906300000000002 C 3.5859199999999993 -15.156300000000002 4.632719999999999 -15.347710000000001 5.6874199999999995 -15.484420000000002 C 6.7499199999999995 -15.617230000000001 7.8124199999999995 -15.687540000000002 8.87492 -15.687540000000002 C 11.632719999999999 -15.687540000000002 13.62492 -15.140660000000002 14.84372 -14.046940000000003 C 16.07032 -12.961040000000002 16.68752 -11.191440000000004 16.68752 -8.734440000000003 z" stroke-linecap="round" />
</g>
		<g transform="matrix(1.3333333333 0 0 1.3333333333 -12.6770666667 381.54192)" id="guNtBdqQ7cXz8Z3KumnjY"  >
<path style="stroke: none; stroke-width: 1; stroke-dasharray: none; stroke-linecap: butt; stroke-dashoffset: 0; stroke-linejoin: miter; stroke-miterlimit: 4; fill: rgb(0,0,0); fill-rule: nonzero; opacity: 1;" vector-effect="non-scaling-stroke"  transform=" translate(-10.0547, 7.84356)" d="M 17.75 -9.3281 L 17.75 0 L 12.8281 0 L 12.8281 -7.1406 C 12.8281 -8.4609 12.79685 -9.375 12.73435 -9.875 C 12.67185 -10.375 12.566379999999999 -10.74219 12.42185 -10.9844 C 12.23435 -11.2969 11.972629999999999 -11.539090000000002 11.6406 -11.71878 C 11.316379999999999 -11.89456 10.94529 -11.9844 10.531199999999998 -11.9844 C 9.507799999999998 -11.9844 8.706999999999999 -11.58596 8.124999999999998 -10.7969 C 7.539059999999998 -10.01565 7.249999999999998 -8.9258 7.249999999999998 -7.531300000000001 L 7.249999999999998 -0.00010000000000065512 L 2.359399999999998 -0.00010000000000065512 L 2.359399999999998 -15.312100000000001 L 7.249999999999998 -15.312100000000001 L 7.249999999999998 -13.0777 C 7.988279999999998 -13.96051 8.769499999999999 -14.6168 9.593799999999998 -15.0465 C 10.425829999999998 -15.47228 11.343799999999998 -15.68712 12.343799999999998 -15.68712 C 14.113299999999999 -15.68712 15.457099999999999 -15.14024 16.375 -14.046520000000001 C 17.28906 -12.96062 17.75 -11.390320000000001 17.75 -9.327720000000001 z" stroke-linecap="round" />
</g>
		<g transform="matrix(1.3333333333 0 0 1.3333333333 12.4167173333 381.80204)" id="raj6RznLGt05S_5zXFV4l"  >
<path style="stroke: none; stroke-width: 1; stroke-dasharray: none; stroke-linecap: butt; stroke-dashoffset: 0; stroke-linejoin: miter; stroke-miterlimit: 4; fill: rgb(0,0,0); fill-rule: nonzero; opacity: 1;" vector-effect="non-scaling-stroke"  transform=" translate(-8.94535, 7.64847)" d="M 9.2188 -6.8906 C 8.1954 -6.8906 7.4258 -6.71872 6.9063 -6.37498 C 6.3945799999999995 -6.03123 6.14068 -5.51951 6.14068 -4.84378 C 6.14068 -4.21878 6.347709999999999 -3.72658 6.76568 -3.37498 C 7.17974 -3.03123 7.753959999999999 -2.8593599999999997 8.48448 -2.8593599999999997 C 9.41026 -2.8593599999999997 10.18758 -3.18748 10.81258 -3.8437399999999995 C 11.44539 -4.5078 11.7657 -5.335939999999999 11.7657 -6.328139999999999 L 11.7657 -6.890639999999999 z M 16.6876 -8.7344 L 16.6876 0 L 11.765699999999999 0 L 11.765699999999999 -2.2656 C 11.109449999999999 -1.3359100000000002 10.367299999999998 -0.6601000000000001 9.546899999999999 -0.23439999999999994 C 8.722679999999999 0.17966000000000004 7.722699999999999 0.39060000000000006 6.546899999999999 0.39060000000000006 C 4.9609999999999985 0.39060000000000006 3.675799999999999 -0.06642999999999993 2.687499999999999 -0.9843999999999999 C 1.6953099999999992 -1.91018 1.2030999999999992 -3.1132999999999997 1.2030999999999992 -4.5938 C 1.2030999999999992 -6.382899999999999 1.8163799999999992 -7.695399999999999 3.046899999999999 -8.5313 C 4.285199999999999 -9.37505 6.2265999999999995 -9.7969 8.875 -9.7969 L 11.7656 -9.7969 L 11.7656 -10.187520000000001 C 11.7656 -10.95705 11.457009999999999 -11.519520000000002 10.84372 -11.875020000000001 C 10.226529999999999 -12.2383 9.27342 -12.4219 7.984319999999999 -12.4219 C 6.92962 -12.4219 5.953119999999999 -12.31643 5.046819999999999 -12.1094 C 4.1483799999999995 -11.89846 3.3163199999999993 -11.58596 2.5468199999999994 -11.1719 L 2.5468199999999994 -14.906300000000002 C 3.5859199999999993 -15.156300000000002 4.632719999999999 -15.347710000000001 5.6874199999999995 -15.484420000000002 C 6.7499199999999995 -15.617230000000001 7.8124199999999995 -15.687540000000002 8.87492 -15.687540000000002 C 11.632719999999999 -15.687540000000002 13.62492 -15.140660000000002 14.84372 -14.046940000000003 C 16.07032 -12.961040000000002 16.68752 -11.191440000000004 16.68752 -8.734440000000003 z" stroke-linecap="round" />
</g>
		<g transform="matrix(1.3333333333 0 0 1.3333333333 51.7864253333 378.3962666667)" id="lBtHkfMbqVxJlzOtyY7Lf"  >
<path style="stroke: none; stroke-width: 1; stroke-dasharray: none; stroke-linecap: butt; stroke-dashoffset: 0; stroke-linejoin: miter; stroke-miterlimit: 4; fill: rgb(0,0,0); fill-rule: nonzero; opacity: 1;" vector-effect="non-scaling-stroke"  transform=" translate(-9.8281, 10.2028)" d="M 2.5781 -20.406 L 7.8281 -20.406 L 7.8281 -3.983999999999998 L 17.0781 -3.983999999999998 L 17.0781 0.0004000000000017323 L 2.578099999999999 0.0004000000000017323 z" stroke-linecap="round" />
</g>
		<g transform="matrix(1.3333333333 0 0 1.3333333333 74.3958826667 381.80204)" id="WzuaxS0ZKTxUdNhKMjPLQ"  >
<path style="stroke: none; stroke-width: 1; stroke-dasharray: none; stroke-linecap: butt; stroke-dashoffset: 0; stroke-linejoin: miter; stroke-miterlimit: 4; fill: rgb(0,0,0); fill-rule: nonzero; opacity: 1;" vector-effect="non-scaling-stroke"  transform=" translate(-8.94535, 7.64847)" d="M 9.2188 -6.8906 C 8.1954 -6.8906 7.4258 -6.71872 6.9063 -6.37498 C 6.3945799999999995 -6.03123 6.14068 -5.51951 6.14068 -4.84378 C 6.14068 -4.21878 6.347709999999999 -3.72658 6.76568 -3.37498 C 7.17974 -3.03123 7.753959999999999 -2.8593599999999997 8.48448 -2.8593599999999997 C 9.41026 -2.8593599999999997 10.18758 -3.18748 10.81258 -3.8437399999999995 C 11.44539 -4.5078 11.7657 -5.335939999999999 11.7657 -6.328139999999999 L 11.7657 -6.890639999999999 z M 16.6876 -8.7344 L 16.6876 0 L 11.765699999999999 0 L 11.765699999999999 -2.2656 C 11.109449999999999 -1.3359100000000002 10.367299999999998 -0.6601000000000001 9.546899999999999 -0.23439999999999994 C 8.722679999999999 0.17966000000000004 7.722699999999999 0.39060000000000006 6.546899999999999 0.39060000000000006 C 4.9609999999999985 0.39060000000000006 3.675799999999999 -0.06642999999999993 2.687499999999999 -0.9843999999999999 C 1.6953099999999992 -1.91018 1.2030999999999992 -3.1132999999999997 1.2030999999999992 -4.5938 C 1.2030999999999992 -6.382899999999999 1.8163799999999992 -7.695399999999999 3.046899999999999 -8.5313 C 4.285199999999999 -9.37505 6.2265999999999995 -9.7969 8.875 -9.7969 L 11.7656 -9.7969 L 11.7656 -10.187520000000001 C 11.7656 -10.95705 11.457009999999999 -11.519520000000002 10.84372 -11.875020000000001 C 10.226529999999999 -12.2383 9.27342 -12.4219 7.984319999999999 -12.4219 C 6.92962 -12.4219 5.953119999999999 -12.31643 5.046819999999999 -12.1094 C 4.1483799999999995 -11.89846 3.3163199999999993 -11.58596 2.5468199999999994 -11.1719 L 2.5468199999999994 -14.906300000000002 C 3.5859199999999993 -15.156300000000002 4.632719999999999 -15.347710000000001 5.6874199999999995 -15.484420000000002 C 6.7499199999999995 -15.617230000000001 7.8124199999999995 -15.687540000000002 8.87492 -15.687540000000002 C 11.632719999999999 -15.687540000000002 13.62492 -15.140660000000002 14.84372 -14.046940000000003 C 16.07032 -12.961040000000002 16.68752 -11.191440000000004 16.68752 -8.734440000000003 z" stroke-linecap="round" />
</g>
		<g transform="matrix(1.3333333333 0 0 1.3333333333 96.4166533333 378.8962)" id="topRSTs9cNOASdAzQMvPD"  >
<path style="stroke: none; stroke-width: 1; stroke-dasharray: none; stroke-linecap: butt; stroke-dashoffset: 0; stroke-linejoin: miter; stroke-miterlimit: 4; fill: rgb(0,0,0); fill-rule: nonzero; opacity: 1;" vector-effect="non-scaling-stroke"  transform=" translate(-6.56249, 9.82785)" d="M 7.7031 -19.656 L 7.7031 -15.312199999999999 L 12.75 -15.312199999999999 L 12.75 -11.812199999999999 L 7.7031 -11.812199999999999 L 7.7031 -5.312199999999999 C 7.7031 -4.601259999999999 7.84372 -4.124699999999999 8.12498 -3.874699999999999 C 8.40624 -3.624699999999999 8.960920000000002 -3.499699999999999 9.796880000000002 -3.499699999999999 L 12.31248 -3.499699999999999 L 12.31248 0.0003000000000010772 L 8.12498 0.0003000000000010772 C 6.187480000000001 0.0003000000000010772 4.812480000000001 -0.39813999999999894 3.9999800000000008 -1.202799999999999 C 3.195290000000001 -2.015299999999999 2.7968800000000007 -3.382499999999999 2.7968800000000007 -5.312199999999999 L 2.7968800000000007 -11.812199999999999 L 0.37498000000000076 -11.812199999999999 L 0.37498000000000076 -15.312199999999999 L 2.7968800000000007 -15.312199999999999 L 2.7968800000000007 -19.656 z" stroke-linecap="round" />
</g>
		<g transform="matrix(1.3333333333 0 0 1.3333333333 117.5728826667 385.8238)" id="l7jtPXDaQXn3G-z5PIwbk"  >
<path style="stroke: none; stroke-width: 1; stroke-dasharray: none; stroke-linecap: butt; stroke-dashoffset: 0; stroke-linejoin: miter; stroke-miterlimit: 4; fill: rgb(0,0,0); fill-rule: nonzero; opacity: 1;" vector-effect="non-scaling-stroke"  transform=" translate(-9.04685, 4.63215)" d="M 0.34375 -15.312 L 5.23435 -15.312 L 9.35935 -4.920999999999999 L 12.85935 -15.312 L 17.74995 -15.312 L 11.312449999999998 1.4539999999999988 C 10.664009999999998 3.149299999999999 9.910149999999998 4.336799999999998 9.04685 5.016499999999999 C 8.179659999999998 5.703999999999999 7.046849999999999 6.047699999999999 5.640649999999999 6.047699999999999 L 2.796849999999999 6.047699999999999 L 2.796849999999999 2.828899999999999 L 4.328049999999999 2.828899999999999 C 5.160079999999999 2.828899999999999 5.765549999999999 2.692179999999999 6.140549999999999 2.422649999999999 C 6.523359999999999 2.160929999999999 6.820239999999999 1.6921799999999991 7.0311699999999995 1.0164499999999992 L 7.17179 0.5945699999999992 z" stroke-linecap="round" />
</g>
		<g transform="matrix(1.3333333333 0 0 1.3333333333 141.0412226667 381.8022733333)" id="mdutNMa_OKDiGBe000Bn0"  >
<path style="stroke: none; stroke-width: 1; stroke-dasharray: none; stroke-linecap: butt; stroke-dashoffset: 0; stroke-linejoin: miter; stroke-miterlimit: 4; fill: rgb(0,0,0); fill-rule: nonzero; opacity: 1;" vector-effect="non-scaling-stroke"  transform=" translate(-8.398105, 7.648295)" d="M 14.312 -14.828 L 14.312 -11.1092 C 13.269 -11.5467 12.257299999999999 -11.87482 11.2808 -12.09358 C 10.300329999999999 -12.31233 9.378499999999999 -12.4217 8.5152 -12.4217 C 7.58551 -12.4217 6.8941 -12.304509999999999 6.4371 -12.07795 C 5.98788 -11.84748 5.76522 -11.488109999999999 5.76522 -10.999849999999999 C 5.76522 -10.613129999999998 5.9371 -10.316259999999998 6.28084 -10.109229999999998 C 6.62459 -9.898289999999998 7.237870000000001 -9.742039999999998 8.124640000000001 -9.640479999999998 L 8.984020000000001 -9.515479999999998 C 11.49182 -9.191259999999998 13.17932 -8.66392 14.046520000000001 -7.937379999999998 C 14.9098 -7.206909999999999 15.343420000000002 -6.066279999999998 15.343420000000002 -4.515479999999998 C 15.343420000000002 -2.878779999999998 14.737950000000001 -1.6482799999999984 13.530920000000002 -0.8279799999999984 C 12.331720000000002 -0.015479999999998384 10.538720000000001 0.3908200000000017 8.155920000000002 0.3908200000000017 C 7.132520000000001 0.3908200000000017 6.0817200000000025 0.3126950000000017 4.999720000000002 0.15644000000000172 C 3.9255200000000015 0.00019000000000171657 2.8200200000000017 -0.23808999999999828 1.6872200000000017 -0.5623099999999983 L 1.6872200000000017 -4.281109999999998 C 2.6559700000000017 -3.8006399999999982 3.648120000000002 -3.441269999999998 4.671620000000002 -3.203009999999998 C 5.702820000000002 -2.972539999999998 6.749720000000002 -2.859259999999998 7.812220000000002 -2.859259999999998 C 8.769250000000001 -2.859259999999998 9.488020000000002 -2.988169999999998 9.968420000000002 -3.2498799999999983 C 10.444980000000001 -3.5194099999999984 10.687170000000002 -3.9139399999999984 10.687170000000002 -4.437379999999998 C 10.687170000000002 -4.874879999999998 10.519200000000001 -5.195189999999998 10.187170000000002 -5.406129999999998 C 9.851230000000001 -5.624879999999998 9.191080000000001 -5.788939999999998 8.202770000000001 -5.906129999999998 L 7.343390000000001 -6.015509999999998 C 5.163690000000001 -6.285039999999998 3.640290000000001 -6.788949999999998 2.765290000000001 -7.531109999999998 C 1.8902900000000011 -8.269389999999998 1.4527900000000011 -9.390509999999999 1.4527900000000011 -10.890509999999999 C 1.4527900000000011 -12.515509999999999 2.003570000000001 -13.718609999999998 3.1089900000000013 -14.49991 C 4.222290000000001 -15.288969999999999 5.929290000000002 -15.68741 8.233990000000002 -15.68741 C 9.128520000000002 -15.68741 10.069890000000003 -15.613191 11.062090000000001 -15.46866 C 12.062090000000001 -15.33194 13.144090000000002 -15.1171 14.312090000000001 -14.82804 z" stroke-linecap="round" />
</g>
		<g transform="matrix(1.3333333333 0 0 1.3333333333 165.4739746667 377.8126)" id="NNBqaBq6GBXXQOujYzKi6"  >
<path style="stroke: none; stroke-width: 1; stroke-dasharray: none; stroke-linecap: butt; stroke-dashoffset: 0; stroke-linejoin: miter; stroke-miterlimit: 4; fill: rgb(0,0,0); fill-rule: nonzero; opacity: 1;" vector-effect="non-scaling-stroke"  transform=" translate(-10.0547, 10.64055)" d="M 17.75 -9.3281 L 17.75 0 L 12.8281 0 L 12.8281 -7.1094 C 12.8281 -8.4532 12.79685 -9.375 12.73435 -9.875 C 12.67185 -10.375 12.566379999999999 -10.74219 12.42185 -10.9844 C 12.23435 -11.2969 11.972629999999999 -11.539090000000002 11.6406 -11.71878 C 11.316379999999999 -11.89456 10.94529 -11.9844 10.531199999999998 -11.9844 C 9.507799999999998 -11.9844 8.706999999999999 -11.58596 8.124999999999998 -10.7969 C 7.539059999999998 -10.01565 7.249999999999998 -8.9258 7.249999999999998 -7.531300000000001 L 7.249999999999998 -0.00010000000000065512 L 2.359399999999998 -0.00010000000000065512 L 2.359399999999998 -21.2811 L 7.249999999999998 -21.2811 L 7.249999999999998 -13.078 C 7.988279999999998 -13.960809999999999 8.769499999999999 -14.617099999999999 9.593799999999998 -15.0468 C 10.425829999999998 -15.472579999999999 11.343799999999998 -15.68742 12.343799999999998 -15.68742 C 14.113299999999999 -15.68742 15.457099999999999 -15.14054 16.375 -14.04682 C 17.28906 -12.96092 17.75 -11.39062 17.75 -9.32802 z" stroke-linecap="round" />
</g>
		<g transform="matrix(1.3333333333 0 0 1.3333333333 191.2087666667 381.8020533333)" id="gn5kxqRpz7KA1fHWmW-vH"  >
<path style="stroke: none; stroke-width: 1; stroke-dasharray: none; stroke-linecap: butt; stroke-dashoffset: 0; stroke-linejoin: miter; stroke-miterlimit: 4; fill: rgb(0,0,0); fill-rule: nonzero; opacity: 1;" vector-effect="non-scaling-stroke"  transform=" translate(-9.4222, 7.64846)" d="M 17.641 -7.7031 L 17.641 -6.2969 L 6.187999999999999 -6.2969 C 6.312999999999999 -5.1485 6.727059999999999 -4.2890999999999995 7.437999999999999 -3.7188 C 8.145029999999998 -3.14458 9.141099999999998 -2.85942 10.4224 -2.85942 C 11.4536 -2.85942 12.5044 -3.00786 13.5786 -3.3125400000000003 C 14.6606 -3.6250400000000003 15.77 -4.08598 16.9067 -4.70314 L 16.9067 -0.9375400000000003 C 15.7505 -0.5000400000000003 14.5942 -0.1719200000000003 13.4379 0.04683999999999977 C 12.2817 0.27339999999999975 11.1254 0.39058999999999977 9.969100000000001 0.39058999999999977 C 7.1957 0.39058999999999977 5.0394000000000005 -0.3125300000000002 3.500300000000001 -1.7188100000000002 C 1.9691000000000012 -3.12501 1.2034000000000011 -5.09771 1.2034000000000011 -7.64071 C 1.2034000000000011 -10.14071 1.957310000000001 -12.10161 3.469000000000001 -13.531310000000001 C 4.976800000000001 -14.968810000000001 7.051000000000001 -15.687510000000001 9.687800000000001 -15.687510000000001 C 12.094000000000001 -15.687510000000001 14.0198 -14.957040000000001 15.469000000000001 -13.500010000000001 C 16.9143 -12.050810000000002 17.640900000000002 -10.117210000000002 17.640900000000002 -7.7031100000000015 z M 12.609799999999998 -9.3281 C 12.609799999999998 -10.253879999999999 12.336359999999997 -11 11.797299999999998 -11.5625 C 11.254329999999998 -12.13281 10.547299999999998 -12.42188 9.672299999999998 -12.42188 C 8.723079999999998 -12.42188 7.953499999999998 -12.15626 7.359799999999998 -11.625 C 6.766099999999998 -11.09374 6.394959999999998 -10.3281 6.250399999999998 -9.3281 z" stroke-linecap="round" />
</g>
		<g transform="matrix(1.3333333333 0 0 1.3333333333 216.1457893333 381.792)" id="BEhhc5a8lbw0QGjrZ1C1j"  >
<path style="stroke: none; stroke-width: 1; stroke-dasharray: none; stroke-linecap: butt; stroke-dashoffset: 0; stroke-linejoin: miter; stroke-miterlimit: 4; fill: rgb(0,0,0); fill-rule: nonzero; opacity: 1;" vector-effect="non-scaling-stroke"  transform=" translate(-9.13278, 7.656)" d="M 0.42188 -15.312 L 5.31248 -15.312 L 9.14058 -4.734 L 12.93748 -15.312 L 17.84368 -15.312 L 11.812479999999999 0 L 6.437479999999999 0 z" stroke-linecap="round" />
</g>
		<g transform="matrix(1.3333333333 0 0 1.3333333333 240.229216 381.80204)" id="0tQfucM91OnQmnlvQmQ3H"  >
<path style="stroke: none; stroke-width: 1; stroke-dasharray: none; stroke-linecap: butt; stroke-dashoffset: 0; stroke-linejoin: miter; stroke-miterlimit: 4; fill: rgb(0,0,0); fill-rule: nonzero; opacity: 1;" vector-effect="non-scaling-stroke"  transform=" translate(-8.94535, 7.64847)" d="M 9.2188 -6.8906 C 8.1954 -6.8906 7.4258 -6.71872 6.9063 -6.37498 C 6.3945799999999995 -6.03123 6.14068 -5.51951 6.14068 -4.84378 C 6.14068 -4.21878 6.347709999999999 -3.72658 6.76568 -3.37498 C 7.17974 -3.03123 7.753959999999999 -2.8593599999999997 8.48448 -2.8593599999999997 C 9.41026 -2.8593599999999997 10.18758 -3.18748 10.81258 -3.8437399999999995 C 11.44539 -4.5078 11.7657 -5.335939999999999 11.7657 -6.328139999999999 L 11.7657 -6.890639999999999 z M 16.6876 -8.7344 L 16.6876 0 L 11.765699999999999 0 L 11.765699999999999 -2.2656 C 11.109449999999999 -1.3359100000000002 10.367299999999998 -0.6601000000000001 9.546899999999999 -0.23439999999999994 C 8.722679999999999 0.17966000000000004 7.722699999999999 0.39060000000000006 6.546899999999999 0.39060000000000006 C 4.9609999999999985 0.39060000000000006 3.675799999999999 -0.06642999999999993 2.687499999999999 -0.9843999999999999 C 1.6953099999999992 -1.91018 1.2030999999999992 -3.1132999999999997 1.2030999999999992 -4.5938 C 1.2030999999999992 -6.382899999999999 1.8163799999999992 -7.695399999999999 3.046899999999999 -8.5313 C 4.285199999999999 -9.37505 6.2265999999999995 -9.7969 8.875 -9.7969 L 11.7656 -9.7969 L 11.7656 -10.187520000000001 C 11.7656 -10.95705 11.457009999999999 -11.519520000000002 10.84372 -11.875020000000001 C 10.226529999999999 -12.2383 9.27342 -12.4219 7.984319999999999 -12.4219 C 6.92962 -12.4219 5.953119999999999 -12.31643 5.046819999999999 -12.1094 C 4.1483799999999995 -11.89846 3.3163199999999993 -11.58596 2.5468199999999994 -11.1719 L 2.5468199999999994 -14.906300000000002 C 3.5859199999999993 -15.156300000000002 4.632719999999999 -15.347710000000001 5.6874199999999995 -15.484420000000002 C 6.7499199999999995 -15.617230000000001 7.8124199999999995 -15.687540000000002 8.87492 -15.687540000000002 C 11.632719999999999 -15.687540000000002 13.62492 -15.140660000000002 14.84372 -14.046940000000003 C 16.07032 -12.961040000000002 16.68752 -11.191440000000004 16.68752 -8.734440000000003 z" stroke-linecap="round" />
</g>
		<g transform="matrix(1.3333333333 0 0 1.3333333333 -364.6977 415.1458666667)" id="X1PQMVGzlt9wKL2Tudg7L"  >
<path style="stroke: none; stroke-width: 1; stroke-dasharray: none; stroke-linecap: butt; stroke-dashoffset: 0; stroke-linejoin: miter; stroke-miterlimit: 4; fill: rgb(0,0,0); fill-rule: nonzero; opacity: 1;" vector-effect="non-scaling-stroke"  transform=" translate(-6.476725, 10.6406)" d="M 12.422 -21.281 L 12.422 -18.062199999999997 L 9.718900000000001 -18.062199999999997 C 9.031400000000001 -18.062199999999997 8.547 -17.937199999999997 8.265800000000002 -17.687199999999997 C 7.992360000000002 -17.437199999999997 7.859550000000002 -16.999699999999997 7.859550000000002 -16.374699999999997 L 7.859550000000002 -15.312199999999997 L 12.047050000000002 -15.312199999999997 L 12.047050000000002 -11.812199999999997 L 7.859550000000002 -11.812199999999997 L 7.859550000000002 -0.00019999999999775753 L 2.968950000000002 -0.00019999999999775753 L 2.968950000000002 -11.812199999999997 L 0.5314500000000022 -11.812199999999997 L 0.5314500000000022 -15.312199999999997 L 2.968950000000002 -15.312199999999997 L 2.968950000000002 -16.374699999999997 C 2.968950000000002 -18.0388 3.429890000000002 -19.273099999999996 4.359550000000002 -20.077799999999996 C 5.285330000000002 -20.878579999999996 6.726750000000003 -21.280899999999995 8.687650000000001 -21.280899999999995 z" stroke-linecap="round" />
</g>
		<g transform="matrix(1.3333333333 0 0 1.3333333333 -346.359808 418.8748533333)" id="GKfeHJe4tGKXag949zOy8"  >
<path style="stroke: none; stroke-width: 1; stroke-dasharray: none; stroke-linecap: butt; stroke-dashoffset: 0; stroke-linejoin: miter; stroke-miterlimit: 4; fill: rgb(0,0,0); fill-rule: nonzero; opacity: 1;" vector-effect="non-scaling-stroke"  transform=" translate(-8.04655, 7.84386)" d="M 13.734 -11.141 C 13.2965 -11.33631 12.86291 -11.48475 12.437100000000001 -11.5785 C 12.01913 -11.68006 11.59726 -11.73475 11.171500000000002 -11.73475 C 9.909800000000002 -11.73475 8.941000000000003 -11.3285 8.265300000000002 -10.51595 C 7.585610000000002 -9.71126 7.249700000000002 -8.562850000000001 7.249700000000002 -7.06285 L 7.249700000000002 -0.0003500000000000725 L 2.3591000000000015 -0.0003500000000000725 L 2.3591000000000015 -15.312349999999999 L 7.249700000000002 -15.312349999999999 L 7.249700000000002 -12.79675 C 7.874700000000002 -13.79675 8.593500000000002 -14.523349999999999 9.405900000000003 -14.98425 C 10.226210000000002 -15.453 11.206700000000003 -15.68737 12.343400000000003 -15.68737 C 12.507460000000002 -15.68737 12.687150000000003 -15.675651 12.874650000000003 -15.65612 C 13.069960000000002 -15.644401 13.351210000000002 -15.617058 13.718400000000003 -15.577995 z" stroke-linecap="round" />
</g>
		<g transform="matrix(1.3333333333 0 0 1.3333333333 -325.8541493333 419.1346666667)" id="bgZY1UpPKJlHE5xSNULXO"  >
<path style="stroke: none; stroke-width: 1; stroke-dasharray: none; stroke-linecap: butt; stroke-dashoffset: 0; stroke-linejoin: miter; stroke-miterlimit: 4; fill: rgb(0,0,0); fill-rule: nonzero; opacity: 1;" vector-effect="non-scaling-stroke"  transform=" translate(-9.6172, 7.649)" d="M 9.6406 -12.188 C 8.554699999999999 -12.188 7.7265 -11.79738 7.156199999999999 -11.016100000000002 C 6.58198 -10.234850000000002 6.296819999999999 -9.109900000000001 6.296819999999999 -7.641100000000002 C 6.296819999999999 -6.172300000000002 6.58198 -5.047300000000002 7.156199999999999 -4.266100000000002 C 7.726509999999999 -3.4926600000000017 8.554599999999999 -3.1099000000000014 9.6406 -3.1099000000000014 C 10.7031 -3.1099000000000014 11.5156 -3.4927100000000015 12.0781 -4.266100000000002 C 12.648409999999998 -5.047350000000002 12.937479999999999 -6.172300000000002 12.937479999999999 -7.641100000000002 C 12.937479999999999 -9.109900000000001 12.64842 -10.234900000000001 12.0781 -11.016100000000002 C 11.5156 -11.797350000000002 10.7031 -12.188000000000002 9.6406 -12.188000000000002 z M 9.6406 -15.688 C 12.273399999999999 -15.688 14.331999999999999 -14.97316 15.8125 -13.5474 C 17.2891 -12.1294 18.0313 -10.1607 18.0313 -7.6411999999999995 C 18.0313 -5.1295 17.28911 -3.1606999999999994 15.812500000000002 -1.7349999999999994 C 14.332000000000003 -0.3169999999999995 12.273400000000002 0.39000000000000057 9.640600000000003 0.39000000000000057 C 6.992200000000002 0.39000000000000057 4.925800000000002 -0.3170299999999995 3.4375000000000027 -1.7349999999999994 C 1.9453000000000027 -3.160799999999999 1.2031000000000027 -5.129499999999999 1.2031000000000027 -7.6411999999999995 C 1.2031000000000027 -10.160699999999999 1.9452900000000026 -12.1295 3.4375000000000027 -13.5474 C 4.925800000000002 -14.9732 6.992200000000002 -15.687999999999999 9.640600000000003 -15.687999999999999 z" stroke-linecap="round" />
</g>
		<g transform="matrix(1.3333333333 0 0 1.3333333333 -293.499934 418.8744666667)" id="d8fmP7Xwy5OV4G5qPxyj3"  >
<path style="stroke: none; stroke-width: 1; stroke-dasharray: none; stroke-linecap: butt; stroke-dashoffset: 0; stroke-linejoin: miter; stroke-miterlimit: 4; fill: rgb(0,0,0); fill-rule: nonzero; opacity: 1;" vector-effect="non-scaling-stroke"  transform=" translate(-14.6484875, 7.84415)" d="M 16.547 -12.766 C 17.16028 -13.71131 17.8947 -14.437899999999999 18.7501 -14.937899999999999 C 19.60166 -15.437899999999999 20.5392 -15.687899999999999 21.5626 -15.687899999999999 C 23.3204 -15.687899999999999 24.6603 -15.14102 25.5782 -14.0473 C 26.50398 -12.9614 26.968799999999998 -11.3911 26.968799999999998 -9.3285 L 26.968799999999998 -0.0004000000000008441 L 22.046899999999997 -0.0004000000000008441 L 22.046899999999997 -7.984800000000001 L 22.046899999999997 -8.344180000000001 C 22.054712999999996 -8.47699 22.062524999999997 -8.66449 22.062524999999997 -8.906680000000001 C 22.062524999999997 -9.988680000000002 21.898464999999998 -10.769980000000002 21.578144999999996 -11.250480000000001 C 21.265644999999996 -11.738760000000001 20.753924999999995 -11.984860000000001 20.046944999999997 -11.984860000000001 C 19.117254999999997 -11.984860000000001 18.398545 -11.59814 17.890744999999995 -10.828660000000001 C 17.379024999999995 -10.06694 17.117304999999995 -8.96146 17.109494999999995 -7.516160000000001 L 17.109494999999995 -0.0005600000000010041 L 12.187594999999995 -0.0005600000000010041 L 12.187594999999995 -7.984960000000001 C 12.187594999999995 -9.68026 12.039154999999994 -10.77016 11.750094999999995 -11.25056 C 11.457124999999994 -11.73884 10.937594999999995 -11.98494 10.187594999999995 -11.98494 C 9.250094999999995 -11.98494 8.523494999999995 -11.59822 8.015694999999994 -10.82874 C 7.503974999999993 -10.06702 7.250074999999994 -8.969339999999999 7.250074999999994 -7.53184 L 7.250074999999994 -0.0006399999999997519 L 2.3281749999999937 -0.0006399999999997519 L 2.3281749999999937 -15.312639999999998 L 7.250074999999994 -15.312639999999998 L 7.250074999999994 -13.078239999999997 C 7.851634999999994 -13.941519999999997 8.539174999999993 -14.593839999999997 9.312574999999994 -15.031339999999997 C 10.093824999999994 -15.468839999999997 10.953174999999995 -15.687589999999997 11.890674999999995 -15.687589999999997 C 12.953174999999995 -15.687589999999997 13.890674999999995 -15.429779999999997 14.703174999999995 -14.921969999999996 C 15.515674999999995 -14.410249999999996 16.128974999999993 -13.691469999999997 16.546974999999996 -12.765769999999996 z" stroke-linecap="round" />
</g>
		<g transform="matrix(1.3333333333 0 0 1.3333333333 -252.3802213333 416.2295333333)" id="P881pIlsS5xJoLo9qfIFI"  >
<path style="stroke: none; stroke-width: 1; stroke-dasharray: none; stroke-linecap: butt; stroke-dashoffset: 0; stroke-linejoin: miter; stroke-miterlimit: 4; fill: rgb(0,0,0); fill-rule: nonzero; opacity: 1;" vector-effect="non-scaling-stroke"  transform=" translate(-6.56249, 9.82785)" d="M 7.7031 -19.656 L 7.7031 -15.312199999999999 L 12.75 -15.312199999999999 L 12.75 -11.812199999999999 L 7.7031 -11.812199999999999 L 7.7031 -5.312199999999999 C 7.7031 -4.601259999999999 7.84372 -4.124699999999999 8.12498 -3.874699999999999 C 8.40624 -3.624699999999999 8.960920000000002 -3.499699999999999 9.796880000000002 -3.499699999999999 L 12.31248 -3.499699999999999 L 12.31248 0.0003000000000010772 L 8.12498 0.0003000000000010772 C 6.187480000000001 0.0003000000000010772 4.812480000000001 -0.39813999999999894 3.9999800000000008 -1.202799999999999 C 3.195290000000001 -2.015299999999999 2.7968800000000007 -3.382499999999999 2.7968800000000007 -5.312199999999999 L 2.7968800000000007 -11.812199999999999 L 0.37498000000000076 -11.812199999999999 L 0.37498000000000076 -15.312199999999999 L 2.7968800000000007 -15.312199999999999 L 2.7968800000000007 -19.656 z" stroke-linecap="round" />
</g>
		<g transform="matrix(1.3333333333 0 0 1.3333333333 -229.880192 415.1459333333)" id="eGFKlgX-Q8Fnaw2pkmft0"  >
<path style="stroke: none; stroke-width: 1; stroke-dasharray: none; stroke-linecap: butt; stroke-dashoffset: 0; stroke-linejoin: miter; stroke-miterlimit: 4; fill: rgb(0,0,0); fill-rule: nonzero; opacity: 1;" vector-effect="non-scaling-stroke"  transform=" translate(-10.0547, 10.64055)" d="M 17.75 -9.3281 L 17.75 0 L 12.8281 0 L 12.8281 -7.1094 C 12.8281 -8.4532 12.79685 -9.375 12.73435 -9.875 C 12.67185 -10.375 12.566379999999999 -10.74219 12.42185 -10.9844 C 12.23435 -11.2969 11.972629999999999 -11.539090000000002 11.6406 -11.71878 C 11.316379999999999 -11.89456 10.94529 -11.9844 10.531199999999998 -11.9844 C 9.507799999999998 -11.9844 8.706999999999999 -11.58596 8.124999999999998 -10.7969 C 7.539059999999998 -10.01565 7.249999999999998 -8.9258 7.249999999999998 -7.531300000000001 L 7.249999999999998 -0.00010000000000065512 L 2.359399999999998 -0.00010000000000065512 L 2.359399999999998 -21.2811 L 7.249999999999998 -21.2811 L 7.249999999999998 -13.078 C 7.988279999999998 -13.960809999999999 8.769499999999999 -14.617099999999999 9.593799999999998 -15.0468 C 10.425829999999998 -15.472579999999999 11.343799999999998 -15.68742 12.343799999999998 -15.68742 C 14.113299999999999 -15.68742 15.457099999999999 -15.14054 16.375 -14.04682 C 17.28906 -12.96092 17.75 -11.39062 17.75 -9.32802 z" stroke-linecap="round" />
</g>
		<g transform="matrix(1.3333333333 0 0 1.3333333333 -204.1454 419.1353866667)" id="kCS7wFiCIpS1G1co75YlH"  >
<path style="stroke: none; stroke-width: 1; stroke-dasharray: none; stroke-linecap: butt; stroke-dashoffset: 0; stroke-linejoin: miter; stroke-miterlimit: 4; fill: rgb(0,0,0); fill-rule: nonzero; opacity: 1;" vector-effect="non-scaling-stroke"  transform=" translate(-9.4222, 7.64846)" d="M 17.641 -7.7031 L 17.641 -6.2969 L 6.187999999999999 -6.2969 C 6.312999999999999 -5.1485 6.727059999999999 -4.2890999999999995 7.437999999999999 -3.7188 C 8.145029999999998 -3.14458 9.141099999999998 -2.85942 10.4224 -2.85942 C 11.4536 -2.85942 12.5044 -3.00786 13.5786 -3.3125400000000003 C 14.6606 -3.6250400000000003 15.77 -4.08598 16.9067 -4.70314 L 16.9067 -0.9375400000000003 C 15.7505 -0.5000400000000003 14.5942 -0.1719200000000003 13.4379 0.04683999999999977 C 12.2817 0.27339999999999975 11.1254 0.39058999999999977 9.969100000000001 0.39058999999999977 C 7.1957 0.39058999999999977 5.0394000000000005 -0.3125300000000002 3.500300000000001 -1.7188100000000002 C 1.9691000000000012 -3.12501 1.2034000000000011 -5.09771 1.2034000000000011 -7.64071 C 1.2034000000000011 -10.14071 1.957310000000001 -12.10161 3.469000000000001 -13.531310000000001 C 4.976800000000001 -14.968810000000001 7.051000000000001 -15.687510000000001 9.687800000000001 -15.687510000000001 C 12.094000000000001 -15.687510000000001 14.0198 -14.957040000000001 15.469000000000001 -13.500010000000001 C 16.9143 -12.050810000000002 17.640900000000002 -10.117210000000002 17.640900000000002 -7.7031100000000015 z M 12.609799999999998 -9.3281 C 12.609799999999998 -10.253879999999999 12.336359999999997 -11 11.797299999999998 -11.5625 C 11.254329999999998 -12.13281 10.547299999999998 -12.42188 9.672299999999998 -12.42188 C 8.723079999999998 -12.42188 7.953499999999998 -12.15626 7.359799999999998 -11.625 C 6.766099999999998 -11.09374 6.394959999999998 -10.3281 6.250399999999998 -9.3281 z" stroke-linecap="round" />
</g>
		<g transform="matrix(1.3333333333 0 0 1.3333333333 -162.7656253333 415.7293333333)" id="p1zQpYBRyOS6y1JDdPuKG"  >
<path style="stroke: none; stroke-width: 1; stroke-dasharray: none; stroke-linecap: butt; stroke-dashoffset: 0; stroke-linejoin: miter; stroke-miterlimit: 4; fill: rgb(0,0,0); fill-rule: nonzero; opacity: 1;" vector-effect="non-scaling-stroke"  transform=" translate(-11.71875, 10.203)" d="M 2.5781 -20.406 L 8.4531 -20.406 L 15.875 -6.405999999999999 L 15.875 -20.406 L 20.8594 -20.406 L 20.8594 0 L 14.9844 0 L 7.562500000000001 -14 L 7.562500000000001 0 L 2.578100000000001 0 z" stroke-linecap="round" />
</g>
		<g transform="matrix(1.3333333333 0 0 1.3333333333 -134.3229 419.1346666667)" id="BKtZ5ZiYyt2rnjsmuGEpT"  >
<path style="stroke: none; stroke-width: 1; stroke-dasharray: none; stroke-linecap: butt; stroke-dashoffset: 0; stroke-linejoin: miter; stroke-miterlimit: 4; fill: rgb(0,0,0); fill-rule: nonzero; opacity: 1;" vector-effect="non-scaling-stroke"  transform=" translate(-9.6172, 7.649)" d="M 9.6406 -12.188 C 8.554699999999999 -12.188 7.7265 -11.79738 7.156199999999999 -11.016100000000002 C 6.58198 -10.234850000000002 6.296819999999999 -9.109900000000001 6.296819999999999 -7.641100000000002 C 6.296819999999999 -6.172300000000002 6.58198 -5.047300000000002 7.156199999999999 -4.266100000000002 C 7.726509999999999 -3.4926600000000017 8.554599999999999 -3.1099000000000014 9.6406 -3.1099000000000014 C 10.7031 -3.1099000000000014 11.5156 -3.4927100000000015 12.0781 -4.266100000000002 C 12.648409999999998 -5.047350000000002 12.937479999999999 -6.172300000000002 12.937479999999999 -7.641100000000002 C 12.937479999999999 -9.109900000000001 12.64842 -10.234900000000001 12.0781 -11.016100000000002 C 11.5156 -11.797350000000002 10.7031 -12.188000000000002 9.6406 -12.188000000000002 z M 9.6406 -15.688 C 12.273399999999999 -15.688 14.331999999999999 -14.97316 15.8125 -13.5474 C 17.2891 -12.1294 18.0313 -10.1607 18.0313 -7.6411999999999995 C 18.0313 -5.1295 17.28911 -3.1606999999999994 15.812500000000002 -1.7349999999999994 C 14.332000000000003 -0.3169999999999995 12.273400000000002 0.39000000000000057 9.640600000000003 0.39000000000000057 C 6.992200000000002 0.39000000000000057 4.925800000000002 -0.3170299999999995 3.4375000000000027 -1.7349999999999994 C 1.9453000000000027 -3.160799999999999 1.2031000000000027 -5.129499999999999 1.2031000000000027 -7.6411999999999995 C 1.2031000000000027 -10.160699999999999 1.9452900000000026 -12.1295 3.4375000000000027 -13.5474 C 4.925800000000002 -14.9732 6.992200000000002 -15.687999999999999 9.640600000000003 -15.687999999999999 z" stroke-linecap="round" />
</g>
		<g transform="matrix(1.3333333333 0 0 1.3333333333 -108.3177253333 419.3849333333)" id="FSi4K1PsO1I4DIwcetXw7"  >
<path style="stroke: none; stroke-width: 1; stroke-dasharray: none; stroke-linecap: butt; stroke-dashoffset: 0; stroke-linejoin: miter; stroke-miterlimit: 4; fill: rgb(0,0,0); fill-rule: nonzero; opacity: 1;" vector-effect="non-scaling-stroke"  transform=" translate(-9.8828, 7.4613)" d="M 2.1875 -5.9688 L 2.1875 -15.3126 L 7.1094 -15.3126 L 7.1094 -13.7814 C 7.1094 -12.945459999999999 7.101587 -11.9064 7.093775 -10.6564 C 7.082056 -9.4064 7.07815 -8.5705 7.07815 -8.1564 C 7.07815 -6.914199999999999 7.1094 -6.0236 7.1719 -5.4845 C 7.242213 -4.94153 7.35159 -4.55091 7.50002 -4.3126 C 7.70705 -3.98838 7.97268 -3.73838 8.2969 -3.5625999999999998 C 8.61721 -3.39463 8.98831 -3.3125999999999998 9.406300000000002 -3.3125999999999998 C 10.425800000000002 -3.3125999999999998 11.226600000000001 -3.70322 11.812500000000002 -4.4845 C 12.394530000000001 -5.26575 12.687500000000002 -6.351699999999999 12.687500000000002 -7.7501 L 12.687500000000002 -15.3126 L 17.578100000000003 -15.3126 L 17.578100000000003 -0.000600000000000378 L 12.687500000000004 -0.000600000000000378 L 12.687500000000004 -2.2194000000000003 C 11.945310000000003 -1.3209600000000004 11.164100000000003 -0.6608000000000003 10.343700000000004 -0.23500000000000032 C 9.519480000000003 0.17905999999999966 8.609300000000005 0.3899999999999997 7.609300000000004 0.3899999999999997 C 5.8476000000000035 0.3899999999999997 4.503800000000004 -0.1490600000000003 3.5781000000000036 -1.2350000000000003 C 2.6484100000000037 -2.317 2.1875000000000036 -3.8952000000000004 2.1875000000000036 -5.9694 z" stroke-linecap="round" />
</g>
		<g transform="matrix(1.3333333333 0 0 1.3333333333 -81.5104 418.8752533333)" id="psCwRv14jgwL_rHVCfrIJ"  >
<path style="stroke: none; stroke-width: 1; stroke-dasharray: none; stroke-linecap: butt; stroke-dashoffset: 0; stroke-linejoin: miter; stroke-miterlimit: 4; fill: rgb(0,0,0); fill-rule: nonzero; opacity: 1;" vector-effect="non-scaling-stroke"  transform=" translate(-10.0547, 7.84356)" d="M 17.75 -9.3281 L 17.75 0 L 12.8281 0 L 12.8281 -7.1406 C 12.8281 -8.4609 12.79685 -9.375 12.73435 -9.875 C 12.67185 -10.375 12.566379999999999 -10.74219 12.42185 -10.9844 C 12.23435 -11.2969 11.972629999999999 -11.539090000000002 11.6406 -11.71878 C 11.316379999999999 -11.89456 10.94529 -11.9844 10.531199999999998 -11.9844 C 9.507799999999998 -11.9844 8.706999999999999 -11.58596 8.124999999999998 -10.7969 C 7.539059999999998 -10.01565 7.249999999999998 -8.9258 7.249999999999998 -7.531300000000001 L 7.249999999999998 -0.00010000000000065512 L 2.359399999999998 -0.00010000000000065512 L 2.359399999999998 -15.312100000000001 L 7.249999999999998 -15.312100000000001 L 7.249999999999998 -13.0777 C 7.988279999999998 -13.96051 8.769499999999999 -14.6168 9.593799999999998 -15.0465 C 10.425829999999998 -15.47228 11.343799999999998 -15.68712 12.343799999999998 -15.68712 C 14.113299999999999 -15.68712 15.457099999999999 -15.14024 16.375 -14.046520000000001 C 17.28906 -12.96062 17.75 -11.390320000000001 17.75 -9.327720000000001 z" stroke-linecap="round" />
</g>
		<g transform="matrix(1.3333333333 0 0 1.3333333333 -40.7082826667 415.7295333333)" id="9apVM3Ekyh1-fDdQ3KT1B"  >
<path style="stroke: none; stroke-width: 1; stroke-dasharray: none; stroke-linecap: butt; stroke-dashoffset: 0; stroke-linejoin: miter; stroke-miterlimit: 4; fill: rgb(0,0,0); fill-rule: nonzero; opacity: 1;" vector-effect="non-scaling-stroke"  transform=" translate(-10.9766, 10.20285)" d="M 2.5781 -20.406 L 11.3125 -20.406 C 13.9063 -20.406 15.8945 -19.82788 17.2813 -18.671599999999998 C 18.675800000000002 -17.5232 19.375100000000003 -15.882499999999999 19.375100000000003 -13.749699999999997 C 19.375100000000003 -11.612999999999998 18.675880000000003 -9.968499999999997 17.2813 -8.812199999999997 C 15.894600000000002 -7.655999999999997 13.906300000000002 -7.077799999999997 11.312500000000002 -7.077799999999997 L 7.828100000000002 -7.077799999999997 L 7.828100000000002 0.00030000000000285354 L 2.578100000000002 0.00030000000000285354 z M 7.8281 -16.5935 L 7.8281 -10.8904 L 10.75 -10.8904 C 11.7695 -10.8904 12.5547 -11.1404 13.1094 -11.6404 C 13.6719 -12.1404 13.95315 -12.843499999999999 13.95315 -13.7498 C 13.95315 -14.66386 13.6719 -15.367 13.1094 -15.859200000000001 C 12.55471 -16.34748 11.7696 -16.593580000000003 10.75 -16.593580000000003 z" stroke-linecap="round" />
</g>
		<g transform="matrix(1.3333333333 0 0 1.3333333333 -17.2504333333 418.8748533333)" id="zBH6MwLXbgZ46AqNazgGY"  >
<path style="stroke: none; stroke-width: 1; stroke-dasharray: none; stroke-linecap: butt; stroke-dashoffset: 0; stroke-linejoin: miter; stroke-miterlimit: 4; fill: rgb(0,0,0); fill-rule: nonzero; opacity: 1;" vector-effect="non-scaling-stroke"  transform=" translate(-8.04655, 7.84386)" d="M 13.734 -11.141 C 13.2965 -11.33631 12.86291 -11.48475 12.437100000000001 -11.5785 C 12.01913 -11.68006 11.59726 -11.73475 11.171500000000002 -11.73475 C 9.909800000000002 -11.73475 8.941000000000003 -11.3285 8.265300000000002 -10.51595 C 7.585610000000002 -9.71126 7.249700000000002 -8.562850000000001 7.249700000000002 -7.06285 L 7.249700000000002 -0.0003500000000000725 L 2.3591000000000015 -0.0003500000000000725 L 2.3591000000000015 -15.312349999999999 L 7.249700000000002 -15.312349999999999 L 7.249700000000002 -12.79675 C 7.874700000000002 -13.79675 8.593500000000002 -14.523349999999999 9.405900000000003 -14.98425 C 10.226210000000002 -15.453 11.206700000000003 -15.68737 12.343400000000003 -15.68737 C 12.507460000000002 -15.68737 12.687150000000003 -15.675651 12.874650000000003 -15.65612 C 13.069960000000002 -15.644401 13.351210000000002 -15.617058 13.718400000000003 -15.577995 z" stroke-linecap="round" />
</g>
		<g transform="matrix(1.3333333333 0 0 1.3333333333 3.250016 419.1346666667)" id="SWnGD_Bhh97BLoAcOtUBu"  >
<path style="stroke: none; stroke-width: 1; stroke-dasharray: none; stroke-linecap: butt; stroke-dashoffset: 0; stroke-linejoin: miter; stroke-miterlimit: 4; fill: rgb(0,0,0); fill-rule: nonzero; opacity: 1;" vector-effect="non-scaling-stroke"  transform=" translate(-9.6172, 7.649)" d="M 9.6406 -12.188 C 8.554699999999999 -12.188 7.7265 -11.79738 7.156199999999999 -11.016100000000002 C 6.58198 -10.234850000000002 6.296819999999999 -9.109900000000001 6.296819999999999 -7.641100000000002 C 6.296819999999999 -6.172300000000002 6.58198 -5.047300000000002 7.156199999999999 -4.266100000000002 C 7.726509999999999 -3.4926600000000017 8.554599999999999 -3.1099000000000014 9.6406 -3.1099000000000014 C 10.7031 -3.1099000000000014 11.5156 -3.4927100000000015 12.0781 -4.266100000000002 C 12.648409999999998 -5.047350000000002 12.937479999999999 -6.172300000000002 12.937479999999999 -7.641100000000002 C 12.937479999999999 -9.109900000000001 12.64842 -10.234900000000001 12.0781 -11.016100000000002 C 11.5156 -11.797350000000002 10.7031 -12.188000000000002 9.6406 -12.188000000000002 z M 9.6406 -15.688 C 12.273399999999999 -15.688 14.331999999999999 -14.97316 15.8125 -13.5474 C 17.2891 -12.1294 18.0313 -10.1607 18.0313 -7.6411999999999995 C 18.0313 -5.1295 17.28911 -3.1606999999999994 15.812500000000002 -1.7349999999999994 C 14.332000000000003 -0.3169999999999995 12.273400000000002 0.39000000000000057 9.640600000000003 0.39000000000000057 C 6.992200000000002 0.39000000000000057 4.925800000000002 -0.3170299999999995 3.4375000000000027 -1.7349999999999994 C 1.9453000000000027 -3.160799999999999 1.2031000000000027 -5.129499999999999 1.2031000000000027 -7.6411999999999995 C 1.2031000000000027 -10.160699999999999 1.9452900000000026 -12.1295 3.4375000000000027 -13.5474 C 4.925800000000002 -14.9732 6.992200000000002 -15.687999999999999 9.640600000000003 -15.687999999999999 z" stroke-linecap="round" />
</g>
		<g transform="matrix(1.3333333333 0 0 1.3333333333 20.2864586667 419.1775333333)" id="OMbsHnqtz6XKS6SgaNq6n"  >
<path style="stroke: none; stroke-width: 1; stroke-dasharray: none; stroke-linecap: butt; stroke-dashoffset: 0; stroke-linejoin: miter; stroke-miterlimit: 4; fill: rgb(0,0,0); fill-rule: nonzero; opacity: 1;" vector-effect="non-scaling-stroke"  transform=" translate(-3.15625, 7.61685)" d="M 2.3594 -15.312 L 7.25 -15.312 L 7.25 -0.2809999999999988 C 7.25 1.7698000000000014 6.75391 3.336200000000001 5.7656 4.422100000000001 C 4.7851300000000005 5.504100000000001 3.3594 6.047100000000001 1.4844 6.047100000000001 L -0.9375 6.047100000000001 L -0.9375 2.8283000000000014 L -0.07811999999999997 2.8283000000000014 C 0.8476600000000001 2.8283000000000014 1.48438 2.6173600000000015 1.82808 2.2033000000000014 C 2.17964 1.7853300000000014 2.35933 0.9572000000000014 2.35933 -0.2810999999999986 z M 2.3594 -21.2808 L 7.25 -21.2808 L 7.25 -17.2808 L 2.3594 -17.2808 z" stroke-linecap="round" />
</g>
		<g transform="matrix(1.3333333333 0 0 1.3333333333 41.4379333333 419.1353866667)" id="XsjM5bZLgUQfcdDgD6uCW"  >
<path style="stroke: none; stroke-width: 1; stroke-dasharray: none; stroke-linecap: butt; stroke-dashoffset: 0; stroke-linejoin: miter; stroke-miterlimit: 4; fill: rgb(0,0,0); fill-rule: nonzero; opacity: 1;" vector-effect="non-scaling-stroke"  transform=" translate(-9.4222, 7.64846)" d="M 17.641 -7.7031 L 17.641 -6.2969 L 6.187999999999999 -6.2969 C 6.312999999999999 -5.1485 6.727059999999999 -4.2890999999999995 7.437999999999999 -3.7188 C 8.145029999999998 -3.14458 9.141099999999998 -2.85942 10.4224 -2.85942 C 11.4536 -2.85942 12.5044 -3.00786 13.5786 -3.3125400000000003 C 14.6606 -3.6250400000000003 15.77 -4.08598 16.9067 -4.70314 L 16.9067 -0.9375400000000003 C 15.7505 -0.5000400000000003 14.5942 -0.1719200000000003 13.4379 0.04683999999999977 C 12.2817 0.27339999999999975 11.1254 0.39058999999999977 9.969100000000001 0.39058999999999977 C 7.1957 0.39058999999999977 5.0394000000000005 -0.3125300000000002 3.500300000000001 -1.7188100000000002 C 1.9691000000000012 -3.12501 1.2034000000000011 -5.09771 1.2034000000000011 -7.64071 C 1.2034000000000011 -10.14071 1.957310000000001 -12.10161 3.469000000000001 -13.531310000000001 C 4.976800000000001 -14.968810000000001 7.051000000000001 -15.687510000000001 9.687800000000001 -15.687510000000001 C 12.094000000000001 -15.687510000000001 14.0198 -14.957040000000001 15.469000000000001 -13.500010000000001 C 16.9143 -12.050810000000002 17.640900000000002 -10.117210000000002 17.640900000000002 -7.7031100000000015 z M 12.609799999999998 -9.3281 C 12.609799999999998 -10.253879999999999 12.336359999999997 -11 11.797299999999998 -11.5625 C 11.254329999999998 -12.13281 10.547299999999998 -12.42188 9.672299999999998 -12.42188 C 8.723079999999998 -12.42188 7.953499999999998 -12.15626 7.359799999999998 -11.625 C 6.766099999999998 -11.09374 6.394959999999998 -10.3281 6.250399999999998 -9.3281 z" stroke-linecap="round" />
</g>
		<g transform="matrix(1.3333333333 0 0 1.3333333333 64.8128506667 419.1358133333)" id="ailfxzrdg3gE8rYOqxsgx"  >
<path style="stroke: none; stroke-width: 1; stroke-dasharray: none; stroke-linecap: butt; stroke-dashoffset: 0; stroke-linejoin: miter; stroke-miterlimit: 4; fill: rgb(0,0,0); fill-rule: nonzero; opacity: 1;" vector-effect="non-scaling-stroke"  transform=" translate(-7.9612, 7.64814)" d="M 14.719 -14.828 L 14.719 -10.843599999999999 C 14.06275 -11.300629999999998 13.3948 -11.640479999999998 12.719 -11.859199999999998 C 12.051029999999999 -12.077949999999998 11.3596 -12.187319999999998 10.640899999999998 -12.187319999999998 C 9.273699999999998 -12.187319999999998 8.207299999999998 -11.784979999999997 7.437799999999998 -10.984219999999997 C 6.676079999999999 -10.191249999999997 6.297199999999998 -9.078019999999997 6.297199999999998 -7.640419999999997 C 6.297199999999998 -6.210719999999997 6.676109999999999 -5.097419999999997 7.437799999999998 -4.296619999999997 C 8.207329999999999 -3.5036499999999973 9.273699999999998 -3.109119999999997 10.640899999999998 -3.109119999999997 C 11.398709999999998 -3.109119999999997 12.1253 -3.218499999999997 12.8128 -3.4372399999999974 C 13.5003 -3.6637999999999975 14.133099999999999 -4.003649999999998 14.719 -4.4528399999999975 L 14.719 -0.45283999999999747 C 13.957279999999999 -0.17158999999999747 13.1799 0.035440000000002525 12.390899999999998 0.17216000000000253 C 11.609649999999998 0.3166900000000025 10.816699999999999 0.39091000000000253 10.015899999999998 0.39091000000000253 C 7.254199999999999 0.39091000000000253 5.0939999999999985 -0.3161199999999975 3.5314999999999985 -1.7340899999999975 C 1.9767999999999986 -3.1481899999999974 1.2033999999999985 -5.116889999999998 1.2033999999999985 -7.640289999999998 C 1.2033999999999985 -10.171489999999999 1.9768399999999984 -12.144189999999998 3.5314999999999985 -13.562189999999998 C 5.0939999999999985 -14.976289999999997 7.254199999999999 -15.687189999999998 10.015899999999998 -15.687189999999998 C 10.816679999999998 -15.687189999999998 11.609699999999998 -15.612970999999998 12.390899999999998 -15.468439999999998 C 13.172149999999998 -15.331719999999997 13.945599999999999 -15.116879999999998 14.718999999999998 -14.827819999999997 z" stroke-linecap="round" />
</g>
		<g transform="matrix(1.3333333333 0 0 1.3333333333 85.072904 416.2295333333)" id="xCIXvqkTRKUNp6GtZS4CP"  >
<path style="stroke: none; stroke-width: 1; stroke-dasharray: none; stroke-linecap: butt; stroke-dashoffset: 0; stroke-linejoin: miter; stroke-miterlimit: 4; fill: rgb(0,0,0); fill-rule: nonzero; opacity: 1;" vector-effect="non-scaling-stroke"  transform=" translate(-6.56249, 9.82785)" d="M 7.7031 -19.656 L 7.7031 -15.312199999999999 L 12.75 -15.312199999999999 L 12.75 -11.812199999999999 L 7.7031 -11.812199999999999 L 7.7031 -5.312199999999999 C 7.7031 -4.601259999999999 7.84372 -4.124699999999999 8.12498 -3.874699999999999 C 8.40624 -3.624699999999999 8.960920000000002 -3.499699999999999 9.796880000000002 -3.499699999999999 L 12.31248 -3.499699999999999 L 12.31248 0.0003000000000010772 L 8.12498 0.0003000000000010772 C 6.187480000000001 0.0003000000000010772 4.812480000000001 -0.39813999999999894 3.9999800000000008 -1.202799999999999 C 3.195290000000001 -2.015299999999999 2.7968800000000007 -3.382499999999999 2.7968800000000007 -5.312199999999999 L 2.7968800000000007 -11.812199999999999 L 0.37498000000000076 -11.812199999999999 L 0.37498000000000076 -15.312199999999999 L 2.7968800000000007 -15.312199999999999 L 2.7968800000000007 -19.656 z" stroke-linecap="round" />
</g>
</g>
</g>
</svg>